<svg width="238" height="27" viewBox="0 0 238 27" fill="none" xmlns="http://www.w3.org/2000/svg">
<path d="M12.3845 0L24.4012 26.0795H20.5635L12.3845 7.67014L3.95095 26.0795H0.113281" fill="#FFFCF5"/>
<path d="M225.985 0L238.001 26.0795H234.164L225.98 7.67014L217.541 26.0795H213.703" fill="#FFFCF5"/>
<path d="M31.7773 22.5002H42.0077C42.6776 22.5002 43.2903 21.9342 43.7266 21.5603C44.1628 21.1864 44.5003 20.7398 44.734 20.2308C44.9469 19.7167 45.056 19.1611 45.056 18.5587C45.056 18.0342 44.9625 17.5876 44.7807 17.2085C44.5678 16.8086 44.2822 16.4659 43.9239 16.1699C43.5604 15.8531 43.119 15.5779 42.5997 15.3494C42.0492 15.1001 41.4832 14.8664 40.8911 14.6483L37.6974 13.5578C36.9133 13.2825 36.1655 12.971 35.454 12.6178C34.7218 12.2439 34.1038 11.7817 33.6001 11.2365C33.0964 10.6912 32.6913 10.0628 32.3901 9.36179C32.0785 8.63476 31.7929 7.94408 31.7929 6.98337C31.7929 6.02265 31.9487 5.32159 32.3486 4.4907C32.7484 3.65981 33.4599 2.59524 34.1506 1.99285C34.8828 1.40084 35.7656 0.928269 36.7938 0.575142C37.8376 0.211628 39.0165 0.00390625 40.2109 0.00390625H48.6496L48.6807 2.00323V2.83412L48.6496 3.58711H40.2109C39.5669 3.58711 38.9126 3.60269 38.3725 3.77406C37.848 3.94543 37.3858 4.18951 36.986 4.50628C36.5861 4.82306 36.2745 5.18657 36.0512 5.59682C35.8383 6.00707 35.7293 6.45368 35.7293 6.94702C35.7293 7.40401 35.8227 7.78829 36.0045 8.10507C36.1862 8.45819 36.4407 8.76458 36.7627 9.02424C37.0846 9.30985 37.4793 9.55912 37.9415 9.77723C38.4244 10.0057 38.9334 10.2134 39.4734 10.4108L42.5685 11.5013C43.3838 11.7973 44.168 12.1349 44.921 12.5088C45.6324 12.8931 46.2608 13.3656 46.806 13.9265C47.3773 14.4977 47.8291 15.1676 48.1614 15.9414C48.5042 16.7255 48.6755 17.6395 48.6755 18.6885C48.6755 19.7375 48.4626 20.7553 48.0316 21.6745C47.6006 22.5833 47.0138 23.383 46.2711 24.0633C45.5182 24.7436 44.599 25.2733 43.5136 25.6524C42.3867 26.0523 41.2287 26.0938 39.9616 26.0938C38.1129 26.0938 36.4926 26.0938 34.5556 26.0938H31.7877V24.432" fill="#FFFCF5"/>
<path d="M62.6979 25.5706V3.57801H56.0508V0H73.1827V0.61278V3.10544V3.57801H70.6277H66.5356V25.5238V26.0795H62.6979V25.5706Z" fill="#FFFCF5"/>
<path d="M99.125 26.0795H95.7132C94.6382 24.5268 93.449 22.6936 92.3845 21.1409C91.3199 19.5882 90.1359 17.968 89.0713 16.3945L84.3924 16.3685V26.0847H80.5547V0H81.0636L90.1514 0.0727027C91.0446 0.0727027 91.9119 0.135019 92.748 0.264846C93.61 0.405058 94.4097 0.649131 95.1524 0.997066C96.4506 1.62543 97.4892 2.57056 98.263 3.83247C99.0368 5.09438 99.473 6.5017 99.473 8.18425C99.473 9.38904 99.2445 10.5523 98.8758 11.539C98.5123 12.5256 98.0345 13.3721 97.4581 14.0784C96.8661 14.7846 96.1754 15.3455 95.3757 15.7505C94.8719 16.005 94.2851 16.2698 93.7658 16.3945C94.5967 17.781 99.0264 24.6982 99.8573 26.0847M84.3924 13.2942H88.7389C89.5335 13.2942 91.2264 13.315 91.5536 13.2942C91.9742 13.2682 92.4987 13.2215 93.0128 13.0813C93.3867 12.9774 93.7346 12.7853 94.0462 12.5049C94.389 12.2141 94.685 11.8661 94.9342 11.4611C95.1835 11.056 95.3757 10.5886 95.5211 10.0589C95.6665 9.52925 95.7392 8.98917 95.7392 8.43352C95.7392 7.37933 95.5314 6.5017 95.1108 5.80583C94.6902 5.10996 94.1293 4.57508 93.4179 4.20637C92.9765 3.98826 92.4987 3.80131 91.9638 3.739C91.2835 3.65591 91.0395 3.57801 90.0164 3.57801H84.3924V13.2942Z" fill="#FFFCF5"/>
<path d="M130.378 16.1567C130.493 15.5127 130.503 14.9519 130.503 14.3131C130.503 13.4251 130.456 12.4696 130.248 11.5972C129.89 10.0964 129.241 8.69424 128.306 7.38559C127.621 6.43007 126.78 5.56802 125.793 4.78906C125.492 5.25644 125.185 5.72381 124.889 6.19119C124.261 7.16229 124.287 8.40862 124.952 9.34337L124.962 9.35895C125.575 10.2262 125.985 11.1609 126.193 12.1684C126.4 13.1758 126.406 14.2041 126.208 15.2427C126.016 16.2813 125.59 17.3043 124.941 18.3014C124.292 19.2984 123.529 20.0982 122.651 20.7006C121.773 21.303 120.828 21.7184 119.816 21.9469C118.803 22.1754 117.775 22.191 116.726 21.9884H116.71C115.687 21.7859 114.654 22.3052 114.197 23.24C113.932 23.7852 113.651 24.3253 113.355 24.8602C114.311 25.3068 115.287 25.6288 116.279 25.8261C117.868 26.1377 119.421 26.1533 120.943 25.8677C122.464 25.582 123.877 25.0004 125.185 24.1124C126.494 23.2244 127.621 22.0612 128.561 20.6227C129.501 19.1842 130.103 17.6938 130.378 16.1515V16.1567Z" fill="#FFFCF5"/>
<path d="M113.19 20.5944C113.803 19.3636 113.704 17.8992 112.909 16.7879L112.899 16.7723C112.286 15.9051 111.876 14.9703 111.668 13.9629C111.461 12.9554 111.461 11.922 111.658 10.873C111.855 9.824 112.276 8.81136 112.915 7.82987C113.553 6.84839 114.327 6.03308 115.205 5.43068C116.082 4.82829 117.033 4.41804 118.051 4.19474C119.074 3.97144 120.102 3.96105 121.14 4.15319H121.161C122.371 4.38688 123.607 3.85719 124.272 2.81858C124.542 2.39794 124.812 1.9825 125.082 1.56705C123.945 0.969852 122.776 0.554407 121.582 0.315527C119.982 -0.00124911 118.424 -0.0168283 116.898 0.273983C115.371 0.564793 113.958 1.15161 112.655 2.02923C111.352 2.90686 110.23 4.06491 109.29 5.50858C108.35 6.94705 107.748 8.43746 107.472 9.9798C107.368 10.5666 107.244 11.1898 107.228 11.7662C107.207 12.7113 107.379 13.6097 107.597 14.5393C107.955 16.0401 108.604 17.4474 109.555 18.7612C110.36 19.8778 111.372 20.8748 112.587 21.7421C112.79 21.363 112.987 20.9839 113.18 20.5996L113.19 20.5944Z" fill="#FFFCF5"/>
<path d="M186.896 8.69317V26.0795H183.059V0.0571236L184.154 1.07496L202.491 17.3811V0H206.329V26.0795" fill="#FFFCF5"/>
<path d="M171.844 0H175.681V26.0795H171.844V0Z" fill="#FFFCF5"/>
<path d="M164.473 0L151.173 19.557L137.879 0V26.0795H141.717V11.7623L151.184 26.038L160.64 11.7623V26.0795H164.473V0Z" fill="#FFFCF5"/>
</svg>
