<svg width="389" height="65" viewBox="0 0 389 65" fill="none" xmlns="http://www.w3.org/2000/svg">
<path d="M58.5 0H6.5C2.91015 0 0 2.91015 0 6.5V58.5C0 62.0898 2.91015 65 6.5 65H58.5C62.0898 65 65 62.0898 65 58.5V6.5C65 2.91015 62.0898 0 58.5 0Z" fill="#FFFCF5"/>
<path d="M32.506 11.7656C36.172 11.7656 39.37 12.4871 42.1 13.9301C44.83 15.3731 46.936 17.5181 48.418 20.3651C49.939 23.1731 50.6995 26.5856 50.6995 30.6026V53.3006H43.0945V42.7706H21.8005V53.3006H14.3125V30.6026C14.3125 26.5856 15.0535 23.1731 16.5355 20.3651C18.0565 17.5181 20.182 15.3731 22.912 13.9301C25.642 12.4871 28.84 11.7656 32.506 11.7656ZM43.0945 36.3941V29.9006C43.0945 26.1176 42.1585 23.2706 40.2865 21.3596C38.4145 19.4096 35.8015 18.4346 32.4475 18.4346C29.0935 18.4346 26.4805 19.4096 24.6085 21.3596C22.7365 23.2706 21.8005 26.1176 21.8005 29.9006V36.3941H43.0945Z" fill="#1E1E1E"/>
<path d="M91.832 51.9995L106.028 15.5995H112.372L126.464 51.9995H119.444L111.644 31.3035C111.469 30.8875 111.228 30.231 110.916 29.3275C110.637 28.424 110.325 27.4555 109.98 26.4155C109.636 25.343 109.324 24.355 109.044 23.4515C108.765 22.5155 108.557 21.8395 108.42 21.4235L109.72 21.3715C109.512 22.067 109.272 22.847 108.992 23.7115C108.713 24.576 108.42 25.4795 108.108 26.4155C107.796 27.3515 107.484 28.255 107.172 29.1195C106.893 29.984 106.633 30.764 106.392 31.4595L98.592 51.9995H91.832ZM98.28 43.6795L100.62 37.8035H117.208L119.704 43.6795H98.28ZM140.062 52.5195C138.086 52.5195 136.37 52.084 134.914 51.2195C133.458 50.316 132.347 49.055 131.586 47.4235C130.826 45.7595 130.442 43.7835 130.442 41.4955V24.5955H136.838V40.1435C136.838 41.5995 137.066 42.8475 137.514 43.8875C137.963 44.895 138.626 45.675 139.49 46.2275C140.355 46.78 141.395 47.0595 142.61 47.0595C143.514 47.0595 144.326 46.923 145.054 46.6435C145.815 46.3315 146.478 45.9155 147.03 45.3955C147.583 44.843 148.018 44.1995 148.33 43.4715C148.642 42.711 148.798 41.892 148.798 41.0275V24.5955H155.194V51.9995H148.954L148.85 46.2795L149.994 45.6555C149.578 46.975 148.87 48.1515 147.862 49.1915C146.894 50.199 145.73 51.0115 144.378 51.6355C143.026 52.227 141.59 52.5195 140.062 52.5195ZM162.689 51.9995V24.5955H168.981L169.085 33.3315L168.201 31.3555C168.584 29.971 169.241 28.723 170.177 27.6115C171.113 26.5 172.185 25.6355 173.401 25.0115C174.649 24.355 175.949 24.0235 177.301 24.0235C177.892 24.0235 178.445 24.0755 178.965 24.1795C179.517 24.2835 179.972 24.407 180.317 24.5435L178.601 31.5635C178.217 31.3555 177.749 31.18 177.197 31.0435C176.644 30.907 176.085 30.8355 175.533 30.8355C174.668 30.8355 173.836 31.011 173.037 31.3555C172.276 31.6675 171.6 32.116 171.009 32.7075C170.417 33.299 169.949 33.988 169.605 34.7875C169.293 35.548 169.137 36.419 169.137 37.3875V51.9995H162.689ZM195.943 52.5195C193.206 52.5195 190.762 51.915 188.611 50.6995C186.459 49.4515 184.763 47.755 183.515 45.6035C182.267 43.452 181.643 41.008 181.643 38.2715C181.643 35.535 182.267 33.091 183.515 30.9395C184.763 28.788 186.459 27.111 188.611 25.8955C190.762 24.6475 193.206 24.0235 195.943 24.0235C198.679 24.0235 201.071 24.6475 203.223 25.8955C205.374 27.111 207.051 28.788 208.267 30.9395C209.515 33.091 210.139 35.535 210.139 38.2715C210.139 41.008 209.515 43.452 208.267 45.6035C207.051 47.755 205.374 49.4515 203.223 50.6995C201.071 51.915 198.647 52.5195 195.943 52.5195ZM195.943 46.8515C197.431 46.8515 198.751 46.468 199.895 45.7075C201.071 44.947 201.994 43.92 202.651 42.6395C203.346 41.359 203.671 39.903 203.639 38.2715C203.671 36.6075 203.346 35.132 202.651 33.8515C201.994 32.571 201.071 31.5635 199.895 30.8355C198.751 30.075 197.431 29.6915 195.943 29.6915C194.454 29.6915 193.102 30.075 191.887 30.8355C190.71 31.5635 189.787 32.584 189.131 33.9035C188.474 35.184 188.143 36.64 188.143 38.2715C188.143 39.903 188.474 41.359 189.131 42.6395C189.787 43.92 190.71 44.947 191.887 45.7075C193.102 46.468 194.454 46.8515 195.943 46.8515ZM239.623 51.9995L228.287 15.5995H235.359L241.807 37.0755C242.015 37.732 242.203 38.46 242.379 39.2595C242.554 40.059 242.71 40.852 242.847 41.6515C242.983 42.412 243.107 43.127 243.211 43.7835C243.315 44.44 243.419 44.999 243.523 45.4475L242.119 45.3955C242.535 43.764 242.866 42.451 243.107 41.4435C243.347 40.436 243.555 39.604 243.731 38.9475C243.939 38.252 244.147 37.615 244.355 37.0235L250.491 21.3195H256.263L262.243 37.0235C262.587 37.992 262.899 38.928 263.179 39.8315C263.458 40.696 263.679 41.567 263.855 42.4315C264.063 43.2635 264.251 44.128 264.427 45.0315L263.179 45.2915C263.315 44.4595 263.419 43.7835 263.491 43.2635C263.562 42.7435 263.627 42.2755 263.699 41.8595C263.77 41.4435 263.835 41.047 263.907 40.6635C263.978 40.2475 264.082 39.76 264.219 39.2075C264.394 38.616 264.602 37.875 264.843 36.9715L271.239 15.5995H278.259L266.871 51.9995H261.983L252.727 29.8475L253.351 30.0555L244.563 51.9995H239.623ZM291.922 52.5195C289.666 52.5195 287.625 51.8955 285.786 50.6475C283.946 49.3995 282.477 47.703 281.366 45.5515C280.254 43.4 279.702 40.956 279.702 38.2195C279.702 35.483 280.254 33.039 281.366 30.8875C282.477 28.736 283.985 27.059 285.89 25.8435C287.794 24.628 289.946 24.0235 292.338 24.0235C293.722 24.0235 294.99 24.2315 296.134 24.6475C297.278 25.031 298.285 25.5835 299.15 26.3115C300.014 27.0395 300.729 27.8715 301.282 28.8075C301.873 29.7435 302.27 30.751 302.478 31.8235L301.074 31.4595V24.5955H307.522V51.9995H301.022V45.4475L302.53 45.1875C302.289 46.1235 301.834 47.04 301.178 47.9435C300.554 48.808 299.754 49.588 298.786 50.2835C297.85 50.94 296.79 51.4795 295.614 51.8955C294.47 52.3115 293.241 52.5195 291.922 52.5195ZM293.69 46.8515C295.178 46.8515 296.498 46.4875 297.642 45.7595C298.786 45.0315 299.67 44.024 300.294 42.7435C300.95 41.424 301.282 39.916 301.282 38.2195C301.282 36.523 300.95 35.08 300.294 33.7995C299.67 32.519 298.786 31.5115 297.642 30.7835C296.498 30.0555 295.178 29.6915 293.69 29.6915C292.201 29.6915 290.882 30.0555 289.738 30.7835C288.626 31.5115 287.762 32.519 287.138 33.7995C286.514 35.08 286.202 36.5555 286.202 38.2195C286.202 39.8835 286.514 41.424 287.138 42.7435C287.762 44.024 288.626 45.0315 289.738 45.7595C290.882 46.4875 292.201 46.8515 293.69 46.8515ZM314.99 51.9995V13.5195H321.438V51.9995H314.99ZM329.004 51.9995V13.5195H335.452V51.9995H329.004ZM355.303 52.5195C352.424 52.5195 349.876 51.915 347.659 50.6995C345.475 49.484 343.759 47.8395 342.511 45.7595C341.296 43.647 340.691 41.2355 340.691 38.5315C340.691 36.38 341.036 34.4235 341.731 32.6555C342.427 30.8875 343.376 29.36 344.591 28.0795C345.839 26.76 347.315 25.759 349.011 25.0635C350.747 24.3355 352.632 23.9715 354.679 23.9715C356.479 23.9715 358.163 24.316 359.723 25.0115C361.283 25.707 362.635 26.656 363.779 27.8715C364.923 29.048 365.788 30.4715 366.379 32.1355C367.003 33.767 367.296 35.548 367.263 37.4915L367.211 39.7275H345.007L343.811 35.3595H361.855L361.023 36.2435V35.0995C360.919 34.027 360.575 33.091 359.983 32.2915C359.392 31.4595 358.631 30.816 357.695 30.3675C356.792 29.88 355.79 29.6395 354.679 29.6395C352.983 29.6395 351.54 29.971 350.363 30.6275C349.219 31.284 348.355 32.2395 347.763 33.4875C347.172 34.703 346.879 36.224 346.879 38.0635C346.879 39.903 347.243 41.372 347.971 42.6915C348.732 44.011 349.791 45.0315 351.143 45.7595C352.527 46.455 354.139 46.7995 355.979 46.7995C357.259 46.7995 358.443 46.5915 359.515 46.1755C360.587 45.7595 361.751 45.012 362.999 43.9395L366.171 48.3595C365.235 49.224 364.163 49.9715 362.947 50.5955C361.771 51.187 360.523 51.655 359.203 51.9995C357.884 52.344 356.584 52.5195 355.303 52.5195ZM375.889 51.9995V17.6275H382.285V51.9995H375.889ZM370.48 30.5235V24.5955H388.265V30.5235H370.48Z" fill="#FFFCF5"/>
</svg>
