<svg width="231" height="65" viewBox="0 0 231 65" fill="none" xmlns="http://www.w3.org/2000/svg">
<path d="M35.7547 64.9949C34.5584 65.0491 33.3892 64.6155 32.4648 63.8023C31.5947 62.9892 30.9965 61.9051 30.8878 60.6854L30.344 56.4301C25.1507 54.9665 22.1326 51.1449 21.3169 45.0194L16.6674 9.10688C15.6886 8.94425 14.6282 8.89005 13.6493 8.89005C12.1811 8.89005 10.6313 9.05267 9.21738 9.48633V63.965H0V20.1923C0 14.2295 2.6918 10.0284 7.5588 8.29376V5.44786C7.5588 2.19541 9.51647 0 12.4802 0C15.4439 0 17.2928 1.84306 17.7278 5.17683L18.1085 7.80589C23.4105 9.2695 26.5374 13.5248 27.4618 20.5176L31.785 55.1291C34.3681 55.617 37.0327 55.617 39.6157 55.1291L43.9389 20.5176C44.809 13.579 47.9902 9.32371 53.2923 7.80589L53.6729 5.17683C54.2167 1.84306 56.0656 0 58.9749 0C61.8843 0 63.8963 2.19541 63.8963 5.44786V8.29376C68.7633 10.0284 71.4551 14.2566 71.4551 20.1923V63.965H62.2649V9.54054C60.8511 9.16108 59.3012 8.94425 57.833 8.94425C56.7998 8.94425 55.7937 8.99846 54.8149 9.16108L50.1654 45.0736C49.4041 51.0364 46.2773 54.9394 41.1384 56.4843L40.6489 60.7396C40.5946 61.9322 39.9964 63.0976 39.1263 63.9108C38.2018 64.6697 36.9783 65.0491 35.7819 64.9949H35.7547ZM32.0297 56.8638L32.5191 60.5228C32.5735 61.3359 32.9542 62.0948 33.5524 62.6098C34.1505 63.1518 34.9119 63.4229 35.7547 63.3687C36.1354 63.4229 36.5704 63.3687 36.9511 63.2061C37.3318 63.0976 37.658 62.8808 37.9843 62.6098C38.2562 62.3387 38.5281 62.0135 38.6913 61.634C38.8544 61.2546 38.9632 60.8751 38.9632 60.4957L39.4526 56.8367C36.9239 57.2703 34.4768 57.2703 32.0025 56.8909L32.0297 56.8638ZM63.8963 62.3116H69.7965V20.1923C69.7965 15.1781 67.7573 11.6817 63.8963 10.0284V62.3116ZM1.6314 62.3116H7.53161V10.0555C3.64345 11.6817 1.68578 15.1239 1.68578 20.2194L1.6314 62.3658V62.3116ZM18.4076 9.59474L23.0027 44.8568C23.6552 49.9252 26.0751 53.259 30.1808 54.6684L25.9664 20.7073C25.1507 14.6903 22.6764 11.0583 18.4076 9.56764V9.59474ZM53.1291 9.59474C48.8603 11.0583 46.386 14.7174 45.6247 20.7344L41.4103 54.6955C45.5159 53.2861 47.9358 49.9523 48.5884 44.8839L53.1291 9.62185V9.59474ZM9.1902 7.80589C10.6585 7.48065 12.1539 7.26382 13.6222 7.31803C14.5466 7.31803 15.4711 7.37223 16.4227 7.48065L16.1508 5.44786C15.7702 2.92721 14.5738 1.68044 12.4802 1.68044C10.3866 1.68044 9.1902 3.14404 9.1902 5.50207V7.80589ZM57.8058 7.26382C59.274 7.26382 60.8239 7.42644 62.2377 7.75169V5.44786C62.2377 3.08983 60.987 1.62623 58.9478 1.62623C56.9085 1.62623 55.6578 2.873 55.2771 5.39366L55.0052 7.42644C55.9297 7.31803 56.8541 7.26382 57.8058 7.26382Z" fill="#FFFCF5"/>
<path d="M96.7419 63.9628H87.7148V1.08203H96.6875V63.9628H96.7419ZM89.3462 62.3366H95.0833V2.73536H89.3462V62.3366Z" fill="#FFFCF5"/>
<path d="M155.172 64.9949C151.284 64.9949 150.36 61.4443 150.088 60.2517L149.435 57.2432C143.589 56.2133 140.028 52.4458 138.532 45.7783L130.049 9.05267C129.07 8.94425 128.091 8.89004 127.14 8.89004C125.508 8.89004 123.904 9.10687 122.327 9.54053V63.9107H113.137V19.9213C113.137 14.2566 115.72 10.2723 120.696 8.40218V5.44786C120.696 2.1683 122.653 0 125.617 0C128.2 0 130.049 1.62623 130.647 4.3095L131.408 7.64327C137.091 8.67321 140.544 12.3322 142.148 19.1082L150.795 55.8338C151.774 55.9422 152.752 55.9964 153.758 55.9964C155.39 55.9964 156.994 55.8338 158.517 55.4002V1.02994H167.653V46.483C167.653 51.1178 164.906 54.7768 160.094 56.5927V59.4386C160.094 62.8808 158.19 64.9949 155.172 64.9949ZM151.121 57.5142L151.61 59.8723C152.209 62.3387 153.242 63.3687 155.118 63.3687C157.212 63.3687 158.408 61.9593 158.408 59.4386V57.0806C156.831 57.46 155.227 57.6227 153.65 57.5685C152.834 57.6227 152.018 57.5685 151.121 57.5142ZM114.768 62.3116H120.668V10.1639C116.726 11.8444 114.768 15.1239 114.768 19.9213V62.3387V62.3116ZM131.789 9.37791L140.109 45.4531C141.414 51.2262 144.269 54.4515 149.027 55.5628L140.544 19.4876C139.13 13.6603 136.384 10.4892 131.789 9.37791ZM160.094 2.71038V54.8852C163.927 53.259 165.994 50.3588 165.994 46.5372V2.73748H160.094V2.71038ZM122.3 7.833C123.877 7.45354 125.481 7.23671 127.112 7.23671C127.928 7.23671 128.798 7.29092 129.641 7.34513L129.043 4.66185C128.771 3.52349 128.01 1.59912 125.644 1.59912C123.279 1.59912 122.354 3.5506 122.354 5.42076V7.833H122.3Z" fill="#FFFCF5"/>
<path d="M230.626 63.9654H221.055L216.351 45.2367H189.732L185.083 63.9654H175.512L187.883 18.5124C189.297 13.3355 192.587 9.78495 197.345 8.18583L198.215 4.63523C198.705 2.68376 199.738 0.0546875 203.028 0.0546875C206.318 0.0546875 207.351 2.62955 207.841 4.58102L208.656 8.18583C213.414 9.70364 216.704 13.3084 218.118 18.5124L230.598 63.9654H230.626ZM222.306 62.3392H228.505L216.623 18.946C215.427 14.6907 212.898 11.6822 209.173 10.1644L216.514 39.1384H189.569L196.856 10.1102C193.131 11.628 190.602 14.6907 189.406 18.8918L177.578 62.3392H183.777L188.427 43.6105H217.547L222.306 62.3392ZM191.69 37.4579H214.42L207.351 9.4597C204.496 8.75501 201.56 8.75501 198.705 9.4597L191.69 37.4579ZM199.14 7.64375V7.69796C201.723 7.15588 204.333 7.15588 206.916 7.69796V7.64375L206.264 4.96047C205.665 2.54824 204.741 1.62671 203.028 1.62671C201.315 1.62671 200.39 2.54824 199.792 4.96047L199.14 7.64375Z" fill="#FFFCF5"/>
</svg>
