<svg width="264" height="256" viewBox="0 0 264 256" fill="none" xmlns="http://www.w3.org/2000/svg">
<path d="M186.478 178.1C179.351 164.096 158.949 153.218 134.282 151.862C109.614 150.506 88.1405 159.08 79.5223 172.218L76.1383 172.032L75.4884 183.878C74.4203 203.287 99.014 220.42 130.417 222.146C161.82 223.873 188.142 209.54 189.21 190.13L189.86 178.284L186.478 178.1Z" fill="#212121"/>
<path d="M130.367 223.058C98.5138 221.305 73.4868 203.709 74.5787 183.83L75.2785 171.076L79.0524 171.284C88.2577 157.793 110.371 149.637 134.328 150.954C158.284 152.271 179.368 162.8 187.042 177.22L190.814 177.426L190.114 190.18C189.022 210.059 162.216 224.806 130.363 223.058L130.367 223.058ZM77.0008 172.993L76.3985 183.93C75.3608 202.806 99.6165 219.544 130.469 221.24C161.322 222.937 187.267 208.959 188.305 190.082L188.907 179.146L185.909 178.981L185.67 178.513C178.493 164.412 157.821 154.069 134.234 152.772C110.646 151.476 88.9662 159.49 80.2873 172.718L80.0013 173.156L77.0008 172.993Z" fill="#F9F8F4"/>
<path d="M131.074 210.303C162.478 212.03 188.8 197.696 189.867 178.288C190.935 158.88 166.342 141.747 134.938 140.021C103.534 138.294 77.2111 152.628 76.1441 172.036C75.077 191.444 99.6698 208.577 131.074 210.303Z" fill="#212121"/>
<path d="M189.707 181.075C188.639 200.485 162.317 214.818 130.914 213.091C99.5111 211.365 74.9175 194.232 75.9855 174.823C77.0536 155.414 103.376 141.08 134.779 142.807C166.182 144.534 190.773 161.668 189.707 181.075Z" fill="#212121"/>
<path d="M131.02 211.214C99.1668 209.462 74.1399 191.866 75.2339 171.988C76.3258 152.109 103.131 137.362 134.987 139.112C166.841 140.865 191.868 158.461 190.771 178.34C189.677 198.218 162.874 212.967 131.02 211.214ZM134.885 140.93C104.033 139.234 78.0893 153.214 77.0494 172.088C76.0117 190.964 100.267 207.702 131.12 209.399C161.973 211.095 187.918 197.117 188.956 178.241C189.994 159.364 165.738 142.626 134.885 140.93Z" fill="#F9F8F4"/>
<path d="M178.5 176.079C177.698 190.681 156.716 201.399 131.637 200.021C106.558 198.643 86.8783 185.687 87.6799 171.085C88.4815 156.484 109.464 145.766 134.543 147.144C159.622 148.522 179.304 161.479 178.5 176.079Z" fill="#56EBFF"/>
<path d="M131.585 200.931C106.047 199.527 85.9424 186.117 86.7722 171.036C87.5998 155.957 109.054 144.833 134.592 146.237C160.133 147.643 180.235 161.051 179.408 176.129C178.578 191.21 157.128 202.335 131.585 200.931ZM134.493 148.056C109.955 146.709 89.3632 157.062 88.5898 171.138C87.8164 185.213 107.15 197.766 131.685 199.116C156.222 200.463 176.817 190.107 177.59 176.032C178.364 161.956 159.028 149.406 134.493 148.056Z" fill="#F9F8F4"/>
<path d="M134.543 147.144C109.464 145.766 88.4816 156.483 87.68 171.085C87.6085 172.396 87.7558 173.687 88.0028 174.966C91.9154 162.37 111.292 153.587 134.118 154.843C156.946 156.098 175.244 166.952 177.748 179.899C178.134 178.655 178.424 177.39 178.496 176.079C179.297 161.477 159.619 148.524 134.543 147.144Z" fill="#212121"/>
<path d="M177.105 181.759L176.858 180.074C174.408 167.415 156.013 156.958 134.071 155.753C112.127 154.547 92.698 162.922 88.872 175.236L88.2545 177.227L87.1107 175.139C86.8117 173.592 86.7012 172.29 86.7705 171.038C87.6003 155.957 109.053 144.834 134.593 146.236C160.133 147.642 180.236 161.05 179.406 176.131C179.337 177.37 179.09 178.653 178.622 180.169L177.105 181.759ZM134.493 148.056C109.956 146.708 89.3638 157.062 88.5904 171.137C88.586 171.189 88.586 171.241 88.5817 171.293C94.7734 159.937 113.082 152.777 134.168 153.936C155.255 155.095 172.669 164.22 177.58 176.185C177.584 176.133 177.589 176.081 177.591 176.031C178.364 161.956 159.033 149.406 134.493 148.056Z" fill="#F9F8F4"/>
<path d="M163.071 83.7091C148.089 78.8452 125.913 85.5818 107.463 102.071C89.0133 118.56 79.8683 139.815 83.0723 155.203L80.541 157.465L88.4788 166.304C101.482 180.789 131.065 175.511 154.553 154.52C178.04 133.529 186.54 104.771 173.537 90.2863L165.599 81.4473L163.071 83.7091Z" fill="#212121"/>
<path d="M155.164 155.2C131.338 176.492 101.12 181.748 87.8 166.914L79.2539 157.398L82.077 154.875C79.0389 138.821 88.9335 117.41 106.852 101.396C124.77 85.3824 147.183 77.9164 162.847 82.6884L165.667 80.166L174.213 89.6824C187.533 104.516 178.983 133.908 155.161 155.203L155.164 155.2ZM81.8343 157.535L89.1608 165.697C101.808 179.783 130.871 174.466 153.947 153.842C177.024 133.219 185.508 104.979 172.861 90.893L165.535 82.7313L163.292 84.7357L162.791 84.5733C147.705 79.6756 125.717 86.9823 108.075 102.748C90.4326 118.517 80.7438 139.52 83.9693 155.016L84.0768 155.528L81.8343 157.535Z" fill="#F9F8F4"/>
<path d="M146.62 145.679C170.109 124.687 178.609 95.9289 165.606 81.446C152.602 66.9631 123.02 72.2398 99.5316 93.2318C76.0431 114.224 67.5431 142.982 80.5462 157.465C93.5494 171.948 123.132 166.671 146.62 145.679Z" fill="#212121"/>
<path d="M167.468 83.5307C180.471 98.0153 171.971 126.773 148.483 147.764C124.995 168.755 95.413 174.033 82.4096 159.549C69.4062 145.064 77.9062 116.306 101.394 95.3151C124.882 74.3238 154.464 69.0492 167.468 83.5307Z" fill="#212121"/>
<path d="M147.228 146.361C123.402 167.653 93.1837 172.909 79.8669 158.075C66.5471 143.241 75.0962 113.849 98.922 92.5544C122.748 71.2628 152.966 66.0065 166.283 80.8436C179.6 95.6775 171.053 125.07 147.228 146.361ZM100.138 93.9121C77.0623 114.536 68.5807 142.775 81.2247 156.861C93.8718 170.948 122.935 165.63 146.011 145.007C169.087 124.383 177.572 96.1434 164.925 82.0572C152.278 67.9711 123.215 73.2887 100.138 93.9121Z" fill="#F9F8F4"/>
<path d="M155.98 87.9235C165.764 98.8191 158.487 121.242 139.73 138.006C120.973 154.771 97.8351 159.528 88.0511 148.632C78.267 137.737 85.5444 115.314 104.301 98.5494C123.059 81.7845 146.199 77.0279 155.98 87.9235Z" fill="#56EBFF"/>
<path d="M140.339 138.687C121.238 155.758 97.4771 160.493 87.3736 149.239C77.2701 137.988 84.5935 114.943 103.695 97.8718C122.799 80.8005 146.557 76.0653 156.661 87.3164C166.764 98.5706 159.444 121.612 140.339 138.687ZM104.914 99.2295C86.5626 115.633 79.3037 137.522 88.7345 148.025C98.1652 158.529 120.771 153.732 139.123 137.332C157.475 120.929 164.733 99.0364 155.303 88.5331C145.872 78.0298 123.266 82.8294 104.914 99.2295Z" fill="#F9F8F4"/>
<path d="M104.301 98.5494C85.5444 115.314 78.267 137.737 88.0511 148.632C88.9296 149.61 89.9495 150.419 91.0308 151.149C84.8747 139.471 92.3855 119.553 109.459 104.296C126.533 89.036 147.201 83.7706 158.155 91.1569C157.547 90.0045 156.856 88.9042 155.977 87.9265C146.193 77.0309 123.059 81.7876 104.301 98.5494Z" fill="#212121"/>
<path d="M159.02 92.9283L157.65 91.9108C146.938 84.69 126.482 90.3048 110.072 104.973C93.6587 119.642 85.8223 139.309 91.8402 150.726L92.814 152.571L90.5223 151.902C89.2137 151.02 88.2122 150.177 87.3736 149.242C77.2701 137.988 84.5935 114.946 103.695 97.872C122.799 80.8007 146.557 76.0655 156.661 87.3196C157.49 88.2452 158.224 89.3271 158.968 90.7308L159.02 92.9283ZM104.914 99.2297C86.5626 115.633 79.3037 137.522 88.7345 148.025C88.7682 148.065 88.8051 148.102 88.8389 148.142C85.1772 135.729 93.0812 117.714 108.852 103.619C124.624 89.5233 143.439 83.6602 155.404 88.6498C155.37 88.6099 155.337 88.5701 155.303 88.5333C145.872 78.03 123.269 82.8266 104.914 99.2297Z" fill="#F9F8F4"/>
<path d="M170.435 76.8355C172.174 61.2139 161.069 40.9122 141.148 26.2253C121.226 11.5416 98.5127 6.91363 84.0563 13.1598L81.3253 11.1462L74.2569 20.6902C62.6758 36.3302 73.8483 64.1622 99.21 82.8579C124.572 101.554 154.52 104.03 166.101 88.39L173.169 78.846L170.438 76.8324L170.435 76.8355Z" fill="#212121"/>
<path d="M98.6623 83.5933C72.935 64.631 61.6581 36.1706 73.5187 20.1505L81.1278 9.87405L84.1752 12.1206C99.3166 5.89891 122.337 11.2287 141.684 25.4926C161.031 39.7534 172.901 60.1409 171.393 76.4092L174.44 78.6558L166.831 88.9323C154.97 104.949 124.39 102.559 98.6623 83.5933ZM81.5118 12.4209L74.9871 21.2324C63.7224 36.4434 74.8304 63.7605 99.7467 82.1283C124.663 100.496 154.101 103.064 165.363 87.8534L171.887 79.0419L169.467 77.2582L169.525 76.7372C171.276 61.0052 159.652 41.0008 140.6 26.9607C121.548 12.9175 98.9695 7.70718 84.4148 13.9994L83.9325 14.2078L81.5118 12.4209Z" fill="#F9F8F4"/>
<path d="M173.163 78.8484C161.582 94.4884 131.634 92.0089 106.273 73.3163C80.9108 54.6206 69.7383 26.7855 81.3194 11.1486C92.9005 -4.49146 122.849 -2.01197 148.21 16.6837C173.572 35.3794 184.744 63.2084 173.163 78.8484Z" fill="#212121"/>
<path d="M171.499 81.0955C159.918 96.7355 129.97 94.256 104.608 75.5634C79.2468 56.8677 68.0742 29.0356 79.6553 13.3956C91.2364 -2.24439 121.184 0.235089 146.546 18.9308C171.908 37.6265 183.08 65.4554 171.499 81.0955Z" fill="#212121"/>
<path d="M105.729 74.0491C80.0014 55.0837 68.7245 26.6234 80.5851 10.6064C92.4457 -5.41058 123.027 -3.01385 148.754 15.9485C174.478 34.9108 185.758 63.3711 173.897 79.3881C162.037 95.4051 131.456 93.0084 105.732 74.0461L105.729 74.0491ZM147.666 17.4135C122.75 -0.95426 93.3151 -3.52262 82.0504 11.6883C70.7857 26.8992 81.8937 54.2164 106.81 72.5841C131.726 90.9519 161.161 93.5202 172.426 78.3093C183.691 63.0984 172.583 35.7812 147.666 17.4135Z" fill="#F9F8F4"/>
<path d="M164.859 70.7609C156.147 82.5269 132.662 79.9616 112.409 65.0295C92.1559 50.0975 82.7988 28.4596 91.5108 16.6936C100.223 4.92753 123.704 7.49282 143.961 22.4249C164.214 37.3538 173.571 58.9979 164.859 70.7609Z" fill="#56EBFF"/>
<path d="M111.868 65.7615C91.2396 50.5567 81.7812 28.3027 90.7788 16.1505C99.7765 4.00139 123.876 6.487 144.503 21.6918C165.131 36.8966 174.59 59.1506 165.592 71.2997C156.595 83.4519 132.495 80.9663 111.868 65.7615ZM143.419 23.1568C123.602 8.54966 100.646 5.89241 92.2472 17.2355C83.8486 28.5785 93.135 49.6924 112.952 64.2996C132.769 78.9067 155.728 81.5639 164.127 70.2209C172.525 58.8778 163.236 37.764 143.419 23.1568Z" fill="#F9F8F4"/>
<path d="M143.959 22.422C123.703 7.49306 100.221 4.92776 91.5092 16.6938C90.7258 17.7512 90.1391 18.9097 89.6445 20.1142C99.8586 11.7348 120.929 15.0388 139.366 28.6284C157.801 42.218 167.158 61.3427 162.129 73.544C163.137 72.7165 164.077 71.8185 164.86 70.7611C173.572 58.9951 164.218 37.354 143.962 22.4251L143.959 22.422Z" fill="#212121"/>
<path d="M160.564 74.742L161.285 73.1973C166.204 61.2688 156.545 42.4229 138.824 29.3605C121.102 16.298 100.21 12.6263 90.226 20.8187L88.6133 22.1427L88.8037 19.7705C89.4028 18.3116 90.0294 17.1654 90.779 16.154C99.7766 4.00179 123.879 6.48739 144.504 21.6922C165.131 36.897 174.59 59.151 165.592 71.3032C164.852 72.3023 163.94 73.2371 162.711 74.2485L160.564 74.742ZM143.419 23.1541C123.602 8.54698 100.646 5.88974 92.2474 17.2328C92.2166 17.2757 92.1859 17.3156 92.1552 17.3585C103.598 11.2655 122.88 15.3387 139.911 27.8924C156.942 40.4461 166.508 57.64 164.035 70.3439C164.066 70.301 164.099 70.2611 164.13 70.2182C172.529 58.8751 163.236 37.7613 143.419 23.1541Z" fill="#F9F8F4"/>
</svg>
