<svg width="422" height="52" viewBox="0 0 422 52" fill="none" xmlns="http://www.w3.org/2000/svg">
<path d="M170.789 28.9609V16.7383H168.668V14.6992H182.18V19.5977H180.164V16.7383H173.227V21.5898H179.285V23.6289H173.227V28.9609H180.164V25.9844H182.18V31H168.668V28.9609H170.789ZM189.645 26.4883L187.441 29.0312H188.906V31H183.387V29.0312H185.062L188.496 25.1641L185.227 21.6367H183.691V19.668H189.023V21.6367H187.605L189.645 23.8281L191.613 21.6367H190.465V19.668H195.82V21.6367H193.945L190.852 25.1641L194.402 29.0312H195.867V31H190.441V29.0312H192.047L189.645 26.4883ZM198.469 34.1172V21.6367H196.582V19.668H200.73V21.4492H200.777C201.793 20.1367 203.105 19.4805 204.715 19.4805C206.332 19.4805 207.66 20.0352 208.699 21.1445C209.738 22.2461 210.258 23.6602 210.258 25.3867C210.258 27.0742 209.723 28.4883 208.652 29.6289C207.582 30.7695 206.262 31.3398 204.691 31.3398C203.973 31.3398 203.266 31.1914 202.57 30.8945C201.883 30.5898 201.27 30.1602 200.73 29.6055V34.1172H202.91V36.0859H196.406V34.1172H198.469ZM200.684 25.4805C200.684 26.582 201.02 27.4961 201.691 28.2227C202.363 28.9414 203.219 29.3008 204.258 29.3008C205.352 29.3008 206.234 28.9336 206.906 28.1992C207.586 27.457 207.926 26.4883 207.926 25.293C207.926 24.1914 207.586 23.2773 206.906 22.5508C206.234 21.8164 205.391 21.4492 204.375 21.4492C203.32 21.4492 202.441 21.832 201.738 22.5977C201.035 23.3633 200.684 24.3242 200.684 25.4805ZM213.879 29.0312V16.668H211.863V14.6992H216.141V29.0312H217.887V31H211.816V29.0312H213.879ZM220.863 29.6289C219.73 28.4883 219.164 27.0586 219.164 25.3398C219.164 23.6211 219.73 22.1914 220.863 21.0508C221.996 19.9102 223.422 19.3398 225.141 19.3398C226.844 19.3398 228.262 19.9102 229.395 21.0508C230.527 22.1914 231.094 23.6211 231.094 25.3398C231.094 27.0586 230.523 28.4883 229.383 29.6289C228.242 30.7695 226.82 31.3398 225.117 31.3398C223.414 31.3398 221.996 30.7695 220.863 29.6289ZM221.566 25.3398C221.566 26.4414 221.906 27.3555 222.586 28.082C223.266 28.8086 224.109 29.1719 225.117 29.1719C226.141 29.1719 226.992 28.8086 227.672 28.082C228.352 27.3555 228.691 26.4414 228.691 25.3398C228.691 24.2461 228.348 23.332 227.66 22.5977C226.98 21.8633 226.133 21.4961 225.117 21.4961C224.109 21.4961 223.266 21.8633 222.586 22.5977C221.906 23.332 221.566 24.2461 221.566 25.3398ZM234.82 29.0312V21.6367H232.535V19.668H236.59V22.2109H236.637C236.98 21.3047 237.473 20.625 238.113 20.1719C238.754 19.7109 239.453 19.4805 240.211 19.4805H241.676V21.7305H240.48C239.23 21.7305 238.348 22.0664 237.832 22.7383C237.324 23.4102 237.07 24.4297 237.07 25.7969V29.0312H239.52V31H232.582V29.0312H234.82ZM253.688 25.8906H244.16C244.332 26.9922 244.758 27.8477 245.438 28.457C246.117 29.0664 246.984 29.3711 248.039 29.3711C248.781 29.3711 249.477 29.2109 250.125 28.8906C250.773 28.5703 251.305 28.1133 251.719 27.5195L253.688 28.3867C253.078 29.332 252.281 30.0625 251.297 30.5781C250.312 31.0859 249.211 31.3398 247.992 31.3398C246.156 31.3398 244.645 30.7773 243.457 29.6523C242.277 28.5273 241.688 27.0898 241.688 25.3398C241.688 24.168 241.98 23.1172 242.566 22.1875C243.152 21.25 243.895 20.543 244.793 20.0664C245.691 19.582 246.641 19.3398 247.641 19.3398C248.43 19.3398 249.184 19.4883 249.902 19.7852C250.629 20.082 251.273 20.5039 251.836 21.0508C252.398 21.5977 252.848 22.2891 253.184 23.125C253.52 23.9609 253.688 24.8828 253.688 25.8906ZM244.23 24.2617H251.402C251.223 23.3555 250.781 22.6094 250.078 22.0234C249.375 21.4297 248.578 21.1328 247.688 21.1328C246.797 21.1328 246.039 21.418 245.414 21.9883C244.797 22.5508 244.402 23.3086 244.23 24.2617Z" fill="#97FF00"/>
<mask id="path-2-inside-1_211_16747" fill="white">
<path fill-rule="evenodd" clip-rule="evenodd" d="M1 0H0V11H1L1 2V41H0V52H1H11V51H206V52H216V51H411V52H421H422V41H421V11H422V0H421H411V1L216 1V0H206V1L11 1V0H1ZM2 2H420V50H2V2Z"/>
</mask>
<path fill-rule="evenodd" clip-rule="evenodd" d="M1 0H0V11H1L1 2V41H0V52H1H11V51H206V52H216V51H411V52H421H422V41H421V11H422V0H421H411V1L216 1V0H206V1L11 1V0H1ZM2 2H420V50H2V2Z" fill="url(#paint0_linear_211_16747)"/>
<path d="M0 0V-1H-1V0H0ZM0 11H-1V12H0V11ZM1 11V12H2V11H1ZM1 41V42H2V41H1ZM0 41V40H-1V41H0ZM0 52H-1V53H0V52ZM11 52V53H12V52H11ZM11 51V50H10V51H11ZM206 51H207V50H206V51ZM206 52H205V53H206V52ZM216 52V53H217V52H216ZM216 51V50H215V51H216ZM411 51H412V50H411V51ZM411 52H410V53H411V52ZM422 52V53H423V52H422ZM422 41H423V40H422V41ZM421 41H420V42H421V41ZM421 11V10H420V11H421ZM422 11V12H423V11H422ZM422 0H423V-1H422V0ZM411 0V-1H410V0H411ZM411 1V2L412 2V1H411ZM216 1H215V2H216V1ZM216 0H217V-1H216V0ZM206 0V-1H205V0H206ZM206 1V2L207 2V1H206ZM11 1H10V2H11V1ZM11 0H12V-1H11V0ZM420 2H421V1H420V2ZM2 2V1H1V2H2ZM420 50V51H421V50H420ZM2 50H1V51H2V50ZM0 1H1V-1H0V1ZM1 11V0H-1V11H1ZM1 10H0V12H1V10ZM0 2L-4.76837e-07 11H2L2 2H0ZM0 2V41H2V2H0ZM1 40H0V42H1V40ZM-1 41V52H1V41H-1ZM0 53H1V51H0V53ZM1 53H11V51H1V53ZM12 52V51H10V52H12ZM11 52H206V50H11V52ZM207 52V51H205V52H207ZM216 51H206V53H216V51ZM215 51V52H217V51H215ZM216 52H411V50H216V52ZM410 51V52H412V51H410ZM411 53H421V51H411V53ZM421 53H422V51H421V53ZM423 52V41H421V52H423ZM422 40H421V42H422V40ZM422 41V11H420V41H422ZM422 10H421V12H422V10ZM421 0V11H423V0H421ZM421 1H422V-1H421V1ZM411 1H421V-1H411V1ZM412 1V0H410V1H412ZM411 -5.96046e-08L216 9.53674e-07V2L411 2V-5.96046e-08ZM217 1V0H215V1H217ZM216 -1H206V1H216V-1ZM205 0V1H207V0H205ZM206 1.19209e-07L11 0V2H206V1.19209e-07ZM10 0V1H12V0H10ZM1 1H11V-1H1V1ZM420 1H2V3H420V1ZM421 50V2H419V50H421ZM2 51H420V49H2V51ZM1 2V50H3V2H1Z" fill="#97FF00" mask="url(#path-2-inside-1_211_16747)"/>
<defs>
<linearGradient id="paint0_linear_211_16747" x1="0" y1="26" x2="422" y2="26.0001" gradientUnits="userSpaceOnUse">
<stop stop-color="#D2FF00"/>
<stop offset="1" stop-color="#56EBFF"/>
</linearGradient>
</defs>
</svg>
