<svg width="187" height="345" viewBox="0 0 187 345" fill="none" xmlns="http://www.w3.org/2000/svg">
<rect x="177.397" y="142.353" width="69.7623" height="165.637" transform="rotate(90 177.397 142.353)" stroke="#F9F8F4" stroke-width="2.14399"/>
<path d="M98.2656 97.0313L98.2656 96.1094L96.4219 96.1094L96.4219 97.0312L98.2656 97.0313ZM96.6919 141.933C97.0519 142.293 97.6356 142.293 97.9956 141.933L103.862 136.066C104.222 135.706 104.222 135.123 103.862 134.763C103.502 134.403 102.919 134.403 102.559 134.763L97.3437 139.978L92.1288 134.763C91.7688 134.403 91.1851 134.403 90.8251 134.763C90.4651 135.123 90.4651 135.706 90.8251 136.066L96.6919 141.933ZM96.4219 98.875L96.4219 99.7969L98.2656 99.7969L98.2656 98.875L96.4219 98.875ZM98.2656 102.563L98.2656 101.641L96.4219 101.641L96.4219 102.562L98.2656 102.563ZM96.4219 106.25L96.4219 107.172L98.2656 107.172L98.2656 106.25L96.4219 106.25ZM98.2656 109.937L98.2656 109.016L96.4219 109.016L96.4219 109.937L98.2656 109.937ZM96.4219 113.625L96.4219 114.547L98.2656 114.547L98.2656 113.625L96.4219 113.625ZM98.2656 117.313L98.2656 116.391L96.4219 116.391L96.4219 117.312L98.2656 117.313ZM96.4219 121L96.4219 121.922L98.2656 121.922L98.2656 121L96.4219 121ZM98.2656 124.688L98.2656 123.766L96.4219 123.766L96.4219 124.687L98.2656 124.688ZM96.4219 128.375L96.4219 129.297L98.2656 129.297L98.2656 128.375L96.4219 128.375ZM98.2656 132.063L98.2656 131.141L96.4219 131.141L96.4219 132.062L98.2656 132.063ZM96.4219 135.75L96.4219 136.672L98.2656 136.672L98.2656 135.75L96.4219 135.75ZM98.2656 139.437L98.2656 138.516L96.4219 138.516L96.4219 139.437L98.2656 139.437ZM96.4219 97.0312L96.4219 98.875L98.2656 98.875L98.2656 97.0313L96.4219 97.0312ZM96.4219 102.562L96.4219 106.25L98.2656 106.25L98.2656 102.563L96.4219 102.562ZM96.4219 109.937L96.4219 113.625L98.2656 113.625L98.2656 109.937L96.4219 109.937ZM96.4219 117.312L96.4219 121L98.2656 121L98.2656 117.313L96.4219 117.312ZM96.4219 124.687L96.4219 128.375L98.2656 128.375L98.2656 124.688L96.4219 124.687ZM96.4219 132.062L96.4219 135.75L98.2656 135.75L98.2656 132.063L96.4219 132.062ZM96.4219 139.437L96.4219 141.281L98.2656 141.281L98.2656 139.437L96.4219 139.437Z" fill="white"/>
<path d="M153.578 213.187C153.578 212.678 153.165 212.266 152.656 212.266C152.147 212.266 151.734 212.678 151.734 213.188L153.578 213.187ZM152.004 256.246C152.364 256.606 152.948 256.606 153.308 256.246L159.175 250.379C159.535 250.019 159.535 249.435 159.175 249.075C158.815 248.715 158.231 248.715 157.871 249.075L152.656 254.29L147.441 249.075C147.081 248.715 146.498 248.715 146.138 249.075C145.778 249.435 145.778 250.019 146.138 250.379L152.004 256.246ZM151.734 214.954L151.734 215.876L153.578 215.876L153.578 214.954L151.734 214.954ZM153.578 218.488L153.578 217.566L151.734 217.566L151.734 218.488L153.578 218.488ZM151.734 222.022L151.734 222.944L153.578 222.944L153.578 222.022L151.734 222.022ZM153.578 225.556L153.578 224.634L151.734 224.634L151.734 225.556L153.578 225.556ZM151.734 229.09L151.734 230.012L153.578 230.012L153.578 229.09L151.734 229.09ZM153.578 232.624L153.578 231.702L151.734 231.702L151.734 232.624L153.578 232.624ZM151.734 236.158L151.734 237.079L153.578 237.079L153.578 236.158L151.734 236.158ZM153.578 239.691L153.578 238.77L151.734 238.77L151.734 239.691L153.578 239.691ZM151.734 243.225L151.734 244.147L153.578 244.147L153.578 243.225L151.734 243.225ZM153.578 246.759L153.578 245.837L151.734 245.837L151.734 246.759L153.578 246.759ZM151.734 250.293L151.734 251.215L153.578 251.215L153.578 250.293L151.734 250.293ZM153.578 253.827L153.578 252.905L151.734 252.905L151.734 253.827L153.578 253.827ZM151.734 213.188L151.734 214.954L153.578 214.954L153.578 213.187L151.734 213.188ZM151.734 218.488L151.734 222.022L153.578 222.022L153.578 218.488L151.734 218.488ZM151.734 225.556L151.734 229.09L153.578 229.09L153.578 225.556L151.734 225.556ZM151.734 232.624L151.734 236.158L153.578 236.158L153.578 232.624L151.734 232.624ZM151.734 239.691L151.734 243.225L153.578 243.225L153.578 239.691L151.734 239.691ZM151.734 246.759L151.734 250.293L153.578 250.293L153.578 246.759L151.734 246.759ZM151.734 253.827L151.734 255.594L153.578 255.594L153.578 253.827L151.734 253.827Z" fill="white"/>
<path d="M39.2656 213.187C39.2656 212.678 38.8529 212.266 38.3437 212.266C37.8346 212.266 37.4219 212.678 37.4219 213.188L39.2656 213.187ZM37.6919 256.246C38.0519 256.606 38.6356 256.606 38.9956 256.246L44.8624 250.379C45.2224 250.019 45.2224 249.435 44.8624 249.075C44.5024 248.715 43.9187 248.715 43.5587 249.075L38.3438 254.29L33.1288 249.075C32.7688 248.715 32.1851 248.715 31.8251 249.075C31.4651 249.435 31.4651 250.019 31.8251 250.379L37.6919 256.246ZM37.4219 214.954L37.4219 215.876L39.2656 215.876L39.2656 214.954L37.4219 214.954ZM39.2656 218.488L39.2656 217.566L37.4219 217.566L37.4219 218.488L39.2656 218.488ZM37.4219 222.022L37.4219 222.944L39.2656 222.944L39.2656 222.022L37.4219 222.022ZM39.2656 225.556L39.2656 224.634L37.4219 224.634L37.4219 225.556L39.2656 225.556ZM37.4219 229.09L37.4219 230.012L39.2656 230.012L39.2656 229.09L37.4219 229.09ZM39.2656 232.624L39.2656 231.702L37.4219 231.702L37.4219 232.624L39.2656 232.624ZM37.4219 236.158L37.4219 237.079L39.2656 237.079L39.2656 236.158L37.4219 236.158ZM39.2656 239.691L39.2656 238.77L37.4219 238.77L37.4219 239.691L39.2656 239.691ZM37.4219 243.225L37.4219 244.147L39.2656 244.147L39.2656 243.225L37.4219 243.225ZM39.2656 246.759L39.2656 245.837L37.4219 245.837L37.4219 246.759L39.2656 246.759ZM37.4219 250.293L37.4219 251.215L39.2656 251.215L39.2656 250.293L37.4219 250.293ZM39.2656 253.827L39.2656 252.905L37.4219 252.905L37.4219 253.827L39.2656 253.827ZM37.4219 213.188L37.4219 214.954L39.2656 214.954L39.2656 213.187L37.4219 213.188ZM37.4219 218.488L37.4219 222.022L39.2656 222.022L39.2656 218.488L37.4219 218.488ZM37.4219 225.556L37.4219 229.09L39.2656 229.09L39.2656 225.556L37.4219 225.556ZM37.4219 232.624L37.4219 236.158L39.2656 236.158L39.2656 232.624L37.4219 232.624ZM37.4219 239.691L37.4219 243.225L39.2656 243.225L39.2656 239.691L37.4219 239.691ZM37.4219 246.759L37.4219 250.293L39.2656 250.293L39.2656 246.759L37.4219 246.759ZM37.4219 253.827L37.4219 255.594L39.2656 255.594L39.2656 253.827L37.4219 253.827Z" fill="white"/>
<rect x="39.0791" y="1.89156" width="109.154" height="96.2481" fill="#212121" stroke="#F9F8F4" stroke-width="2.21689" stroke-linejoin="round"/>
<rect x="5.89156" y="254.485" width="64.9044" height="61.2169" fill="#212121" stroke="#F9F8F4" stroke-width="2.21689" stroke-linejoin="round"/>
<rect x="120.204" y="254.485" width="64.9044" height="61.2169" fill="#212121" stroke="#F9F8F4" stroke-width="2.21689" stroke-linejoin="round"/>
<path d="M74.6756 36V30.52L69.8556 22.04H71.7756L73.7756 25.68L75.4756 28.86H75.5556L77.2956 25.68L79.2956 22.04H81.1756L76.3556 30.52V36H74.6756ZM87.5078 36.24C86.7878 36.24 86.1345 36.1133 85.5478 35.86C84.9745 35.6067 84.4811 35.2467 84.0678 34.78C83.6678 34.3 83.3611 33.7333 83.1478 33.08C82.9345 32.4133 82.8278 31.6667 82.8278 30.84C82.8278 30.0267 82.9345 29.2867 83.1478 28.62C83.3611 27.9533 83.6678 27.3867 84.0678 26.92C84.4811 26.44 84.9745 26.0733 85.5478 25.82C86.1345 25.5667 86.7878 25.44 87.5078 25.44C88.2278 25.44 88.8745 25.5667 89.4478 25.82C90.0345 26.0733 90.5278 26.44 90.9278 26.92C91.3411 27.3867 91.6545 27.9533 91.8678 28.62C92.0811 29.2867 92.1878 30.0267 92.1878 30.84C92.1878 31.6667 92.0811 32.4133 91.8678 33.08C91.6545 33.7333 91.3411 34.3 90.9278 34.78C90.5278 35.2467 90.0345 35.6067 89.4478 35.86C88.8745 36.1133 88.2278 36.24 87.5078 36.24ZM87.5078 34.86C88.4011 34.86 89.1211 34.5933 89.6678 34.06C90.2145 33.5267 90.4878 32.7 90.4878 31.58V30.1C90.4878 28.98 90.2145 28.1533 89.6678 27.62C89.1211 27.0867 88.4011 26.82 87.5078 26.82C86.6145 26.82 85.8945 27.0867 85.3478 27.62C84.8011 28.1533 84.5278 28.98 84.5278 30.1V31.58C84.5278 32.7 84.8011 33.5267 85.3478 34.06C85.8945 34.5933 86.6145 34.86 87.5078 34.86ZM101.94 34.32H101.86C101.753 34.5733 101.62 34.82 101.46 35.06C101.3 35.2867 101.1 35.4867 100.86 35.66C100.633 35.8333 100.36 35.9733 100.04 36.08C99.72 36.1867 99.3467 36.24 98.92 36.24C97.84 36.24 96.9733 35.9 96.32 35.22C95.6667 34.5267 95.34 33.5533 95.34 32.3V25.68H96.94V32.02C96.94 32.9667 97.1467 33.6733 97.56 34.14C97.9733 34.5933 98.58 34.82 99.38 34.82C99.7 34.82 100.013 34.78 100.32 34.7C100.627 34.62 100.9 34.5 101.14 34.34C101.38 34.18 101.573 33.98 101.72 33.74C101.867 33.4867 101.94 33.1867 101.94 32.84V25.68H103.54V36H101.94V34.32ZM107.032 34.64H110.052V27.04H107.032V25.68H111.652V28.28H111.752C111.966 27.4667 112.366 26.8333 112.952 26.38C113.552 25.9133 114.312 25.68 115.232 25.68H116.672V27.28H114.732C113.812 27.28 113.066 27.5467 112.492 28.08C111.932 28.6133 111.652 29.3133 111.652 30.18V34.64H115.652V36H107.032V34.64ZM80.7356 59.18C80.7356 60.22 80.3023 60.9867 79.4356 61.48C78.569 61.9867 77.269 62.24 75.5356 62.24C73.869 62.24 72.669 62.02 71.9356 61.58C71.2156 61.14 70.8556 60.5067 70.8556 59.68C70.8556 59.12 71.0023 58.6867 71.2956 58.38C71.589 58.0733 72.0023 57.8467 72.5356 57.7V57.46C72.2423 57.3133 72.0156 57.1267 71.8556 56.9C71.6956 56.6733 71.6156 56.3867 71.6156 56.04C71.6156 55.5067 71.789 55.1067 72.1356 54.84C72.4956 54.5733 72.9423 54.3733 73.4756 54.24V54.16C72.8356 53.88 72.3356 53.4667 71.9756 52.92C71.629 52.3733 71.4556 51.7333 71.4556 51C71.4556 50.48 71.549 50 71.7356 49.56C71.9223 49.12 72.189 48.7467 72.5356 48.44C72.8956 48.12 73.3223 47.8733 73.8156 47.7C74.309 47.5267 74.8556 47.44 75.4556 47.44C76.229 47.44 76.909 47.58 77.4956 47.86V47.68C77.4956 47.28 77.589 46.9467 77.7756 46.68C77.9623 46.4133 78.2823 46.28 78.7356 46.28H80.6356V47.68H78.3156V48.38C78.689 48.7 78.9756 49.08 79.1756 49.52C79.3756 49.96 79.4756 50.4533 79.4756 51C79.4756 51.52 79.3756 52 79.1756 52.44C78.989 52.88 78.7223 53.26 78.3756 53.58C78.029 53.8867 77.6023 54.1267 77.0956 54.3C76.6023 54.4733 76.0556 54.56 75.4556 54.56C75.2823 54.56 75.1156 54.5533 74.9556 54.54C74.7956 54.5267 74.6356 54.5067 74.4756 54.48C74.3156 54.5067 74.149 54.5533 73.9756 54.62C73.8023 54.6733 73.6423 54.7533 73.4956 54.86C73.349 54.9533 73.229 55.0667 73.1356 55.2C73.0423 55.3333 72.9956 55.4867 72.9956 55.66C72.9956 55.9667 73.149 56.1733 73.4556 56.28C73.7623 56.3733 74.1623 56.42 74.6556 56.42H76.9356C78.269 56.42 79.2356 56.6733 79.8356 57.18C80.4356 57.6733 80.7356 58.34 80.7356 59.18ZM79.2356 59.26C79.2356 58.8467 79.069 58.5133 78.7356 58.26C78.4023 58.02 77.8223 57.9 76.9956 57.9H73.4156C72.7223 58.18 72.3756 58.6467 72.3756 59.3C72.3756 59.7533 72.5556 60.14 72.9156 60.46C73.2756 60.7933 73.8756 60.96 74.7156 60.96H76.2756C77.209 60.96 77.9356 60.8133 78.4556 60.52C78.9756 60.24 79.2356 59.82 79.2356 59.26ZM75.4556 53.32C76.2556 53.32 76.8423 53.1333 77.2156 52.76C77.6023 52.3867 77.7956 51.8933 77.7956 51.28V50.7C77.7956 50.0867 77.6023 49.6 77.2156 49.24C76.8423 48.8667 76.2556 48.68 75.4556 48.68C74.6556 48.68 74.069 48.8667 73.6956 49.24C73.3223 49.6 73.1356 50.0867 73.1356 50.7V51.28C73.1356 51.8933 73.3223 52.3867 73.6956 52.76C74.069 53.1333 74.6556 53.32 75.4556 53.32ZM91.4078 58C90.7811 58 90.3345 57.84 90.0678 57.52C89.8011 57.2 89.6345 56.8 89.5678 56.32H89.4678C89.2411 56.92 88.8745 57.3933 88.3678 57.74C87.8745 58.0733 87.2078 58.24 86.3678 58.24C85.2878 58.24 84.4278 57.96 83.7878 57.4C83.1478 56.84 82.8278 56.0733 82.8278 55.1C82.8278 54.14 83.1745 53.4 83.8678 52.88C84.5745 52.36 85.7078 52.1 87.2678 52.1H89.4678V51.08C89.4678 50.32 89.2545 49.7533 88.8278 49.38C88.4011 48.9933 87.7945 48.8 87.0078 48.8C86.3145 48.8 85.7478 48.94 85.3078 49.22C84.8678 49.4867 84.5145 49.8533 84.2478 50.32L83.1678 49.52C83.3011 49.2533 83.4811 48.9933 83.7078 48.74C83.9345 48.4867 84.2145 48.2667 84.5478 48.08C84.8811 47.88 85.2611 47.7267 85.6878 47.62C86.1145 47.5 86.5878 47.44 87.1078 47.44C88.3211 47.44 89.2811 47.7467 89.9878 48.36C90.7078 48.9733 91.0678 49.8267 91.0678 50.92V56.6H92.5078V58H91.4078ZM86.6478 56.9C87.0611 56.9 87.4345 56.8533 87.7678 56.76C88.1145 56.6533 88.4145 56.52 88.6678 56.36C88.9211 56.1867 89.1145 55.9867 89.2478 55.76C89.3945 55.52 89.4678 55.2667 89.4678 55V53.3H87.2678C86.3078 53.3 85.6078 53.4333 85.1678 53.7C84.7278 53.9667 84.5078 54.3533 84.5078 54.86V55.28C84.5078 55.8133 84.6945 56.22 85.0678 56.5C85.4545 56.7667 85.9811 56.9 86.6478 56.9ZM94.58 58V47.68H96.06V48.88H96.14C96.3 48.48 96.5267 48.14 96.82 47.86C97.1133 47.58 97.5467 47.44 98.12 47.44C98.72 47.44 99.1667 47.5933 99.46 47.9C99.7533 48.1933 99.9333 48.58 100 49.06H100.06C100.247 48.5933 100.513 48.2067 100.86 47.9C101.207 47.5933 101.687 47.44 102.3 47.44C103.14 47.44 103.7 47.7333 103.98 48.32C104.273 48.9067 104.42 49.7467 104.42 50.84V58H102.94V51.1C102.94 50.22 102.847 49.6133 102.66 49.28C102.487 48.9333 102.16 48.76 101.68 48.76C101.253 48.76 100.907 48.9 100.64 49.18C100.373 49.4467 100.24 49.86 100.24 50.42V58H98.76V51.1C98.76 50.22 98.6667 49.6133 98.48 49.28C98.3067 48.9333 97.9867 48.76 97.52 48.76C97.0933 48.76 96.74 48.9 96.46 49.18C96.1933 49.4467 96.06 49.86 96.06 50.42V58H94.58ZM111.672 58.24C110.926 58.24 110.252 58.1133 109.652 57.86C109.066 57.6067 108.559 57.2467 108.132 56.78C107.719 56.3 107.399 55.7333 107.172 55.08C106.946 54.4133 106.832 53.6733 106.832 52.86C106.832 52.0333 106.946 51.2867 107.172 50.62C107.412 49.9533 107.739 49.3867 108.152 48.92C108.566 48.44 109.059 48.0733 109.632 47.82C110.219 47.5667 110.866 47.44 111.572 47.44C112.266 47.44 112.892 47.5667 113.452 47.82C114.026 48.0733 114.512 48.4267 114.912 48.88C115.312 49.32 115.619 49.8467 115.832 50.46C116.046 51.0733 116.152 51.7467 116.152 52.48V53.24H108.512V53.72C108.512 54.1733 108.586 54.5933 108.732 54.98C108.879 55.3667 109.086 55.7 109.352 55.98C109.632 56.26 109.966 56.48 110.352 56.64C110.752 56.7867 111.192 56.86 111.672 56.86C112.366 56.86 112.966 56.7 113.472 56.38C113.979 56.06 114.366 55.62 114.632 55.06L115.812 55.86C115.506 56.5533 114.992 57.1267 114.272 57.58C113.566 58.02 112.699 58.24 111.672 58.24ZM111.572 48.76C111.132 48.76 110.726 48.84 110.352 49C109.979 49.16 109.652 49.38 109.372 49.66C109.106 49.94 108.892 50.2733 108.732 50.66C108.586 51.0333 108.512 51.4467 108.512 51.9V52.04H114.432V51.82C114.432 51.3667 114.359 50.9533 114.212 50.58C114.079 50.2067 113.886 49.8867 113.632 49.62C113.392 49.34 113.092 49.1267 112.732 48.98C112.386 48.8333 111.999 48.76 111.572 48.76ZM64.5995 80V69.68H66.0795V70.88H66.1595C66.3195 70.48 66.5462 70.14 66.8395 69.86C67.1329 69.58 67.5662 69.44 68.1395 69.44C68.7395 69.44 69.1862 69.5933 69.4795 69.9C69.7729 70.1933 69.9529 70.58 70.0195 71.06H70.0795C70.2662 70.5933 70.5329 70.2067 70.8795 69.9C71.2262 69.5933 71.7062 69.44 72.3195 69.44C73.1595 69.44 73.7195 69.7333 73.9995 70.32C74.2929 70.9067 74.4395 71.7467 74.4395 72.84V80H72.9595V73.1C72.9595 72.22 72.8662 71.6133 72.6795 71.28C72.5062 70.9333 72.1795 70.76 71.6995 70.76C71.2729 70.76 70.9262 70.9 70.6595 71.18C70.3929 71.4467 70.2595 71.86 70.2595 72.42V80H68.7795V73.1C68.7795 72.22 68.6862 71.6133 68.4995 71.28C68.3262 70.9333 68.0062 70.76 67.5395 70.76C67.1129 70.76 66.7595 70.9 66.4795 71.18C66.2129 71.4467 66.0795 71.86 66.0795 72.42V80H64.5995ZM81.5117 80.24C80.7917 80.24 80.1384 80.1133 79.5517 79.86C78.9784 79.6067 78.4851 79.2467 78.0717 78.78C77.6717 78.3 77.3651 77.7333 77.1517 77.08C76.9384 76.4133 76.8317 75.6667 76.8317 74.84C76.8317 74.0267 76.9384 73.2867 77.1517 72.62C77.3651 71.9533 77.6717 71.3867 78.0717 70.92C78.4851 70.44 78.9784 70.0733 79.5517 69.82C80.1384 69.5667 80.7917 69.44 81.5117 69.44C82.2317 69.44 82.8784 69.5667 83.4517 69.82C84.0384 70.0733 84.5317 70.44 84.9317 70.92C85.3451 71.3867 85.6584 71.9533 85.8717 72.62C86.0851 73.2867 86.1917 74.0267 86.1917 74.84C86.1917 75.6667 86.0851 76.4133 85.8717 77.08C85.6584 77.7333 85.3451 78.3 84.9317 78.78C84.5317 79.2467 84.0384 79.6067 83.4517 79.86C82.8784 80.1133 82.2317 80.24 81.5117 80.24ZM81.5117 78.86C82.4051 78.86 83.1251 78.5933 83.6717 78.06C84.2184 77.5267 84.4917 76.7 84.4917 75.58V74.1C84.4917 72.98 84.2184 72.1533 83.6717 71.62C83.1251 71.0867 82.4051 70.82 81.5117 70.82C80.6184 70.82 79.8984 71.0867 79.3517 71.62C78.8051 72.1533 78.5317 72.98 78.5317 74.1V75.58C78.5317 76.7 78.8051 77.5267 79.3517 78.06C79.8984 78.5933 80.6184 78.86 81.5117 78.86ZM92.4839 80L88.7839 69.68H90.4039L91.8839 74L93.4839 78.66H93.5639L95.1639 74L96.6439 69.68H98.2239L94.5239 80H92.4839ZM105.676 80.24C104.929 80.24 104.256 80.1133 103.656 79.86C103.069 79.6067 102.563 79.2467 102.136 78.78C101.723 78.3 101.403 77.7333 101.176 77.08C100.949 76.4133 100.836 75.6733 100.836 74.86C100.836 74.0333 100.949 73.2867 101.176 72.62C101.416 71.9533 101.743 71.3867 102.156 70.92C102.569 70.44 103.063 70.0733 103.636 69.82C104.223 69.5667 104.869 69.44 105.576 69.44C106.269 69.44 106.896 69.5667 107.456 69.82C108.029 70.0733 108.516 70.4267 108.916 70.88C109.316 71.32 109.623 71.8467 109.836 72.46C110.049 73.0733 110.156 73.7467 110.156 74.48V75.24H102.516V75.72C102.516 76.1733 102.589 76.5933 102.736 76.98C102.883 77.3667 103.089 77.7 103.356 77.98C103.636 78.26 103.969 78.48 104.356 78.64C104.756 78.7867 105.196 78.86 105.676 78.86C106.369 78.86 106.969 78.7 107.476 78.38C107.983 78.06 108.369 77.62 108.636 77.06L109.816 77.86C109.509 78.5533 108.996 79.1267 108.276 79.58C107.569 80.02 106.703 80.24 105.676 80.24ZM105.576 70.76C105.136 70.76 104.729 70.84 104.356 71C103.983 71.16 103.656 71.38 103.376 71.66C103.109 71.94 102.896 72.2733 102.736 72.66C102.589 73.0333 102.516 73.4467 102.516 73.9V74.04H108.436V73.82C108.436 73.3667 108.363 72.9533 108.216 72.58C108.083 72.2067 107.889 71.8867 107.636 71.62C107.396 71.34 107.096 71.1267 106.736 70.98C106.389 70.8333 106.003 70.76 105.576 70.76ZM117.608 80.24C116.528 80.24 115.595 80.06 114.808 79.7C114.035 79.3267 113.375 78.8333 112.828 78.22L113.908 77.28C114.402 77.8 114.942 78.2 115.528 78.48C116.115 78.76 116.822 78.9 117.648 78.9C118.448 78.9 119.102 78.76 119.608 78.48C120.128 78.1867 120.388 77.7333 120.388 77.12C120.388 76.8533 120.335 76.6333 120.228 76.46C120.135 76.2733 120.002 76.1267 119.828 76.02C119.655 75.9133 119.462 75.8333 119.248 75.78C119.035 75.7133 118.808 75.66 118.568 75.62L116.948 75.38C116.588 75.3267 116.195 75.2533 115.768 75.16C115.355 75.0667 114.975 74.92 114.628 74.72C114.282 74.5067 113.988 74.2267 113.748 73.88C113.522 73.5333 113.408 73.08 113.408 72.52C113.408 72 113.508 71.5533 113.708 71.18C113.922 70.7933 114.215 70.4733 114.588 70.22C114.962 69.9533 115.402 69.76 115.908 69.64C116.415 69.5067 116.968 69.44 117.568 69.44C118.502 69.44 119.308 69.5867 119.988 69.88C120.682 70.1733 121.275 70.58 121.768 71.1L120.728 72.08C120.608 71.9333 120.455 71.7867 120.268 71.64C120.095 71.48 119.875 71.34 119.608 71.22C119.355 71.0867 119.055 70.98 118.708 70.9C118.362 70.82 117.962 70.78 117.508 70.78C116.695 70.78 116.068 70.92 115.628 71.2C115.202 71.48 114.988 71.8867 114.988 72.42C114.988 72.6867 115.035 72.9133 115.128 73.1C115.235 73.2733 115.375 73.4133 115.548 73.52C115.722 73.6267 115.915 73.7133 116.128 73.78C116.355 73.8333 116.582 73.88 116.808 73.92L118.428 74.16C118.802 74.2133 119.195 74.2867 119.608 74.38C120.022 74.4733 120.402 74.6267 120.748 74.84C121.095 75.04 121.382 75.3133 121.608 75.66C121.848 76.0067 121.968 76.46 121.968 77.02C121.968 78.0467 121.568 78.84 120.768 79.4C119.982 79.96 118.928 80.24 117.608 80.24Z" fill="white"/>
<path d="M92.7041 171.344H82.6241V169.844L90.5241 158.844H82.9641V157.384H92.3641V158.884L84.4441 169.884H92.7041V171.344ZM99.0363 164.504L97.0363 166.864V171.344H95.3563V157.384H97.0363V164.664H97.0963L98.9362 162.344L103.056 157.384H105.076L100.176 163.264L105.216 171.344H103.256L99.0363 164.504ZM58.1436 193.584C56.4369 193.584 55.1636 192.964 54.3236 191.724C53.4969 190.484 53.0836 188.697 53.0836 186.364C53.0836 184.03 53.4969 182.244 54.3236 181.004C55.1636 179.764 56.4369 179.144 58.1436 179.144C58.7836 179.144 59.3369 179.23 59.8036 179.404C60.2703 179.577 60.6703 179.81 61.0036 180.104C61.3369 180.397 61.6169 180.73 61.8436 181.104C62.0703 181.464 62.2703 181.83 62.4436 182.204L61.0036 182.864C60.8836 182.557 60.7436 182.27 60.5836 182.004C60.4236 181.724 60.2303 181.484 60.0036 181.284C59.7903 181.07 59.5303 180.904 59.2236 180.784C58.9303 180.664 58.5703 180.604 58.1436 180.604C57.0369 180.604 56.2103 181.024 55.6636 181.864C55.1303 182.704 54.8636 183.824 54.8636 185.224V187.504C54.8636 188.904 55.1303 190.024 55.6636 190.864C56.2103 191.704 57.0369 192.124 58.1436 192.124C58.5703 192.124 58.9303 192.064 59.2236 191.944C59.5303 191.824 59.7903 191.664 60.0036 191.464C60.2303 191.25 60.4236 191.01 60.5836 190.744C60.7436 190.464 60.8836 190.17 61.0036 189.864L62.4436 190.524C62.2703 190.91 62.0703 191.284 61.8436 191.644C61.6169 192.004 61.3369 192.33 61.0036 192.624C60.6703 192.917 60.2703 193.15 59.8036 193.324C59.3369 193.497 58.7836 193.584 58.1436 193.584ZM70.3158 180.744C69.8491 180.744 69.5224 180.65 69.3358 180.464C69.1491 180.264 69.0558 180.017 69.0558 179.724V179.404C69.0558 179.11 69.1491 178.87 69.3358 178.684C69.5224 178.484 69.8491 178.384 70.3158 178.384C70.7824 178.384 71.1091 178.484 71.2958 178.684C71.4824 178.87 71.5758 179.11 71.5758 179.404V179.724C71.5758 180.017 71.4824 180.264 71.2958 180.464C71.1091 180.65 70.7824 180.744 70.3158 180.744ZM65.7958 191.984H69.5158V184.384H65.7958V183.024H71.1158V191.984H74.5958V193.344H65.7958V191.984ZM77.208 191.984H80.228V184.384H77.208V183.024H81.828V185.624H81.928C82.1413 184.81 82.5413 184.177 83.128 183.724C83.728 183.257 84.488 183.024 85.408 183.024H86.848V184.624H84.908C83.988 184.624 83.2413 184.89 82.668 185.424C82.108 185.957 81.828 186.657 81.828 187.524V191.984H85.828V193.344H77.208V191.984ZM94.0202 193.584C93.2735 193.584 92.6068 193.457 92.0202 193.204C91.4468 192.937 90.9602 192.57 90.5602 192.104C90.1602 191.637 89.8535 191.07 89.6402 190.404C89.4402 189.737 89.3402 188.997 89.3402 188.184C89.3402 187.37 89.4468 186.63 89.6602 185.964C89.8735 185.297 90.1802 184.73 90.5802 184.264C90.9802 183.784 91.4668 183.417 92.0402 183.164C92.6135 182.91 93.2668 182.784 94.0002 182.784C95.0002 182.784 95.8135 183.004 96.4402 183.444C97.0668 183.884 97.5268 184.457 97.8202 185.164L96.5402 185.844C96.3535 185.31 96.0402 184.897 95.6002 184.604C95.1735 184.31 94.6402 184.164 94.0002 184.164C93.5335 184.164 93.1135 184.244 92.7402 184.404C92.3802 184.55 92.0735 184.764 91.8202 185.044C91.5668 185.324 91.3735 185.657 91.2402 186.044C91.1202 186.43 91.0602 186.85 91.0602 187.304V189.064C91.0602 189.517 91.1202 189.937 91.2402 190.324C91.3735 190.71 91.5668 191.044 91.8202 191.324C92.0735 191.604 92.3868 191.824 92.7602 191.984C93.1335 192.13 93.5602 192.204 94.0402 192.204C94.7335 192.204 95.3068 192.044 95.7602 191.724C96.2135 191.404 96.5735 190.964 96.8402 190.404L97.9802 191.184C97.6735 191.877 97.1935 192.45 96.5402 192.904C95.9002 193.357 95.0602 193.584 94.0202 193.584ZM108.092 191.664H108.012C107.906 191.917 107.772 192.164 107.612 192.404C107.452 192.63 107.252 192.83 107.012 193.004C106.786 193.177 106.512 193.317 106.192 193.424C105.872 193.53 105.499 193.584 105.072 193.584C103.992 193.584 103.126 193.244 102.472 192.564C101.819 191.87 101.492 190.897 101.492 189.644V183.024H103.092V189.364C103.092 190.31 103.299 191.017 103.712 191.484C104.126 191.937 104.732 192.164 105.532 192.164C105.852 192.164 106.166 192.124 106.472 192.044C106.779 191.964 107.052 191.844 107.292 191.684C107.532 191.524 107.726 191.324 107.872 191.084C108.019 190.83 108.092 190.53 108.092 190.184V183.024H109.692V193.344H108.092V191.664ZM118.285 180.744C117.818 180.744 117.491 180.65 117.305 180.464C117.118 180.264 117.025 180.017 117.025 179.724V179.404C117.025 179.11 117.118 178.87 117.305 178.684C117.491 178.484 117.818 178.384 118.285 178.384C118.751 178.384 119.078 178.484 119.265 178.684C119.451 178.87 119.545 179.11 119.545 179.404V179.724C119.545 180.017 119.451 180.264 119.265 180.464C119.078 180.65 118.751 180.744 118.285 180.744ZM113.765 191.984H117.485V184.384H113.765V183.024H119.085V191.984H122.565V193.344H113.765V191.984ZM130.137 193.344C129.35 193.344 128.77 193.124 128.397 192.684C128.037 192.244 127.857 191.677 127.857 190.984V184.384H124.417V183.024H126.977C127.323 183.024 127.563 182.957 127.697 182.824C127.843 182.677 127.917 182.43 127.917 182.084V179.384H129.457V183.024H134.157V184.384H129.457V191.984H134.157V193.344H130.137Z" fill="white"/>
<path d="M2.32536 340.125V324.682H7.94511C9.37586 324.682 10.4674 325.073 11.2196 325.854C11.9719 326.636 12.348 327.728 12.348 329.129C12.348 330.53 11.9719 331.622 11.2196 332.403C10.4674 333.185 9.37586 333.576 7.94511 333.576H4.18386V340.125H2.32536ZM4.18386 331.961H7.90086C8.68261 331.961 9.28736 331.769 9.71511 331.386C10.1576 330.987 10.3789 330.427 10.3789 329.704V328.554C10.3789 327.831 10.1576 327.278 9.71511 326.894C9.28736 326.496 8.68261 326.297 7.90086 326.297H4.18386V331.961ZM15.3041 338.62H18.645V330.213H15.3041V328.708H20.415V331.585H20.5256C20.7616 330.685 21.2041 329.984 21.8531 329.483C22.5168 328.967 23.3576 328.708 24.3753 328.708H25.9683V330.478H23.8222C22.8045 330.478 21.9785 330.773 21.3442 331.363C20.7247 331.953 20.415 332.728 20.415 333.687V338.62H24.84V340.125H15.3041V338.62ZM33.5043 340.391C32.7078 340.391 31.9851 340.25 31.3361 339.97C30.7018 339.69 30.1561 339.292 29.6988 338.775C29.2563 338.244 28.9171 337.617 28.6811 336.895C28.4451 336.157 28.3271 335.331 28.3271 334.417C28.3271 333.517 28.4451 332.698 28.6811 331.961C28.9171 331.223 29.2563 330.596 29.6988 330.08C30.1561 329.549 30.7018 329.144 31.3361 328.863C31.9851 328.583 32.7078 328.443 33.5043 328.443C34.3008 328.443 35.0162 328.583 35.6504 328.863C36.2994 329.144 36.8452 329.549 37.2877 330.08C37.7449 330.596 38.0916 331.223 38.3276 331.961C38.5636 332.698 38.6816 333.517 38.6816 334.417C38.6816 335.331 38.5636 336.157 38.3276 336.895C38.0916 337.617 37.7449 338.244 37.2877 338.775C36.8452 339.292 36.2994 339.69 35.6504 339.97C35.0162 340.25 34.3008 340.391 33.5043 340.391ZM33.5043 338.864C34.4926 338.864 35.2891 338.569 35.8938 337.979C36.4986 337.389 36.8009 336.474 36.8009 335.235V333.598C36.8009 332.359 36.4986 331.445 35.8938 330.855C35.2891 330.265 34.4926 329.97 33.5043 329.97C32.5161 329.97 31.7196 330.265 31.1148 330.855C30.5101 331.445 30.2077 332.359 30.2077 333.598V335.235C30.2077 336.474 30.5101 337.389 31.1148 337.979C31.7196 338.569 32.5161 338.864 33.5043 338.864ZM46.7707 340.391C45.9742 340.391 45.2514 340.25 44.6024 339.97C43.9682 339.69 43.4224 339.292 42.9652 338.775C42.5227 338.244 42.1834 337.617 41.9474 336.895C41.7114 336.157 41.5934 335.331 41.5934 334.417C41.5934 333.517 41.7114 332.698 41.9474 331.961C42.1834 331.223 42.5227 330.596 42.9652 330.08C43.4224 329.549 43.9682 329.144 44.6024 328.863C45.2514 328.583 45.9742 328.443 46.7707 328.443C47.5672 328.443 48.2826 328.583 48.9168 328.863C49.5658 329.144 50.1116 329.549 50.5541 330.08C51.0113 330.596 51.3579 331.223 51.5939 331.961C51.8299 332.698 51.9479 333.517 51.9479 334.417C51.9479 335.331 51.8299 336.157 51.5939 336.895C51.3579 337.617 51.0113 338.244 50.5541 338.775C50.1116 339.292 49.5658 339.69 48.9168 339.97C48.2826 340.25 47.5672 340.391 46.7707 340.391ZM46.7707 338.864C47.7589 338.864 48.5554 338.569 49.1602 337.979C49.7649 337.389 50.0673 336.474 50.0673 335.235V333.598C50.0673 332.359 49.7649 331.445 49.1602 330.855C48.5554 330.265 47.7589 329.97 46.7707 329.97C45.7824 329.97 44.9859 330.265 44.3812 330.855C43.7764 331.445 43.4741 332.359 43.4741 333.598V335.235C43.4741 336.474 43.7764 337.389 44.3812 337.979C44.9859 338.569 45.7824 338.864 46.7707 338.864ZM55.2359 338.62H59.0857V330.213H55.0147V328.708H59.0857V326.363C59.0857 325.596 59.2848 324.969 59.683 324.483C60.096 323.996 60.7377 323.752 61.6079 323.752H65.4355V325.257H60.8557V328.708H65.4355V330.213H60.8557V338.62H64.9267V340.125H55.2359V338.62Z" fill="white"/>
<path d="M123.24 340.391C121.853 340.391 120.718 340.14 119.833 339.638C118.948 339.122 118.217 338.466 117.642 337.669L118.992 336.563C119.597 337.315 120.231 337.876 120.895 338.244C121.573 338.613 122.377 338.797 123.306 338.797C124.427 338.797 125.283 338.539 125.873 338.023C126.463 337.507 126.758 336.784 126.758 335.855C126.758 335.103 126.544 334.52 126.116 334.107C125.688 333.679 124.943 333.377 123.881 333.2L122.156 332.912C121.403 332.779 120.769 332.58 120.253 332.315C119.751 332.049 119.346 331.732 119.036 331.363C118.726 330.98 118.505 330.567 118.372 330.124C118.24 329.667 118.173 329.195 118.173 328.708C118.173 327.292 118.638 326.223 119.567 325.5C120.496 324.778 121.75 324.416 123.328 324.416C124.567 324.416 125.607 324.623 126.448 325.036C127.303 325.449 127.989 326.031 128.506 326.784L127.2 327.912C126.772 327.351 126.256 326.894 125.651 326.54C125.047 326.186 124.265 326.009 123.306 326.009C122.259 326.009 121.455 326.23 120.895 326.673C120.334 327.115 120.054 327.779 120.054 328.664C120.054 329.357 120.26 329.925 120.673 330.368C121.101 330.796 121.861 331.105 122.952 331.297L124.612 331.585C125.364 331.717 125.998 331.917 126.514 332.182C127.031 332.448 127.444 332.765 127.753 333.133C128.078 333.502 128.306 333.915 128.439 334.372C128.572 334.83 128.638 335.309 128.638 335.811C128.638 337.241 128.166 338.362 127.222 339.174C126.293 339.985 124.966 340.391 123.24 340.391ZM136.949 340.391C136.123 340.391 135.385 340.25 134.736 339.97C134.102 339.675 133.564 339.269 133.121 338.753C132.679 338.237 132.339 337.61 132.103 336.873C131.882 336.135 131.771 335.316 131.771 334.417C131.771 333.517 131.889 332.698 132.125 331.961C132.361 331.223 132.701 330.596 133.143 330.08C133.586 329.549 134.124 329.144 134.758 328.863C135.393 328.583 136.115 328.443 136.927 328.443C138.033 328.443 138.933 328.686 139.626 329.173C140.319 329.66 140.828 330.294 141.152 331.076L139.736 331.828C139.53 331.238 139.183 330.781 138.697 330.456C138.225 330.132 137.635 329.97 136.927 329.97C136.41 329.97 135.946 330.058 135.533 330.235C135.134 330.397 134.795 330.633 134.515 330.943C134.235 331.253 134.021 331.622 133.873 332.049C133.741 332.477 133.674 332.942 133.674 333.443V335.39C133.674 335.892 133.741 336.356 133.873 336.784C134.021 337.212 134.235 337.581 134.515 337.89C134.795 338.2 135.142 338.443 135.555 338.62C135.968 338.783 136.44 338.864 136.971 338.864C137.738 338.864 138.372 338.687 138.874 338.333C139.375 337.979 139.773 337.492 140.068 336.873L141.329 337.735C140.99 338.502 140.459 339.137 139.736 339.638C139.028 340.14 138.099 340.391 136.949 340.391ZM149.817 340.391C149.02 340.391 148.298 340.25 147.649 339.97C147.014 339.69 146.469 339.292 146.011 338.775C145.569 338.244 145.23 337.617 144.994 336.895C144.758 336.157 144.64 335.331 144.64 334.417C144.64 333.517 144.758 332.698 144.994 331.961C145.23 331.223 145.569 330.596 146.011 330.08C146.469 329.549 147.014 329.144 147.649 328.863C148.298 328.583 149.02 328.443 149.817 328.443C150.613 328.443 151.329 328.583 151.963 328.863C152.612 329.144 153.158 329.549 153.6 330.08C154.057 330.596 154.404 331.223 154.64 331.961C154.876 332.698 154.994 333.517 154.994 334.417C154.994 335.331 154.876 336.157 154.64 336.895C154.404 337.617 154.057 338.244 153.6 338.775C153.158 339.292 152.612 339.69 151.963 339.97C151.329 340.25 150.613 340.391 149.817 340.391ZM149.817 338.864C150.805 338.864 151.602 338.569 152.206 337.979C152.811 337.389 153.113 336.474 153.113 335.235V333.598C153.113 332.359 152.811 331.445 152.206 330.855C151.602 330.265 150.805 329.97 149.817 329.97C148.829 329.97 148.032 330.265 147.427 330.855C146.823 331.445 146.52 332.359 146.52 333.598V335.235C146.52 336.474 146.823 337.389 147.427 337.979C148.032 338.569 148.829 338.864 149.817 338.864ZM158.149 338.62H161.49V330.213H158.149V328.708H163.26V331.585H163.371C163.607 330.685 164.049 329.984 164.698 329.483C165.362 328.967 166.203 328.708 167.221 328.708H168.814V330.478H166.667C165.65 330.478 164.824 330.773 164.189 331.363C163.57 331.953 163.26 332.728 163.26 333.687V338.62H167.685V340.125H158.149V338.62ZM176.549 340.391C175.723 340.391 174.978 340.25 174.314 339.97C173.665 339.69 173.105 339.292 172.633 338.775C172.175 338.244 171.821 337.617 171.571 336.895C171.32 336.157 171.194 335.339 171.194 334.439C171.194 333.524 171.32 332.698 171.571 331.961C171.836 331.223 172.197 330.596 172.655 330.08C173.112 329.549 173.658 329.144 174.292 328.863C174.941 328.583 175.656 328.443 176.438 328.443C177.205 328.443 177.898 328.583 178.518 328.863C179.152 329.144 179.69 329.534 180.133 330.036C180.575 330.523 180.915 331.105 181.151 331.784C181.387 332.462 181.505 333.207 181.505 334.018V334.859H173.053V335.39C173.053 335.892 173.134 336.356 173.296 336.784C173.459 337.212 173.687 337.581 173.982 337.89C174.292 338.2 174.661 338.443 175.088 338.62C175.531 338.783 176.018 338.864 176.549 338.864C177.316 338.864 177.979 338.687 178.54 338.333C179.1 337.979 179.528 337.492 179.823 336.873L181.129 337.758C180.789 338.525 180.221 339.159 179.425 339.66C178.643 340.147 177.684 340.391 176.549 340.391ZM176.438 329.903C175.951 329.903 175.501 329.992 175.088 330.169C174.675 330.346 174.314 330.589 174.004 330.899C173.709 331.209 173.473 331.577 173.296 332.005C173.134 332.418 173.053 332.875 173.053 333.377V333.532H179.602V333.288C179.602 332.787 179.521 332.33 179.359 331.917C179.211 331.504 178.997 331.15 178.717 330.855C178.451 330.545 178.12 330.309 177.721 330.147C177.338 329.984 176.91 329.903 176.438 329.903Z" fill="white"/>
<path d="M141.096 290.875L145.464 280.859H140.568V282.939H139.368V279.707H146.824V280.891L142.536 290.875H141.096ZM155.938 280.875H150.946L150.626 285.147H150.738C151.015 284.774 151.325 284.48 151.666 284.267C152.007 284.043 152.477 283.931 153.074 283.931C153.565 283.931 154.013 284.011 154.418 284.171C154.834 284.32 155.191 284.544 155.49 284.843C155.789 285.142 156.023 285.504 156.194 285.931C156.365 286.347 156.45 286.827 156.45 287.371C156.45 287.915 156.365 288.416 156.194 288.875C156.023 289.323 155.773 289.712 155.442 290.043C155.111 290.363 154.711 290.614 154.242 290.795C153.773 290.976 153.239 291.067 152.642 291.067C152.173 291.067 151.751 291.014 151.378 290.907C151.015 290.8 150.69 290.656 150.402 290.475C150.125 290.294 149.879 290.091 149.666 289.867C149.453 289.643 149.261 289.408 149.09 289.163L150.098 288.395C150.247 288.619 150.397 288.822 150.546 289.003C150.706 289.184 150.887 289.344 151.09 289.483C151.293 289.611 151.522 289.712 151.778 289.787C152.034 289.862 152.333 289.899 152.674 289.899C153.442 289.899 154.029 289.691 154.434 289.275C154.85 288.859 155.058 288.283 155.058 287.547V287.419C155.058 286.683 154.85 286.107 154.434 285.691C154.018 285.275 153.421 285.067 152.642 285.067C152.109 285.067 151.693 285.158 151.394 285.339C151.106 285.52 150.839 285.744 150.594 286.011L149.458 285.851L149.858 279.707H155.938V280.875ZM166.108 290.875H158.652V289.499L162.38 286.139C162.924 285.648 163.372 285.147 163.724 284.635C164.076 284.112 164.252 283.563 164.252 282.987V282.795C164.252 282.123 164.076 281.606 163.724 281.243C163.372 280.87 162.849 280.683 162.156 280.683C161.473 280.683 160.945 280.859 160.572 281.211C160.209 281.552 159.937 282.011 159.756 282.587L158.556 282.139C158.662 281.808 158.806 281.488 158.988 281.179C159.18 280.859 159.42 280.576 159.708 280.331C159.996 280.086 160.342 279.888 160.748 279.739C161.164 279.59 161.644 279.515 162.188 279.515C162.742 279.515 163.233 279.595 163.66 279.755C164.097 279.915 164.46 280.139 164.748 280.427C165.046 280.715 165.27 281.056 165.42 281.451C165.58 281.846 165.66 282.278 165.66 282.747C165.66 283.174 165.596 283.574 165.468 283.947C165.35 284.32 165.18 284.678 164.956 285.019C164.742 285.36 164.481 285.696 164.172 286.027C163.873 286.347 163.537 286.667 163.164 286.987L160.044 289.707H166.108V290.875Z" fill="white"/>
<path d="M13.55 292.911C12.8673 292.911 12.2807 292.783 11.79 292.527C11.2993 292.26 10.894 291.881 10.574 291.391C10.254 290.9 10.0193 290.297 9.87 289.583C9.72067 288.868 9.646 288.052 9.646 287.135C9.646 286.228 9.72067 285.417 9.87 284.703C10.0193 283.977 10.254 283.369 10.574 282.879C10.894 282.388 11.2993 282.015 11.79 281.759C12.2807 281.492 12.8673 281.359 13.55 281.359C14.2327 281.359 14.8193 281.492 15.31 281.759C15.8007 282.015 16.206 282.388 16.526 282.879C16.846 283.369 17.0807 283.977 17.23 284.703C17.3793 285.417 17.454 286.228 17.454 287.135C17.454 288.052 17.3793 288.868 17.23 289.583C17.0807 290.297 16.846 290.9 16.526 291.391C16.206 291.881 15.8007 292.26 15.31 292.527C14.8193 292.783 14.2327 292.911 13.55 292.911ZM13.55 291.743C13.998 291.743 14.382 291.657 14.702 291.487C15.022 291.305 15.278 291.055 15.47 290.735C15.6727 290.415 15.822 290.031 15.918 289.583C16.014 289.124 16.062 288.612 16.062 288.047V286.223C16.062 285.668 16.014 285.161 15.918 284.703C15.822 284.244 15.6727 283.855 15.47 283.535C15.278 283.215 15.022 282.969 14.702 282.799C14.382 282.617 13.998 282.527 13.55 282.527C13.102 282.527 12.718 282.617 12.398 282.799C12.078 282.969 11.8167 283.215 11.614 283.535C11.422 283.855 11.278 284.244 11.182 284.703C11.086 285.161 11.038 285.668 11.038 286.223V288.047C11.038 288.612 11.086 289.124 11.182 289.583C11.278 290.031 11.422 290.415 11.614 290.735C11.8167 291.055 12.078 291.305 12.398 291.487C12.718 291.657 13.102 291.743 13.55 291.743ZM13.55 288.079C13.1767 288.079 12.9153 288.004 12.766 287.855C12.6273 287.705 12.558 287.524 12.558 287.311V286.959C12.558 286.745 12.6273 286.564 12.766 286.415C12.9153 286.265 13.1767 286.191 13.55 286.191C13.9233 286.191 14.1793 286.265 14.318 286.415C14.4673 286.564 14.542 286.745 14.542 286.959V287.311C14.542 287.524 14.4673 287.705 14.318 287.855C14.1793 288.004 13.9233 288.079 13.55 288.079ZM19.3198 292.719L22.3918 288.527L19.3997 284.463H20.9358L22.1838 286.207L23.1758 287.583H23.2398L24.1998 286.207L25.4318 284.463H26.9038L23.8798 288.511L26.9838 292.719H25.4478L24.0558 290.783L23.1118 289.471H23.0477L22.1358 290.783L20.7918 292.719H19.3198ZM33.9855 292.719V290.527H28.4815V289.343L33.3135 281.551H35.2655V289.423H36.9295V290.527H35.2655V292.719H33.9855ZM29.6815 289.423H33.9855V282.591H33.9215L29.6815 289.423ZM45.4513 292.719C44.9499 292.719 44.5926 292.591 44.3793 292.335C44.1659 292.079 44.0326 291.759 43.9793 291.375H43.8993C43.7179 291.855 43.4246 292.233 43.0193 292.511C42.6246 292.777 42.0913 292.911 41.4193 292.911C40.5553 292.911 39.8673 292.687 39.3553 292.239C38.8433 291.791 38.5872 291.177 38.5872 290.399C38.5872 289.631 38.8646 289.039 39.4193 288.623C39.9846 288.207 40.8913 287.999 42.1393 287.999H43.8993V287.183C43.8993 286.575 43.7286 286.121 43.3873 285.823C43.0459 285.513 42.5606 285.359 41.9313 285.359C41.3766 285.359 40.9233 285.471 40.5713 285.695C40.2193 285.908 39.9366 286.201 39.7233 286.575L38.8593 285.935C38.9659 285.721 39.1099 285.513 39.2913 285.311C39.4726 285.108 39.6966 284.932 39.9633 284.783C40.2299 284.623 40.5339 284.5 40.8753 284.415C41.2166 284.319 41.5953 284.271 42.0113 284.271C42.9819 284.271 43.7499 284.516 44.3153 285.007C44.8913 285.497 45.1793 286.18 45.1793 287.055V291.599H46.3313V292.719H45.4513ZM41.6432 291.839C41.9739 291.839 42.2726 291.801 42.5393 291.727C42.8166 291.641 43.0566 291.535 43.2593 291.407C43.4619 291.268 43.6166 291.108 43.7233 290.927C43.8406 290.735 43.8993 290.532 43.8993 290.319V288.959H42.1393C41.3713 288.959 40.8113 289.065 40.4593 289.279C40.1073 289.492 39.9313 289.801 39.9313 290.207V290.543C39.9313 290.969 40.0806 291.295 40.3793 291.519C40.6886 291.732 41.1099 291.839 41.6432 291.839ZM51.925 292.863C51.4877 292.863 51.1783 292.772 50.997 292.591C50.8263 292.409 50.741 292.18 50.741 291.903V291.615C50.741 291.337 50.8263 291.108 50.997 290.927C51.1783 290.745 51.4877 290.655 51.925 290.655C52.3623 290.655 52.6663 290.745 52.837 290.927C53.0183 291.108 53.109 291.337 53.109 291.615V291.903C53.109 292.18 53.0183 292.409 52.837 292.591C52.6663 292.772 52.3623 292.863 51.925 292.863ZM61.5188 292.863C61.0814 292.863 60.7721 292.772 60.5908 292.591C60.4201 292.409 60.3348 292.18 60.3348 291.903V291.615C60.3348 291.337 60.4201 291.108 60.5908 290.927C60.7721 290.745 61.0814 290.655 61.5188 290.655C61.9561 290.655 62.2601 290.745 62.4308 290.927C62.6121 291.108 62.7028 291.337 62.7028 291.615V291.903C62.7028 292.18 62.6121 292.409 62.4308 292.591C62.2601 292.772 61.9561 292.863 61.5188 292.863Z" fill="white"/>
</svg>
