<svg width="291" height="280" viewBox="0 0 291 280" fill="none" xmlns="http://www.w3.org/2000/svg">
<rect x="113.576" y="56.8821" width="58.1194" height="221.26" fill="#212121" stroke="#56EBFF" stroke-width="1.44006" stroke-dasharray="2.59 2.59"/>
<path d="M116.068 160.872H120.378C121.469 160.872 122.323 161.169 122.942 161.763C123.56 162.357 123.869 163.151 123.869 164.145C123.869 164.909 123.681 165.509 123.305 165.945C122.942 166.382 122.469 166.691 121.887 166.873V166.927C122.602 167.097 123.19 167.418 123.651 167.891C124.112 168.352 124.342 169.024 124.342 169.909C124.342 170.419 124.257 170.897 124.087 171.346C123.918 171.795 123.675 172.182 123.36 172.51C123.057 172.837 122.693 173.098 122.269 173.292C121.857 173.474 121.408 173.564 120.923 173.564H116.068V160.872ZM120.469 172.237C121.172 172.237 121.723 172.079 122.123 171.764C122.523 171.449 122.724 170.964 122.724 170.309V169.564C122.724 168.921 122.523 168.443 122.123 168.127C121.723 167.8 121.172 167.636 120.469 167.636H117.595V172.237H120.469ZM120.214 166.382C120.857 166.382 121.36 166.242 121.723 165.963C122.087 165.672 122.269 165.236 122.269 164.654V163.945C122.269 163.363 122.087 162.927 121.723 162.636C121.36 162.345 120.857 162.199 120.214 162.199H117.595V166.382H120.214ZM126.772 172.328H129.517V165.418H126.772V164.181H130.972V166.545H131.063C131.257 165.806 131.621 165.23 132.154 164.818C132.7 164.393 133.391 164.181 134.227 164.181H135.536V165.636H133.773C132.936 165.636 132.257 165.878 131.736 166.363C131.227 166.848 130.972 167.485 130.972 168.273V172.328H134.609V173.564H126.772V172.328ZM142.312 162.108C141.888 162.108 141.591 162.023 141.421 161.854C141.251 161.672 141.167 161.448 141.167 161.181V160.89C141.167 160.623 141.251 160.405 141.421 160.235C141.591 160.053 141.888 159.962 142.312 159.962C142.736 159.962 143.033 160.053 143.203 160.235C143.373 160.405 143.458 160.623 143.458 160.89V161.181C143.458 161.448 143.373 161.672 143.203 161.854C143.033 162.023 142.736 162.108 142.312 162.108ZM138.202 172.328H141.585V165.418H138.202V164.181H143.039V172.328H146.204V173.564H138.202V172.328ZM157.38 174.637C157.38 175.583 156.986 176.28 156.198 176.729C155.41 177.189 154.228 177.42 152.652 177.42C151.137 177.42 150.046 177.22 149.379 176.819C148.724 176.419 148.397 175.844 148.397 175.092C148.397 174.583 148.53 174.189 148.797 173.91C149.064 173.631 149.439 173.425 149.924 173.292V173.073C149.658 172.94 149.452 172.77 149.306 172.564C149.161 172.358 149.088 172.098 149.088 171.782C149.088 171.297 149.245 170.934 149.561 170.691C149.888 170.449 150.294 170.267 150.779 170.146V170.073C150.197 169.818 149.742 169.443 149.415 168.946C149.1 168.449 148.942 167.867 148.942 167.2C148.942 166.727 149.027 166.291 149.197 165.891C149.367 165.491 149.609 165.151 149.924 164.872C150.252 164.581 150.64 164.357 151.088 164.199C151.537 164.042 152.034 163.963 152.579 163.963C153.282 163.963 153.901 164.09 154.434 164.345V164.181C154.434 163.818 154.519 163.515 154.689 163.272C154.858 163.03 155.149 162.908 155.561 162.908H157.289V164.181H155.18V164.818C155.519 165.109 155.78 165.454 155.962 165.854C156.143 166.254 156.234 166.703 156.234 167.2C156.234 167.673 156.143 168.109 155.962 168.509C155.792 168.909 155.549 169.255 155.234 169.546C154.919 169.825 154.531 170.043 154.07 170.2C153.622 170.358 153.125 170.437 152.579 170.437C152.422 170.437 152.27 170.431 152.125 170.419C151.979 170.406 151.834 170.388 151.688 170.364C151.543 170.388 151.391 170.431 151.234 170.491C151.076 170.54 150.931 170.613 150.797 170.709C150.664 170.794 150.555 170.897 150.47 171.019C150.385 171.14 150.343 171.279 150.343 171.437C150.343 171.716 150.482 171.904 150.761 172.001C151.04 172.085 151.403 172.128 151.852 172.128H153.925C155.137 172.128 156.016 172.358 156.562 172.819C157.107 173.267 157.38 173.874 157.38 174.637ZM156.016 174.71C156.016 174.334 155.865 174.031 155.561 173.801C155.258 173.583 154.731 173.474 153.979 173.474H150.724C150.094 173.728 149.779 174.152 149.779 174.746C149.779 175.159 149.942 175.51 150.27 175.801C150.597 176.104 151.143 176.256 151.906 176.256H153.325C154.173 176.256 154.834 176.122 155.307 175.856C155.78 175.601 156.016 175.219 156.016 174.71ZM152.579 169.309C153.307 169.309 153.84 169.14 154.179 168.8C154.531 168.461 154.707 168.012 154.707 167.454V166.927C154.707 166.369 154.531 165.927 154.179 165.6C153.84 165.26 153.307 165.091 152.579 165.091C151.852 165.091 151.318 165.26 150.979 165.6C150.64 165.927 150.47 166.369 150.47 166.927V167.454C150.47 168.012 150.64 168.461 150.979 168.8C151.318 169.14 151.852 169.309 152.579 169.309ZM163.701 173.783C163.022 173.783 162.41 173.667 161.864 173.437C161.331 173.207 160.87 172.88 160.482 172.455C160.107 172.019 159.816 171.504 159.609 170.91C159.403 170.303 159.3 169.631 159.3 168.891C159.3 168.139 159.403 167.461 159.609 166.854C159.828 166.248 160.125 165.733 160.501 165.309C160.876 164.872 161.325 164.539 161.846 164.309C162.38 164.078 162.968 163.963 163.61 163.963C164.24 163.963 164.81 164.078 165.319 164.309C165.841 164.539 166.283 164.86 166.647 165.272C167.011 165.672 167.289 166.151 167.483 166.709C167.677 167.267 167.774 167.879 167.774 168.546V169.237H160.828V169.673C160.828 170.085 160.895 170.467 161.028 170.819C161.161 171.17 161.349 171.473 161.592 171.728C161.846 171.982 162.149 172.182 162.501 172.328C162.865 172.461 163.265 172.528 163.701 172.528C164.331 172.528 164.877 172.382 165.338 172.092C165.798 171.801 166.15 171.401 166.392 170.891L167.465 171.619C167.186 172.249 166.72 172.77 166.065 173.183C165.422 173.583 164.634 173.783 163.701 173.783ZM163.61 165.163C163.21 165.163 162.84 165.236 162.501 165.381C162.161 165.527 161.864 165.727 161.61 165.982C161.367 166.236 161.173 166.539 161.028 166.891C160.895 167.23 160.828 167.606 160.828 168.018V168.145H166.21V167.945C166.21 167.533 166.144 167.157 166.01 166.818C165.889 166.479 165.713 166.188 165.483 165.945C165.265 165.691 164.992 165.497 164.665 165.363C164.35 165.23 163.998 165.163 163.61 165.163Z" fill="#F9F8F4"/>
<rect x="5.57062" y="56.8821" width="77.7633" height="221.769" fill="#212121" stroke="#F9F8F4" stroke-width="1.44006" stroke-dasharray="2.59 2.59"/>
<path d="M28.0825 11.7493V7.17098H27.9168L24.8715 14.6081L21.8262 7.17098H21.6605V11.7493V19H20.0653V4.54001H22.3027L24.8508 10.9206H24.9751L27.5232 4.54001H29.6777V19H28.0825V11.7493ZM32.8185 19V17.612H36.4231V5.928H32.8185V4.54001H41.7679V5.928H38.1633V17.612H41.7679V19H32.8185ZM46.8768 6.75666H46.7317V19H45.1573V4.54001H47.6225L52.553 16.6591H52.698V4.54001H54.2725V19H51.8072L46.8768 6.75666ZM65.8862 19L64.664 14.8775H59.5885L58.3662 19H56.5639L60.9972 4.54001H63.2967L67.73 19H65.8862ZM62.2195 6.38376H62.033L60.0028 13.3652H64.2497L62.2195 6.38376ZM3.40082 29.7567H3.2558V42H1.68136V27.54H4.1466L9.07709 39.6591H9.2221V27.54H10.7965V42H8.3313L3.40082 29.7567ZM18.8471 42.2486C18.0737 42.2486 17.3762 42.1174 16.7547 41.855C16.1471 41.5926 15.6223 41.2197 15.1803 40.7363C14.7522 40.2391 14.4207 39.6522 14.1859 38.9754C13.9511 38.2849 13.8337 37.5184 13.8337 36.6759C13.8337 35.8196 13.9511 35.0462 14.1859 34.3557C14.4345 33.6651 14.7729 33.0782 15.201 32.5948C15.6292 32.0976 16.1402 31.7178 16.734 31.4554C17.3417 31.193 18.0115 31.0618 18.7435 31.0618C19.4617 31.0618 20.1108 31.193 20.6908 31.4554C21.2847 31.7178 21.7888 32.0838 22.2031 32.5534C22.6175 33.0091 22.9351 33.5546 23.1561 34.1899C23.3771 34.8252 23.4876 35.5227 23.4876 36.2823V37.0695H15.5739V37.5667C15.5739 38.0363 15.6499 38.4713 15.8018 38.8718C15.9537 39.2724 16.1678 39.6176 16.444 39.9077C16.734 40.1977 17.0793 40.4256 17.4798 40.5913C17.8941 40.7432 18.3499 40.8192 18.8471 40.8192C19.5653 40.8192 20.1868 40.6534 20.7116 40.322C21.2364 39.9905 21.6369 39.5348 21.9131 38.9547L23.1354 39.7834C22.8177 40.5015 22.286 41.0954 21.5402 41.565C20.8082 42.0207 19.9105 42.2486 18.8471 42.2486ZM18.7435 32.4291C18.2878 32.4291 17.8665 32.5119 17.4798 32.6777C17.0931 32.8434 16.7547 33.0713 16.4647 33.3613C16.1885 33.6513 15.9675 33.9966 15.8018 34.3971C15.6499 34.7838 15.5739 35.212 15.5739 35.6815V35.8265H21.7059V35.5987C21.7059 35.1291 21.63 34.701 21.4781 34.3142C21.34 33.9275 21.1397 33.5961 20.8773 33.3199C20.6287 33.0298 20.318 32.8089 19.9451 32.6569C19.586 32.505 19.1855 32.4291 18.7435 32.4291ZM31.6003 42C30.7854 42 30.1846 41.7721 29.7979 41.3164C29.425 40.8606 29.2386 40.2736 29.2386 39.5555V32.7191H25.6754V31.3104H28.3271C28.6862 31.3104 28.9348 31.2413 29.0729 31.1032C29.2248 30.9513 29.3007 30.6958 29.3007 30.3367V27.54H30.8959V31.3104H35.7642V32.7191H30.8959V40.5913H35.7642V42H31.6003ZM37.9106 31.3104H39.3815L40.6038 40.5499H40.7902L42.6132 31.3104H44.4363L46.2593 40.5499H46.4458L47.668 31.3104H49.0975L47.4609 42H45.3064L43.6076 33.0506H43.4419L41.7017 42H39.5472L37.9106 31.3104ZM55.9257 42.2486C55.18 42.2486 54.5032 42.1174 53.8955 41.855C53.3017 41.5926 52.7907 41.2197 52.3625 40.7363C51.9482 40.2391 51.6306 39.6522 51.4096 38.9754C51.1886 38.2849 51.0781 37.5115 51.0781 36.6552C51.0781 35.8127 51.1886 35.0462 51.4096 34.3557C51.6306 33.6651 51.9482 33.0782 52.3625 32.5948C52.7907 32.0976 53.3017 31.7178 53.8955 31.4554C54.5032 31.193 55.18 31.0618 55.9257 31.0618C56.6715 31.0618 57.3414 31.193 57.9352 31.4554C58.5429 31.7178 59.0539 32.0976 59.4682 32.5948C59.8964 33.0782 60.2209 33.6651 60.4419 34.3557C60.6629 35.0462 60.7734 35.8127 60.7734 36.6552C60.7734 37.5115 60.6629 38.2849 60.4419 38.9754C60.2209 39.6522 59.8964 40.2391 59.4682 40.7363C59.0539 41.2197 58.5429 41.5926 57.9352 41.855C57.3414 42.1174 56.6715 42.2486 55.9257 42.2486ZM55.9257 40.8192C56.8511 40.8192 57.5969 40.543 58.1631 39.9905C58.7294 39.4381 59.0125 38.5818 59.0125 37.4217V35.8887C59.0125 34.7286 58.7294 33.8723 58.1631 33.3199C57.5969 32.7674 56.8511 32.4912 55.9257 32.4912C55.0004 32.4912 54.2546 32.7674 53.6884 33.3199C53.1221 33.8723 52.839 34.7286 52.839 35.8887V37.4217C52.839 38.5818 53.1221 39.4381 53.6884 39.9905C54.2546 40.543 55.0004 40.8192 55.9257 40.8192ZM63.7277 40.5913H66.8559V32.7191H63.7277V31.3104H68.5132V34.0035H68.6168C68.8377 33.161 69.2521 32.505 69.8597 32.0355C70.4812 31.5521 71.2684 31.3104 72.2214 31.3104H73.713V32.9677H71.7035C70.7505 32.9677 69.9771 33.2439 69.3833 33.7963C68.8032 34.3488 68.5132 35.0738 68.5132 35.9716V40.5913H72.6564V42H63.7277V40.5913ZM76.7295 26.6699H78.3868V36.3444H78.4696L80.3341 34.5836L83.8973 31.3104H85.9275L81.4942 35.4951L86.4454 42H84.3945L80.2305 36.448L78.3868 38.126V42H76.7295V26.6699Z" fill="#F9F8F4"/>
<path d="M193.162 19V4.54001H198.424C199.764 4.54001 200.786 4.906 201.49 5.63797C202.194 6.36995 202.547 7.39196 202.547 8.70399C202.547 10.016 202.194 11.038 201.49 11.77C200.786 12.502 199.764 12.868 198.424 12.868H194.902V19H193.162ZM194.902 11.3557H198.383C199.115 11.3557 199.681 11.1761 200.081 10.8171C200.496 10.4442 200.703 9.91935 200.703 9.24261V8.16537C200.703 7.48863 200.496 6.97072 200.081 6.61164C199.681 6.23875 199.115 6.0523 198.383 6.0523H194.902V11.3557ZM205.314 17.5913H208.443V9.71909H205.314V8.31038H210.1V11.0035H210.203C210.424 10.161 210.839 9.50502 211.446 9.03545C212.068 8.55207 212.855 8.31038 213.808 8.31038H215.3V9.96768H213.29C212.337 9.96768 211.564 10.2439 210.97 10.7963C210.39 11.3488 210.1 12.0738 210.1 12.9716V17.5913H214.243V19H205.314V17.5913ZM222.356 19.2486C221.61 19.2486 220.933 19.1174 220.326 18.855C219.732 18.5926 219.221 18.2197 218.793 17.7363C218.378 17.2391 218.061 16.6522 217.84 15.9754C217.619 15.2849 217.508 14.5115 217.508 13.6552C217.508 12.8127 217.619 12.0462 217.84 11.3557C218.061 10.6651 218.378 10.0782 218.793 9.59479C219.221 9.0976 219.732 8.7178 220.326 8.45539C220.933 8.19299 221.61 8.06178 222.356 8.06178C223.102 8.06178 223.771 8.19299 224.365 8.45539C224.973 8.7178 225.484 9.0976 225.898 9.59479C226.327 10.0782 226.651 10.6651 226.872 11.3557C227.093 12.0462 227.203 12.8127 227.203 13.6552C227.203 14.5115 227.093 15.2849 226.872 15.9754C226.651 16.6522 226.327 17.2391 225.898 17.7363C225.484 18.2197 224.973 18.5926 224.365 18.855C223.771 19.1174 223.102 19.2486 222.356 19.2486ZM222.356 17.8192C223.281 17.8192 224.027 17.543 224.593 16.9905C225.159 16.4381 225.443 15.5818 225.443 14.4217V12.8887C225.443 11.7286 225.159 10.8723 224.593 10.3199C224.027 9.76743 223.281 9.49121 222.356 9.49121C221.431 9.49121 220.685 9.76743 220.119 10.3199C219.552 10.8723 219.269 11.7286 219.269 12.8887V14.4217C219.269 15.5818 219.552 16.4381 220.119 16.9905C220.685 17.543 221.431 17.8192 222.356 17.8192ZM235.295 19C234.481 19 233.88 18.7721 233.493 18.3164C233.12 17.8606 232.934 17.2736 232.934 16.5555V9.71909H229.371V8.31038H232.022C232.381 8.31038 232.63 8.24132 232.768 8.10322C232.92 7.9513 232.996 7.6958 232.996 7.33671V4.54001H234.591V8.31038H239.459V9.71909H234.591V17.5913H239.459V19H235.295ZM247.199 19.2486C246.453 19.2486 245.777 19.1174 245.169 18.855C244.575 18.5926 244.064 18.2197 243.636 17.7363C243.222 17.2391 242.904 16.6522 242.683 15.9754C242.462 15.2849 242.352 14.5115 242.352 13.6552C242.352 12.8127 242.462 12.0462 242.683 11.3557C242.904 10.6651 243.222 10.0782 243.636 9.59479C244.064 9.0976 244.575 8.7178 245.169 8.45539C245.777 8.19299 246.453 8.06178 247.199 8.06178C247.945 8.06178 248.615 8.19299 249.209 8.45539C249.816 8.7178 250.327 9.0976 250.742 9.59479C251.17 10.0782 251.494 10.6651 251.715 11.3557C251.936 12.0462 252.047 12.8127 252.047 13.6552C252.047 14.5115 251.936 15.2849 251.715 15.9754C251.494 16.6522 251.17 17.2391 250.742 17.7363C250.327 18.2197 249.816 18.5926 249.209 18.855C248.615 19.1174 247.945 19.2486 247.199 19.2486ZM247.199 17.8192C248.125 17.8192 248.87 17.543 249.437 16.9905C250.003 16.4381 250.286 15.5818 250.286 14.4217V12.8887C250.286 11.7286 250.003 10.8723 249.437 10.3199C248.87 9.76743 248.125 9.49121 247.199 9.49121C246.274 9.49121 245.528 9.76743 244.962 10.3199C244.396 10.8723 244.113 11.7286 244.113 12.8887V14.4217C244.113 15.5818 244.396 16.4381 244.962 16.9905C245.528 17.543 246.274 17.8192 247.199 17.8192ZM255.581 3.66992H257.239V13.3444H257.321L259.186 11.5836L262.749 8.31038H264.779L260.346 12.4951L265.297 19H263.246L259.082 13.448L257.239 15.126V19H255.581V3.66992ZM272.706 5.94872C272.222 5.94872 271.884 5.85204 271.69 5.65869C271.497 5.45153 271.4 5.19603 271.4 4.89219V4.56073C271.4 4.25689 271.497 4.00829 271.69 3.81494C271.884 3.60777 272.222 3.50419 272.706 3.50419C273.189 3.50419 273.527 3.60777 273.721 3.81494C273.914 4.00829 274.011 4.25689 274.011 4.56073V4.89219C274.011 5.19603 273.914 5.45153 273.721 5.65869C273.527 5.85204 273.189 5.94872 272.706 5.94872ZM268.024 17.5913H271.877V9.71909H268.024V8.31038H273.534V17.5913H277.139V19H268.024V17.5913ZM284.982 19C284.167 19 283.567 18.7721 283.18 18.3164C282.807 17.8606 282.621 17.2736 282.621 16.5555V9.71909H279.057V8.31038H281.709C282.068 8.31038 282.317 8.24132 282.455 8.10322C282.607 7.9513 282.683 7.6958 282.683 7.33671V4.54001H284.278V8.31038H289.146V9.71909H284.278V17.5913H289.146V19H284.982ZM200.885 29.7567H200.74V42H199.166V27.54H201.631L206.561 39.6591H206.706V27.54H208.281V42H205.816L200.885 29.7567ZM216.331 42.2486C215.558 42.2486 214.861 42.1174 214.239 41.855C213.631 41.5926 213.107 41.2197 212.665 40.7363C212.237 40.2391 211.905 39.6522 211.67 38.9754C211.436 38.2849 211.318 37.5184 211.318 36.6759C211.318 35.8196 211.436 35.0462 211.67 34.3557C211.919 33.6651 212.257 33.0782 212.685 32.5948C213.114 32.0976 213.625 31.7178 214.218 31.4554C214.826 31.193 215.496 31.0618 216.228 31.0618C216.946 31.0618 217.595 31.193 218.175 31.4554C218.769 31.7178 219.273 32.0838 219.688 32.5534C220.102 33.0091 220.419 33.5546 220.64 34.1899C220.861 34.8252 220.972 35.5227 220.972 36.2823V37.0695H213.058V37.5667C213.058 38.0363 213.134 38.4713 213.286 38.8718C213.438 39.2724 213.652 39.6176 213.928 39.9077C214.218 40.1977 214.564 40.4256 214.964 40.5913C215.379 40.7432 215.834 40.8192 216.331 40.8192C217.05 40.8192 217.671 40.6534 218.196 40.322C218.721 39.9905 219.121 39.5348 219.397 38.9547L220.62 39.7834C220.302 40.5015 219.77 41.0954 219.025 41.565C218.293 42.0207 217.395 42.2486 216.331 42.2486ZM216.228 32.4291C215.772 32.4291 215.351 32.5119 214.964 32.6777C214.577 32.8434 214.239 33.0713 213.949 33.3613C213.673 33.6513 213.452 33.9966 213.286 34.3971C213.134 34.7838 213.058 35.212 213.058 35.6815V35.8265H219.19V35.5987C219.19 35.1291 219.114 34.701 218.962 34.3142C218.824 33.9275 218.624 33.5961 218.362 33.3199C218.113 33.0298 217.802 32.8089 217.429 32.6569C217.07 32.505 216.67 32.4291 216.228 32.4291ZM229.085 42C228.27 42 227.669 41.7721 227.282 41.3164C226.909 40.8606 226.723 40.2736 226.723 39.5555V32.7191H223.16V31.3104H225.811C226.171 31.3104 226.419 31.2413 226.557 31.1032C226.709 30.9513 226.785 30.6958 226.785 30.3367V27.54H228.38V31.3104H233.249V32.7191H228.38V40.5913H233.249V42H229.085ZM235.395 31.3104H236.866L238.088 40.5499H238.275L240.098 31.3104H241.921L243.744 40.5499H243.93L245.152 31.3104H246.582L244.945 42H242.791L241.092 33.0506H240.926L239.186 42H237.032L235.395 31.3104ZM253.41 42.2486C252.664 42.2486 251.988 42.1174 251.38 41.855C250.786 41.5926 250.275 41.2197 249.847 40.7363C249.433 40.2391 249.115 39.6522 248.894 38.9754C248.673 38.2849 248.563 37.5115 248.563 36.6552C248.563 35.8127 248.673 35.0462 248.894 34.3557C249.115 33.6651 249.433 33.0782 249.847 32.5948C250.275 32.0976 250.786 31.7178 251.38 31.4554C251.988 31.193 252.664 31.0618 253.41 31.0618C254.156 31.0618 254.826 31.193 255.42 31.4554C256.027 31.7178 256.538 32.0976 256.953 32.5948C257.381 33.0782 257.705 33.6651 257.926 34.3557C258.147 35.0462 258.258 35.8127 258.258 36.6552C258.258 37.5115 258.147 38.2849 257.926 38.9754C257.705 39.6522 257.381 40.2391 256.953 40.7363C256.538 41.2197 256.027 41.5926 255.42 41.855C254.826 42.1174 254.156 42.2486 253.41 42.2486ZM253.41 40.8192C254.335 40.8192 255.081 40.543 255.647 39.9905C256.214 39.4381 256.497 38.5818 256.497 37.4217V35.8887C256.497 34.7286 256.214 33.8723 255.647 33.3199C255.081 32.7674 254.335 32.4912 253.41 32.4912C252.485 32.4912 251.739 32.7674 251.173 33.3199C250.607 33.8723 250.323 34.7286 250.323 35.8887V37.4217C250.323 38.5818 250.607 39.4381 251.173 39.9905C251.739 40.543 252.485 40.8192 253.41 40.8192ZM261.212 40.5913H264.34V32.7191H261.212V31.3104H265.998V34.0035H266.101C266.322 33.161 266.736 32.505 267.344 32.0355C267.966 31.5521 268.753 31.3104 269.706 31.3104H271.197V32.9677H269.188C268.235 32.9677 267.462 33.2439 266.868 33.7963C266.288 34.3488 265.998 35.0738 265.998 35.9716V40.5913H270.141V42H261.212V40.5913ZM274.214 26.6699H275.871V36.3444H275.954L277.818 34.5836L281.382 31.3104H283.412L278.979 35.4951L283.93 42H281.879L277.715 36.448L275.871 38.126V42H274.214V26.6699Z" fill="#F9F8F4"/>
<rect x="203.374" y="56.8821" width="77.7633" height="221.769" fill="#212121" stroke="#F9F8F4" stroke-width="1.44006" stroke-dasharray="2.59 2.59"/>
<path d="M213.629 75.859H215.084V77.3865H215.157C215.763 76.2227 216.727 75.6408 218.048 75.6408C219.2 75.6408 220.097 76.0712 220.739 76.9319C221.394 77.7926 221.721 78.9989 221.721 80.5506C221.721 82.1023 221.394 83.3086 220.739 84.1693C220.097 85.03 219.2 85.4604 218.048 85.4604C216.727 85.4604 215.763 84.8785 215.157 83.7147H215.084V88.8791H213.629V75.859ZM217.484 84.1693C218.333 84.1693 218.988 83.9147 219.448 83.4056C219.921 82.8843 220.158 82.1993 220.158 81.3507V79.7505C220.158 78.9019 219.921 78.223 219.448 77.7138C218.988 77.1925 218.333 76.9319 217.484 76.9319C217.157 76.9319 216.848 76.9743 216.557 77.0592C216.266 77.1441 216.012 77.2713 215.793 77.4411C215.575 77.5987 215.399 77.7987 215.266 78.0412C215.145 78.2715 215.084 78.5443 215.084 78.8595V82.2418C215.084 82.557 215.145 82.8358 215.266 83.0782C215.399 83.3086 215.575 83.5086 215.793 83.6783C216.012 83.8359 216.266 83.9572 216.557 84.042C216.848 84.1269 217.157 84.1693 217.484 84.1693ZM224.26 84.0056H227.533V73.0222H224.26V71.7857H228.988V84.0056H232.261V85.2422H224.26V84.0056ZM242.71 85.2422C242.14 85.2422 241.734 85.0967 241.492 84.8058C241.249 84.5148 241.098 84.1511 241.037 83.7147H240.946C240.74 84.2602 240.407 84.6906 239.946 85.0058C239.498 85.3089 238.892 85.4604 238.128 85.4604C237.146 85.4604 236.364 85.2058 235.782 84.6967C235.2 84.1875 234.909 83.4904 234.909 82.6054C234.909 81.7326 235.224 81.0598 235.855 80.587C236.497 80.1142 237.528 79.8778 238.946 79.8778H240.946V78.9504C240.946 78.2594 240.752 77.7441 240.364 77.4047C239.977 77.0531 239.425 76.8773 238.71 76.8773C238.079 76.8773 237.564 77.0046 237.164 77.2592C236.764 77.5017 236.443 77.8351 236.2 78.2594L235.218 77.532C235.34 77.2895 235.503 77.0531 235.709 76.8228C235.915 76.5925 236.17 76.3924 236.473 76.2227C236.776 76.0409 237.122 75.9014 237.51 75.8045C237.897 75.6954 238.328 75.6408 238.801 75.6408C239.904 75.6408 240.777 75.9196 241.419 76.4773C242.074 77.0349 242.401 77.8108 242.401 78.8049V83.9693H243.71V85.2422H242.71ZM238.382 84.242C238.758 84.242 239.098 84.1996 239.401 84.1148C239.716 84.0178 239.989 83.8965 240.219 83.7511C240.449 83.5935 240.625 83.4116 240.746 83.2055C240.88 82.9873 240.946 82.757 240.946 82.5145V80.9688H238.946C238.073 80.9688 237.437 81.0901 237.037 81.3325C236.637 81.575 236.437 81.9266 236.437 82.3872V82.7691C236.437 83.254 236.606 83.6238 236.946 83.8784C237.297 84.1208 237.776 84.242 238.382 84.242ZM253.105 75.859H254.559L249.904 87.297C249.795 87.5637 249.674 87.7941 249.541 87.988C249.407 88.1941 249.25 88.3578 249.068 88.479C248.886 88.6124 248.668 88.7094 248.413 88.77C248.158 88.8427 247.855 88.8791 247.504 88.8791H246.122V87.6425H248.304L249.359 85.0603L245.576 75.859H247.067L248.649 79.7869L250.05 83.351H250.122L251.523 79.7869L253.105 75.859ZM259.244 79.5868C259.244 78.7019 259.341 77.8532 259.535 77.041C259.741 76.2166 260.014 75.4529 260.353 74.7498C260.705 74.0466 261.111 73.4162 261.572 72.8586C262.032 72.2888 262.517 71.81 263.026 71.422H264.499C263.966 71.8221 263.463 72.2888 262.99 72.8222C262.529 73.3435 262.117 73.9193 261.753 74.5497C261.402 75.168 261.123 75.8408 260.917 76.5682C260.711 77.2835 260.608 78.029 260.608 78.8049V80.3688C260.608 81.1446 260.711 81.8963 260.917 82.6236C261.123 83.3389 261.402 84.0117 261.753 84.6421C262.117 85.2604 262.529 85.8302 262.99 86.3514C263.463 86.8848 263.966 87.3516 264.499 87.7516H263.026C262.517 87.3758 262.032 86.903 261.572 86.3333C261.111 85.7635 260.705 85.127 260.353 84.4239C260.014 83.7208 259.741 82.9631 259.535 82.1508C259.341 81.3265 259.244 80.4718 259.244 79.5868ZM273.602 79.5868C273.602 80.4718 273.499 81.3265 273.293 82.1508C273.099 82.9631 272.827 83.7208 272.475 84.4239C272.136 85.127 271.736 85.7635 271.275 86.3333C270.814 86.903 270.329 87.3758 269.82 87.7516H268.347C268.868 87.3516 269.366 86.8848 269.838 86.3514C270.311 85.8302 270.723 85.2604 271.075 84.6421C271.439 84.0117 271.723 83.3389 271.93 82.6236C272.136 81.8963 272.239 81.1446 272.239 80.3688V78.8049C272.239 78.029 272.136 77.2835 271.93 76.5682C271.723 75.8408 271.439 75.168 271.075 74.5497C270.723 73.9193 270.311 73.3435 269.838 72.8222C269.366 72.2888 268.868 71.8221 268.347 71.422H269.82C270.329 71.81 270.814 72.2888 271.275 72.8586C271.736 73.4162 272.136 74.0466 272.475 74.7498C272.827 75.4529 273.099 76.2166 273.293 77.041C273.499 77.8532 273.602 78.7019 273.602 79.5868Z" fill="#F9F8F4"/>
<path d="M213.629 255.867H215.084V257.394H215.157C215.763 256.231 216.727 255.649 218.048 255.649C219.2 255.649 220.097 256.079 220.739 256.94C221.394 257.8 221.721 259.007 221.721 260.558C221.721 262.11 221.394 263.316 220.739 264.177C220.097 265.038 219.2 265.468 218.048 265.468C216.727 265.468 215.763 264.886 215.157 263.723H215.084V268.887H213.629V255.867ZM217.484 264.177C218.333 264.177 218.988 263.923 219.448 263.413C219.921 262.892 220.158 262.207 220.158 261.359V259.758C220.158 258.91 219.921 258.231 219.448 257.722C218.988 257.2 218.333 256.94 217.484 256.94C217.157 256.94 216.848 256.982 216.557 257.067C216.266 257.152 216.012 257.279 215.793 257.449C215.575 257.606 215.399 257.807 215.266 258.049C215.145 258.279 215.084 258.552 215.084 258.867V262.25C215.084 262.565 215.145 262.844 215.266 263.086C215.399 263.316 215.575 263.516 215.793 263.686C216.012 263.844 216.266 263.965 216.557 264.05C216.848 264.135 217.157 264.177 217.484 264.177ZM224.26 264.013H227.533V253.03H224.26V251.794H228.988V264.013H232.261V265.25H224.26V264.013ZM242.71 265.25C242.14 265.25 241.734 265.105 241.492 264.814C241.249 264.523 241.098 264.159 241.037 263.723H240.946C240.74 264.268 240.407 264.698 239.946 265.014C239.498 265.317 238.892 265.468 238.128 265.468C237.146 265.468 236.364 265.214 235.782 264.704C235.2 264.195 234.909 263.498 234.909 262.613C234.909 261.74 235.224 261.068 235.855 260.595C236.497 260.122 237.528 259.886 238.946 259.886H240.946V258.958C240.946 258.267 240.752 257.752 240.364 257.413C239.977 257.061 239.425 256.885 238.71 256.885C238.079 256.885 237.564 257.012 237.164 257.267C236.764 257.509 236.443 257.843 236.2 258.267L235.218 257.54C235.34 257.297 235.503 257.061 235.709 256.831C235.915 256.6 236.17 256.4 236.473 256.231C236.776 256.049 237.122 255.909 237.51 255.812C237.897 255.703 238.328 255.649 238.801 255.649C239.904 255.649 240.777 255.927 241.419 256.485C242.074 257.043 242.401 257.819 242.401 258.813V263.977H243.71V265.25H242.71ZM238.382 264.25C238.758 264.25 239.098 264.207 239.401 264.123C239.716 264.026 239.989 263.904 240.219 263.759C240.449 263.601 240.625 263.419 240.746 263.213C240.88 262.995 240.946 262.765 240.946 262.522V260.977H238.946C238.073 260.977 237.437 261.098 237.037 261.34C236.637 261.583 236.437 261.934 236.437 262.395V262.777C236.437 263.262 236.606 263.632 236.946 263.886C237.297 264.129 237.776 264.25 238.382 264.25ZM253.105 255.867H254.559L249.904 267.305C249.795 267.572 249.674 267.802 249.541 267.996C249.407 268.202 249.25 268.366 249.068 268.487C248.886 268.62 248.668 268.717 248.413 268.778C248.158 268.851 247.855 268.887 247.504 268.887H246.122V267.65H248.304L249.359 265.068L245.576 255.867H247.067L248.649 259.795L250.05 263.359H250.122L251.523 259.795L253.105 255.867ZM259.244 259.595C259.244 258.71 259.341 257.861 259.535 257.049C259.741 256.224 260.014 255.461 260.353 254.758C260.705 254.054 261.111 253.424 261.572 252.866C262.032 252.297 262.517 251.818 263.026 251.43H264.499C263.966 251.83 263.463 252.297 262.99 252.83C262.529 253.351 262.117 253.927 261.753 254.558C261.402 255.176 261.123 255.849 260.917 256.576C260.711 257.291 260.608 258.037 260.608 258.813V260.377C260.608 261.152 260.711 261.904 260.917 262.631C261.123 263.347 261.402 264.02 261.753 264.65C262.117 265.268 262.529 265.838 262.99 266.359C263.463 266.893 263.966 267.359 264.499 267.759H263.026C262.517 267.384 262.032 266.911 261.572 266.341C261.111 265.771 260.705 265.135 260.353 264.432C260.014 263.729 259.741 262.971 259.535 262.159C259.341 261.334 259.244 260.48 259.244 259.595ZM273.602 259.595C273.602 260.48 273.499 261.334 273.293 262.159C273.099 262.971 272.827 263.729 272.475 264.432C272.136 265.135 271.736 265.771 271.275 266.341C270.814 266.911 270.329 267.384 269.82 267.759H268.347C268.868 267.359 269.366 266.893 269.838 266.359C270.311 265.838 270.723 265.268 271.075 264.65C271.439 264.02 271.723 263.347 271.93 262.631C272.136 261.904 272.239 261.152 272.239 260.377V258.813C272.239 258.037 272.136 257.291 271.93 256.576C271.723 255.849 271.439 255.176 271.075 254.558C270.723 253.927 270.311 253.351 269.838 252.83C269.366 252.297 268.868 251.83 268.347 251.43H269.82C270.329 251.818 270.814 252.297 271.275 252.866C271.736 253.424 272.136 254.054 272.475 254.758C272.827 255.461 273.099 256.224 273.293 257.049C273.499 257.861 273.602 258.71 273.602 259.595Z" fill="#F9F8F4"/>
<path d="M214.979 163.006V150.313H219.598C220.774 150.313 221.671 150.634 222.29 151.277C222.908 151.919 223.217 152.817 223.217 153.968C223.217 155.12 222.908 156.017 222.29 156.659C221.671 157.302 220.774 157.623 219.598 157.623H216.507V163.006H214.979ZM216.507 156.296H219.562C220.204 156.296 220.701 156.138 221.053 155.823C221.417 155.496 221.599 155.035 221.599 154.441V153.495C221.599 152.901 221.417 152.447 221.053 152.132C220.701 151.804 220.204 151.641 219.562 151.641H216.507V156.296ZM225.647 161.769H228.392V154.859H225.647V153.623H229.847V155.987H229.938C230.132 155.247 230.496 154.671 231.029 154.259C231.575 153.835 232.266 153.623 233.102 153.623H234.411V155.077H232.648C231.811 155.077 231.132 155.32 230.611 155.805C230.102 156.29 229.847 156.926 229.847 157.714V161.769H233.484V163.006H225.647V161.769ZM240.605 163.224C239.951 163.224 239.357 163.109 238.823 162.879C238.302 162.648 237.853 162.321 237.477 161.897C237.114 161.46 236.835 160.945 236.641 160.351C236.447 159.745 236.35 159.066 236.35 158.314C236.35 157.575 236.447 156.902 236.641 156.296C236.835 155.69 237.114 155.174 237.477 154.75C237.853 154.314 238.302 153.98 238.823 153.75C239.357 153.52 239.951 153.404 240.605 153.404C241.26 153.404 241.848 153.52 242.369 153.75C242.903 153.98 243.351 154.314 243.715 154.75C244.091 155.174 244.375 155.69 244.569 156.296C244.763 156.902 244.86 157.575 244.86 158.314C244.86 159.066 244.763 159.745 244.569 160.351C244.375 160.945 244.091 161.46 243.715 161.897C243.351 162.321 242.903 162.648 242.369 162.879C241.848 163.109 241.26 163.224 240.605 163.224ZM240.605 161.969C241.417 161.969 242.072 161.727 242.569 161.242C243.066 160.757 243.315 160.005 243.315 158.987V157.641C243.315 156.623 243.066 155.871 242.569 155.387C242.072 154.902 241.417 154.659 240.605 154.659C239.793 154.659 239.138 154.902 238.641 155.387C238.144 155.871 237.896 156.623 237.896 157.641V158.987C237.896 160.005 238.144 160.757 238.641 161.242C239.138 161.727 239.793 161.969 240.605 161.969ZM250.581 163.006L247.217 153.623H248.69L250.036 157.551L251.491 161.788H251.563L253.018 157.551L254.364 153.623H255.8L252.436 163.006H250.581ZM262.576 163.224C261.897 163.224 261.285 163.109 260.739 162.879C260.206 162.648 259.745 162.321 259.357 161.897C258.982 161.46 258.691 160.945 258.484 160.351C258.278 159.745 258.175 159.072 258.175 158.332C258.175 157.581 258.278 156.902 258.484 156.296C258.703 155.69 259 155.174 259.376 154.75C259.751 154.314 260.2 153.98 260.721 153.75C261.255 153.52 261.843 153.404 262.485 153.404C263.115 153.404 263.685 153.52 264.194 153.75C264.716 153.98 265.158 154.302 265.522 154.714C265.886 155.114 266.164 155.593 266.358 156.15C266.552 156.708 266.649 157.32 266.649 157.987V158.678H259.703V159.114C259.703 159.527 259.77 159.908 259.903 160.26C260.036 160.612 260.224 160.915 260.467 161.169C260.721 161.424 261.024 161.624 261.376 161.769C261.74 161.903 262.14 161.969 262.576 161.969C263.206 161.969 263.752 161.824 264.213 161.533C264.673 161.242 265.025 160.842 265.267 160.333L266.34 161.06C266.061 161.691 265.595 162.212 264.94 162.624C264.297 163.024 263.509 163.224 262.576 163.224ZM262.485 154.605C262.085 154.605 261.715 154.677 261.376 154.823C261.036 154.968 260.739 155.168 260.485 155.423C260.242 155.678 260.048 155.981 259.903 156.332C259.77 156.672 259.703 157.047 259.703 157.46V157.587H265.085V157.387C265.085 156.975 265.019 156.599 264.885 156.259C264.764 155.92 264.588 155.629 264.358 155.387C264.14 155.132 263.867 154.938 263.54 154.805C263.225 154.671 262.873 154.605 262.485 154.605ZM214.979 187.006L213.979 174.313H215.343L215.87 181.587L216.143 185.424H216.289L217.962 177.623H219.671L221.344 185.424H221.489L221.762 181.587L222.29 174.313H223.617L222.617 187.006H220.417L218.871 179.423H218.725L217.18 187.006H214.979ZM230.284 175.55C229.859 175.55 229.562 175.465 229.393 175.295C229.223 175.113 229.138 174.889 229.138 174.622V174.331C229.138 174.065 229.223 173.846 229.393 173.677C229.562 173.495 229.859 173.404 230.284 173.404C230.708 173.404 231.005 173.495 231.175 173.677C231.344 173.846 231.429 174.065 231.429 174.331V174.622C231.429 174.889 231.344 175.113 231.175 175.295C231.005 175.465 230.708 175.55 230.284 175.55ZM226.174 185.769H229.556V178.859H226.174V177.623H231.011V185.769H234.175V187.006H226.174V185.769ZM236.932 187.006V177.623H238.387V179.15H238.459C238.556 178.92 238.678 178.702 238.823 178.496C238.969 178.277 239.144 178.089 239.35 177.932C239.569 177.774 239.823 177.647 240.114 177.55C240.405 177.453 240.745 177.404 241.133 177.404C242.115 177.404 242.903 177.72 243.497 178.35C244.091 178.968 244.388 179.847 244.388 180.987V187.006H242.933V181.241C242.933 180.381 242.745 179.744 242.369 179.332C241.993 178.908 241.442 178.696 240.714 178.696C240.423 178.696 240.138 178.732 239.86 178.805C239.581 178.877 239.332 178.987 239.114 179.132C238.896 179.277 238.72 179.465 238.587 179.696C238.453 179.926 238.387 180.193 238.387 180.496V187.006H236.932ZM249.781 181.35C249.781 180.466 249.878 179.617 250.072 178.805C250.278 177.98 250.551 177.217 250.891 176.513C251.242 175.81 251.648 175.18 252.109 174.622C252.57 174.052 253.054 173.574 253.564 173.186H255.037C254.503 173.586 254 174.052 253.527 174.586C253.067 175.107 252.654 175.683 252.291 176.313C251.939 176.932 251.66 177.605 251.454 178.332C251.248 179.047 251.145 179.793 251.145 180.569V182.132C251.145 182.908 251.248 183.66 251.454 184.387C251.66 185.103 251.939 185.775 252.291 186.406C252.654 187.024 253.067 187.594 253.527 188.115C254 188.649 254.503 189.115 255.037 189.515H253.564C253.054 189.139 252.57 188.667 252.109 188.097C251.648 187.527 251.242 186.891 250.891 186.188C250.551 185.484 250.278 184.727 250.072 183.915C249.878 183.09 249.781 182.235 249.781 181.35ZM264.14 181.35C264.14 182.235 264.037 183.09 263.831 183.915C263.637 184.727 263.364 185.484 263.012 186.188C262.673 186.891 262.273 187.527 261.812 188.097C261.352 188.667 260.867 189.139 260.357 189.515H258.885C259.406 189.115 259.903 188.649 260.376 188.115C260.848 187.594 261.261 187.024 261.612 186.406C261.976 185.775 262.261 185.103 262.467 184.387C262.673 183.66 262.776 182.908 262.776 182.132V180.569C262.776 179.793 262.673 179.047 262.467 178.332C262.261 177.605 261.976 176.932 261.612 176.313C261.261 175.683 260.848 175.107 260.376 174.586C259.903 174.052 259.406 173.586 258.885 173.186H260.357C260.867 173.574 261.352 174.052 261.812 174.622C262.273 175.18 262.673 175.81 263.012 176.513C263.364 177.217 263.637 177.98 263.831 178.805C264.037 179.617 264.14 180.466 264.14 181.35Z" fill="#F9F8F4"/>
<path d="M112.855 92.8838L105.654 88.7267V97.0409L112.855 92.8838ZM82.6133 93.6038H106.374V92.1638H82.6133V93.6038Z" fill="#F9F8F4"/>
<path d="M202.139 92.8838L194.938 88.7267V97.0409L202.139 92.8838ZM171.897 93.6038H195.658V92.1638H171.897V93.6038Z" fill="#F9F8F4"/>
<path d="M82.6133 179.288L89.8136 183.445V175.131L82.6133 179.288ZM89.0936 180.008H112.855V178.568H89.0936V180.008Z" fill="#F9F8F4"/>
<path d="M171.897 179.288L179.098 183.445V175.131L171.897 179.288ZM178.378 180.008H202.139V178.568H178.378V180.008Z" fill="#F9F8F4"/>
<path d="M112.855 265.691L105.654 261.534V269.849L112.855 265.691ZM82.6133 266.411H106.374V264.971H82.6133V266.411Z" fill="#F9F8F4"/>
<path d="M202.139 265.691L194.938 261.534V269.849L202.139 265.691ZM171.897 266.411H195.658V264.971H171.897V266.411Z" fill="#F9F8F4"/>
</svg>
