<svg width="340" height="336" viewBox="0 0 340 336" fill="none" xmlns="http://www.w3.org/2000/svg">
<path d="M247.838 329.305C246.862 329.305 245.988 329.106 245.217 328.706C244.447 328.307 243.841 327.743 243.401 327.014C242.975 326.285 242.761 325.432 242.761 324.455C242.761 323.574 242.906 322.811 243.195 322.164C243.497 321.503 243.924 320.946 244.474 320.492C245.038 320.024 245.713 319.639 246.497 319.336C246.18 319.13 245.871 318.903 245.568 318.655C245.265 318.408 245.018 318.105 244.825 317.747C244.633 317.376 244.536 316.928 244.536 316.406C244.536 315.91 244.674 315.429 244.949 314.961C245.224 314.479 245.658 314.087 246.249 313.784C246.841 313.468 247.605 313.31 248.54 313.31C249.228 313.31 249.827 313.385 250.336 313.537C250.845 313.688 251.271 313.867 251.615 314.073C251.973 314.266 252.235 314.438 252.4 314.589L251.615 316.013C251.189 315.683 250.714 315.401 250.191 315.167C249.682 314.92 249.125 314.796 248.52 314.796C247.942 314.796 247.488 314.878 247.157 315.043C246.841 315.209 246.621 315.415 246.497 315.663C246.373 315.897 246.311 316.124 246.311 316.344C246.311 316.578 246.366 316.812 246.476 317.045C246.586 317.279 246.806 317.534 247.137 317.809C247.481 318.07 247.99 318.38 248.664 318.738C249.889 319.385 250.797 320.024 251.388 320.657C251.98 321.276 252.372 321.889 252.565 322.494C252.757 323.086 252.854 323.671 252.854 324.248C252.854 325.418 252.62 326.374 252.152 327.117C251.684 327.86 251.065 328.411 250.294 328.768C249.538 329.126 248.719 329.305 247.838 329.305ZM247.88 327.819C248.568 327.819 249.146 327.668 249.613 327.365C250.095 327.062 250.46 326.643 250.707 326.106C250.955 325.569 251.079 324.964 251.079 324.29C251.079 323.616 250.955 323.017 250.707 322.494C250.46 321.971 250.102 321.51 249.634 321.111C249.18 320.712 248.643 320.368 248.024 320.079C247.501 320.258 247.027 320.472 246.6 320.719C246.187 320.967 245.83 321.263 245.527 321.607C245.238 321.937 245.011 322.329 244.846 322.783C244.694 323.223 244.619 323.726 244.619 324.29C244.619 324.991 244.749 325.611 245.011 326.147C245.286 326.67 245.664 327.083 246.146 327.386C246.641 327.675 247.219 327.819 247.88 327.819ZM254.895 329.099L258.857 323.691L255.06 318.449H257.681L259.084 320.472L260.199 322.081H260.323L261.417 320.472L262.82 318.449H265.256L261.437 323.609L265.441 329.099H262.799L261.21 326.808L260.116 325.239H259.993L258.919 326.808L257.351 329.099H254.895Z" fill="#F9F8F4"/>
<line y1="-0.75" x2="26.3229" y2="-0.75" transform="matrix(0.999324 -8.43507e-08 -8.42367e-08 -1.00068 99.5625 253.894)" stroke="#F9F8F4" stroke-width="1.5"/>
<line y1="-0.75" x2="26.3245" y2="-0.75" transform="matrix(0.0104388 -1.00062 -0.999275 -0.00991833 124.517 255.868)" stroke="#F9F8F4" stroke-width="1.5"/>
<line y1="-0.75" x2="26.3229" y2="-0.75" transform="matrix(-0.151249 -0.989148 -0.987811 0.151454 186.493 277.376)" stroke="#F9F8F4" stroke-width="1.5"/>
<line y1="-0.75" x2="26.3244" y2="-0.75" transform="matrix(-0.989342 0.141114 0.14145 0.990597 184.664 252.375)" stroke="#F9F8F4" stroke-width="1.5"/>
<rect x="51.751" y="282.508" width="166.448" height="20.7883" stroke="#F9F8F4" stroke-width="1.5"/>
<rect x="120.549" y="282.508" width="166.448" height="20.7883" stroke="#97FF00" stroke-width="1.5" stroke-dasharray="3 3"/>
<path d="M104.884 205.775C104.884 217.112 95.707 226.3 84.3881 226.3C73.0691 226.3 63.8916 217.112 63.8916 205.775C63.8916 194.438 73.0691 185.25 84.3881 185.25C95.707 185.25 104.884 194.438 104.884 205.775Z" stroke="#F9F8F4" stroke-width="1.5"/>
<line y1="-0.75" x2="84.4851" y2="-0.75" transform="matrix(0.718519 0.695508 -0.694536 0.719458 93.4932 225.024)" stroke="#F9F8F4" stroke-width="1.5"/>
<line y1="-0.75" x2="56.1741" y2="-0.75" transform="matrix(-0.684404 0.729103 -0.728178 -0.685388 192.643 241.234)" stroke="#F9F8F4" stroke-width="1.5"/>
<ellipse cx="207.82" cy="228.064" rx="21.2464" ry="21.2752" fill="#97FF00"/>
<path d="M125.943 144.217C125.269 144.217 124.667 144.102 124.137 143.874C123.62 143.633 123.18 143.302 122.819 142.88C122.458 142.459 122.181 141.947 121.988 141.345C121.808 140.743 121.717 140.075 121.717 139.341C121.717 138.606 121.814 137.938 122.006 137.336C122.199 136.734 122.476 136.223 122.837 135.801C123.198 135.368 123.638 135.037 124.155 134.808C124.673 134.579 125.263 134.465 125.925 134.465C126.828 134.465 127.563 134.663 128.128 135.061C128.694 135.458 129.11 135.976 129.374 136.614L128.219 137.228C128.05 136.746 127.767 136.373 127.37 136.108C126.985 135.843 126.503 135.711 125.925 135.711C125.504 135.711 125.125 135.783 124.787 135.928C124.462 136.06 124.185 136.253 123.957 136.505C123.728 136.758 123.553 137.059 123.433 137.408C123.325 137.758 123.27 138.137 123.27 138.546V140.135C123.27 140.545 123.325 140.924 123.433 141.273C123.553 141.622 123.728 141.923 123.957 142.176C124.185 142.429 124.468 142.628 124.805 142.772C125.143 142.904 125.528 142.971 125.961 142.971C126.587 142.971 127.105 142.826 127.514 142.537C127.924 142.248 128.249 141.851 128.49 141.345L129.519 142.05C129.242 142.676 128.809 143.193 128.219 143.603C127.641 144.012 126.882 144.217 125.943 144.217ZM139.968 144C139.402 144 138.999 143.856 138.758 143.567C138.517 143.278 138.367 142.916 138.307 142.483H138.216C138.012 143.025 137.681 143.452 137.223 143.765C136.778 144.066 136.176 144.217 135.417 144.217C134.442 144.217 133.665 143.964 133.088 143.458C132.51 142.953 132.221 142.26 132.221 141.381C132.221 140.515 132.534 139.846 133.16 139.377C133.798 138.907 134.821 138.673 136.23 138.673H138.216V137.752C138.216 137.065 138.024 136.554 137.638 136.216C137.253 135.867 136.705 135.693 135.995 135.693C135.369 135.693 134.857 135.819 134.46 136.072C134.063 136.313 133.744 136.644 133.503 137.065L132.528 136.343C132.648 136.102 132.811 135.867 133.015 135.639C133.22 135.41 133.473 135.211 133.774 135.043C134.075 134.862 134.418 134.724 134.803 134.627C135.188 134.519 135.616 134.465 136.085 134.465C137.181 134.465 138.048 134.742 138.686 135.295C139.336 135.849 139.661 136.62 139.661 137.607V142.736H140.961V144H139.968ZM135.67 143.007C136.043 143.007 136.38 142.965 136.681 142.88C136.994 142.784 137.265 142.664 137.494 142.519C137.723 142.363 137.897 142.182 138.018 141.977C138.15 141.761 138.216 141.532 138.216 141.291V139.756H136.23C135.363 139.756 134.731 139.876 134.334 140.117C133.936 140.358 133.738 140.707 133.738 141.165V141.544C133.738 142.026 133.906 142.393 134.243 142.646C134.593 142.886 135.068 143.007 135.67 143.007ZM143.248 142.772H145.975V135.909H143.248V134.681H147.42V137.029H147.51C147.702 136.295 148.064 135.723 148.593 135.314C149.135 134.892 149.821 134.681 150.652 134.681H151.952V136.126H150.201C149.37 136.126 148.696 136.367 148.178 136.849C147.672 137.33 147.42 137.962 147.42 138.745V142.772H151.031V144H143.248V142.772ZM158.555 144C157.845 144 157.321 143.801 156.984 143.404C156.659 143.007 156.496 142.495 156.496 141.869V135.909H153.39V134.681H155.702C156.015 134.681 156.231 134.621 156.352 134.501C156.484 134.368 156.55 134.146 156.55 133.833V131.395H157.941V134.681H162.185V135.909H157.941V142.772H162.185V144H158.555ZM179.598 144.181C178.743 144.181 177.979 144.006 177.304 143.657C176.63 143.308 176.1 142.814 175.715 142.176C175.342 141.538 175.155 140.791 175.155 139.937C175.155 139.166 175.282 138.498 175.535 137.932C175.799 137.354 176.173 136.867 176.654 136.469C177.148 136.06 177.738 135.723 178.424 135.458C178.147 135.277 177.876 135.079 177.611 134.862C177.346 134.645 177.13 134.38 176.961 134.067C176.793 133.742 176.708 133.351 176.708 132.894C176.708 132.46 176.829 132.039 177.07 131.629C177.31 131.208 177.69 130.865 178.207 130.6C178.725 130.323 179.393 130.185 180.212 130.185C180.814 130.185 181.338 130.251 181.783 130.383C182.228 130.516 182.602 130.672 182.903 130.853C183.216 131.021 183.444 131.172 183.589 131.304L182.903 132.55C182.529 132.262 182.114 132.015 181.657 131.81C181.211 131.593 180.724 131.485 180.194 131.485C179.688 131.485 179.291 131.557 179.002 131.702C178.725 131.846 178.532 132.027 178.424 132.243C178.316 132.448 178.261 132.647 178.261 132.839C178.261 133.044 178.31 133.249 178.406 133.453C178.502 133.658 178.695 133.881 178.984 134.122C179.285 134.35 179.73 134.621 180.32 134.934C181.392 135.5 182.186 136.06 182.704 136.614C183.222 137.156 183.565 137.691 183.733 138.221C183.902 138.739 183.986 139.25 183.986 139.756C183.986 140.779 183.782 141.616 183.372 142.266C182.963 142.916 182.421 143.398 181.747 143.711C181.085 144.024 180.368 144.181 179.598 144.181ZM179.634 142.88C180.236 142.88 180.742 142.748 181.151 142.483C181.572 142.218 181.891 141.851 182.108 141.381C182.325 140.912 182.433 140.382 182.433 139.792C182.433 139.202 182.325 138.679 182.108 138.221C181.891 137.764 181.578 137.36 181.169 137.011C180.772 136.662 180.302 136.361 179.76 136.108C179.303 136.265 178.888 136.451 178.514 136.668C178.153 136.885 177.84 137.144 177.575 137.445C177.322 137.733 177.124 138.077 176.979 138.474C176.847 138.859 176.781 139.299 176.781 139.792C176.781 140.406 176.895 140.948 177.124 141.418C177.365 141.875 177.696 142.236 178.117 142.501C178.55 142.754 179.056 142.88 179.634 142.88ZM186.061 144L189.528 139.268L186.151 134.681H187.885L189.294 136.65L190.413 138.203H190.486L191.569 136.65L192.96 134.681H194.621L191.208 139.25L194.711 144H192.978L191.407 141.815L190.341 140.334H190.269L189.239 141.815L187.723 144H186.061ZM207.158 134.681H208.44L209.506 142.736H209.668L211.258 134.681H212.847L214.436 142.736H214.599L215.664 134.681H216.91L215.483 144H213.605L212.124 136.198H211.98L210.463 144H208.585L207.158 134.681ZM223.44 132.623C223.019 132.623 222.724 132.538 222.556 132.37C222.387 132.189 222.303 131.967 222.303 131.702V131.413C222.303 131.148 222.387 130.931 222.556 130.763C222.724 130.582 223.019 130.492 223.44 130.492C223.862 130.492 224.157 130.582 224.325 130.763C224.494 130.931 224.578 131.148 224.578 131.413V131.702C224.578 131.967 224.494 132.189 224.325 132.37C224.157 132.538 223.862 132.623 223.44 132.623ZM219.359 142.772H222.718V135.909H219.359V134.681H224.163V142.772H227.305V144H219.359V142.772ZM234.142 144C233.432 144 232.908 143.801 232.571 143.404C232.246 143.007 232.084 142.495 232.084 141.869V135.909H228.978V134.681H231.289C231.602 134.681 231.819 134.621 231.939 134.501C232.072 134.368 232.138 134.146 232.138 133.833V131.395H233.528V134.681H237.772V135.909H233.528V142.772H237.772V144H234.142ZM240.872 130.636H242.316V136.198H242.388C242.485 135.97 242.605 135.753 242.75 135.548C242.894 135.332 243.069 135.145 243.273 134.988C243.49 134.832 243.743 134.706 244.032 134.609C244.321 134.513 244.658 134.465 245.043 134.465C246.018 134.465 246.801 134.778 247.391 135.404C247.981 136.018 248.276 136.891 248.276 138.022V144H246.831V138.275C246.831 137.42 246.644 136.788 246.271 136.379C245.898 135.958 245.35 135.747 244.628 135.747C244.339 135.747 244.056 135.783 243.779 135.855C243.502 135.928 243.255 136.036 243.039 136.18C242.822 136.325 242.647 136.511 242.515 136.74C242.382 136.969 242.316 137.234 242.316 137.535V144H240.872V130.636ZM255.926 132.623C255.504 132.623 255.209 132.538 255.041 132.37C254.872 132.189 254.788 131.967 254.788 131.702V131.413C254.788 131.148 254.872 130.931 255.041 130.763C255.209 130.582 255.504 130.492 255.926 130.492C256.347 130.492 256.642 130.582 256.811 130.763C256.979 130.931 257.064 131.148 257.064 131.413V131.702C257.064 131.967 256.979 132.189 256.811 132.37C256.642 132.538 256.347 132.623 255.926 132.623ZM251.844 142.772H255.203V135.909H251.844V134.681H256.648V142.772H259.79V144H251.844V142.772ZM262.528 144V134.681H263.973V136.198H264.045C264.142 135.97 264.262 135.753 264.407 135.548C264.551 135.332 264.726 135.145 264.93 134.988C265.147 134.832 265.4 134.706 265.689 134.609C265.978 134.513 266.315 134.465 266.7 134.465C267.675 134.465 268.458 134.778 269.048 135.404C269.638 136.018 269.933 136.891 269.933 138.022V144H268.488V138.275C268.488 137.42 268.301 136.788 267.928 136.379C267.555 135.958 267.007 135.747 266.285 135.747C265.996 135.747 265.713 135.783 265.436 135.855C265.159 135.928 264.912 136.036 264.696 136.18C264.479 136.325 264.304 136.511 264.172 136.74C264.039 136.969 263.973 137.234 263.973 137.535V144H262.528ZM288.285 144C287.574 144 287.051 143.801 286.714 143.404C286.389 143.007 286.226 142.495 286.226 141.869V135.909H283.12V134.681H285.431C285.744 134.681 285.961 134.621 286.082 134.501C286.214 134.368 286.28 134.146 286.28 133.833V131.395H287.671V134.681H291.915V135.909H287.671V142.772H291.915V144H288.285ZM299.24 132.623C298.818 132.623 298.523 132.538 298.355 132.37C298.186 132.189 298.102 131.967 298.102 131.702V131.413C298.102 131.148 298.186 130.931 298.355 130.763C298.523 130.582 298.818 130.492 299.24 130.492C299.661 130.492 299.956 130.582 300.125 130.763C300.293 130.931 300.377 131.148 300.377 131.413V131.702C300.377 131.967 300.293 132.189 300.125 132.37C299.956 132.538 299.661 132.623 299.24 132.623ZM295.158 142.772H298.517V135.909H295.158V134.681H299.962V142.772H303.104V144H295.158V142.772ZM309.815 144.217C309.141 144.217 308.539 144.102 308.009 143.874C307.492 143.633 307.052 143.302 306.691 142.88C306.33 142.459 306.053 141.947 305.86 141.345C305.68 140.743 305.589 140.075 305.589 139.341C305.589 138.606 305.686 137.938 305.878 137.336C306.071 136.734 306.348 136.223 306.709 135.801C307.07 135.368 307.51 135.037 308.027 134.808C308.545 134.579 309.135 134.465 309.797 134.465C310.7 134.465 311.435 134.663 312 135.061C312.566 135.458 312.982 135.976 313.246 136.614L312.091 137.228C311.922 136.746 311.639 136.373 311.242 136.108C310.857 135.843 310.375 135.711 309.797 135.711C309.376 135.711 308.997 135.783 308.659 135.928C308.334 136.06 308.057 136.253 307.829 136.505C307.6 136.758 307.425 137.059 307.305 137.408C307.197 137.758 307.142 138.137 307.142 138.546V140.135C307.142 140.545 307.197 140.924 307.305 141.273C307.425 141.622 307.6 141.923 307.829 142.176C308.057 142.429 308.34 142.628 308.678 142.772C309.015 142.904 309.4 142.971 309.833 142.971C310.459 142.971 310.977 142.826 311.386 142.537C311.796 142.248 312.121 141.851 312.362 141.345L313.391 142.05C313.114 142.676 312.681 143.193 312.091 143.603C311.513 144.012 310.754 144.217 309.815 144.217ZM316.797 130.636H318.242V139.07H318.314L319.939 137.535L323.046 134.681H324.815L320.951 138.329L325.267 144H323.479L319.849 139.16L318.242 140.623V144H316.797V130.636Z" fill="#F9F8F4"/>
<path d="M58.9933 45.5806H58.8901C58.7662 45.8558 58.6218 46.1241 58.4566 46.3855C58.2915 46.6469 58.0783 46.8808 57.8168 47.0872C57.5692 47.2799 57.2665 47.4381 56.9087 47.5619C56.551 47.6858 56.1244 47.7477 55.6291 47.7477C54.0605 47.7477 52.891 47.1147 52.1205 45.8489C51.3637 44.583 50.9853 42.7668 50.9853 40.4002C50.9853 37.9235 51.405 36.0453 52.2443 34.7657C53.0836 33.4861 54.377 32.8463 56.1244 32.8463C56.7986 32.8463 57.3834 32.9357 57.8788 33.1146C58.3741 33.2934 58.7938 33.5342 59.1377 33.8369C59.4955 34.1397 59.7913 34.4836 60.0252 34.8689C60.2591 35.2404 60.4518 35.6188 60.6031 36.004L59.1171 36.6851C58.9933 36.3687 58.8488 36.0728 58.6837 35.7977C58.5323 35.5087 58.3397 35.261 58.1058 35.0546C57.8856 34.8345 57.6173 34.6625 57.3009 34.5387C56.9844 34.4148 56.6129 34.3529 56.1864 34.3529C55.0306 34.3529 54.1775 34.7863 53.6271 35.6532C53.0905 36.52 52.8222 37.6758 52.8222 39.1205V41.3496C52.8222 42.0788 52.8772 42.7461 52.9873 43.3515C53.0974 43.9432 53.2762 44.4592 53.5239 44.8995C53.7853 45.3398 54.1156 45.6838 54.5146 45.9314C54.9274 46.1653 55.4296 46.2823 56.0212 46.2823C56.9569 46.2823 57.6861 46.0002 58.209 45.4361C58.7318 44.872 58.9933 44.1427 58.9933 43.2484V41.7623H55.9593V40.3795H60.6031V47.5H58.9933V45.5806ZM72.4212 47.5C71.7745 47.5 71.3136 47.3349 71.0384 47.0047C70.7632 46.6744 70.5912 46.2617 70.5224 45.7663H70.4192C70.1853 46.3855 69.8069 46.8739 69.2841 47.2317C68.775 47.5757 68.087 47.7477 67.2202 47.7477C66.1057 47.7477 65.2182 47.4587 64.5577 46.8808C63.8973 46.3029 63.5671 45.5118 63.5671 44.5073C63.5671 43.5167 63.9248 42.753 64.6403 42.2164C65.3695 41.6798 66.5391 41.4115 68.1489 41.4115H70.4192V40.3589C70.4192 39.5746 70.1991 38.9898 69.7588 38.6046C69.3185 38.2055 68.6924 38.006 67.8806 38.006C67.1651 38.006 66.5804 38.1505 66.1263 38.4395C65.6723 38.7146 65.3076 39.093 65.0324 39.5746L63.9179 38.749C64.0555 38.4739 64.2413 38.2055 64.4752 37.9441C64.7091 37.6827 64.998 37.4557 65.342 37.263C65.686 37.0566 66.0782 36.8984 66.5185 36.7883C66.9588 36.6645 67.4472 36.6026 67.9838 36.6026C69.2359 36.6026 70.2266 36.919 70.9559 37.552C71.6989 38.1849 72.0704 39.0655 72.0704 40.1938V46.0553H73.5564V47.5H72.4212ZM67.5091 46.3649C67.9357 46.3649 68.3209 46.3167 68.6649 46.2204C69.0227 46.1103 69.3322 45.9727 69.5937 45.8076C69.8551 45.6287 70.0546 45.4223 70.1922 45.1884C70.3436 44.9408 70.4192 44.6793 70.4192 44.4041V42.6498H68.1489C67.1583 42.6498 66.4359 42.7874 65.9818 43.0626C65.5278 43.3378 65.3007 43.7368 65.3007 44.2597V44.6931C65.3007 45.2435 65.4934 45.6631 65.8786 45.9521C66.2777 46.2273 66.8212 46.3649 67.5091 46.3649ZM75.6948 47.5V36.8502H77.2221V38.0886H77.3046C77.4697 37.6758 77.7036 37.3249 78.0063 37.036C78.3091 36.7471 78.7562 36.6026 79.3479 36.6026C79.9671 36.6026 80.428 36.7608 80.7307 37.0773C81.0334 37.38 81.2192 37.779 81.288 38.2743H81.3499C81.5425 37.7928 81.8177 37.3937 82.1754 37.0773C82.5332 36.7608 83.0285 36.6026 83.6614 36.6026C84.5283 36.6026 85.1062 36.9053 85.3951 37.5107C85.6978 38.1161 85.8492 38.9829 85.8492 40.1112V47.5H84.3219V40.3795C84.3219 39.4714 84.2256 38.8454 84.0329 38.5014C83.8541 38.1436 83.517 37.9648 83.0216 37.9648C82.5813 37.9648 82.2236 38.1092 81.9484 38.3982C81.6732 38.6734 81.5356 39.0999 81.5356 39.6778V47.5H80.0083V40.3795C80.0083 39.4714 79.912 38.8454 79.7194 38.5014C79.5405 38.1436 79.2103 37.9648 78.7287 37.9648C78.2884 37.9648 77.9238 38.1092 77.6348 38.3982C77.3597 38.6734 77.2221 39.0999 77.2221 39.6778V47.5H75.6948ZM93.3331 47.7477C92.5626 47.7477 91.8677 47.617 91.2486 47.3555C90.6431 47.0941 90.1203 46.7226 89.68 46.241C89.2534 45.7457 88.9232 45.1609 88.6893 44.4867C88.4554 43.7987 88.3385 43.0351 88.3385 42.1958C88.3385 41.3427 88.4554 40.5722 88.6893 39.8842C88.937 39.1962 89.2741 38.6114 89.7006 38.1299C90.1272 37.6345 90.6363 37.2561 91.2279 36.9947C91.8333 36.7333 92.5007 36.6026 93.2299 36.6026C93.9454 36.6026 94.5921 36.7333 95.17 36.9947C95.7616 37.2561 96.2638 37.6208 96.6766 38.0886C97.0894 38.5426 97.4059 39.0861 97.626 39.7191C97.8462 40.352 97.9563 41.0469 97.9563 41.8036V42.5879H90.0721V43.0832C90.0721 43.5511 90.1478 43.9845 90.2992 44.3835C90.4505 44.7825 90.6638 45.1265 90.939 45.4155C91.2279 45.7044 91.5719 45.9314 91.9709 46.0965C92.3837 46.2479 92.8378 46.3236 93.3331 46.3236C94.0486 46.3236 94.6678 46.1585 95.1906 45.8282C95.7135 45.498 96.1125 45.044 96.3877 44.4661L97.6054 45.2916C97.2889 46.0071 96.7592 46.5988 96.0162 47.0666C95.2869 47.5206 94.3926 47.7477 93.3331 47.7477ZM93.2299 37.9648C92.7758 37.9648 92.3562 38.0473 91.9709 38.2124C91.5857 38.3775 91.2486 38.6046 90.9596 38.8935C90.6844 39.1825 90.4643 39.5264 90.2992 39.9255C90.1478 40.3107 90.0721 40.7373 90.0721 41.2051V41.3496H96.1813V41.1225C96.1813 40.6547 96.1056 40.2282 95.9543 39.8429C95.8167 39.4576 95.6172 39.1274 95.3557 38.8522C95.1081 38.5633 94.7985 38.3431 94.427 38.1918C94.0692 38.0404 93.6702 37.9648 93.2299 37.9648ZM118.022 47.7477C116.907 47.7477 115.944 47.5619 115.132 47.1904C114.334 46.8052 113.653 46.2961 113.089 45.6631L114.204 44.6931C114.713 45.2297 115.27 45.6425 115.875 45.9314C116.481 46.2204 117.21 46.3649 118.063 46.3649C118.889 46.3649 119.563 46.2204 120.086 45.9314C120.622 45.6287 120.891 45.1609 120.891 44.528C120.891 44.2528 120.836 44.0258 120.726 43.8469C120.629 43.6543 120.492 43.5029 120.313 43.3928C120.134 43.2828 119.934 43.2002 119.714 43.1452C119.494 43.0764 119.26 43.0213 119.013 42.98L117.341 42.7324C116.969 42.6773 116.563 42.6017 116.123 42.5053C115.697 42.409 115.304 42.2577 114.947 42.0513C114.589 41.8311 114.286 41.5422 114.039 41.1844C113.805 40.8267 113.688 40.3589 113.688 39.781C113.688 39.2444 113.791 38.7834 113.997 38.3982C114.217 37.9992 114.52 37.6689 114.905 37.4075C115.291 37.1323 115.745 36.9328 116.268 36.809C116.79 36.6714 117.361 36.6026 117.981 36.6026C118.944 36.6026 119.776 36.7539 120.478 37.0566C121.193 37.3593 121.806 37.779 122.315 38.3156L121.242 39.3269C121.118 39.1756 120.96 39.0242 120.767 38.8729C120.588 38.7078 120.361 38.5633 120.086 38.4395C119.824 38.3019 119.515 38.1918 119.157 38.1092C118.799 38.0267 118.387 37.9854 117.919 37.9854C117.079 37.9854 116.433 38.1299 115.979 38.4188C115.538 38.7078 115.318 39.1274 115.318 39.6778C115.318 39.953 115.366 40.1869 115.463 40.3795C115.573 40.5584 115.717 40.7029 115.896 40.8129C116.075 40.923 116.274 41.0125 116.495 41.0813C116.729 41.1363 116.962 41.1844 117.196 41.2257L118.868 41.4734C119.253 41.5284 119.659 41.6041 120.086 41.7004C120.512 41.7967 120.905 41.955 121.262 42.1751C121.62 42.3815 121.916 42.6636 122.15 43.0213C122.397 43.3791 122.521 43.8469 122.521 44.4248C122.521 45.4843 122.108 46.3029 121.283 46.8808C120.471 47.4587 119.384 47.7477 118.022 47.7477ZM130.789 47.5C129.978 47.5 129.379 47.273 128.994 46.8189C128.622 46.3649 128.437 45.7801 128.437 45.0646V38.2537H124.887V36.8502H127.528C127.886 36.8502 128.134 36.7815 128.271 36.6439C128.423 36.4925 128.499 36.238 128.499 35.8802V33.0939H130.088V36.8502H134.938V38.2537H130.088V46.0965H134.938V47.5H130.789ZM146.673 47.5C146.027 47.5 145.566 47.3349 145.291 47.0047C145.015 46.6744 144.843 46.2617 144.775 45.7663H144.671C144.438 46.3855 144.059 46.8739 143.536 47.2317C143.027 47.5757 142.339 47.7477 141.472 47.7477C140.358 47.7477 139.47 47.4587 138.81 46.8808C138.15 46.3029 137.819 45.5118 137.819 44.5073C137.819 43.5167 138.177 42.753 138.893 42.2164C139.622 41.6798 140.791 41.4115 142.401 41.4115H144.671V40.3589C144.671 39.5746 144.451 38.9898 144.011 38.6046C143.571 38.2055 142.945 38.006 142.133 38.006C141.417 38.006 140.833 38.1505 140.379 38.4395C139.924 38.7146 139.56 39.093 139.285 39.5746L138.17 38.749C138.308 38.4739 138.494 38.2055 138.727 37.9441C138.961 37.6827 139.25 37.4557 139.594 37.263C139.938 37.0566 140.33 36.8984 140.771 36.7883C141.211 36.6645 141.699 36.6026 142.236 36.6026C143.488 36.6026 144.479 36.919 145.208 37.552C145.951 38.1849 146.323 39.0655 146.323 40.1938V46.0553H147.809V47.5H146.673ZM141.761 46.3649C142.188 46.3649 142.573 46.3167 142.917 46.2204C143.275 46.1103 143.584 45.9727 143.846 45.8076C144.107 45.6287 144.307 45.4223 144.444 45.1884C144.596 44.9408 144.671 44.6793 144.671 44.4041V42.6498H142.401C141.41 42.6498 140.688 42.7874 140.234 43.0626C139.78 43.3378 139.553 43.7368 139.553 44.2597V44.6931C139.553 45.2435 139.746 45.6631 140.131 45.9521C140.53 46.2273 141.073 46.3649 141.761 46.3649ZM155.54 47.5C154.728 47.5 154.13 47.273 153.745 46.8189C153.373 46.3649 153.187 45.7801 153.187 45.0646V38.2537H149.637V36.8502H152.279C152.637 36.8502 152.885 36.7815 153.022 36.6439C153.174 36.4925 153.249 36.238 153.249 35.8802V33.0939H154.838V36.8502H159.689V38.2537H154.838V46.0965H159.689V47.5H155.54ZM167.585 47.7477C166.815 47.7477 166.12 47.617 165.501 47.3555C164.895 47.0941 164.373 46.7226 163.932 46.241C163.506 45.7457 163.175 45.1609 162.942 44.4867C162.708 43.7987 162.591 43.0351 162.591 42.1958C162.591 41.3427 162.708 40.5722 162.942 39.8842C163.189 39.1962 163.526 38.6114 163.953 38.1299C164.379 37.6345 164.888 37.2561 165.48 36.9947C166.086 36.7333 166.753 36.6026 167.482 36.6026C168.198 36.6026 168.844 36.7333 169.422 36.9947C170.014 37.2561 170.516 37.6208 170.929 38.0886C171.342 38.5426 171.658 39.0861 171.878 39.7191C172.098 40.352 172.208 41.0469 172.208 41.8036V42.5879H164.324V43.0832C164.324 43.5511 164.4 43.9845 164.551 44.3835C164.703 44.7825 164.916 45.1265 165.191 45.4155C165.48 45.7044 165.824 45.9314 166.223 46.0965C166.636 46.2479 167.09 46.3236 167.585 46.3236C168.301 46.3236 168.92 46.1585 169.443 45.8282C169.966 45.498 170.365 45.044 170.64 44.4661L171.858 45.2916C171.541 46.0071 171.011 46.5988 170.268 47.0666C169.539 47.5206 168.645 47.7477 167.585 47.7477ZM167.482 37.9648C167.028 37.9648 166.608 38.0473 166.223 38.2124C165.838 38.3775 165.501 38.6046 165.212 38.8935C164.937 39.1825 164.716 39.5264 164.551 39.9255C164.4 40.3107 164.324 40.7373 164.324 41.2051V41.3496H170.434V41.1225C170.434 40.6547 170.358 40.2282 170.206 39.8429C170.069 39.4576 169.869 39.1274 169.608 38.8522C169.36 38.5633 169.051 38.3431 168.679 38.1918C168.321 38.0404 167.922 37.9648 167.482 37.9648ZM82.7287 59.8502H84.3798V61.5839H84.4623C85.1503 60.263 86.2442 59.6026 87.7439 59.6026C89.0511 59.6026 90.0693 60.091 90.7985 61.068C91.5415 62.0449 91.913 63.4139 91.913 65.1751C91.913 66.9363 91.5415 68.3054 90.7985 69.2823C90.0693 70.2592 89.0511 70.7477 87.7439 70.7477C86.2442 70.7477 85.1503 70.0872 84.4623 68.7663H84.3798V74.6278H82.7287V59.8502ZM87.1041 69.2823C88.0673 69.2823 88.8103 68.9933 89.3332 68.4155C89.8698 67.8238 90.1381 67.0464 90.1381 66.0832V64.267C90.1381 63.3038 89.8698 62.5333 89.3332 61.9554C88.8103 61.3638 88.0673 61.068 87.1041 61.068C86.7326 61.068 86.3818 61.1161 86.0515 61.2124C85.7213 61.3087 85.4324 61.4532 85.1847 61.6458C84.937 61.8247 84.7375 62.0517 84.5862 62.3269C84.4486 62.5884 84.3798 62.8979 84.3798 63.2557V67.0946C84.3798 67.4523 84.4486 67.7688 84.5862 68.044C84.7375 68.3054 84.937 68.5324 85.1847 68.725C85.4324 68.9039 85.7213 69.0415 86.0515 69.1378C86.3818 69.2341 86.7326 69.2823 87.1041 69.2823ZM94.7325 69.0965H97.849V61.2537H94.7325V59.8502H99.5001V62.5333H99.6033C99.8235 61.694 100.236 61.0404 100.842 60.5726C101.461 60.091 102.245 59.8502 103.195 59.8502H104.681V61.5014H102.679C101.729 61.5014 100.959 61.7766 100.367 62.3269C99.7891 62.8773 99.5001 63.5997 99.5001 64.494V69.0965H103.628V70.5H94.7325V69.0965ZM111.71 70.7477C110.967 70.7477 110.293 70.617 109.688 70.3555C109.096 70.0941 108.587 69.7226 108.16 69.241C107.748 68.7457 107.431 68.1609 107.211 67.4867C106.991 66.7987 106.881 66.0282 106.881 65.1751C106.881 64.3358 106.991 63.5722 107.211 62.8842C107.431 62.1962 107.748 61.6114 108.16 61.1299C108.587 60.6345 109.096 60.2561 109.688 59.9947C110.293 59.7333 110.967 59.6026 111.71 59.6026C112.453 59.6026 113.121 59.7333 113.712 59.9947C114.318 60.2561 114.827 60.6345 115.24 61.1299C115.666 61.6114 115.99 62.1962 116.21 62.8842C116.43 63.5722 116.54 64.3358 116.54 65.1751C116.54 66.0282 116.43 66.7987 116.21 67.4867C115.99 68.1609 115.666 68.7457 115.24 69.241C114.827 69.7226 114.318 70.0941 113.712 70.3555C113.121 70.617 112.453 70.7477 111.71 70.7477ZM111.71 69.3236C112.632 69.3236 113.375 69.0484 113.939 68.498C114.504 67.9476 114.786 67.0946 114.786 65.9388V64.4115C114.786 63.2557 114.504 62.4026 113.939 61.8522C113.375 61.3019 112.632 61.0267 111.71 61.0267C110.789 61.0267 110.046 61.3019 109.481 61.8522C108.917 62.4026 108.635 63.2557 108.635 64.4115V65.9388C108.635 67.0946 108.917 67.9476 109.481 68.498C110.046 69.0484 110.789 69.3236 111.71 69.3236ZM124.086 70.7477C123.343 70.7477 122.669 70.617 122.063 70.3555C121.471 70.0941 120.962 69.7226 120.536 69.241C120.123 68.7457 119.807 68.1609 119.586 67.4867C119.366 66.7987 119.256 66.0282 119.256 65.1751C119.256 64.3358 119.366 63.5722 119.586 62.8842C119.807 62.1962 120.123 61.6114 120.536 61.1299C120.962 60.6345 121.471 60.2561 122.063 59.9947C122.669 59.7333 123.343 59.6026 124.086 59.6026C124.829 59.6026 125.496 59.7333 126.088 59.9947C126.693 60.2561 127.202 60.6345 127.615 61.1299C128.042 61.6114 128.365 62.1962 128.585 62.8842C128.805 63.5722 128.915 64.3358 128.915 65.1751C128.915 66.0282 128.805 66.7987 128.585 67.4867C128.365 68.1609 128.042 68.7457 127.615 69.241C127.202 69.7226 126.693 70.0941 126.088 70.3555C125.496 70.617 124.829 70.7477 124.086 70.7477ZM124.086 69.3236C125.008 69.3236 125.751 69.0484 126.315 68.498C126.879 67.9476 127.161 67.0946 127.161 65.9388V64.4115C127.161 63.2557 126.879 62.4026 126.315 61.8522C125.751 61.3019 125.008 61.0267 124.086 61.0267C123.164 61.0267 122.421 61.3019 121.857 61.8522C121.293 62.4026 121.011 63.2557 121.011 64.4115V65.9388C121.011 67.0946 121.293 67.9476 121.857 68.498C122.421 69.0484 123.164 69.3236 124.086 69.3236ZM131.982 69.0965H135.574V61.2537H131.776V59.8502H135.574V57.6625C135.574 56.947 135.759 56.3622 136.131 55.9082C136.516 55.4541 137.115 55.2271 137.927 55.2271H141.497V56.6306H137.225V59.8502H141.497V61.2537H137.225V69.0965H141.022V70.5H131.982V69.0965Z" fill="#F9F8F4"/>
<path d="M228.775 61.5H339V153H111V101.427" stroke="#F9F8F4" stroke-width="1.5" stroke-dasharray="3 3"/>
<rect x="0.75" y="0.75" width="228" height="100.5" stroke="#F9F8F4" stroke-width="1.5"/>
<line y1="-0.75" x2="26.9792" y2="-0.75" transform="matrix(-0.708156 -0.706056 -0.708156 0.706056 129.002 121.066)" stroke="#F9F8F4" stroke-width="1.5"/>
<line y1="-0.75" x2="26.9792" y2="-0.75" transform="matrix(0.708156 -0.706056 0.708156 0.706056 93.002 121.049)" stroke="#F9F8F4" stroke-width="1.5"/>
</svg>
