<svg width="179" height="51" viewBox="0 0 179 51" fill="none" xmlns="http://www.w3.org/2000/svg">
<rect x="2" y="2" width="175" height="47" fill="#212121"/>
<path fill-rule="evenodd" clip-rule="evenodd" d="M9.23871 0H0V1.15909H9.23871V0ZM177.844 1.15918L169.76 1.15918V8.75056e-05L177.844 8.82149e-05V1.15918ZM177.844 2.31827H177.845V9.27273H179V0H177.845V1.15918H177.844H1.15625H0.00141156L0.0014112 9.27282H1.15375L1.15375 41.727H0V50.9998H1.15484L1.15484 48.6818H2.30859L2.30859 2.31827H176.689V48.6818L177.844 48.6819H1.15625V49.8406V49.841L1.15625 50.9997H9.24012V49.841L85.4584 49.841V50.9998H94.6971V49.841L169.761 49.8411V50.9998H179V49.8407H178.999L178.999 41.7274H177.844V2.31827ZM85.457 0H94.6957V1.15909H85.457V0Z" fill="#56EBFF"/>
<path d="M50.7891 30.9609V18.7383H48.668V16.6992H62.1797V21.5977H60.1641V18.7383H53.2266V23.5898H59.2852V25.6289H53.2266V30.9609H60.1641V27.9844H62.1797V33H48.668V30.9609H50.7891ZM69.6445 28.4883L67.4414 31.0312H68.9062V33H63.3867V31.0312H65.0625L68.4961 27.1641L65.2266 23.6367H63.6914V21.668H69.0234V23.6367H67.6055L69.6445 25.8281L71.6133 23.6367H70.4648V21.668H75.8203V23.6367H73.9453L70.8516 27.1641L74.4023 31.0312H75.8672V33H70.4414V31.0312H72.0469L69.6445 28.4883ZM78.4688 36.1172V23.6367H76.582V21.668H80.7305V23.4492H80.7773C81.793 22.1367 83.1055 21.4805 84.7148 21.4805C86.332 21.4805 87.6602 22.0352 88.6992 23.1445C89.7383 24.2461 90.2578 25.6602 90.2578 27.3867C90.2578 29.0742 89.7227 30.4883 88.6523 31.6289C87.582 32.7695 86.2617 33.3398 84.6914 33.3398C83.9727 33.3398 83.2656 33.1914 82.5703 32.8945C81.8828 32.5898 81.2695 32.1602 80.7305 31.6055V36.1172H82.9102V38.0859H76.4062V36.1172H78.4688ZM80.6836 27.4805C80.6836 28.582 81.0195 29.4961 81.6914 30.2227C82.3633 30.9414 83.2188 31.3008 84.2578 31.3008C85.3516 31.3008 86.2344 30.9336 86.9062 30.1992C87.5859 29.457 87.9258 28.4883 87.9258 27.293C87.9258 26.1914 87.5859 25.2773 86.9062 24.5508C86.2344 23.8164 85.3906 23.4492 84.375 23.4492C83.3203 23.4492 82.4414 23.832 81.7383 24.5977C81.0352 25.3633 80.6836 26.3242 80.6836 27.4805ZM93.8789 31.0312V18.668H91.8633V16.6992H96.1406V31.0312H97.8867V33H91.8164V31.0312H93.8789ZM100.863 31.6289C99.7305 30.4883 99.1641 29.0586 99.1641 27.3398C99.1641 25.6211 99.7305 24.1914 100.863 23.0508C101.996 21.9102 103.422 21.3398 105.141 21.3398C106.844 21.3398 108.262 21.9102 109.395 23.0508C110.527 24.1914 111.094 25.6211 111.094 27.3398C111.094 29.0586 110.523 30.4883 109.383 31.6289C108.242 32.7695 106.82 33.3398 105.117 33.3398C103.414 33.3398 101.996 32.7695 100.863 31.6289ZM101.566 27.3398C101.566 28.4414 101.906 29.3555 102.586 30.082C103.266 30.8086 104.109 31.1719 105.117 31.1719C106.141 31.1719 106.992 30.8086 107.672 30.082C108.352 29.3555 108.691 28.4414 108.691 27.3398C108.691 26.2461 108.348 25.332 107.66 24.5977C106.98 23.8633 106.133 23.4961 105.117 23.4961C104.109 23.4961 103.266 23.8633 102.586 24.5977C101.906 25.332 101.566 26.2461 101.566 27.3398ZM114.82 31.0312V23.6367H112.535V21.668H116.59V24.2109H116.637C116.98 23.3047 117.473 22.625 118.113 22.1719C118.754 21.7109 119.453 21.4805 120.211 21.4805H121.676V23.7305H120.48C119.23 23.7305 118.348 24.0664 117.832 24.7383C117.324 25.4102 117.07 26.4297 117.07 27.7969V31.0312H119.52V33H112.582V31.0312H114.82ZM133.688 27.8906H124.16C124.332 28.9922 124.758 29.8477 125.438 30.457C126.117 31.0664 126.984 31.3711 128.039 31.3711C128.781 31.3711 129.477 31.2109 130.125 30.8906C130.773 30.5703 131.305 30.1133 131.719 29.5195L133.688 30.3867C133.078 31.332 132.281 32.0625 131.297 32.5781C130.312 33.0859 129.211 33.3398 127.992 33.3398C126.156 33.3398 124.645 32.7773 123.457 31.6523C122.277 30.5273 121.688 29.0898 121.688 27.3398C121.688 26.168 121.98 25.1172 122.566 24.1875C123.152 23.25 123.895 22.543 124.793 22.0664C125.691 21.582 126.641 21.3398 127.641 21.3398C128.43 21.3398 129.184 21.4883 129.902 21.7852C130.629 22.082 131.273 22.5039 131.836 23.0508C132.398 23.5977 132.848 24.2891 133.184 25.125C133.52 25.9609 133.688 26.8828 133.688 27.8906ZM124.23 26.2617H131.402C131.223 25.3555 130.781 24.6094 130.078 24.0234C129.375 23.4297 128.578 23.1328 127.688 23.1328C126.797 23.1328 126.039 23.418 125.414 23.9883C124.797 24.5508 124.402 25.3086 124.23 26.2617Z" fill="#56EBFF"/>
</svg>
