<svg width="360" height="359" viewBox="0 0 360 359" fill="none" xmlns="http://www.w3.org/2000/svg">
<path fill-rule="evenodd" clip-rule="evenodd" d="M360.001 3V2.38419e-06L331.923 0V2H30.0836V2.44784e-06H3.00836L0 2.3167e-06V28H2.00557L2.00557 165H0V192H2.00556L2.00556 329H0.000548839L0.000545299 356L0.000544774 359H28.0785V357L329.918 357V359H356.993H360.001V331H357.996L357.996 192H360.001V165H357.996L357.996 30H360.001V3ZM356.993 30H356.992V3L30.0836 3H3.00836L3.00836 28L3.00836 165L3.00836 192L3.00834 329H3.00891L3.0089 356H28.0785H329.918H356.993V331L356.993 192H356.992V165H356.993L356.993 30Z" fill="#F9F8F4"/>
<g clip-path="url(#clip0_211_17736)">
<path d="M313.233 261.675C308.607 269.21 301.086 271.628 298.993 272.227C300.124 270.657 305.768 262.534 303.178 254.987C301.221 249.259 294.774 244.639 286.213 243.373C290.658 247.327 291.167 254.049 291.28 255.654C292.23 268.454 280.58 277.74 279.053 278.915C279.596 276.35 280.094 272.295 278.805 268.103C278.68 278.068 272.675 287.004 271.679 288.461C271.046 285.919 269.474 280.677 265.719 275.334C265.515 276.938 265.244 278.542 264.972 280.09C263.57 288.281 260.561 294.562 258.277 298.505C254.465 290.111 250.032 284.315 246.876 280.756C243.166 276.554 240.294 274.396 237.839 273.142C240.056 281.423 237.172 288.642 236.821 289.467C232.795 299.104 223.928 302.798 222.084 303.521C224.539 297.104 224.392 291.975 223.928 288.789C221.926 275.142 209.146 263.471 191.445 258.67C191.49 259.98 191.57 261.28 191.751 262.85C192.655 270.702 194.725 275.582 201.308 292.811C202.461 295.839 204.474 301.126 206.997 307.87C203.174 306.119 178.981 294.573 165.986 269.741C164.753 273.809 162.74 277.966 159.585 281.931C148.455 295.918 131.807 296.607 129.421 296.663C131.275 294.393 134.035 290.563 136.127 285.275C138.141 280.192 139.17 274.667 139.317 269.165C135.449 270.408 130.857 272.735 126.91 277.074C117.488 287.445 119.75 300.527 120.033 302.018C116.798 299.804 112.693 296.291 109.481 290.969C104.583 282.858 103.984 274.227 104.708 267.369C101.892 269.572 98.9736 272.329 96.2479 275.74C89.0321 284.767 86.7022 293.941 85.8539 298.505C84.7908 296.72 78.1291 285.275 78.7285 273.165C76.9868 278.034 77.0094 282.259 77.1451 284.439C76.4778 284.078 75.5956 283.536 74.6343 282.767C68.6625 277.977 66.5023 269.561 67.2601 262.681C67.3392 261.845 67.6333 259.664 68.5607 257.043C66.9999 254.151 65.3373 250.671 63.8557 246.649C62.8491 247.474 62.0235 248.389 61.2205 249.632C57.1941 255.902 58.3138 263.833 59.8859 269.549C57.8953 268.182 53.5974 264.816 51.0074 258.839C50.5437 257.766 46.7887 248.706 51.0074 239.08C53.1224 234.256 56.5041 230.991 59.6483 228.754C59.3656 226.246 59.2186 223.637 59.2186 220.925C59.2186 217.83 59.4221 214.915 59.7614 212.192C52.1158 212.723 46.2911 209.481 44.1309 208.125C47.5578 206.193 52.014 203.143 56.1988 198.409C64.6814 188.829 66.8981 178.198 67.5881 173.306C67.6898 173.555 67.8029 173.815 67.916 174.075C65.7332 166.641 64.5796 158.868 64.5796 150.881C64.5796 96.3481 118.291 52.1299 184.546 52.1299C250.801 52.1299 304.524 96.3481 304.524 150.881C304.524 158.778 303.404 166.449 301.267 173.803C301.334 173.679 301.414 173.566 301.493 173.442C300.203 178.763 297.478 193.28 304.524 208.792C307.906 216.248 312.452 221.513 315.913 224.857C312.577 225.105 308.731 225.083 304.524 224.529C298.145 223.682 292.614 221.806 288.011 219.626C289.515 223.49 290.42 226.619 294.13 228.709C298.609 231.24 301.493 229.071 307.204 232.392C308.245 233.002 312.09 235.307 314.567 239.758C318.537 246.864 316.897 255.71 313.233 261.675Z" stroke="#97FF00" stroke-width="3" stroke-linecap="round" stroke-linejoin="round"/>
<path d="M59.6484 228.754C62.3934 228.218 66.2128 227.086 70.1058 224.523C79.3541 218.436 82.1273 208.814 82.8398 205.945" stroke="#97FF00" stroke-width="2" stroke-linecap="round" stroke-linejoin="round"/>
<path d="M68.5605 257.043C69.5592 252.885 71.6901 247.094 76.8079 243.604C83.4673 239.065 89.7998 242.092 96.5791 239.587C102.192 237.512 109.001 231.318 113.168 212.473" stroke="#97FF00" stroke-width="3" stroke-linecap="round" stroke-linejoin="round"/>
<path d="M78.7285 273.164C79.2838 270.198 80.5461 266.341 83.783 263.913C87.6239 261.032 91.9082 261.917 96.7467 261.679C96.7467 261.679 108.224 261.117 119.2 252.641C130.069 244.247 132.469 230.433 133.106 224.69" stroke="#97FF00" stroke-width="3" stroke-linecap="round" stroke-linejoin="round"/>
<path d="M165.986 269.742C166.39 257.101 163.712 248.342 161.006 242.516C159.327 238.899 157.188 235.446 157.593 230.689C158.118 224.511 162.619 219.781 166.536 216.657" stroke="#97FF00" stroke-width="3" stroke-linecap="round" stroke-linejoin="round"/>
<path d="M139.454 268.708C137.67 266.194 135.399 262.376 133.862 257.327C131.883 250.825 132.006 245.194 132.354 241.762" stroke="#97FF00" stroke-width="3" stroke-linecap="round" stroke-linejoin="round"/>
<path d="M191.445 258.669C190.05 254.945 188.471 249.497 188.067 242.766C187.677 236.264 188.517 230.835 189.407 227.033" stroke="#97FF00" stroke-width="3" stroke-linecap="round" stroke-linejoin="round"/>
<path d="M212.362 219C211.822 224.144 211.246 236.263 217.557 249.629C224.051 263.383 234.184 270.724 238.526 273.517" stroke="#97FF00" stroke-width="3" stroke-linecap="round" stroke-linejoin="round"/>
<path d="M265.719 275.333C260.008 266.371 254.911 264.156 251.235 263.855C245.492 263.386 241.15 267.427 233.809 265.697C230.859 265.001 228.641 263.66 227.274 262.684" stroke="#97FF00" stroke-width="3" stroke-miterlimit="10"/>
<path d="M229.442 264.029C228.746 263.652 228.018 263.208 227.276 262.684C224.895 261.005 223.22 259.102 222.074 257.509" stroke="#97FF00" stroke-miterlimit="10"/>
<path d="M278.805 268.103C276.784 257.371 272.533 252.763 268.955 250.549C264.067 247.522 260.575 249.052 248.974 245.402C242.094 243.237 238.653 242.155 236.156 239.377C230.035 232.567 232.904 220.991 234.019 217.158" stroke="#97FF00" stroke-width="3" stroke-linecap="round" stroke-linejoin="round"/>
<path d="M286.53 243.421C280.759 243.263 276.383 241.915 273.731 240.884C269.473 239.228 260.443 235.715 257.268 227.076C255.849 223.211 256.094 219.665 256.388 217.662" stroke="#97FF00" stroke-width="3" stroke-linecap="round" stroke-linejoin="round"/>
<path d="M63.8555 246.65C65.8166 244.57 68.9077 241.775 73.2892 239.63C79.4397 236.617 82.8961 237.446 86.4848 235.361C90.0814 233.272 93.8578 228.229 94.4019 215.151" stroke="#97FF00" stroke-width="3" stroke-linecap="round" stroke-linejoin="round"/>
<path d="M59.7617 212.192C62.1436 212.18 65.4688 211.823 69.0168 210.255C78.6768 205.985 81.9669 196.279 82.5889 194.313" stroke="#97FF00" stroke-width="2" stroke-linecap="round" stroke-linejoin="round"/>
<path d="M210.798 114.085C202.921 116.532 195.756 120.444 189.589 125.792C185.951 128.758 182.39 132.302 180.978 136.812C178.999 142.528 180.108 150.836 187.209 151.968C194.597 153.299 199.036 148.549 202.782 142.862C204.797 140.204 207.152 137.712 209.926 135.781C217.548 130.589 226.907 127.766 236.12 127.774C243.766 127.838 251.142 131.034 257.229 135.5C262.48 139.563 267.531 144.491 270.774 150.091C266.42 145.293 261.687 140.476 256.209 136.959C250.213 133.032 243.289 130.233 236.077 130.189C227.313 130.168 218.386 132.628 210.94 137.261C208.251 139.017 205.859 141.159 203.761 143.621C199.657 149.187 194.632 153.972 187.082 152.689C179.3 151.632 177.32 142.824 179.174 136.28C181.061 129.477 186.963 125.236 192.39 121.33C197.929 117.563 204.253 115.053 210.745 113.866C210.881 113.84 210.931 114.046 210.8 114.085H210.798Z" fill="#97FF00"/>
<path d="M125.327 114.361C133.204 116.808 140.369 120.72 146.536 126.069C150.174 129.034 153.735 132.578 155.147 137.088C157.126 142.805 156.017 151.113 148.916 152.245C141.528 153.576 137.089 148.825 133.343 143.138C131.328 140.481 128.973 137.989 126.199 136.058C118.577 130.866 109.218 128.042 100.005 128.05C92.3587 128.115 84.9834 131.311 78.8963 135.777C73.645 139.839 68.5939 144.767 65.3513 150.367C69.7045 145.569 74.4378 140.752 79.9164 137.235C85.9119 133.308 92.836 130.51 100.048 130.466C108.812 130.444 117.739 132.905 125.185 137.538C127.874 139.293 130.266 141.435 132.364 143.897C136.468 149.463 141.493 154.248 149.043 152.966C156.825 151.908 158.805 143.101 156.951 136.556C155.064 129.754 149.162 125.513 143.735 121.606C138.196 117.84 131.872 115.329 125.38 114.142C125.244 114.116 125.194 114.323 125.325 114.361H125.327Z" fill="#97FF00"/>
<path d="M186.782 87.893C189.358 87.893 191.445 85.8076 191.445 83.2351C191.445 80.6626 189.358 78.5771 186.782 78.5771C184.207 78.5771 182.119 80.6626 182.119 83.2351C182.119 85.8076 184.207 87.893 186.782 87.893Z" stroke="#97FF00" stroke-width="2" stroke-miterlimit="10"/>
<path d="M209.904 81.8719C211.726 81.8719 213.203 80.397 213.203 78.5775C213.203 76.7581 211.726 75.2832 209.904 75.2832C208.083 75.2832 206.606 76.7581 206.606 78.5775C206.606 80.397 208.083 81.8719 209.904 81.8719Z" stroke="#97FF00" stroke-width="2" stroke-miterlimit="10"/>
<path d="M252.129 98.4108C252.129 100.767 250.216 102.679 247.856 102.679C245.496 102.679 243.583 100.769 243.583 98.4108C243.583 96.053 245.496 94.1426 247.856 94.1426C250.216 94.1426 252.129 96.053 252.129 98.4108Z" stroke="#97FF00" stroke-width="2" stroke-miterlimit="10"/>
<path d="M264.486 189.951C264.486 192.307 262.574 194.219 260.213 194.219C257.853 194.219 255.94 192.309 255.94 189.951C255.94 187.593 257.853 185.683 260.213 185.683C262.574 185.683 264.486 187.593 264.486 189.951Z" stroke="#97FF00" stroke-width="2" stroke-miterlimit="10"/>
<path d="M90.8321 196.202C90.8321 198.558 88.9195 200.47 86.5591 200.47C84.1987 200.47 82.2861 198.56 82.2861 196.202C82.2861 193.844 84.1987 191.934 86.5591 191.934C88.9195 191.934 90.8321 193.844 90.8321 196.202Z" stroke="#97FF00" stroke-width="2" stroke-miterlimit="10"/>
<path d="M259.926 179.715C259.926 181.127 261.072 182.273 262.488 182.273C263.903 182.273 265.05 181.128 265.05 179.715C265.05 178.303 263.903 177.158 262.488 177.158C261.072 177.158 259.926 178.303 259.926 179.715Z" stroke="#97FF00" stroke-width="2" stroke-miterlimit="10"/>
<path d="M76.0232 187.672C76.0232 189.084 77.17 190.229 78.5853 190.229C80.0007 190.229 81.1475 189.084 81.1475 187.672C81.1475 186.259 80.0007 185.114 78.5853 185.114C77.17 185.114 76.0232 186.259 76.0232 187.672Z" stroke="#97FF00" stroke-width="2" stroke-miterlimit="10"/>
<path d="M94.242 196.764C94.242 198.176 95.3888 199.322 96.8041 199.322C98.2194 199.322 99.3662 198.177 99.3662 196.764C99.3662 195.352 98.2194 194.207 96.8041 194.207C95.3888 194.207 94.242 195.352 94.242 196.764Z" stroke="#97FF00" stroke-width="2" stroke-miterlimit="10"/>
<path d="M246.261 191.65C246.261 193.062 247.407 194.207 248.823 194.207C250.238 194.207 251.385 193.063 251.385 191.65C251.385 190.237 250.238 189.093 248.823 189.093C247.407 189.093 246.261 190.237 246.261 191.65Z" stroke="#97FF00" stroke-width="2" stroke-miterlimit="10"/>
<path d="M235.65 111.916C241.343 110.954 247.236 111.851 252.583 113.958C261.711 116.818 270.201 122.531 274.906 131.019L274.821 131.078C268.801 123.88 261.425 117.421 252.478 114.276C247.044 112.674 241.113 112.401 235.652 111.917L235.65 111.916Z" fill="#97FF00"/>
<path d="M135.909 173.886C140.624 159.157 130.835 142.869 114.044 137.505C97.2536 132.142 79.8191 139.734 75.1036 154.463C70.3881 169.192 80.1772 185.48 96.9681 190.844C113.759 196.207 131.193 188.615 135.909 173.886Z" stroke="#97FF00" stroke-width="3" stroke-miterlimit="10" stroke-linejoin="round"/>
<path d="M242.283 189.065C257.953 180.998 264.906 163.315 257.814 149.57C250.722 135.824 232.269 131.221 216.599 139.288C200.93 147.355 193.976 165.038 201.068 178.783C208.16 192.529 226.613 197.132 242.283 189.065Z" stroke="#97FF00" stroke-width="3" stroke-miterlimit="10" stroke-linejoin="round"/>
<path d="M222.098 166.399C226.38 160.943 227.097 154.363 223.699 151.701C220.3 149.039 214.073 151.304 209.791 156.759C205.508 162.214 204.791 168.795 208.19 171.457C211.588 174.119 217.815 171.854 222.098 166.399Z" fill="#97FF00"/>
<path d="M108.724 162.717C113.006 157.262 113.723 150.681 110.325 148.019C106.926 145.357 100.699 147.622 96.4165 153.077C92.1339 158.533 91.4171 165.113 94.8156 167.775C98.2141 170.437 104.441 168.172 108.724 162.717Z" fill="#97FF00"/>
<path d="M251.462 158.557C255.171 158.557 258.178 155.553 258.178 151.848C258.178 148.143 255.171 145.14 251.462 145.14C247.753 145.14 244.746 148.143 244.746 151.848C244.746 155.553 247.753 158.557 251.462 158.557Z" fill="#97FF00"/>
<path d="M90.8644 151.846C94.5735 151.846 97.5803 148.842 97.5803 145.137C97.5803 141.432 94.5735 138.429 90.8644 138.429C87.1553 138.429 84.1484 141.432 84.1484 145.137C84.1484 148.842 87.1553 151.846 90.8644 151.846Z" fill="#97FF00"/>
<path d="M235.654 171.856C237.555 171.856 239.097 170.317 239.097 168.417C239.097 166.518 237.555 164.979 235.654 164.979C233.752 164.979 232.211 166.518 232.211 168.417C232.211 170.317 233.752 171.856 235.654 171.856Z" fill="#97FF00"/>
<path d="M120.038 167.614C121.939 167.614 123.48 166.075 123.48 164.175C123.48 162.276 121.939 160.736 120.038 160.736C118.136 160.736 116.595 162.276 116.595 164.175C116.595 166.075 118.136 167.614 120.038 167.614Z" fill="#97FF00"/>
</g>
<defs>
<clipPath id="clip0_211_17736">
<rect width="275" height="258" fill="white" transform="translate(43 51)"/>
</clipPath>
</defs>
</svg>
