<svg width="360" height="360" viewBox="0 0 360 360" fill="none" xmlns="http://www.w3.org/2000/svg">
<path fill-rule="evenodd" clip-rule="evenodd" d="M30.0845 0H3.00933H0.000977755L0.000976524 28.078H2.00557L2.00557 165.46H0V192.535H2.00556L2.00556 329.916H0.000548795L0.000545255 356.992L0.00054473 360H28.0785V357.994L329.918 357.994V360H356.993H360.001V331.922H357.996L357.996 192.535H360.001V165.46H357.996L357.996 30.0836H360.001V3.00836V5.24521e-06L331.923 2.79055e-06V2.00557H30.0845V0ZM356.993 30.0836H356.992V3.00836L331.923 3.00836L30.0845 3.00836H3.00933L3.00933 28.078H3.00836L3.00836 165.46L3.00836 192.535L3.00834 329.916H3.00891L3.0089 356.992H28.0785H329.918H356.993V331.922L356.993 192.535H356.992V165.46H356.993L356.993 30.0836Z" fill="#F9F8F4"/>
<path d="M282 59.5L309 12L257 71H282L262.5 113.5L309 59.5H282Z" fill="#D2FF00"/>
<path d="M79 202.5L106 155L54 214H79L59.5 256.5L106 202.5H79Z" fill="#D2FF00" stroke="#D2FF00"/>
<path d="M287.308 120.759L306 88L270 128.69H287.308L273.808 158L306 120.759H287.308Z" stroke="#D2FF00"/>
<path d="M94.8988 197.64C89.987 195.899 85.6292 193.688 82.0126 191.113C76.1465 194.88 68.3328 194.887 62.3586 190.532C62.152 190.38 61.952 190.226 61.7553 190.072C61.4274 189.809 61.1126 189.54 60.8109 189.26C59.801 188.029 59.7059 186.222 60.6863 184.872C61.834 183.292 64.0309 182.924 65.6211 184.034C65.8015 184.202 65.9884 184.363 66.1851 184.517C66.2966 184.609 66.4146 184.698 66.5327 184.783C71.1429 188.144 77.5991 187.125 80.9535 182.507C84.3078 177.889 83.2914 171.421 78.6812 168.061C78.5631 167.972 78.4418 167.89 78.3205 167.811C78.1139 167.67 77.9041 167.542 77.6909 167.424C76.1465 166.245 75.8187 164.041 76.9663 162.461C77.9467 161.111 79.6976 160.644 81.1797 161.232C81.183 161.232 81.1863 161.235 81.1896 161.235C81.5404 161.436 81.8913 161.649 82.2355 161.879C82.4421 162.02 82.652 162.165 82.8553 162.313C88.6885 166.563 91.1116 173.76 89.5738 180.379C90.3476 180.93 91.1903 181.472 92.0953 181.995C94.4562 183.358 97.1285 184.534 100.03 185.513C106.352 187.641 113.759 188.807 121.373 188.807C129.403 188.807 137.207 187.51 143.748 185.151C145.168 182.757 147.778 181.154 150.762 181.154C151.146 181.154 151.526 181.18 151.897 181.236C155.867 181.784 158.923 185.197 158.923 189.326C158.923 190.578 158.641 191.763 158.14 192.821C156.831 195.59 154.018 197.502 150.762 197.502C150.103 197.502 149.46 197.423 148.847 197.275C140.932 200.231 131.498 201.946 121.373 201.946C111.671 201.946 102.604 200.369 94.8988 197.64Z" fill="#212121" stroke="#D2FF00" stroke-width="2" stroke-miterlimit="10"/>
<path d="M143.058 185.394C143.863 185.799 146.732 187.364 148.217 190.873C149.427 193.734 149.045 196.299 148.848 197.276" stroke="#D2FF00" stroke-width="2" stroke-miterlimit="10"/>
<path d="M135.513 187.376C136.277 187.855 138.987 189.682 140.138 193.315C141.076 196.277 140.455 198.795 140.168 199.748" stroke="#D2FF00" stroke-width="2" stroke-miterlimit="10"/>
<path d="M127.133 188.827C127.897 189.306 130.608 191.134 131.758 194.766C132.696 197.728 132.075 200.246 131.788 201.199" stroke="#D2FF00" stroke-width="2" stroke-miterlimit="10"/>
<path d="M119.139 188.927C119.835 189.501 122.286 191.664 122.958 195.415C123.505 198.474 122.565 200.89 122.157 201.798" stroke="#D2FF00" stroke-width="2" stroke-miterlimit="10"/>
<path d="M111.191 188.078C111.765 188.775 113.757 191.369 113.698 195.18C113.65 198.287 112.265 200.478 111.69 201.291" stroke="#D2FF00" stroke-width="2" stroke-miterlimit="10"/>
<path d="M101.909 186.131C102.413 186.88 104.148 189.653 103.726 193.44C103.382 196.528 101.794 198.576 101.145 199.33" stroke="#D2FF00" stroke-width="2" stroke-miterlimit="10"/>
<path d="M93.9891 183.071C94.3534 183.898 95.5722 186.934 94.4891 190.587C93.6058 193.566 91.6817 195.301 90.9092 195.928" stroke="#D2FF00" stroke-width="2" stroke-miterlimit="10"/>
<path d="M89.6676 180.61C89.7168 181.512 89.7857 184.784 87.4835 187.818C85.606 190.291 83.194 191.233 82.25 191.546" stroke="#D2FF00" stroke-width="2" stroke-miterlimit="10"/>
<path d="M120.611 252.506C121.657 246.418 119.341 240.681 114.927 238.053C110.87 235.638 105.595 236.181 102.249 238.491C94.2231 244.029 94.2884 261.79 103.123 271.338C104.313 272.624 108.348 276.985 114.49 277.651C124.466 278.734 135.74 269.606 140.66 254.349C138.658 252.546 136.656 250.742 134.654 248.939C133.671 249.903 130.99 252.27 126.813 252.924C124.114 253.347 121.889 252.881 120.611 252.506H120.611Z" fill="#212121" stroke="#D2FF00" stroke-width="2" stroke-miterlimit="10"/>
<path d="M191.128 275.114C239.419 275.114 278.567 225.571 278.567 164.456C278.567 103.342 239.419 53.7988 191.128 53.7988C142.837 53.7988 103.689 103.342 103.689 164.456C103.689 225.571 142.837 275.114 191.128 275.114Z" fill="#212121" stroke="#D2FF00" stroke-width="2" stroke-miterlimit="10"/>
<path d="M185.445 132.339C194.218 132.339 201.33 123.515 201.33 112.631C201.33 101.746 194.218 92.9229 185.445 92.9229C176.672 92.9229 169.561 101.746 169.561 112.631C169.561 123.515 176.672 132.339 185.445 132.339Z" stroke="#D2FF00" stroke-width="2" stroke-miterlimit="10"/>
<path d="M113.454 132.339C122.227 132.339 129.338 123.515 129.338 112.631C129.338 101.746 122.227 92.9229 113.454 92.9229C104.681 92.9229 97.5693 101.746 97.5693 112.631C97.5693 123.515 104.681 132.339 113.454 132.339Z" fill="#212121" stroke="#D2FF00" stroke-width="2" stroke-miterlimit="10"/>
<path d="M178.085 115.648C180.862 115.648 183.113 113.393 183.113 110.612C183.113 107.83 180.862 105.575 178.085 105.575C175.309 105.575 173.058 107.83 173.058 110.612C173.058 113.393 175.309 115.648 178.085 115.648Z" fill="#D2FF00"/>
<path d="M105.803 115.648C108.58 115.648 110.831 113.393 110.831 110.612C110.831 107.83 108.58 105.575 105.803 105.575C103.026 105.575 100.775 107.83 100.775 110.612C100.775 113.393 103.026 115.648 105.803 115.648Z" fill="#D2FF00"/>
<path d="M170.006 117.281C172.469 118.713 176.968 120.88 182.967 121.342C191.787 122.02 198.397 118.594 200.916 117.112" stroke="#D2FF00" stroke-width="2" stroke-miterlimit="10"/>
<path d="M200.916 117.111C199.284 125.839 192.975 132.339 185.446 132.339C177.964 132.339 171.691 125.924 170.006 117.282C172.468 118.711 176.967 120.879 182.968 121.342C191.788 122.019 198.398 118.593 200.916 117.111Z" fill="#212121" stroke="#D2FF00" stroke-width="2" stroke-miterlimit="10"/>
<path d="M170.006 117.282C172.468 118.711 176.967 120.879 182.968 121.342C191.788 122.019 198.398 118.593 200.916 117.111" stroke="#D2FF00" stroke-width="2" stroke-miterlimit="10"/>
<path d="M98.9775 121.599C101.28 123.031 105.487 125.198 111.097 125.659C119.344 126.338 125.525 122.912 127.881 121.43" stroke="#D2FF00" stroke-width="2" stroke-miterlimit="10"/>
<path d="M127.599 121.605C124.969 127.978 119.625 132.34 113.454 132.34C107.371 132.34 102.086 128.099 99.4199 121.868C101.8 123.291 105.83 125.228 111.096 125.659C119.035 126.312 125.058 123.166 127.599 121.605Z" fill="#212121" stroke="#D2FF00" stroke-width="2" stroke-miterlimit="10"/>
<path d="M127.881 121.431C127.793 121.487 127.698 121.546 127.599 121.605C125.058 123.165 119.035 126.312 111.097 125.658C105.831 125.228 101.801 123.29 99.4202 121.868C99.2661 121.776 99.1185 121.687 98.9775 121.598" stroke="#D2FF00" stroke-width="2" stroke-miterlimit="10"/>
<path d="M141.043 130.806C141.497 131.509 144.017 135.259 148.923 136.206C155.097 137.398 159.539 133.086 159.913 132.711" stroke="#D2FF00" stroke-width="2" stroke-linecap="round" stroke-linejoin="round"/>
<path d="M187.485 84.4561C189.248 85.3459 191.819 86.398 195.063 86.938C199.051 87.6015 202.394 87.2145 204.536 86.7921" stroke="#D2FF00" stroke-width="2" stroke-linecap="round" stroke-linejoin="round"/>
<path d="M105.902 189.294C126.419 194.817 154.575 200.164 188.214 200.076C224.95 199.98 255.325 193.434 276.738 187.069" stroke="#D2FF00" stroke-width="2" stroke-miterlimit="10"/>
<path d="M212.151 57.0195C217.689 75.305 223.129 99.1518 225.132 127.376C227.112 155.261 225.166 179.375 222.334 198.121" stroke="#D2FF00" stroke-width="2" stroke-miterlimit="10"/>
<path d="M104.34 150.916C113.346 151.907 123.636 152.517 134.974 152.29C146.133 152.068 156.242 151.077 165.091 149.76C163.876 134.531 163.603 116.361 165.674 96.0367C167.181 81.254 169.661 67.9431 172.474 56.3223" stroke="#D2FF00" stroke-width="2" stroke-miterlimit="10"/>
<path d="M246.169 222.149C244.431 227.07 242.225 231.435 239.654 235.058C243.415 240.935 243.421 248.762 239.074 254.747C238.923 254.954 238.769 255.154 238.615 255.351C238.352 255.679 238.083 255.995 237.805 256.297C236.575 257.309 234.772 257.404 233.424 256.422C231.847 255.272 231.48 253.071 232.588 251.478C232.755 251.298 232.916 251.11 233.07 250.913C233.162 250.802 233.25 250.683 233.335 250.565C236.69 245.947 235.673 239.479 231.063 236.119C226.453 232.759 219.997 233.777 216.642 238.395C216.554 238.514 216.472 238.635 216.393 238.757C216.252 238.964 216.124 239.174 216.006 239.387C214.829 240.935 212.629 241.263 211.052 240.113C209.704 239.131 209.239 237.377 209.825 235.893C209.825 235.889 209.829 235.886 209.829 235.883C210.029 235.531 210.242 235.18 210.471 234.835C210.612 234.628 210.757 234.418 210.904 234.214C215.147 228.371 222.331 225.943 228.938 227.484C229.489 226.709 230.03 225.864 230.552 224.958C231.912 222.593 233.086 219.916 234.063 217.009C236.188 210.676 237.352 203.256 237.352 195.629C237.352 187.585 236.057 179.767 233.703 173.214C231.312 171.792 229.712 169.177 229.712 166.188C229.712 165.804 229.738 165.423 229.794 165.052C230.342 161.074 233.749 158.013 237.87 158.013C239.12 158.013 240.303 158.295 241.359 158.798C244.123 160.108 246.032 162.927 246.032 166.188C246.032 166.848 245.953 167.492 245.805 168.107C248.756 176.036 250.468 185.486 250.468 195.629C250.468 205.348 248.894 214.43 246.169 222.149Z" fill="#212121" stroke="#D2FF00" stroke-width="2" stroke-miterlimit="10"/>
<path d="M233.944 173.907C234.349 173.1 235.912 170.226 239.414 168.739C242.271 167.526 244.831 167.909 245.806 168.107" stroke="#D2FF00" stroke-width="2" stroke-miterlimit="10"/>
<path d="M235.924 181.465C236.402 180.699 238.226 177.984 241.852 176.832C244.809 175.892 247.322 176.513 248.274 176.801" stroke="#D2FF00" stroke-width="2" stroke-miterlimit="10"/>
<path d="M237.372 189.859C237.85 189.094 239.675 186.378 243.3 185.226C246.257 184.286 248.771 184.908 249.723 185.196" stroke="#D2FF00" stroke-width="2" stroke-miterlimit="10"/>
<path d="M237.472 197.867C238.045 197.17 240.204 194.714 243.949 194.041C247.002 193.493 249.414 194.434 250.321 194.844" stroke="#D2FF00" stroke-width="2" stroke-miterlimit="10"/>
<path d="M236.625 205.828C237.321 205.254 239.91 203.259 243.714 203.318C246.816 203.366 249.003 204.753 249.815 205.329" stroke="#D2FF00" stroke-width="2" stroke-miterlimit="10"/>
<path d="M234.681 215.128C235.428 214.622 238.196 212.884 241.977 213.307C245.06 213.652 247.104 215.242 247.857 215.893" stroke="#D2FF00" stroke-width="2" stroke-miterlimit="10"/>
<path d="M231.627 223.061C232.452 222.696 235.483 221.475 239.129 222.56C242.103 223.445 243.835 225.373 244.461 226.147" stroke="#D2FF00" stroke-width="2" stroke-miterlimit="10"/>
<path d="M229.17 227.389C230.07 227.34 233.336 227.271 236.365 229.577C238.834 231.458 239.774 233.874 240.087 234.82" stroke="#D2FF00" stroke-width="2" stroke-miterlimit="10"/>
<path d="M222.482 76.4414C224.391 76.4414 225.938 74.8912 225.938 72.979C225.938 71.0668 224.391 69.5166 222.482 69.5166C220.573 69.5166 219.025 71.0668 219.025 72.979C219.025 74.8912 220.573 76.4414 222.482 76.4414Z" fill="#D2FF00"/>
<path d="M229.561 140.768C230.952 140.768 232.079 139.638 232.079 138.245C232.079 136.851 230.952 135.722 229.561 135.722C228.17 135.722 227.042 136.851 227.042 138.245C227.042 139.638 228.17 140.768 229.561 140.768Z" fill="#D2FF00"/>
<path d="M254.479 187.916C255.87 187.916 256.998 186.786 256.998 185.393C256.998 184 255.87 182.87 254.479 182.87C253.089 182.87 251.961 184 251.961 185.393C251.961 186.786 253.089 187.916 254.479 187.916Z" fill="#D2FF00"/>
<path d="M219.026 192.382C220.417 192.382 221.545 191.252 221.545 189.859C221.545 188.466 220.417 187.336 219.026 187.336C217.635 187.336 216.508 188.466 216.508 189.859C216.508 191.252 217.635 192.382 219.026 192.382Z" fill="#D2FF00"/>
<path d="M110.911 186.51C112.302 186.51 113.43 185.38 113.43 183.987C113.43 182.593 112.302 181.464 110.911 181.464C109.52 181.464 108.393 182.593 108.393 183.987C108.393 185.38 109.52 186.51 110.911 186.51Z" fill="#D2FF00"/>
<path d="M158.924 147.816C159.907 147.816 160.705 147.017 160.705 146.031C160.705 145.046 159.907 144.247 158.924 144.247C157.94 144.247 157.143 145.046 157.143 146.031C157.143 147.017 157.94 147.816 158.924 147.816Z" fill="#D2FF00"/>
<path d="M166.156 66.4029C166.925 65.7876 167.05 64.6649 166.436 63.8952C165.821 63.1254 164.701 63.0002 163.932 63.6155C163.164 64.2307 163.039 65.3535 163.653 66.1232C164.267 66.8929 165.388 67.0182 166.156 66.4029Z" fill="#D2FF00"/>
<path d="M210.074 261.682C211.12 255.595 208.804 249.857 204.39 247.23C200.333 244.815 195.058 245.358 191.712 247.668C183.686 253.206 183.751 270.966 192.586 280.515C193.776 281.801 197.811 286.162 203.953 286.828C213.929 287.91 225.203 278.783 230.123 263.526" fill="#212121"/>
<path d="M210.074 261.682C211.12 255.595 208.804 249.857 204.39 247.23C200.333 244.815 195.058 245.358 191.712 247.668C183.686 253.206 183.751 270.966 192.586 280.515C193.776 281.801 197.811 286.162 203.953 286.828C213.929 287.91 225.203 278.783 230.123 263.526" stroke="#D2FF00" stroke-width="2" stroke-miterlimit="10"/>
<mask id="path-49-inside-1_2_3" fill="white">
<path d="M107.878 296.335V311.499H101.325V302.726H95.6657V327.61H101.325V334H80.2045V327.61H85.8636V302.726H80.2045V311.499H73.6517V296.335H107.878ZM128.159 326.12L134.82 328.178C132.058 332.475 127.77 334.623 121.958 334.623C117.409 334.623 113.799 333.431 111.127 331.049C108.473 328.666 107.146 325.435 107.146 321.355C107.146 317.257 108.473 313.872 111.127 311.201C113.799 308.511 117.183 307.166 121.281 307.166C123.249 307.166 125.09 307.536 126.805 308.276C128.538 309.017 130.018 310.046 131.245 311.363C132.491 312.663 133.439 314.297 134.089 316.264C134.738 318.214 134.982 320.335 134.82 322.627H115.622C115.64 323.422 115.766 324.189 116.001 324.929C116.235 325.669 116.587 326.373 117.057 327.041C117.544 327.691 118.212 328.214 119.061 328.612C119.927 328.991 120.929 329.18 122.066 329.18C123.167 329.18 124.151 328.964 125.018 328.53C125.884 328.097 126.931 327.294 128.159 326.12ZM115.622 317.97H126.561C126.344 316.309 125.749 315.01 124.774 314.071C123.799 313.132 122.545 312.663 121.01 312.663C117.905 312.663 116.109 314.432 115.622 317.97ZM140.1 334V324.956H146.192C146.228 325.57 146.364 326.102 146.598 326.554C146.851 326.987 147.275 327.438 147.871 327.908C148.864 328.648 150.245 329.018 152.014 329.018C153.295 329.018 154.324 328.783 155.101 328.314C155.895 327.844 156.292 327.222 156.292 326.445C156.292 325.741 155.94 325.209 155.236 324.848C154.55 324.469 153.62 324.189 152.447 324.008C151.274 323.81 150.037 323.611 148.737 323.413C147.456 323.196 146.093 322.799 144.649 322.221C143.223 321.626 142.022 320.84 141.047 319.866C139.748 318.566 139.098 316.977 139.098 315.1C139.098 312.844 140 310.993 141.806 309.549C143.629 308.105 145.957 307.383 148.792 307.383C151.174 307.383 153.377 307.807 155.398 308.656V307.762H161.383V315.371H155.398C154.929 313.566 153.025 312.663 149.685 312.663C148.584 312.663 147.708 312.844 147.059 313.205C146.409 313.566 146.084 314.044 146.084 314.64C146.084 315.127 146.4 315.524 147.032 315.831C147.663 316.12 148.476 316.355 149.468 316.535C150.479 316.716 151.59 316.905 152.799 317.104C154.027 317.284 155.245 317.564 156.454 317.943C157.664 318.322 158.765 318.801 159.758 319.378C160.769 319.956 161.59 320.786 162.222 321.869C162.854 322.934 163.17 324.207 163.17 325.687C163.17 328.323 162.267 330.453 160.462 332.078C158.675 333.684 156.139 334.487 152.853 334.487C151.066 334.487 149.667 334.334 148.656 334.027C147.663 333.738 146.842 333.287 146.192 332.673V334H140.1ZM166.202 313.827V307.762H169.533V303.673L178.008 297.689V307.762H182.72V313.827H178.008V325.173C178.008 326.31 178.143 327.05 178.414 327.393C178.685 327.736 179.272 327.908 180.174 327.908C180.824 327.908 181.673 327.736 182.72 327.393V333.052C180.626 333.937 178.541 334.379 176.465 334.379C175.58 334.379 174.741 334.262 173.946 334.027C173.17 333.81 172.439 333.477 171.753 333.025C171.085 332.556 170.544 331.906 170.129 331.076C169.731 330.227 169.533 329.243 169.533 328.124V313.827H166.202ZM199.86 334V327.61H204.571V302.726H199.86V296.335H219.409C221.738 296.335 223.733 296.534 225.394 296.931C227.054 297.31 228.462 298.077 229.618 299.233C231.549 301.164 232.515 303.493 232.515 306.219C232.515 309.937 230.737 312.528 227.181 313.99C231.694 315.687 233.95 318.692 233.95 323.007C233.95 324.505 233.679 325.904 233.138 327.204C232.614 328.485 231.811 329.641 230.728 330.669C229.663 331.698 228.21 332.511 226.368 333.106C224.545 333.702 222.433 334 220.032 334H199.86ZM214.373 327.61H218.326C220.402 327.61 221.837 327.176 222.632 326.31C223.444 325.425 223.85 324.198 223.85 322.627C223.85 320.967 223.354 319.712 222.361 318.864C221.368 318.015 220.113 317.591 218.597 317.591H214.373V327.61ZM214.373 311.201H218.191C219.653 311.201 220.763 310.804 221.521 310.009C222.298 309.197 222.686 308.132 222.686 306.814C222.686 305.497 222.307 304.486 221.549 303.782C220.79 303.078 219.527 302.726 217.758 302.726H214.373V311.201ZM266.47 320.867C266.47 324.983 265.197 328.305 262.652 330.832C260.107 333.359 256.776 334.623 252.661 334.623C248.653 334.623 245.359 333.395 242.777 330.94C240.196 328.467 238.905 325.11 238.905 320.867C238.905 318.647 239.284 316.652 240.042 314.883C240.801 313.096 241.83 311.652 243.129 310.551C244.429 309.45 245.891 308.61 247.516 308.033C249.14 307.455 250.855 307.166 252.661 307.166C255.242 307.166 257.562 307.69 259.619 308.737C261.695 309.766 263.356 311.336 264.602 313.448C265.847 315.542 266.47 318.015 266.47 320.867ZM257.859 320.867C257.859 318.575 257.408 316.797 256.505 315.533C255.603 314.27 254.321 313.638 252.661 313.638C251 313.638 249.718 314.279 248.816 315.56C247.931 316.842 247.489 318.665 247.489 321.03C247.489 323.25 247.949 324.992 248.87 326.256C249.79 327.501 251.054 328.124 252.661 328.124C254.321 328.124 255.603 327.492 256.505 326.229C257.408 324.965 257.859 323.178 257.859 320.867ZM269.638 313.827V307.762H272.969V303.673L281.444 297.689V307.762H286.155V313.827H281.444V325.173C281.444 326.31 281.579 327.05 281.85 327.393C282.121 327.736 282.707 327.908 283.61 327.908C284.26 327.908 285.108 327.736 286.155 327.393V333.052C284.061 333.937 281.976 334.379 279.9 334.379C279.016 334.379 278.176 334.262 277.382 334.027C276.606 333.81 275.875 333.477 275.189 333.025C274.521 332.556 273.979 331.906 273.564 331.076C273.167 330.227 272.969 329.243 272.969 328.124V313.827H269.638Z"/>
</mask>
<path d="M107.878 296.335H108.878V295.335H107.878V296.335ZM107.878 311.499V312.499H108.878V311.499H107.878ZM101.325 311.499H100.325V312.499H101.325V311.499ZM101.325 302.726H102.325V301.726H101.325V302.726ZM95.6657 302.726V301.726H94.6657V302.726H95.6657ZM95.6657 327.61H94.6657V328.61H95.6657V327.61ZM101.325 327.61H102.325V326.61H101.325V327.61ZM101.325 334V335H102.325V334H101.325ZM80.2045 334H79.2045V335H80.2045V334ZM80.2045 327.61V326.61H79.2045V327.61H80.2045ZM85.8636 327.61V328.61H86.8636V327.61H85.8636ZM85.8636 302.726H86.8636V301.726H85.8636V302.726ZM80.2045 302.726V301.726H79.2045V302.726H80.2045ZM80.2045 311.499V312.499H81.2045V311.499H80.2045ZM73.6517 311.499H72.6517V312.499H73.6517V311.499ZM73.6517 296.335V295.335H72.6517V296.335H73.6517ZM106.878 296.335V311.499H108.878V296.335H106.878ZM107.878 310.499H101.325V312.499H107.878V310.499ZM102.325 311.499V302.726H100.325V311.499H102.325ZM101.325 301.726H95.6657V303.726H101.325V301.726ZM94.6657 302.726V327.61H96.6657V302.726H94.6657ZM95.6657 328.61H101.325V326.61H95.6657V328.61ZM100.325 327.61V334H102.325V327.61H100.325ZM101.325 333H80.2045V335H101.325V333ZM81.2045 334V327.61H79.2045V334H81.2045ZM80.2045 328.61H85.8636V326.61H80.2045V328.61ZM86.8636 327.61V302.726H84.8636V327.61H86.8636ZM85.8636 301.726H80.2045V303.726H85.8636V301.726ZM79.2045 302.726V311.499H81.2045V302.726H79.2045ZM80.2045 310.499H73.6517V312.499H80.2045V310.499ZM74.6517 311.499V296.335H72.6517V311.499H74.6517ZM73.6517 297.335H107.878V295.335H73.6517V297.335ZM128.159 326.12L128.454 325.165L127.892 324.992L127.468 325.398L128.159 326.12ZM134.82 328.178L135.661 328.719L136.373 327.612L135.115 327.223L134.82 328.178ZM111.127 331.049L110.459 331.793L110.461 331.795L111.127 331.049ZM111.127 311.201L110.417 310.496L110.417 310.496L111.127 311.201ZM126.805 308.276L126.408 309.195L126.412 309.196L126.805 308.276ZM131.245 311.363L130.514 312.045L130.518 312.05L130.523 312.055L131.245 311.363ZM134.089 316.264L133.139 316.578L133.14 316.581L134.089 316.264ZM134.82 322.627V323.627H135.751L135.817 322.698L134.82 322.627ZM115.622 322.627V321.627H114.599L114.622 322.65L115.622 322.627ZM117.057 327.041L116.239 327.616L116.248 327.629L116.257 327.641L117.057 327.041ZM119.061 328.612L118.637 329.517L118.648 329.523L118.66 329.528L119.061 328.612ZM115.622 317.97L114.631 317.834L114.475 318.97H115.622V317.97ZM126.561 317.97V318.97H127.7L127.553 317.841L126.561 317.97ZM127.863 327.076L134.524 329.134L135.115 327.223L128.454 325.165L127.863 327.076ZM133.978 327.638C131.429 331.604 127.485 333.623 121.958 333.623V335.623C128.055 335.623 132.687 333.345 135.661 328.719L133.978 327.638ZM121.958 333.623C117.586 333.623 114.235 332.481 111.792 330.302L110.461 331.795C113.362 334.382 117.232 335.623 121.958 335.623V333.623ZM111.795 330.305C109.384 328.14 108.146 325.196 108.146 321.355H106.146C106.146 325.673 107.563 329.192 110.459 331.793L111.795 330.305ZM108.146 321.355C108.146 317.496 109.386 314.372 111.836 311.906L110.417 310.496C107.56 313.373 106.146 317.019 106.146 321.355H108.146ZM111.836 311.906C114.304 309.421 117.426 308.166 121.281 308.166V306.166C116.941 306.166 113.293 307.601 110.417 310.496L111.836 311.906ZM121.281 308.166C123.12 308.166 124.825 308.511 126.408 309.195L127.201 307.358C125.354 306.561 123.377 306.166 121.281 306.166V308.166ZM126.412 309.196C128.023 309.884 129.386 310.834 130.514 312.045L131.977 310.682C130.65 309.257 129.053 308.149 127.197 307.357L126.412 309.196ZM130.523 312.055C131.651 313.232 132.529 314.73 133.139 316.578L135.038 315.951C134.349 313.863 133.331 312.094 131.967 310.671L130.523 312.055ZM133.14 316.581C133.744 318.392 133.976 320.38 133.822 322.557L135.817 322.698C135.988 320.29 135.733 318.036 135.037 315.948L133.14 316.581ZM134.82 321.627H115.622V323.627H134.82V321.627ZM114.622 322.65C114.642 323.537 114.784 324.399 115.048 325.231L116.954 324.627C116.749 323.979 116.637 323.306 116.621 322.605L114.622 322.65ZM115.048 325.231C115.315 326.074 115.714 326.869 116.239 327.616L117.875 326.466C117.461 325.877 117.156 325.265 116.954 324.627L115.048 325.231ZM116.257 327.641C116.857 328.441 117.663 329.061 118.637 329.517L119.484 327.706C118.762 327.368 118.232 326.941 117.857 326.441L116.257 327.641ZM118.66 329.528C119.675 329.972 120.818 330.18 122.066 330.18V328.18C121.039 328.18 120.179 328.009 119.461 327.695L118.66 329.528ZM122.066 330.18C123.301 330.18 124.442 329.936 125.465 329.425L124.57 327.636C123.861 327.991 123.033 328.18 122.066 328.18V330.18ZM125.465 329.425C126.464 328.925 127.595 328.042 128.85 326.843L127.468 325.398C126.267 326.546 125.305 327.269 124.57 327.636L125.465 329.425ZM115.622 318.97H126.561V316.97H115.622V318.97ZM127.553 317.841C127.314 316.01 126.642 314.481 125.468 313.351L124.08 314.791C124.856 315.538 125.375 316.609 125.569 318.1L127.553 317.841ZM125.468 313.351C124.281 312.208 122.766 311.663 121.01 311.663V313.663C122.323 313.663 123.317 314.057 124.08 314.791L125.468 313.351ZM121.01 311.663C119.259 311.663 117.759 312.168 116.633 313.277C115.524 314.37 114.893 315.935 114.631 317.834L116.612 318.107C116.838 316.467 117.349 315.379 118.036 314.702C118.706 314.043 119.656 313.663 121.01 313.663V311.663ZM140.1 334H139.1V335H140.1V334ZM140.1 324.956V323.956H139.1V324.956H140.1ZM146.192 324.956L147.19 324.897L147.135 323.956H146.192V324.956ZM146.598 326.554L145.711 327.015L145.722 327.037L145.734 327.058L146.598 326.554ZM147.871 327.908L147.252 328.693L147.263 328.701L147.273 328.709L147.871 327.908ZM155.101 328.314L154.592 327.453L154.583 327.458L155.101 328.314ZM155.236 324.848L154.752 325.723L154.766 325.731L154.78 325.738L155.236 324.848ZM152.447 324.008L152.28 324.994L152.288 324.996L152.295 324.997L152.447 324.008ZM148.737 323.413L148.571 324.399L148.579 324.4L148.586 324.401L148.737 323.413ZM144.649 322.221L144.263 323.144L144.27 323.147L144.277 323.15L144.649 322.221ZM141.806 309.549L141.185 308.765L141.181 308.768L141.806 309.549ZM155.398 308.656L155.011 309.578L156.398 310.16V308.656H155.398ZM155.398 307.762V306.762H154.398V307.762H155.398ZM161.383 307.762H162.383V306.762H161.383V307.762ZM161.383 315.371V316.371H162.383V315.371H161.383ZM155.398 315.371L154.431 315.622L154.625 316.371H155.398V315.371ZM147.032 315.831L146.595 316.731L146.605 316.736L146.616 316.741L147.032 315.831ZM149.468 316.535L149.29 317.519L149.293 317.519L149.468 316.535ZM152.799 317.104L152.637 318.09L152.645 318.092L152.654 318.093L152.799 317.104ZM159.758 319.378L159.255 320.243L159.262 320.246L159.758 319.378ZM162.222 321.869L161.358 322.373L161.362 322.38L162.222 321.869ZM160.462 332.078L161.13 332.821L161.131 332.821L160.462 332.078ZM148.656 334.027L148.947 333.07L148.935 333.067L148.656 334.027ZM146.192 332.673L146.879 331.946L145.192 330.353V332.673H146.192ZM146.192 334V335H147.192V334H146.192ZM141.1 334V324.956H139.1V334H141.1ZM140.1 325.956H146.192V323.956H140.1V325.956ZM145.194 325.015C145.237 325.74 145.399 326.416 145.711 327.015L147.485 326.092C147.328 325.789 147.22 325.399 147.19 324.897L145.194 325.015ZM145.734 327.058C146.074 327.64 146.603 328.182 147.252 328.693L148.49 327.122C147.947 326.695 147.628 326.334 147.462 326.05L145.734 327.058ZM147.273 328.709C148.499 329.623 150.119 330.018 152.014 330.018V328.018C150.371 328.018 149.229 327.672 148.469 327.106L147.273 328.709ZM152.014 330.018C153.406 330.018 154.634 329.764 155.618 329.169L154.583 327.458C154.015 327.802 153.185 328.018 152.014 328.018V330.018ZM155.609 329.175C156.64 328.565 157.292 327.647 157.292 326.445H155.292C155.292 326.796 155.149 327.123 154.592 327.453L155.609 329.175ZM157.292 326.445C157.292 325.918 157.157 325.413 156.862 324.967C156.571 324.526 156.161 324.198 155.692 323.958L154.78 325.738C155.015 325.858 155.133 325.977 155.194 326.069C155.251 326.155 155.292 326.269 155.292 326.445H157.292ZM155.72 323.973C154.892 323.515 153.835 323.21 152.599 323.02L152.295 324.997C153.406 325.168 154.208 325.422 154.752 325.723L155.72 323.973ZM152.614 323.022C151.435 322.823 150.193 322.623 148.888 322.424L148.586 324.401C149.881 324.599 151.113 324.797 152.28 324.994L152.614 323.022ZM148.904 322.427C147.705 322.224 146.411 321.849 145.02 321.293L144.277 323.15C145.775 323.749 147.207 324.168 148.571 324.399L148.904 322.427ZM145.034 321.299C143.714 320.747 142.627 320.031 141.755 319.158L140.34 320.573C141.418 321.65 142.731 322.504 144.263 323.144L145.034 321.299ZM141.755 319.158C140.647 318.051 140.098 316.718 140.098 315.1H138.098C138.098 317.236 138.849 319.081 140.34 320.573L141.755 319.158ZM140.098 315.1C140.098 313.156 140.856 311.59 142.43 310.33L141.181 308.768C139.145 310.397 138.098 312.531 138.098 315.1H140.098ZM142.426 310.333C144.037 309.057 146.132 308.383 148.792 308.383V306.383C145.783 306.383 143.221 307.153 141.185 308.765L142.426 310.333ZM148.792 308.383C151.053 308.383 153.123 308.785 155.011 309.578L155.785 307.733C153.631 306.829 151.296 306.383 148.792 306.383V308.383ZM156.398 308.656V307.762H154.398V308.656H156.398ZM155.398 308.762H161.383V306.762H155.398V308.762ZM160.383 307.762V315.371H162.383V307.762H160.383ZM161.383 314.371H155.398V316.371H161.383V314.371ZM156.366 315.119C156.047 313.891 155.227 312.996 154.046 312.436C152.905 311.895 151.426 311.663 149.685 311.663V313.663C151.284 313.663 152.427 313.882 153.19 314.244C153.914 314.587 154.281 315.046 154.431 315.622L156.366 315.119ZM149.685 311.663C148.49 311.663 147.426 311.857 146.573 312.33L147.544 314.079C147.991 313.831 148.678 313.663 149.685 313.663V311.663ZM146.573 312.33C145.698 312.816 145.084 313.586 145.084 314.64H147.084C147.084 314.502 147.119 314.315 147.544 314.079L146.573 312.33ZM145.084 314.64C145.084 315.671 145.792 316.341 146.595 316.731L147.468 314.932C147.238 314.82 147.14 314.726 147.103 314.681C147.095 314.67 147.09 314.663 147.088 314.658C147.086 314.654 147.085 314.652 147.085 314.652C147.085 314.652 147.085 314.652 147.084 314.651C147.084 314.65 147.084 314.646 147.084 314.64H145.084ZM146.616 316.741C147.349 317.076 148.248 317.33 149.29 317.519L149.647 315.551C148.703 315.379 147.978 315.164 147.447 314.922L146.616 316.741ZM149.293 317.519C150.309 317.701 151.424 317.891 152.637 318.09L152.961 316.117C151.755 315.919 150.65 315.73 149.644 315.551L149.293 317.519ZM152.654 318.093C153.828 318.266 154.995 318.534 156.155 318.897L156.754 316.989C155.495 316.594 154.225 316.303 152.945 316.114L152.654 318.093ZM156.155 318.897C157.301 319.256 158.333 319.706 159.255 320.243L160.261 318.514C159.197 317.895 158.027 317.388 156.754 316.989L156.155 318.897ZM159.262 320.246C160.109 320.73 160.808 321.43 161.358 322.373L163.086 321.365C162.373 320.143 161.429 319.181 160.254 318.51L159.262 320.246ZM161.362 322.38C161.886 323.262 162.17 324.351 162.17 325.687H164.17C164.17 324.063 163.822 322.606 163.082 321.359L161.362 322.38ZM162.17 325.687C162.17 328.066 161.368 329.917 159.793 331.334L161.131 332.821C163.166 330.989 164.17 328.579 164.17 325.687H162.17ZM159.793 331.334C158.248 332.723 155.983 333.487 152.853 333.487V335.487C156.294 335.487 159.102 334.645 161.13 332.821L159.793 331.334ZM152.853 333.487C151.106 333.487 149.821 333.335 148.947 333.07L148.366 334.984C149.514 335.332 151.026 335.487 152.853 335.487V333.487ZM148.935 333.067C148.071 332.815 147.396 332.435 146.879 331.946L145.505 333.4C146.288 334.139 147.256 334.661 148.377 334.987L148.935 333.067ZM145.192 332.673V334H147.192V332.673H145.192ZM146.192 333H140.1V335H146.192V333ZM166.202 313.827H165.202V314.827H166.202V313.827ZM166.202 307.762V306.762H165.202V307.762H166.202ZM169.533 307.762V308.762H170.533V307.762H169.533ZM169.533 303.673L168.956 302.856L168.533 303.155V303.673H169.533ZM178.008 297.689H179.008V295.759L177.431 296.872L178.008 297.689ZM178.008 307.762H177.008V308.762H178.008V307.762ZM182.72 307.762H183.72V306.762H182.72V307.762ZM182.72 313.827V314.827H183.72V313.827H182.72ZM178.008 313.827V312.827H177.008V313.827H178.008ZM178.414 327.393L177.629 328.013L178.414 327.393ZM182.72 327.393H183.72V326.013L182.408 326.443L182.72 327.393ZM182.72 333.052L183.109 333.973L183.72 333.715V333.052H182.72ZM173.946 334.027L174.23 333.068L174.223 333.066L174.215 333.064L173.946 334.027ZM171.753 333.025L171.178 333.843L171.191 333.852L171.204 333.861L171.753 333.025ZM170.129 331.076L169.223 331.5L169.228 331.511L169.234 331.523L170.129 331.076ZM169.533 313.827H170.533V312.827H169.533V313.827ZM167.202 313.827V307.762H165.202V313.827H167.202ZM166.202 308.762H169.533V306.762H166.202V308.762ZM170.533 307.762V303.673H168.533V307.762H170.533ZM170.11 304.49L178.585 298.506L177.431 296.872L168.956 302.856L170.11 304.49ZM177.008 297.689V307.762H179.008V297.689H177.008ZM178.008 308.762H182.72V306.762H178.008V308.762ZM181.72 307.762V313.827H183.72V307.762H181.72ZM182.72 312.827H178.008V314.827H182.72V312.827ZM177.008 313.827V325.173H179.008V313.827H177.008ZM177.008 325.173C177.008 325.774 177.043 326.309 177.126 326.761C177.205 327.191 177.344 327.652 177.629 328.013L179.199 326.773C179.213 326.792 179.15 326.711 179.093 326.401C179.04 326.112 179.008 325.708 179.008 325.173H177.008ZM177.629 328.013C177.936 328.401 178.361 328.617 178.777 328.739C179.193 328.861 179.669 328.908 180.174 328.908V326.908C179.777 326.908 179.508 326.869 179.338 326.819C179.167 326.769 179.164 326.729 179.199 326.773L177.629 328.013ZM180.174 328.908C180.978 328.908 181.943 328.7 183.031 328.343L182.408 326.443C181.402 326.772 180.67 326.908 180.174 326.908V328.908ZM181.72 327.393V333.052H183.72V327.393H181.72ZM182.33 332.131C180.348 332.969 178.395 333.379 176.465 333.379V335.379C178.686 335.379 180.903 334.905 183.109 333.973L182.33 332.131ZM176.465 333.379C175.67 333.379 174.926 333.274 174.23 333.068L173.663 334.986C174.555 335.25 175.491 335.379 176.465 335.379V333.379ZM174.215 333.064C173.541 332.876 172.904 332.585 172.303 332.19L171.204 333.861C171.974 334.368 172.8 334.745 173.678 334.99L174.215 333.064ZM172.328 332.207C171.813 331.845 171.374 331.331 171.023 330.628L169.234 331.523C169.713 332.481 170.357 333.266 171.178 333.843L172.328 332.207ZM171.034 330.652C170.71 329.959 170.533 329.125 170.533 328.124H168.533C168.533 329.362 168.753 330.495 169.223 331.5L171.034 330.652ZM170.533 328.124V313.827H168.533V328.124H170.533ZM169.533 312.827H166.202V314.827H169.533V312.827ZM199.86 334H198.86V335H199.86V334ZM199.86 327.61V326.61H198.86V327.61H199.86ZM204.571 327.61V328.61H205.571V327.61H204.571ZM204.571 302.726H205.571V301.726H204.571V302.726ZM199.86 302.726H198.86V303.726H199.86V302.726ZM199.86 296.335V295.335H198.86V296.335H199.86ZM225.394 296.931L225.161 297.904L225.171 297.906L225.394 296.931ZM229.618 299.233L230.325 298.525L229.618 299.233ZM227.181 313.99L226.8 313.065L224.45 314.031L226.829 314.926L227.181 313.99ZM233.138 327.204L232.215 326.819L232.212 326.825L233.138 327.204ZM230.728 330.669L230.039 329.944L230.033 329.95L230.728 330.669ZM226.368 333.106L226.061 332.155L226.058 332.156L226.368 333.106ZM214.373 327.61H213.373V328.61H214.373V327.61ZM222.632 326.31L221.895 325.634L221.895 325.634L222.632 326.31ZM214.373 317.591V316.591H213.373V317.591H214.373ZM214.373 311.201H213.373V312.201H214.373V311.201ZM221.521 310.009L220.798 309.319L220.798 309.319L221.521 310.009ZM214.373 302.726V301.726H213.373V302.726H214.373ZM200.86 334V327.61H198.86V334H200.86ZM199.86 328.61H204.571V326.61H199.86V328.61ZM205.571 327.61V302.726H203.571V327.61H205.571ZM204.571 301.726H199.86V303.726H204.571V301.726ZM200.86 302.726V296.335H198.86V302.726H200.86ZM199.86 297.335H219.409V295.335H199.86V297.335ZM219.409 297.335C221.686 297.335 223.598 297.53 225.161 297.904L225.626 295.958C223.867 295.538 221.79 295.335 219.409 295.335V297.335ZM225.171 297.906C226.656 298.245 227.894 298.923 228.911 299.94L230.325 298.525C229.031 297.231 227.452 296.375 225.616 295.956L225.171 297.906ZM228.911 299.94C230.655 301.684 231.515 303.759 231.515 306.219H233.515C233.515 303.227 232.443 300.644 230.325 298.525L228.911 299.94ZM231.515 306.219C231.515 307.914 231.112 309.285 230.357 310.384C229.6 311.487 228.439 312.391 226.8 313.065L227.561 314.915C229.478 314.126 230.984 313.004 232.006 311.516C233.029 310.026 233.515 308.242 233.515 306.219H231.515ZM226.829 314.926C228.957 315.726 230.472 316.804 231.458 318.117C232.437 319.422 232.95 321.033 232.95 323.007H234.95C234.95 320.666 234.334 318.617 233.057 316.916C231.787 315.224 229.917 313.95 227.533 313.054L226.829 314.926ZM232.95 323.007C232.95 324.381 232.702 325.649 232.215 326.819L234.061 327.588C234.656 326.159 234.95 324.628 234.95 323.007H232.95ZM232.212 326.825C231.746 327.966 231.028 329.005 230.039 329.944L231.417 331.394C232.594 330.276 233.482 329.005 234.063 327.582L232.212 326.825ZM230.033 329.95C229.106 330.846 227.8 331.592 226.061 332.155L226.676 334.058C228.62 333.429 230.22 332.551 231.423 331.389L230.033 329.95ZM226.058 332.156C224.356 332.712 222.353 333 220.032 333V335C222.513 335 224.734 334.693 226.679 334.057L226.058 332.156ZM220.032 333H199.86V335H220.032V333ZM214.373 328.61H218.326V326.61H214.373V328.61ZM218.326 328.61C220.482 328.61 222.283 328.171 223.369 326.986L221.895 325.634C221.392 326.182 220.322 326.61 218.326 326.61V328.61ZM223.368 326.986C224.397 325.866 224.85 324.369 224.85 322.627H222.85C222.85 324.027 222.491 324.985 221.895 325.634L223.368 326.986ZM224.85 322.627C224.85 320.76 224.283 319.191 223.011 318.103L221.711 319.624C222.424 320.233 222.85 321.174 222.85 322.627H224.85ZM223.011 318.103C221.808 317.076 220.311 316.591 218.597 316.591V318.591C219.916 318.591 220.928 318.955 221.711 319.624L223.011 318.103ZM218.597 316.591H214.373V318.591H218.597V316.591ZM213.373 317.591V327.61H215.373V317.591H213.373ZM214.373 312.201H218.191V310.201H214.373V312.201ZM218.191 312.201C219.832 312.201 221.241 311.751 222.245 310.7L220.798 309.319C220.285 309.856 219.474 310.201 218.191 310.201V312.201ZM222.244 310.7C223.229 309.67 223.686 308.342 223.686 306.814H221.686C221.686 307.922 221.367 308.724 220.798 309.319L222.244 310.7ZM223.686 306.814C223.686 305.299 223.243 303.991 222.229 303.049L220.868 304.514C221.37 304.98 221.686 305.694 221.686 306.814H223.686ZM222.229 303.049C221.193 302.086 219.613 301.726 217.758 301.726V303.726C219.44 303.726 220.388 304.069 220.868 304.514L222.229 303.049ZM217.758 301.726H214.373V303.726H217.758V301.726ZM213.373 302.726V311.201H215.373V302.726H213.373ZM242.777 330.94L242.085 331.662L242.088 331.665L242.777 330.94ZM240.042 314.883L240.962 315.277L240.963 315.274L240.042 314.883ZM259.619 308.737L259.166 309.628L259.175 309.633L259.619 308.737ZM264.602 313.448L263.74 313.956L263.742 313.959L264.602 313.448ZM248.816 315.56L247.998 314.984L247.992 314.992L248.816 315.56ZM248.87 326.256L248.061 326.845L248.065 326.85L248.87 326.256ZM265.47 320.867C265.47 324.759 264.275 327.811 261.947 330.122L263.357 331.542C266.119 328.799 267.47 325.207 267.47 320.867H265.47ZM261.947 330.122C259.617 332.436 256.554 333.623 252.661 333.623V335.623C256.998 335.623 260.596 334.283 263.357 331.542L261.947 330.122ZM252.661 333.623C248.875 333.623 245.838 332.471 243.466 330.216L242.088 331.665C244.879 334.319 248.431 335.623 252.661 335.623V333.623ZM243.469 330.218C241.121 327.969 239.905 324.892 239.905 320.867H237.905C237.905 325.327 239.271 328.966 242.085 331.662L243.469 330.218ZM239.905 320.867C239.905 318.762 240.264 316.904 240.962 315.277L239.123 314.489C238.304 316.401 237.905 318.532 237.905 320.867H239.905ZM240.963 315.274C241.669 313.61 242.611 312.301 243.776 311.314L242.483 309.788C241.048 311.003 239.932 312.582 239.122 314.493L240.963 315.274ZM243.776 311.314C244.982 310.292 246.339 309.513 247.851 308.975L247.181 307.091C245.444 307.708 243.876 308.608 242.483 309.788L243.776 311.314ZM247.851 308.975C249.363 308.437 250.964 308.166 252.661 308.166V306.166C250.747 306.166 248.918 306.473 247.181 307.091L247.851 308.975ZM252.661 308.166C255.103 308.166 257.264 308.661 259.166 309.628L260.073 307.845C257.859 306.719 255.381 306.166 252.661 306.166V308.166ZM259.175 309.633C261.067 310.57 262.587 312.001 263.74 313.956L265.463 312.94C264.125 310.671 262.324 308.961 260.063 307.841L259.175 309.633ZM263.742 313.959C264.881 315.874 265.47 318.164 265.47 320.867H267.47C267.47 317.866 266.813 315.21 265.461 312.937L263.742 313.959ZM258.859 320.867C258.859 318.461 258.388 316.449 257.319 314.952L255.692 316.114C256.428 317.145 256.859 318.689 256.859 320.867H258.859ZM257.319 314.952C256.214 313.405 254.618 312.638 252.661 312.638V314.638C254.025 314.638 254.992 315.134 255.692 316.114L257.319 314.952ZM252.661 312.638C250.697 312.638 249.101 313.419 247.998 314.985L249.633 316.136C250.336 315.138 251.302 314.638 252.661 314.638V312.638ZM247.992 314.992C246.947 316.507 246.489 318.561 246.489 321.03H248.489C248.489 318.769 248.915 317.177 249.639 316.128L247.992 314.992ZM246.489 321.03C246.489 323.376 246.974 325.352 248.061 326.845L249.678 325.667C248.924 324.633 248.489 323.125 248.489 321.03H246.489ZM248.065 326.85C249.183 328.362 250.751 329.124 252.661 329.124V327.124C251.357 327.124 250.398 326.641 249.674 325.661L248.065 326.85ZM252.661 329.124C254.618 329.124 256.214 328.357 257.319 326.81L255.692 325.648C254.992 326.628 254.025 327.124 252.661 327.124V329.124ZM257.319 326.81C258.389 325.312 258.859 323.29 258.859 320.867H256.859C256.859 323.066 256.427 324.618 255.692 325.648L257.319 326.81ZM269.638 313.827H268.638V314.827H269.638V313.827ZM269.638 307.762V306.762H268.638V307.762H269.638ZM272.969 307.762V308.762H273.969V307.762H272.969ZM272.969 303.673L272.392 302.856L271.969 303.155V303.673H272.969ZM281.444 297.689H282.444V295.759L280.867 296.872L281.444 297.689ZM281.444 307.762H280.444V308.762H281.444V307.762ZM286.155 307.762H287.155V306.762H286.155V307.762ZM286.155 313.827V314.827H287.155V313.827H286.155ZM281.444 313.827V312.827H280.444V313.827H281.444ZM281.85 327.393L281.065 328.013L281.85 327.393ZM286.155 327.393H287.155V326.013L285.844 326.443L286.155 327.393ZM286.155 333.052L286.544 333.973L287.155 333.715V333.052H286.155ZM277.382 334.027L277.666 333.068L277.658 333.066L277.651 333.064L277.382 334.027ZM275.189 333.025L274.614 333.843L274.627 333.852L274.639 333.861L275.189 333.025ZM273.564 331.076L272.659 331.5L272.664 331.511L272.67 331.523L273.564 331.076ZM272.969 313.827H273.969V312.827H272.969V313.827ZM270.638 313.827V307.762H268.638V313.827H270.638ZM269.638 308.762H272.969V306.762H269.638V308.762ZM273.969 307.762V303.673H271.969V307.762H273.969ZM273.545 304.49L282.021 298.506L280.867 296.872L272.392 302.856L273.545 304.49ZM280.444 297.689V307.762H282.444V297.689H280.444ZM281.444 308.762H286.155V306.762H281.444V308.762ZM285.155 307.762V313.827H287.155V307.762H285.155ZM286.155 312.827H281.444V314.827H286.155V312.827ZM280.444 313.827V325.173H282.444V313.827H280.444ZM280.444 325.173C280.444 325.774 280.479 326.309 280.562 326.761C280.64 327.191 280.78 327.652 281.065 328.013L282.635 326.773C282.649 326.792 282.586 326.711 282.529 326.401C282.476 326.112 282.444 325.708 282.444 325.173H280.444ZM281.065 328.013C281.371 328.401 281.797 328.617 282.212 328.739C282.629 328.861 283.104 328.908 283.61 328.908V326.908C283.213 326.908 282.944 326.869 282.774 326.819C282.603 326.769 282.599 326.729 282.635 326.773L281.065 328.013ZM283.61 328.908C284.414 328.908 285.379 328.7 286.467 328.343L285.844 326.443C284.838 326.772 284.106 326.908 283.61 326.908V328.908ZM285.155 327.393V333.052H287.155V327.393H285.155ZM285.766 332.131C283.784 332.969 281.83 333.379 279.9 333.379V335.379C282.122 335.379 284.339 334.905 286.544 333.973L285.766 332.131ZM279.9 333.379C279.105 333.379 278.362 333.274 277.666 333.068L277.099 334.986C277.991 335.25 278.926 335.379 279.9 335.379V333.379ZM277.651 333.064C276.976 332.876 276.34 332.585 275.739 332.19L274.639 333.861C275.41 334.368 276.236 334.745 277.113 334.99L277.651 333.064ZM275.764 332.207C275.249 331.845 274.81 331.331 274.459 330.628L272.67 331.523C273.149 332.481 273.793 333.266 274.614 333.843L275.764 332.207ZM274.47 330.652C274.146 329.959 273.969 329.125 273.969 328.124H271.969C271.969 329.362 272.188 330.495 272.659 331.5L274.47 330.652ZM273.969 328.124V313.827H271.969V328.124H273.969ZM272.969 312.827H269.638V314.827H272.969V312.827Z" fill="#D2FF00" mask="url(#path-49-inside-1_2_3)"/>
</svg>
