<svg width="360" height="184" viewBox="0 0 360 184" fill="none" xmlns="http://www.w3.org/2000/svg">
<path fill-rule="evenodd" clip-rule="evenodd" d="M360 3V2.38419e-06L332 0V3L357 3V30H360V3ZM0 2.3167e-06L3 2.44784e-06H30V3H3L3 28H0V2.3167e-06ZM360 79V106H357V79H360ZM3 106L3 79H0V106H3ZM357 184H330V181H357V156H360V184H357ZM3.54062e-06 154L0 181V184H28V181H3L3 154H3.54062e-06Z" fill="#F9F8F4"/>
<line x1="181.5" y1="31" x2="181.5" y2="72" stroke="#56EBFF" stroke-width="3"/>
<line x1="201" y1="52.5" x2="160" y2="52.5" stroke="#56EBFF" stroke-width="3"/>
<path d="M61.5942 97.6431H53.0493L51.1865 103.026H54.0918V106H44.7266V103.026H47.5977L54.0918 84.894H51.3062V82.228H63.4399V84.894H60.6372L67.0459 103.026H69.7119V106H60.3979V103.026H63.3374L61.5942 97.6431ZM60.6885 94.8745L57.5269 84.894H57.2192L53.9209 94.8745H60.6885ZM76.582 89.4741V91.4736C77.6758 90.6761 78.667 90.1007 79.5557 89.7476C80.4557 89.383 81.3444 89.2007 82.2217 89.2007C83.4749 89.2007 84.506 89.5994 85.3149 90.397C86.1353 91.1831 86.5454 92.3452 86.5454 93.8833V103.129H89.3823V106H83.2642V95.1821C83.2642 94.134 83.1104 93.3706 82.8027 92.8921C82.4951 92.4136 82.0052 92.1743 81.333 92.1743C79.9316 92.1743 78.348 92.875 76.582 94.2764V103.129H79.4189V106H70.4468V103.129H73.2837V92.3452H70.3784V89.4741H76.582ZM96.6455 89.4741V91.4736C97.7393 90.6761 98.7305 90.1007 99.6191 89.7476C100.519 89.383 101.408 89.2007 102.285 89.2007C103.538 89.2007 104.569 89.5994 105.378 90.397C106.199 91.1831 106.609 92.3452 106.609 93.8833V103.129H109.446V106H103.328V95.1821C103.328 94.134 103.174 93.3706 102.866 92.8921C102.559 92.4136 102.069 92.1743 101.396 92.1743C99.9951 92.1743 98.4115 92.875 96.6455 94.2764V103.129H99.4824V106H90.5103V103.129H93.3472V92.3452H90.4419V89.4741H96.6455ZM113.376 104C111.724 102.337 110.898 100.252 110.898 97.7456C110.898 95.2391 111.724 93.1541 113.376 91.4907C115.028 89.8273 117.108 88.9956 119.614 88.9956C122.098 88.9956 124.166 89.8273 125.818 91.4907C127.47 93.1541 128.296 95.2391 128.296 97.7456C128.296 100.252 127.464 102.337 125.801 104C124.137 105.664 122.064 106.496 119.58 106.496C117.096 106.496 115.028 105.664 113.376 104ZM114.402 97.7456C114.402 99.3521 114.897 100.685 115.889 101.745C116.88 102.804 118.11 103.334 119.58 103.334C121.073 103.334 122.314 102.804 123.306 101.745C124.297 100.685 124.792 99.3521 124.792 97.7456C124.792 96.1506 124.291 94.8175 123.289 93.7466C122.297 92.6756 121.061 92.1401 119.58 92.1401C118.11 92.1401 116.88 92.6756 115.889 93.7466C114.897 94.8175 114.402 96.1506 114.402 97.7456ZM148.992 103.129V106H142.856V104.103C140.977 105.55 139.182 106.273 137.473 106.273C134.408 106.273 132.876 104.57 132.876 101.164V92.3452H130.535V89.4741H136.174V100.993C136.174 102.599 136.829 103.402 138.14 103.402C138.835 103.402 139.615 103.214 140.481 102.838C141.347 102.462 142.139 101.955 142.856 101.317V92.3452H140.02V89.4741H146.155V103.129H148.992ZM156.494 89.4741V91.4736C157.588 90.6761 158.579 90.1007 159.468 89.7476C160.368 89.383 161.257 89.2007 162.134 89.2007C163.387 89.2007 164.418 89.5994 165.227 90.397C166.047 91.1831 166.458 92.3452 166.458 93.8833V103.129H169.294V106H163.176V95.1821C163.176 94.134 163.022 93.3706 162.715 92.8921C162.407 92.4136 161.917 92.1743 161.245 92.1743C159.844 92.1743 158.26 92.875 156.494 94.2764V103.129H159.331V106H150.359V103.129H153.196V92.3452H150.291V89.4741H156.494ZM186.35 89.4741V95.7119H183.411C183.24 94.5498 182.761 93.627 181.975 92.9434C181.223 92.2939 180.243 91.9692 179.036 91.9692C177.566 91.9692 176.381 92.4876 175.481 93.5244C174.581 94.5498 174.131 95.8942 174.131 97.5576C174.131 99.3236 174.598 100.759 175.532 101.864C176.466 102.969 177.68 103.522 179.172 103.522C180.278 103.522 181.257 103.243 182.112 102.685C182.978 102.115 183.656 101.306 184.146 100.258L186.846 101.522C186.128 103.14 185.103 104.376 183.77 105.231C182.448 106.074 180.881 106.496 179.07 106.496C177.691 106.496 176.449 106.234 175.344 105.709C174.239 105.174 173.35 104.473 172.678 103.607C172.017 102.742 171.51 101.796 171.157 100.771C170.815 99.7337 170.645 98.6742 170.645 97.5918C170.645 96.4183 170.855 95.3018 171.277 94.2422C171.71 93.1826 172.285 92.2712 173.003 91.5078C173.732 90.7331 174.598 90.1235 175.601 89.6792C176.603 89.2235 177.657 88.9956 178.762 88.9956C180.597 88.9956 182.146 89.5311 183.411 90.6021V89.4741H186.35ZM206.431 98.5488H192.537C192.787 100.155 193.408 101.403 194.399 102.292C195.391 103.18 196.655 103.625 198.193 103.625C199.276 103.625 200.29 103.391 201.235 102.924C202.181 102.457 202.956 101.79 203.56 100.924L206.431 102.189C205.542 103.568 204.38 104.633 202.944 105.385C201.509 106.125 199.902 106.496 198.125 106.496C195.448 106.496 193.243 105.675 191.511 104.035C189.791 102.394 188.931 100.298 188.931 97.7456C188.931 96.0366 189.358 94.5042 190.212 93.1484C191.067 91.7812 192.149 90.7502 193.459 90.0552C194.77 89.3488 196.154 88.9956 197.612 88.9956C198.763 88.9956 199.862 89.2121 200.911 89.645C201.97 90.078 202.91 90.6932 203.73 91.4907C204.551 92.2882 205.206 93.2965 205.696 94.5156C206.186 95.7347 206.431 97.0791 206.431 98.5488ZM192.639 96.1733H203.098C202.836 94.8517 202.192 93.7637 201.167 92.9092C200.142 92.0433 198.979 91.6104 197.681 91.6104C196.382 91.6104 195.277 92.0262 194.365 92.8579C193.465 93.6782 192.89 94.7834 192.639 96.1733ZM229.536 103.129V106H223.23V103.556C221.567 105.368 219.607 106.273 217.351 106.273C216.576 106.273 215.813 106.171 215.061 105.966C214.309 105.761 213.58 105.436 212.874 104.992C212.167 104.547 211.546 104.006 211.011 103.368C210.475 102.719 210.042 101.916 209.712 100.958C209.393 100.001 209.233 98.9533 209.233 97.814C209.233 95.3075 210.014 93.2111 211.575 91.5249C213.147 89.8387 215.095 88.9956 217.419 88.9956C219.63 88.9956 221.567 89.8786 223.23 91.6445V85.0991H220.085V82.228H226.528V103.129H229.536ZM212.737 97.7114C212.737 99.409 213.221 100.782 214.189 101.83C215.158 102.878 216.411 103.402 217.949 103.402C219.487 103.402 220.752 102.85 221.743 101.745C222.734 100.639 223.23 99.2438 223.23 97.5576C223.23 95.8942 222.734 94.5498 221.743 93.5244C220.763 92.4876 219.487 91.9692 217.915 91.9692C216.445 91.9692 215.215 92.5161 214.224 93.6099C213.232 94.7036 212.737 96.0708 212.737 97.7114ZM239.79 106V100.326H242.695V100.89C242.832 101.71 243.254 102.36 243.96 102.838C244.666 103.317 245.561 103.556 246.643 103.556C247.68 103.556 248.506 103.368 249.121 102.992C249.736 102.616 250.044 102.115 250.044 101.488C250.044 100.919 249.839 100.486 249.429 100.189C249.019 99.8818 248.466 99.6711 247.771 99.5571C247.087 99.4318 246.364 99.3179 245.601 99.2153C244.849 99.1014 244.051 98.8849 243.208 98.5659C242.365 98.2355 241.659 97.7855 241.089 97.2158C240.223 96.3499 239.79 95.3018 239.79 94.0713C239.79 92.6585 240.337 91.4964 241.431 90.585C242.524 89.6621 243.914 89.2007 245.601 89.2007C247.15 89.2007 248.489 89.514 249.617 90.1406V89.4741H252.488V94.9429H249.617V93.9175C248.717 92.5731 247.435 91.9009 245.771 91.9009C244.894 91.9009 244.188 92.0832 243.652 92.4478C243.128 92.8123 242.866 93.3022 242.866 93.9175C242.866 94.4302 243.088 94.8289 243.533 95.1138C243.977 95.3986 244.564 95.598 245.293 95.7119C246.022 95.8258 246.78 95.9398 247.566 96.0537C248.352 96.1562 249.155 96.3499 249.976 96.6348C250.807 96.9196 251.474 97.3127 251.975 97.814C252.909 98.7482 253.376 99.8875 253.376 101.232C253.376 102.736 252.79 103.955 251.616 104.889C250.454 105.812 248.927 106.273 247.036 106.273C245.316 106.273 243.869 105.88 242.695 105.094V106H239.79ZM258.196 104C256.544 102.337 255.718 100.252 255.718 97.7456C255.718 95.2391 256.544 93.1541 258.196 91.4907C259.848 89.8273 261.927 88.9956 264.434 88.9956C266.917 88.9956 268.985 89.8273 270.637 91.4907C272.289 93.1541 273.115 95.2391 273.115 97.7456C273.115 100.252 272.284 102.337 270.62 104C268.957 105.664 266.883 106.496 264.399 106.496C261.916 106.496 259.848 105.664 258.196 104ZM259.221 97.7456C259.221 99.3521 259.717 100.685 260.708 101.745C261.699 102.804 262.93 103.334 264.399 103.334C265.892 103.334 267.134 102.804 268.125 101.745C269.116 100.685 269.612 99.3521 269.612 97.7456C269.612 96.1506 269.111 94.8175 268.108 93.7466C267.117 92.6756 265.881 92.1401 264.399 92.1401C262.93 92.1401 261.699 92.6756 260.708 93.7466C259.717 94.8175 259.221 96.1506 259.221 97.7456ZM278.259 104C276.607 102.337 275.781 100.252 275.781 97.7456C275.781 95.2391 276.607 93.1541 278.259 91.4907C279.911 89.8273 281.991 88.9956 284.497 88.9956C286.981 88.9956 289.049 89.8273 290.701 91.4907C292.353 93.1541 293.179 95.2391 293.179 97.7456C293.179 100.252 292.347 102.337 290.684 104C289.02 105.664 286.947 106.496 284.463 106.496C281.979 106.496 279.911 105.664 278.259 104ZM279.285 97.7456C279.285 99.3521 279.78 100.685 280.771 101.745C281.763 102.804 282.993 103.334 284.463 103.334C285.955 103.334 287.197 102.804 288.188 101.745C289.18 100.685 289.675 99.3521 289.675 97.7456C289.675 96.1506 289.174 94.8175 288.171 93.7466C287.18 92.6756 285.944 92.1401 284.463 92.1401C282.993 92.1401 281.763 92.6756 280.771 93.7466C279.78 94.8175 279.285 96.1506 279.285 97.7456ZM301.655 89.4741V91.4736C302.749 90.6761 303.74 90.1007 304.629 89.7476C305.529 89.383 306.418 89.2007 307.295 89.2007C308.548 89.2007 309.579 89.5994 310.388 90.397C311.208 91.1831 311.619 92.3452 311.619 93.8833V103.129H314.456V106H308.337V95.1821C308.337 94.134 308.184 93.3706 307.876 92.8921C307.568 92.4136 307.078 92.1743 306.406 92.1743C305.005 92.1743 303.421 92.875 301.655 94.2764V103.129H304.492V106H295.52V103.129H298.357V92.3452H295.452V89.4741H301.655Z" fill="#F9F8F4"/>
</svg>
