<svg width="30" height="22" viewBox="0 0 30 22" fill="none" xmlns="http://www.w3.org/2000/svg">
<path d="M25.3838 1.81284C23.4837 0.967787 21.4265 0.354441 19.2836 6.26952e-05C19.2648 -0.000510584 19.2461 0.00285339 19.2289 0.00991817C19.2116 0.0169829 19.1961 0.0275769 19.1836 0.0409528C18.9265 0.49074 18.6265 1.07683 18.4265 1.52661C16.1535 1.1995 13.842 1.1995 11.5691 1.52661C11.3691 1.0632 11.0691 0.49074 10.7977 0.0409528C10.7834 0.0136929 10.7405 6.26952e-05 10.6977 6.26952e-05C8.55475 0.354441 6.51184 0.967787 4.5975 1.81284C4.58322 1.81284 4.56893 1.82647 4.55465 1.8401C0.668824 7.38748 -0.402634 12.7849 0.125952 18.1279C0.125952 18.1551 0.140238 18.1824 0.16881 18.196C2.74031 19.9952 5.21181 21.0856 7.65473 21.8079C7.69759 21.8216 7.74045 21.8079 7.75473 21.7807C8.32618 21.031 8.84048 20.2405 9.28335 19.4091C9.31192 19.3546 9.28335 19.3 9.2262 19.2864C8.41189 18.9865 7.64044 18.6322 6.88328 18.2233C6.82614 18.196 6.82614 18.1142 6.86899 18.0733C7.02614 17.9643 7.18329 17.8416 7.34044 17.7326C7.36901 17.7053 7.41187 17.7053 7.44044 17.719C12.3549 19.8589 17.655 19.8589 22.5123 17.719C22.5409 17.7053 22.5837 17.7053 22.6123 17.7326C22.7694 17.8553 22.9266 17.9643 23.0837 18.087C23.1409 18.1279 23.1409 18.2096 23.0694 18.2369C22.3266 18.6594 21.5408 19.0002 20.7265 19.3C20.6694 19.3137 20.6551 19.3818 20.6694 19.4227C21.1265 20.2541 21.6408 21.0447 22.198 21.7943C22.2408 21.8079 22.2837 21.8216 22.3266 21.8079C24.7838 21.0856 27.2553 19.9952 29.8268 18.196C29.8553 18.1824 29.8696 18.1551 29.8696 18.1279C30.4982 11.9535 28.8267 6.59695 25.4409 1.8401C25.4266 1.82647 25.4124 1.81284 25.3838 1.81284ZM10.0262 14.8703C8.55476 14.8703 7.32615 13.5755 7.32615 11.9808C7.32615 10.3861 8.52618 9.09122 10.0262 9.09122C11.5406 9.09122 12.7406 10.3997 12.7263 11.9808C12.7263 13.5755 11.5263 14.8703 10.0262 14.8703ZM19.9836 14.8703C18.5122 14.8703 17.2836 13.5755 17.2836 11.9808C17.2836 10.3861 18.4836 9.09122 19.9836 9.09122C21.498 9.09122 22.698 10.3997 22.6837 11.9808C22.6837 13.5755 21.498 14.8703 19.9836 14.8703Z" fill="#F9F8F4"/>
</svg>
