<svg width="30" height="28" viewBox="0 0 30 28" fill="none" xmlns="http://www.w3.org/2000/svg">
<path fill-rule="evenodd" clip-rule="evenodd" d="M14.9731 8.53382e-05C11.4179 0.000541817 7.97883 1.20775 5.27107 3.40576C2.56331 5.60377 0.763529 8.64919 0.193662 11.9973C-0.376204 15.3453 0.321024 18.7776 2.16063 21.6801C4.00023 24.5827 6.8622 26.7661 10.2346 27.8399C10.9833 27.9725 11.3042 27.5337 11.3042 27.1561V24.7273C7.14328 25.5845 6.26617 22.8087 6.26617 22.8087C5.97357 21.934 5.35774 21.1905 4.53334 20.7166C3.17488 19.839 4.6403 19.8492 4.6403 19.8492C5.1148 19.9132 5.56771 20.0797 5.96443 20.3362C6.36116 20.5926 6.6912 20.9322 6.92935 21.329C7.34368 22.0379 8.03616 22.5609 8.85454 22.7829C9.67293 23.0049 10.5502 22.9077 11.2935 22.5128C11.3539 21.7887 11.6885 21.1103 12.2348 20.6044C8.9189 20.237 5.42115 19.0124 5.42115 13.5424C5.39689 12.1217 5.94872 10.747 6.96144 9.70523C6.50306 8.47468 6.55665 7.12329 7.11119 5.92931C7.11119 5.92931 8.36269 5.54151 11.2293 7.38865C13.6804 6.75077 16.2658 6.75077 18.7169 7.38865C21.5729 5.54151 22.8244 5.92931 22.8244 5.92931C23.3789 7.12329 23.4325 8.47468 22.9741 9.70523C23.9868 10.747 24.5387 12.1217 24.5144 13.5424C24.5144 19.0328 21.0167 20.237 17.6793 20.5942C18.0368 20.9399 18.3125 21.3547 18.4878 21.8106C18.6631 22.2666 18.7339 22.7531 18.6955 23.2373V27.1561C18.6955 27.6256 18.9629 27.9827 19.7652 27.8399C23.142 26.7648 26.0069 24.5771 27.8462 21.6693C29.6855 18.7614 30.3789 15.3235 29.802 11.972C29.2251 8.62054 27.4157 5.57476 24.6982 3.38083C21.9808 1.18691 18.533 -0.0116481 14.9731 8.53382e-05Z" fill="#F9F8F4"/>
</svg>
