<svg width="26" height="15" viewBox="0 0 26 15" fill="none" xmlns="http://www.w3.org/2000/svg">
<path d="M8 0.15625C9.98912 0.15625 11.8968 0.910133 13.3033 2.25205C14.7098 3.59397 15.5 5.414 15.5 7.31176C15.5 9.20953 14.7098 11.0296 13.3033 12.3715C11.8968 13.7134 9.98912 14.4673 8 14.4673C6.01088 14.4673 4.10322 13.7134 2.6967 12.3715C1.29018 11.0296 0.5 9.20953 0.5 7.31176C0.5 5.414 1.29018 3.59397 2.6967 2.25205C4.10322 0.910133 6.01088 0.15625 8 0.15625ZM19.25 1.34884C21.125 1.34884 22.375 4.01904 22.375 7.31176C22.375 10.6045 21.125 13.2747 19.25 13.2747C17.375 13.2747 16.125 10.6045 16.125 7.31176C16.125 4.01904 17.375 1.34884 19.25 1.34884ZM24.25 1.94513C24.725 1.94513 25.14 2.9314 25.35 4.62368L25.4088 5.15199L25.4325 5.43225L25.47 6.02139L25.4825 6.33027L25.4975 6.97546L25.5 7.31176L25.4975 7.64807L25.4825 8.29326L25.47 8.60334L25.4325 9.19128L25.4075 9.47154L25.3512 9.99985C25.14 11.6933 24.7262 12.6784 24.25 12.6784C23.775 12.6784 23.36 11.6921 23.15 9.99985L23.0912 9.47154C23.0826 9.37817 23.0747 9.28475 23.0675 9.19128L23.03 8.60214C23.0252 8.49921 23.021 8.39625 23.0175 8.29326L23.0025 7.64807V6.97546L23.0175 6.33027L23.03 6.02019L23.0675 5.43225L23.0925 5.15199L23.1488 4.62368C23.36 2.93021 23.7738 1.94513 24.25 1.94513Z" fill="#F9F8F4"/>
</svg>
