<svg width="30" height="29" viewBox="0 0 30 29" fill="none" xmlns="http://www.w3.org/2000/svg">
<path d="M15 0C6.71323 0 0 6.4058 0 14.311C0 22.2163 6.71419 28.6221 15 28.6221C23.2868 28.6221 30 22.2163 30 14.311C30 6.4058 23.2858 0 15 0ZM22.3674 9.80444L19.9055 20.8729C19.7235 21.6577 19.2339 21.8479 18.5506 21.4785L14.8006 18.8416L12.9919 20.5036C12.7926 20.6938 12.6232 20.8553 12.2361 20.8553L12.5023 17.2139L19.4516 11.2235C19.7545 10.9696 19.3848 10.8256 18.9852 11.0795L10.3965 16.2379L6.69484 15.1355C5.89065 14.8936 5.87226 14.3683 6.86419 13.999L21.3261 8.67802C21.9977 8.4472 22.5842 8.83406 22.3665 9.80352L22.3674 9.80444Z" fill="#F9F8F4"/>
</svg>
