<svg width="30" height="29" viewBox="0 0 30 29" fill="none" xmlns="http://www.w3.org/2000/svg">
<path d="M15 0C23.2929 0 30 6.39908 30 14.311C30 22.223 23.2929 28.6221 15 28.6221C6.70714 28.6221 0 22.223 0 14.311C0 6.39908 6.70714 0 15 0ZM12.2571 21.855C18.9 21.855 22.5429 16.6008 22.5429 12.0417V11.5919C23.25 11.1013 23.8714 10.4879 24.3429 9.79283C23.7 10.0586 22.9929 10.2426 22.2643 10.3448C23.0143 9.9155 23.5929 9.24084 23.85 8.44351C23.1429 8.83195 22.3714 9.11817 21.5571 9.28172C20.8929 8.60706 19.95 8.19818 18.9214 8.19818C16.9286 8.19818 15.3 9.75194 15.3 11.6533C15.3 11.919 15.3214 12.1848 15.4071 12.4302C12.4071 12.287 9.72857 10.9173 7.95 8.83195C7.65 9.34306 7.45714 9.93594 7.45714 10.5697C7.45714 11.7555 8.1 12.8186 9.06429 13.4319C8.46429 13.4319 7.90714 13.2684 7.43571 13.0026V13.0435C7.43571 14.7199 8.67857 16.1101 10.3286 16.4372C10.0286 16.519 9.70714 16.5599 9.38571 16.5599C9.15 16.5599 8.93571 16.5395 8.7 16.4986C9.15 17.8683 10.5 18.8701 12.0643 18.8906C10.8214 19.8106 9.25714 20.3626 7.56429 20.3626C7.26429 20.3626 6.98571 20.3626 6.70714 20.3217C8.29286 21.303 10.2 21.8754 12.2357 21.8754" fill="#F9F8F4"/>
</svg>
