<svg width="94" height="60" viewBox="0 0 94 59" fill="none" xmlns="http://www.w3.org/2000/svg">
<mask id="path-1-outside-1_211_17158" maskUnits="userSpaceOnUse" x="-1" y="-1" width="94" height="60" fill="black">
<rect fill="white" x="-1" y="-1" width="94" height="60"/>
<path d="M22 57.96C18.3733 57.96 15.2267 57.32 12.56 56.04C9.89333 54.7067 7.68 52.8133 5.92 50.36C4.21333 47.9067 2.93333 44.8933 2.08 41.32C1.28 37.7467 0.88 33.6667 0.88 29.08C0.88 24.5467 1.28 20.4933 2.08 16.92C2.93333 13.2933 4.21333 10.2533 5.92 7.8C7.68 5.34667 9.89333 3.48 12.56 2.2C15.2267 0.866663 18.3733 0.199997 22 0.199997C29.2533 0.199997 34.5867 2.73333 38 7.8C41.4133 12.8667 43.12 19.96 43.12 29.08C43.12 38.2 41.4133 45.2933 38 50.36C34.5867 55.4267 29.2533 57.96 22 57.96ZM22 49.56C25.84 49.56 28.5333 48.2 30.08 45.48C31.68 42.7067 32.48 38.8933 32.48 34.04V24.12C32.48 19.2667 31.68 15.48 30.08 12.76C28.5333 9.98666 25.84 8.6 22 8.6C18.16 8.6 15.44 9.98666 13.84 12.76C12.2933 15.48 11.52 19.2667 11.52 24.12V34.04C11.52 38.8933 12.2933 42.7067 13.84 45.48C15.44 48.2 18.16 49.56 22 49.56ZM22 33.8C20.1333 33.8 18.8267 33.4267 18.08 32.68C17.3867 31.9333 17.04 31.0267 17.04 29.96V28.2C17.04 27.1333 17.3867 26.2267 18.08 25.48C18.8267 24.7333 20.1333 24.36 22 24.36C23.8667 24.36 25.1467 24.7333 25.84 25.48C26.5867 26.2267 26.96 27.1333 26.96 28.2V29.96C26.96 31.0267 26.5867 31.9333 25.84 32.68C25.1467 33.4267 23.8667 33.8 22 33.8ZM53.2488 57V48.44H68.6088V8.76H67.8888L55.7288 23.16L49.1688 17.64L63.0088 1.16H79.0888V48.44H91.7288V57H53.2488Z"/>
</mask>
<path d="M12.56 56.04L12.1128 56.9344L12.12 56.938L12.1273 56.9415L12.56 56.04ZM5.92 50.36L5.0991 50.9311L5.10324 50.937L5.10746 50.9429L5.92 50.36ZM2.08 41.32L1.10416 41.5385L1.1057 41.5454L1.10735 41.5523L2.08 41.32ZM2.08 16.92L1.10653 16.6909L1.10416 16.7015L2.08 16.92ZM5.92 7.8L5.10746 7.21709L5.10324 7.22298L5.0991 7.22894L5.92 7.8ZM12.56 2.2L12.9927 3.10152L13 3.09803L13.0072 3.09442L12.56 2.2ZM38 7.8L37.1706 8.35872L38 7.8ZM38 50.36L37.1706 49.8013L38 50.36ZM30.08 45.48L29.2138 44.9803L29.2107 44.9857L30.08 45.48ZM30.08 12.76L29.2066 13.2471L29.2122 13.2571L29.2181 13.267L30.08 12.76ZM13.84 12.76L12.9738 12.2603L12.9707 12.2657L13.84 12.76ZM13.84 45.48L12.9666 45.9671L12.9722 45.9771L12.9781 45.987L13.84 45.48ZM18.08 32.68L17.3472 33.3605L17.3598 33.374L17.3729 33.3871L18.08 32.68ZM18.08 25.48L17.3729 24.7729L17.3598 24.786L17.3472 24.7995L18.08 25.48ZM25.84 25.48L25.1072 26.1604L25.1198 26.174L25.1329 26.1871L25.84 25.48ZM25.84 32.68L25.1329 31.9729L25.1198 31.986L25.1072 31.9995L25.84 32.68ZM22 56.96C18.4899 56.96 15.4973 56.3407 12.9927 55.1385L12.1273 56.9415C14.956 58.2993 18.2567 58.96 22 58.96V56.96ZM13.0072 55.1456C10.4877 53.8858 8.39912 52.1002 6.73254 49.7771L5.10746 50.9429C6.96088 53.5265 9.29894 55.5275 12.1128 56.9344L13.0072 55.1456ZM6.74091 49.7889C5.1198 47.4586 3.88343 44.5666 3.05265 41.0877L1.10735 41.5523C1.98324 45.2201 3.30687 48.3547 5.0991 50.9311L6.74091 49.7889ZM3.05584 41.1015C2.27533 37.6152 1.88 33.6107 1.88 29.08H-0.12C-0.12 33.7226 0.284672 37.8781 1.10416 41.5385L3.05584 41.1015ZM1.88 29.08C1.88 24.6035 2.27516 20.6255 3.05584 17.1385L1.10416 16.7015C0.284839 20.3611 -0.12 24.4898 -0.12 29.08H1.88ZM3.05342 17.149C3.88477 13.6158 5.12149 10.699 6.74091 8.37106L5.0991 7.22894C3.30518 9.80769 1.9819 12.9709 1.10658 16.691L3.05342 17.149ZM6.73254 8.38291C8.3968 6.06302 10.4806 4.30732 12.9927 3.10152L12.1273 1.29847C9.30602 2.65267 6.9632 4.63031 5.10746 7.21709L6.73254 8.38291ZM13.0072 3.09442C15.5082 1.84395 18.4955 1.2 22 1.2V-0.800003C18.2512 -0.800003 14.9452 -0.110622 12.1128 1.30557L13.0072 3.09442ZM22 1.2C28.9924 1.2 33.9799 3.6225 37.1706 8.35872L38.8294 7.24128C35.1934 1.84417 29.5143 -0.800003 22 -0.800003V1.2ZM37.1706 8.35872C40.4304 13.1975 42.12 20.0667 42.12 29.08H44.12C44.12 19.8532 42.3962 12.5359 38.8294 7.24128L37.1706 8.35872ZM42.12 29.08C42.12 38.0933 40.4304 44.9625 37.1706 49.8013L38.8294 50.9187C42.3962 45.6241 44.12 38.3067 44.12 29.08H42.12ZM37.1706 49.8013C33.9799 54.5375 28.9924 56.96 22 56.96V58.96C29.5143 58.96 35.1934 56.3158 38.8294 50.9187L37.1706 49.8013ZM22 50.56C26.1036 50.56 29.182 49.0823 30.9493 45.9743L29.2107 44.9857C27.8847 47.3177 25.5764 48.56 22 48.56V50.56ZM30.9462 45.9797C32.6678 42.9956 33.48 38.9853 33.48 34.04H31.48C31.48 38.8013 30.6922 42.4177 29.2138 44.9803L30.9462 45.9797ZM33.48 34.04V24.12H31.48V34.04H33.48ZM33.48 24.12C33.48 19.1764 32.6684 15.188 30.9419 12.253L29.2181 13.267C30.6916 15.772 31.48 19.3569 31.48 24.12H33.48ZM30.9534 12.2729C29.1902 9.11147 26.1126 7.6 22 7.6V9.6C25.5674 9.6 27.8764 10.8619 29.2066 13.2471L30.9534 12.2729ZM22 7.6C17.8868 7.6 14.7908 9.11082 12.9738 12.2603L14.7062 13.2597C16.0892 10.8625 18.4332 9.6 22 9.6V7.6ZM12.9707 12.2657C11.3037 15.1973 10.52 19.1805 10.52 24.12H12.52C12.52 19.3528 13.283 15.7626 14.7093 13.2543L12.9707 12.2657ZM10.52 24.12V34.04H12.52V24.12H10.52ZM10.52 34.04C10.52 38.9813 11.3043 42.9864 12.9666 45.9671L14.7134 44.9929C13.2823 42.427 12.52 38.8054 12.52 34.04H10.52ZM12.9781 45.987C14.7991 49.0828 17.8956 50.56 22 50.56V48.56C18.4244 48.56 16.0809 47.3172 14.7019 44.973L12.9781 45.987ZM22 32.8C20.211 32.8 19.2459 32.4316 18.7871 31.9729L17.3729 33.3871C18.4075 34.4217 20.0556 34.8 22 34.8V32.8ZM18.8128 31.9995C18.2999 31.4472 18.04 30.7873 18.04 29.96H16.04C16.04 31.2661 16.4735 32.4195 17.3472 33.3605L18.8128 31.9995ZM18.04 29.96V28.2H16.04V29.96H18.04ZM18.04 28.2C18.04 27.3727 18.2999 26.7128 18.8128 26.1604L17.3472 24.7995C16.4735 25.7405 16.04 26.8939 16.04 28.2H18.04ZM18.7871 26.1871C19.2459 25.7284 20.211 25.36 22 25.36V23.36C20.0556 23.36 18.4075 23.7383 17.3729 24.7729L18.7871 26.1871ZM22 25.36C23.8005 25.36 24.7105 25.7332 25.1072 26.1604L26.5728 24.7995C25.5829 23.7335 23.9329 23.36 22 23.36V25.36ZM25.1329 26.1871C25.6899 26.7441 25.96 27.3955 25.96 28.2H27.96C27.96 26.8711 27.4834 25.7092 26.5471 24.7729L25.1329 26.1871ZM25.96 28.2V29.96H27.96V28.2H25.96ZM25.96 29.96C25.96 30.7645 25.6899 31.4159 25.1329 31.9729L26.5471 33.3871C27.4834 32.4508 27.96 31.2889 27.96 29.96H25.96ZM25.1072 31.9995C24.7105 32.4268 23.8005 32.8 22 32.8V34.8C23.9329 34.8 25.5829 34.4265 26.5728 33.3605L25.1072 31.9995ZM53.2487 57H52.2487V58H53.2487V57ZM53.2487 48.44V47.44H52.2487V48.44H53.2487ZM68.6087 48.44V49.44H69.6087V48.44H68.6087ZM68.6087 8.76H69.6087V7.76H68.6087V8.76ZM67.8887 8.76V7.76H67.4243L67.1247 8.11481L67.8887 8.76ZM55.7288 23.16L55.0849 23.9252L55.8487 24.5679L56.4928 23.8052L55.7288 23.16ZM49.1688 17.64L48.403 16.9969L47.7605 17.7619L48.5249 18.4052L49.1688 17.64ZM63.0088 1.16V0.16H62.5427L62.243 0.516893L63.0088 1.16ZM79.0888 1.16H80.0888V0.16H79.0888V1.16ZM79.0888 48.44H78.0888V49.44H79.0888V48.44ZM91.7288 48.44H92.7288V47.44H91.7288V48.44ZM91.7288 57V58H92.7288V57H91.7288ZM54.2487 57V48.44H52.2487V57H54.2487ZM53.2487 49.44H68.6087V47.44H53.2487V49.44ZM69.6087 48.44V8.76H67.6087V48.44H69.6087ZM68.6087 7.76H67.8887V9.76H68.6087V7.76ZM67.1247 8.11481L54.9647 22.5148L56.4928 23.8052L68.6528 9.40518L67.1247 8.11481ZM56.3726 22.3948L49.8126 16.8748L48.5249 18.4052L55.0849 23.9252L56.3726 22.3948ZM49.9345 18.2831L63.7745 1.8031L62.243 0.516893L48.403 16.9969L49.9345 18.2831ZM63.0088 2.16H79.0888V0.16H63.0088V2.16ZM78.0888 1.16V48.44H80.0888V1.16H78.0888ZM79.0888 49.44H91.7288V47.44H79.0888V49.44ZM90.7288 48.44V57H92.7288V48.44H90.7288ZM91.7288 56H53.2487V58H91.7288V56Z" fill="#D2FF00" mask="url(#path-1-outside-1_211_17158)"/>
</svg>
