<svg width="94" height="62" viewBox="0 0 94 60" fill="none" xmlns="http://www.w3.org/2000/svg">
<mask id="path-1-outside-1_211_17155" maskUnits="userSpaceOnUse" x="-1" y="-1" width="92" height="60" fill="black">
<rect fill="white" x="-1" y="-1" width="94" height="62"/>
<path d="M22 57.96C18.3733 57.96 15.2267 57.32 12.56 56.04C9.89333 54.7067 7.68 52.8133 5.92 50.36C4.21333 47.9067 2.93333 44.8933 2.08 41.32C1.28 37.7467 0.88 33.6667 0.88 29.08C0.88 24.5467 1.28 20.4933 2.08 16.92C2.93333 13.2933 4.21333 10.2533 5.92 7.8C7.68 5.34667 9.89333 3.48 12.56 2.2C15.2267 0.866663 18.3733 0.199997 22 0.199997C29.2533 0.199997 34.5867 2.73333 38 7.8C41.4133 12.8667 43.12 19.96 43.12 29.08C43.12 38.2 41.4133 45.2933 38 50.36C34.5867 55.4267 29.2533 57.96 22 57.96ZM22 49.56C25.84 49.56 28.5333 48.2 30.08 45.48C31.68 42.7067 32.48 38.8933 32.48 34.04V24.12C32.48 19.2667 31.68 15.48 30.08 12.76C28.5333 9.98666 25.84 8.6 22 8.6C18.16 8.6 15.44 9.98666 13.84 12.76C12.2933 15.48 11.52 19.2667 11.52 24.12V34.04C11.52 38.8933 12.2933 42.7067 13.84 45.48C15.44 48.2 18.16 49.56 22 49.56ZM22 33.8C20.1333 33.8 18.8267 33.4267 18.08 32.68C17.3867 31.9333 17.04 31.0267 17.04 29.96V28.2C17.04 27.1333 17.3867 26.2267 18.08 25.48C18.8267 24.7333 20.1333 24.36 22 24.36C23.8667 24.36 25.1467 24.7333 25.84 25.48C26.5867 26.2267 26.96 27.1333 26.96 28.2V29.96C26.96 31.0267 26.5867 31.9333 25.84 32.68C25.1467 33.4267 23.8667 33.8 22 33.8ZM89.9688 57H50.6088V47.24L68.5288 31.96C71.5154 29.4 73.7288 27.08 75.1688 25C76.6088 22.8667 77.3288 20.6 77.3288 18.2V17.4C77.3288 14.7333 76.5821 12.7067 75.0888 11.32C73.5954 9.93333 71.5154 9.24 68.8488 9.24C65.9154 9.24 63.6754 10.04 62.1288 11.64C60.5821 13.24 59.4621 15.2133 58.7688 17.56L49.6488 14.12C50.2354 12.3067 51.0621 10.5733 52.1288 8.92C53.2488 7.21333 54.6088 5.72 56.2088 4.44C57.8621 3.16 59.8088 2.14666 62.0488 1.4C64.2888 0.599997 66.8488 0.199997 69.7288 0.199997C72.7154 0.199997 75.3554 0.626664 77.6488 1.48C79.9954 2.28 81.9688 3.42666 83.5688 4.92C85.1688 6.36 86.3688 8.09333 87.1688 10.12C88.0221 12.1467 88.4488 14.36 88.4488 16.76C88.4488 19.0533 88.0754 21.16 87.3288 23.08C86.6354 25 85.6488 26.84 84.3688 28.6C83.0888 30.3067 81.5688 31.96 79.8088 33.56C78.1021 35.16 76.2354 36.76 74.2088 38.36L62.0488 48.2H89.9688V57Z"/>
</mask>
<path d="M12.56 56.04L12.1128 56.9344L12.12 56.938L12.1273 56.9415L12.56 56.04ZM5.92 50.36L5.0991 50.9311L5.10324 50.937L5.10746 50.9429L5.92 50.36ZM2.08 41.32L1.10416 41.5385L1.1057 41.5454L1.10735 41.5523L2.08 41.32ZM2.08 16.92L1.10653 16.6909L1.10416 16.7015L2.08 16.92ZM5.92 7.8L5.10746 7.21709L5.10324 7.22298L5.0991 7.22893L5.92 7.8ZM12.56 2.2L12.9927 3.10152L13 3.09803L13.0072 3.09442L12.56 2.2ZM38 7.8L37.1706 8.35872L37.1706 8.35872L38 7.8ZM38 50.36L37.1706 49.8013L37.1706 49.8013L38 50.36ZM30.08 45.48L29.2138 44.9803L29.2107 44.9857L30.08 45.48ZM30.08 12.76L29.2066 13.2471L29.2122 13.2571L29.2181 13.267L30.08 12.76ZM13.84 12.76L12.9738 12.2603L12.9707 12.2657L13.84 12.76ZM13.84 45.48L12.9666 45.9671L12.9722 45.9771L12.9781 45.987L13.84 45.48ZM18.08 32.68L17.3472 33.3604L17.3598 33.374L17.3729 33.3871L18.08 32.68ZM18.08 25.48L17.3729 24.7729L17.3598 24.786L17.3472 24.7995L18.08 25.48ZM25.84 25.48L25.1072 26.1604L25.1198 26.174L25.1329 26.1871L25.84 25.48ZM25.84 32.68L25.1329 31.9729L25.1198 31.986L25.1072 31.9995L25.84 32.68ZM22 56.96C18.4899 56.96 15.4973 56.3407 12.9927 55.1385L12.1273 56.9415C14.956 58.2993 18.2567 58.96 22 58.96V56.96ZM13.0072 55.1456C10.4877 53.8858 8.39912 52.1002 6.73254 49.7771L5.10746 50.9429C6.96088 53.5265 9.29894 55.5275 12.1128 56.9344L13.0072 55.1456ZM6.74091 49.7889C5.1198 47.4586 3.88343 44.5666 3.05265 41.0877L1.10735 41.5523C1.98324 45.2201 3.30687 48.3547 5.0991 50.9311L6.74091 49.7889ZM3.05584 41.1015C2.27533 37.6152 1.88 33.6107 1.88 29.08H-0.12C-0.12 33.7226 0.284672 37.8781 1.10416 41.5385L3.05584 41.1015ZM1.88 29.08C1.88 24.6035 2.27516 20.6255 3.05584 17.1385L1.10416 16.7015C0.284839 20.3611 -0.12 24.4898 -0.12 29.08H1.88ZM3.05342 17.149C3.88477 13.6158 5.12149 10.699 6.74091 8.37106L5.0991 7.22893C3.30518 9.80769 1.9819 12.9709 1.10658 16.691L3.05342 17.149ZM6.73254 8.38291C8.3968 6.06302 10.4806 4.30732 12.9927 3.10152L12.1273 1.29847C9.30602 2.65267 6.9632 4.63031 5.10746 7.21709L6.73254 8.38291ZM13.0072 3.09442C15.5082 1.84395 18.4955 1.2 22 1.2V-0.800003C18.2512 -0.800003 14.9452 -0.110622 12.1128 1.30557L13.0072 3.09442ZM22 1.2C28.9924 1.2 33.9799 3.6225 37.1706 8.35872L38.8294 7.24128C35.1934 1.84417 29.5143 -0.800003 22 -0.800003V1.2ZM37.1706 8.35872C40.4304 13.1975 42.12 20.0667 42.12 29.08H44.12C44.12 19.8532 42.3962 12.5359 38.8294 7.24128L37.1706 8.35872ZM42.12 29.08C42.12 38.0933 40.4304 44.9625 37.1706 49.8013L38.8294 50.9187C42.3962 45.6241 44.12 38.3067 44.12 29.08H42.12ZM37.1706 49.8013C33.9799 54.5375 28.9924 56.96 22 56.96V58.96C29.5143 58.96 35.1934 56.3158 38.8294 50.9187L37.1706 49.8013ZM22 50.56C26.1036 50.56 29.182 49.0823 30.9493 45.9743L29.2107 44.9857C27.8847 47.3177 25.5764 48.56 22 48.56V50.56ZM30.9462 45.9797C32.6678 42.9956 33.48 38.9853 33.48 34.04H31.48C31.48 38.8013 30.6922 42.4177 29.2138 44.9803L30.9462 45.9797ZM33.48 34.04V24.12H31.48V34.04H33.48ZM33.48 24.12C33.48 19.1764 32.6684 15.188 30.9419 12.253L29.2181 13.267C30.6916 15.772 31.48 19.3569 31.48 24.12H33.48ZM30.9534 12.2729C29.1902 9.11147 26.1126 7.6 22 7.6V9.6C25.5674 9.6 27.8764 10.8619 29.2066 13.2471L30.9534 12.2729ZM22 7.6C17.8868 7.6 14.7908 9.11082 12.9738 12.2603L14.7062 13.2597C16.0892 10.8625 18.4332 9.6 22 9.6V7.6ZM12.9707 12.2657C11.3037 15.1973 10.52 19.1805 10.52 24.12H12.52C12.52 19.3528 13.283 15.7626 14.7093 13.2543L12.9707 12.2657ZM10.52 24.12V34.04H12.52V24.12H10.52ZM10.52 34.04C10.52 38.9813 11.3043 42.9864 12.9666 45.9671L14.7134 44.9929C13.2823 42.427 12.52 38.8054 12.52 34.04H10.52ZM12.9781 45.987C14.7991 49.0828 17.8956 50.56 22 50.56V48.56C18.4244 48.56 16.0809 47.3172 14.7019 44.973L12.9781 45.987ZM22 32.8C20.211 32.8 19.2459 32.4316 18.7871 31.9729L17.3729 33.3871C18.4075 34.4217 20.0556 34.8 22 34.8V32.8ZM18.8128 31.9995C18.2999 31.4472 18.04 30.7873 18.04 29.96H16.04C16.04 31.2661 16.4735 32.4195 17.3472 33.3604L18.8128 31.9995ZM18.04 29.96V28.2H16.04V29.96H18.04ZM18.04 28.2C18.04 27.3727 18.2999 26.7128 18.8128 26.1604L17.3472 24.7995C16.4735 25.7405 16.04 26.8939 16.04 28.2H18.04ZM18.7871 26.1871C19.2459 25.7284 20.211 25.36 22 25.36V23.36C20.0556 23.36 18.4075 23.7383 17.3729 24.7729L18.7871 26.1871ZM22 25.36C23.8005 25.36 24.7105 25.7332 25.1072 26.1604L26.5728 24.7995C25.5829 23.7335 23.9329 23.36 22 23.36V25.36ZM25.1329 26.1871C25.6899 26.7441 25.96 27.3955 25.96 28.2H27.96C27.96 26.8711 27.4834 25.7092 26.5471 24.7729L25.1329 26.1871ZM25.96 28.2V29.96H27.96V28.2H25.96ZM25.96 29.96C25.96 30.7645 25.6899 31.4159 25.1329 31.9729L26.5471 33.3871C27.4834 32.4508 27.96 31.2889 27.96 29.96H25.96ZM25.1072 31.9995C24.7105 32.4268 23.8005 32.8 22 32.8V34.8C23.9329 34.8 25.5829 34.4265 26.5728 33.3604L25.1072 31.9995ZM89.9688 57V58H90.9688V57H89.9688ZM50.6088 57H49.6088V58H50.6088V57ZM50.6088 47.24L49.9599 46.4791L49.6088 46.7785V47.24H50.6088ZM68.5288 31.96L69.1776 32.7209L69.1795 32.7193L68.5288 31.96ZM75.1688 25L75.991 25.5692L75.9976 25.5595L75.1688 25ZM75.0888 11.32L75.7692 10.5872L75.7692 10.5872L75.0888 11.32ZM62.1288 11.64L61.4098 10.945L61.4098 10.945L62.1288 11.64ZM58.7688 17.56L58.4158 18.4957L59.4228 18.8755L59.7278 17.8433L58.7688 17.56ZM49.6488 14.12L48.6973 13.8122L48.4039 14.7192L49.2958 15.0557L49.6488 14.12ZM52.1288 8.92L51.2927 8.37133L51.2885 8.37787L52.1288 8.92ZM56.2088 4.44L55.5966 3.64928L55.5903 3.65415L55.5841 3.65913L56.2088 4.44ZM62.0488 1.4L62.365 2.34868L62.3751 2.34532L62.3851 2.34174L62.0488 1.4ZM77.6488 1.48L77.3 2.41722L77.313 2.42205L77.3261 2.42651L77.6488 1.48ZM83.5688 4.92L82.8864 5.65105L82.8931 5.65723L82.8998 5.66329L83.5688 4.92ZM87.1688 10.12L86.2386 10.4872L86.2427 10.4977L86.2471 10.5081L87.1688 10.12ZM87.3288 23.08L86.3967 22.7176L86.3923 22.7289L86.3882 22.7404L87.3288 23.08ZM84.3688 28.6L85.1688 29.2L85.1732 29.1941L85.1775 29.1882L84.3688 28.6ZM79.8088 33.56L79.1361 32.8201L79.1304 32.8252L79.1248 32.8305L79.8088 33.56ZM74.2088 38.36L73.5891 37.5751L73.5797 37.5826L74.2088 38.36ZM62.0488 48.2L61.4197 47.4226L59.2233 49.2H62.0488V48.2ZM89.9688 48.2H90.9688V47.2H89.9688V48.2ZM89.9688 56H50.6088V58H89.9688V56ZM51.6088 57V47.24H49.6088V57H51.6088ZM51.2576 48.0009L69.1776 32.7209L67.8799 31.1991L49.9599 46.4791L51.2576 48.0009ZM69.1795 32.7193C72.1995 30.1307 74.4831 27.7472 75.9909 25.5692L74.3466 24.4308C72.9744 26.4128 70.8313 28.6693 67.878 31.2007L69.1795 32.7193ZM75.9976 25.5595C77.5407 23.2735 78.3288 20.814 78.3288 18.2H76.3288C76.3288 20.386 75.6768 22.4599 74.3399 24.4405L75.9976 25.5595ZM78.3288 18.2V17.4H76.3288V18.2H78.3288ZM78.3288 17.4C78.3288 14.5456 77.5242 12.2168 75.7692 10.5872L74.4083 12.0528C75.64 13.1965 76.3288 14.9211 76.3288 17.4H78.3288ZM75.7692 10.5872C74.0396 8.98111 71.6877 8.24 68.8488 8.24V10.24C71.3431 10.24 73.1513 10.8856 74.4083 12.0528L75.7692 10.5872ZM68.8488 8.24C65.7343 8.24 63.1993 9.09369 61.4098 10.945L62.8477 12.335C64.1515 10.9863 66.0966 10.24 68.8488 10.24V8.24ZM61.4098 10.945C59.7402 12.6721 58.5441 14.7911 57.8097 17.2767L59.7278 17.8433C60.3801 15.6356 61.4239 13.8079 62.8477 12.335L61.4098 10.945ZM59.1217 16.6243L50.0017 13.1843L49.2958 15.0557L58.4158 18.4957L59.1217 16.6243ZM50.6002 14.4278C51.1593 12.6997 51.9479 11.0449 52.969 9.46213L51.2885 8.37787C50.1763 10.1018 49.3115 11.9136 48.6973 13.8122L50.6002 14.4278ZM52.9648 9.46866C54.0268 7.85037 55.3154 6.43533 56.8334 5.22087L55.5841 3.65913C53.9021 5.00467 52.4707 6.57629 51.2927 8.37134L52.9648 9.46866ZM56.8209 5.23072C58.3745 4.02795 60.2182 3.06428 62.365 2.34868L61.7325 0.451313C59.3993 1.22904 57.3497 2.29204 55.5966 3.64928L56.8209 5.23072ZM62.3851 2.34174C64.4971 1.58745 66.94 1.2 69.7288 1.2V-0.800003C66.7575 -0.800003 64.0804 -0.387455 61.7124 0.458254L62.3851 2.34174ZM69.7288 1.2C72.6218 1.2 75.1398 1.61343 77.3 2.41722L77.9975 0.542778C75.571 -0.360103 72.809 -0.800003 69.7288 -0.800003V1.2ZM77.3261 2.42651C79.5568 3.18697 81.4026 4.26618 82.8864 5.65105L84.2511 4.18894C82.5349 2.58715 80.4341 1.37303 77.9714 0.533489L77.3261 2.42651ZM82.8998 5.66329C84.3834 6.9985 85.4947 8.60257 86.2386 10.4872L88.0989 9.75283C87.2428 7.5841 85.9541 5.72149 84.2377 4.1767L82.8998 5.66329ZM86.2471 10.5081C87.0442 12.4011 87.4488 14.481 87.4488 16.76H89.4488C89.4488 14.239 89 11.8923 88.0904 9.73194L86.2471 10.5081ZM87.4488 16.76C87.4488 18.9433 87.0937 20.9255 86.3967 22.7176L88.2608 23.4424C89.0572 21.3945 89.4488 19.1633 89.4488 16.76H87.4488ZM86.3882 22.7404C85.7289 24.5661 84.7882 26.323 83.56 28.0118L85.1775 29.1882C86.5093 27.357 87.5419 25.4339 88.2693 23.4196L86.3882 22.7404ZM83.5688 28C82.3307 29.6507 80.8546 31.2578 79.1361 32.8201L80.4814 34.2999C82.2829 32.6622 83.8468 30.9626 85.1688 29.2L83.5688 28ZM79.1248 32.8305C77.4408 34.4092 75.5958 35.9909 73.5891 37.5751L74.8284 39.1449C76.875 37.5291 78.7634 35.9108 80.4927 34.2895L79.1248 32.8305ZM73.5797 37.5826L61.4197 47.4226L62.6778 48.9774L74.8378 39.1374L73.5797 37.5826ZM62.0488 49.2H89.9688V47.2H62.0488V49.2ZM88.9688 48.2V57H90.9688V48.2H88.9688Z" fill="#97FF00" mask="url(#path-1-outside-1_211_17155)"/>
</svg>
