<svg width="90" height="58" viewBox="0 0 90 58" fill="none" xmlns="http://www.w3.org/2000/svg">
<mask id="path-1-outside-1_211_17161" maskUnits="userSpaceOnUse" x="-1" y="-1" width="92" height="60" fill="black">
<rect fill="white" x="-1" y="-1" width="92" height="60"/>
<path d="M22 57.96C18.3733 57.96 15.2267 57.32 12.56 56.04C9.89333 54.7067 7.68 52.8133 5.92 50.36C4.21333 47.9067 2.93333 44.8933 2.08 41.32C1.28 37.7467 0.88 33.6667 0.88 29.08C0.88 24.5467 1.28 20.4933 2.08 16.92C2.93333 13.2933 4.21333 10.2533 5.92 7.8C7.68 5.34667 9.89333 3.48 12.56 2.2C15.2267 0.866663 18.3733 0.199997 22 0.199997C29.2533 0.199997 34.5867 2.73333 38 7.8C41.4133 12.8667 43.12 19.96 43.12 29.08C43.12 38.2 41.4133 45.2933 38 50.36C34.5867 55.4267 29.2533 57.96 22 57.96ZM22 49.56C25.84 49.56 28.5333 48.2 30.08 45.48C31.68 42.7067 32.48 38.8933 32.48 34.04V24.12C32.48 19.2667 31.68 15.48 30.08 12.76C28.5333 9.98666 25.84 8.6 22 8.6C18.16 8.6 15.44 9.98666 13.84 12.76C12.2933 15.48 11.52 19.2667 11.52 24.12V34.04C11.52 38.8933 12.2933 42.7067 13.84 45.48C15.44 48.2 18.16 49.56 22 49.56ZM22 33.8C20.1333 33.8 18.8267 33.4267 18.08 32.68C17.3867 31.9333 17.04 31.0267 17.04 29.96V28.2C17.04 27.1333 17.3867 26.2267 18.08 25.48C18.8267 24.7333 20.1333 24.36 22 24.36C23.8667 24.36 25.1467 24.7333 25.84 25.48C26.5867 26.2267 26.96 27.1333 26.96 28.2V29.96C26.96 31.0267 26.5867 31.9333 25.84 32.68C25.1467 33.4267 23.8667 33.8 22 33.8ZM67.7288 23.72C71.0888 23.72 73.5421 23.0533 75.0888 21.72C76.6888 20.3867 77.4888 18.7067 77.4888 16.68V16.12C77.4888 13.8267 76.7154 12.04 75.1688 10.76C73.6754 9.48 71.5954 8.84 68.9288 8.84C66.3688 8.84 64.1288 9.42666 62.2088 10.6C60.2888 11.7733 58.6354 13.4267 57.2488 15.56L50.4488 9.48C51.4088 8.2 52.4754 7 53.6488 5.88C54.8754 4.70666 56.2354 3.72 57.7287 2.92C59.2754 2.06666 60.9821 1.4 62.8488 0.919997C64.7154 0.439997 66.8488 0.199997 69.2488 0.199997C72.0754 0.199997 74.6621 0.546664 77.0088 1.24C79.4088 1.88 81.4354 2.84 83.0888 4.12C84.7954 5.4 86.1021 6.94666 87.0088 8.76C87.9688 10.52 88.4488 12.52 88.4488 14.76C88.4488 16.52 88.1554 18.12 87.5688 19.56C86.9821 21 86.1821 22.2533 85.1688 23.32C84.2088 24.3867 83.0621 25.2667 81.7288 25.96C80.4488 26.6533 79.0621 27.16 77.5688 27.48V27.88C79.2221 28.2 80.7688 28.7333 82.2088 29.48C83.6488 30.1733 84.9021 31.08 85.9688 32.2C87.0354 33.32 87.8888 34.68 88.5288 36.28C89.1688 37.8267 89.4888 39.5867 89.4888 41.56C89.4888 44.0133 88.9821 46.2533 87.9688 48.28C86.9554 50.3067 85.5154 52.04 83.6488 53.48C81.8354 54.92 79.6221 56.04 77.0088 56.84C74.4488 57.5867 71.5688 57.96 68.3688 57.96C65.7021 57.96 63.3288 57.6667 61.2488 57.08C59.1688 56.5467 57.3288 55.8 55.7288 54.84C54.1288 53.88 52.7421 52.7867 51.5688 51.56C50.3954 50.28 49.3554 48.9733 48.4488 47.64L56.2088 41.64C57.5421 43.88 59.1154 45.72 60.9288 47.16C62.7954 48.6 65.3288 49.32 68.5288 49.32C71.7288 49.32 74.1821 48.6 75.8888 47.16C77.6488 45.6667 78.5288 43.6133 78.5288 41V40.36C78.5288 37.8 77.5954 35.8533 75.7288 34.52C73.8621 33.1333 71.2221 32.44 67.8088 32.44H62.2088V23.72H67.7288Z"/>
</mask>
<path d="M12.56 56.04L12.1128 56.9344L12.12 56.938L12.1273 56.9415L12.56 56.04ZM5.92 50.36L5.0991 50.9311L5.10324 50.937L5.10746 50.9429L5.92 50.36ZM2.08 41.32L1.10416 41.5385L1.1057 41.5454L1.10735 41.5523L2.08 41.32ZM2.08 16.92L1.10653 16.6909L1.10416 16.7015L2.08 16.92ZM5.92 7.8L5.10746 7.21709L5.10324 7.22298L5.0991 7.22894L5.92 7.8ZM12.56 2.2L12.9927 3.10152L13 3.09803L13.0072 3.09442L12.56 2.2ZM38 7.8L37.1706 8.35872L38 7.8ZM38 50.36L37.1706 49.8013L38 50.36ZM30.08 45.48L29.2138 44.9803L29.2107 44.9857L30.08 45.48ZM30.08 12.76L29.2066 13.2471L29.2122 13.2571L29.2181 13.267L30.08 12.76ZM13.84 12.76L12.9738 12.2603L12.9707 12.2657L13.84 12.76ZM13.84 45.48L12.9666 45.9671L12.9722 45.9771L12.9781 45.987L13.84 45.48ZM18.08 32.68L17.3472 33.3605L17.3598 33.374L17.3729 33.3871L18.08 32.68ZM18.08 25.48L17.3729 24.7729L17.3598 24.786L17.3472 24.7995L18.08 25.48ZM25.84 25.48L25.1072 26.1604L25.1198 26.174L25.1329 26.1871L25.84 25.48ZM25.84 32.68L25.1329 31.9729L25.1198 31.986L25.1072 31.9995L25.84 32.68ZM22 56.96C18.4899 56.96 15.4973 56.3407 12.9927 55.1385L12.1273 56.9415C14.956 58.2993 18.2567 58.96 22 58.96V56.96ZM13.0072 55.1456C10.4877 53.8858 8.39912 52.1002 6.73254 49.7771L5.10746 50.9429C6.96088 53.5265 9.29894 55.5275 12.1128 56.9344L13.0072 55.1456ZM6.74091 49.7889C5.1198 47.4586 3.88343 44.5666 3.05265 41.0877L1.10735 41.5523C1.98324 45.2201 3.30687 48.3547 5.0991 50.9311L6.74091 49.7889ZM3.05584 41.1015C2.27533 37.6152 1.88 33.6107 1.88 29.08H-0.12C-0.12 33.7226 0.284672 37.8781 1.10416 41.5385L3.05584 41.1015ZM1.88 29.08C1.88 24.6035 2.27516 20.6255 3.05584 17.1385L1.10416 16.7015C0.284839 20.3611 -0.12 24.4898 -0.12 29.08H1.88ZM3.05342 17.149C3.88477 13.6158 5.12149 10.699 6.74091 8.37106L5.0991 7.22894C3.30518 9.80769 1.9819 12.9709 1.10658 16.691L3.05342 17.149ZM6.73254 8.38291C8.3968 6.06302 10.4806 4.30732 12.9927 3.10152L12.1273 1.29847C9.30602 2.65267 6.9632 4.63031 5.10746 7.21709L6.73254 8.38291ZM13.0072 3.09442C15.5082 1.84395 18.4955 1.2 22 1.2V-0.800003C18.2512 -0.800003 14.9452 -0.110622 12.1128 1.30557L13.0072 3.09442ZM22 1.2C28.9924 1.2 33.9799 3.6225 37.1706 8.35872L38.8294 7.24128C35.1934 1.84417 29.5143 -0.800003 22 -0.800003V1.2ZM37.1706 8.35872C40.4304 13.1975 42.12 20.0667 42.12 29.08H44.12C44.12 19.8532 42.3962 12.5359 38.8294 7.24128L37.1706 8.35872ZM42.12 29.08C42.12 38.0933 40.4304 44.9625 37.1706 49.8013L38.8294 50.9187C42.3962 45.6241 44.12 38.3067 44.12 29.08H42.12ZM37.1706 49.8013C33.9799 54.5375 28.9924 56.96 22 56.96V58.96C29.5143 58.96 35.1934 56.3158 38.8294 50.9187L37.1706 49.8013ZM22 50.56C26.1036 50.56 29.182 49.0823 30.9493 45.9743L29.2107 44.9857C27.8847 47.3177 25.5764 48.56 22 48.56V50.56ZM30.9462 45.9797C32.6678 42.9956 33.48 38.9853 33.48 34.04H31.48C31.48 38.8013 30.6922 42.4177 29.2138 44.9803L30.9462 45.9797ZM33.48 34.04V24.12H31.48V34.04H33.48ZM33.48 24.12C33.48 19.1764 32.6684 15.188 30.9419 12.253L29.2181 13.267C30.6916 15.772 31.48 19.3569 31.48 24.12H33.48ZM30.9534 12.2729C29.1902 9.11147 26.1126 7.6 22 7.6V9.6C25.5674 9.6 27.8764 10.8619 29.2066 13.2471L30.9534 12.2729ZM22 7.6C17.8868 7.6 14.7908 9.11082 12.9738 12.2603L14.7062 13.2597C16.0892 10.8625 18.4332 9.6 22 9.6V7.6ZM12.9707 12.2657C11.3037 15.1973 10.52 19.1805 10.52 24.12H12.52C12.52 19.3528 13.283 15.7626 14.7093 13.2543L12.9707 12.2657ZM10.52 24.12V34.04H12.52V24.12H10.52ZM10.52 34.04C10.52 38.9813 11.3043 42.9864 12.9666 45.9671L14.7134 44.9929C13.2823 42.427 12.52 38.8054 12.52 34.04H10.52ZM12.9781 45.987C14.7991 49.0828 17.8956 50.56 22 50.56V48.56C18.4244 48.56 16.0809 47.3172 14.7019 44.973L12.9781 45.987ZM22 32.8C20.211 32.8 19.2459 32.4316 18.7871 31.9729L17.3729 33.3871C18.4075 34.4217 20.0556 34.8 22 34.8V32.8ZM18.8128 31.9995C18.2999 31.4472 18.04 30.7873 18.04 29.96H16.04C16.04 31.2661 16.4735 32.4195 17.3472 33.3605L18.8128 31.9995ZM18.04 29.96V28.2H16.04V29.96H18.04ZM18.04 28.2C18.04 27.3727 18.2999 26.7128 18.8128 26.1604L17.3472 24.7995C16.4735 25.7405 16.04 26.8939 16.04 28.2H18.04ZM18.7871 26.1871C19.2459 25.7284 20.211 25.36 22 25.36V23.36C20.0556 23.36 18.4075 23.7383 17.3729 24.7729L18.7871 26.1871ZM22 25.36C23.8005 25.36 24.7105 25.7332 25.1072 26.1604L26.5728 24.7995C25.5829 23.7335 23.9329 23.36 22 23.36V25.36ZM25.1329 26.1871C25.6899 26.7441 25.96 27.3955 25.96 28.2H27.96C27.96 26.8711 27.4834 25.7092 26.5471 24.7729L25.1329 26.1871ZM25.96 28.2V29.96H27.96V28.2H25.96ZM25.96 29.96C25.96 30.7645 25.6899 31.4159 25.1329 31.9729L26.5471 33.3871C27.4834 32.4508 27.96 31.2889 27.96 29.96H25.96ZM25.1072 31.9995C24.7105 32.4268 23.8005 32.8 22 32.8V34.8C23.9329 34.8 25.5829 34.4265 26.5728 33.3605L25.1072 31.9995ZM75.0888 21.72L74.4486 20.9518L74.4421 20.9571L74.4358 20.9626L75.0888 21.72ZM75.1687 10.76L74.518 11.5193L74.5245 11.5249L74.5312 11.5304L75.1687 10.76ZM57.2487 15.56L56.5822 16.3055L57.4516 17.0828L58.0872 16.105L57.2487 15.56ZM50.4487 9.48L49.6488 8.88L49.0983 9.61395L49.7822 10.2255L50.4487 9.48ZM53.6488 5.88L54.3392 6.60335L54.34 6.60264L53.6488 5.88ZM57.7287 2.91999L58.201 3.80154L58.2118 3.79557L57.7287 2.91999ZM77.0088 1.24L76.7254 2.19901L76.7382 2.2028L76.7511 2.20623L77.0088 1.24ZM83.0888 4.12L82.4766 4.91072L82.4826 4.91541L82.4888 4.92L83.0888 4.12ZM87.0088 8.76L86.1143 9.20721L86.1223 9.22318L86.1309 9.23885L87.0088 8.76ZM87.5688 19.56L88.4948 19.9373L87.5688 19.56ZM85.1687 23.32L84.4437 22.6312L84.4345 22.641L84.4255 22.651L85.1687 23.32ZM81.7288 25.96L81.2674 25.0728L81.2599 25.0767L81.2525 25.0807L81.7288 25.96ZM77.5687 27.48L77.3592 26.5022L76.5687 26.6716V27.48H77.5687ZM77.5687 27.88H76.5687V28.705L77.3787 28.8618L77.5687 27.88ZM82.2087 29.48L81.7484 30.3678L81.7616 30.3746L81.7749 30.381L82.2087 29.48ZM85.9688 32.2L85.2446 32.8897L85.9688 32.2ZM88.5287 36.28L87.6002 36.6514L87.6047 36.6624L88.5287 36.28ZM87.9688 48.28L87.0743 47.8328L87.9688 48.28ZM83.6488 53.48L83.0379 52.6881L83.0269 52.6969L83.6488 53.48ZM77.0088 56.84L77.2888 57.8001L77.3015 57.7962L77.0088 56.84ZM61.2488 57.08L61.5202 56.1176L61.5087 56.1143L61.4971 56.1113L61.2488 57.08ZM55.7288 54.84L55.2143 55.6975L55.7288 54.84ZM51.5687 51.56L50.8316 52.2357L50.8388 52.2436L50.8461 52.2512L51.5687 51.56ZM48.4487 47.64L47.8371 46.8489L47.0928 47.4244L47.6218 48.2023L48.4487 47.64ZM56.2088 41.64L57.068 41.1285L56.4904 40.1581L55.5971 40.8489L56.2088 41.64ZM60.9287 47.16L60.3068 47.9432L60.3179 47.9518L60.9287 47.16ZM75.8887 47.16L76.5336 47.9243L76.5357 47.9225L75.8887 47.16ZM75.7288 34.52L75.1324 35.3227L75.1399 35.3283L75.1475 35.3337L75.7288 34.52ZM62.2087 32.44H61.2088V33.44H62.2087V32.44ZM62.2087 23.72V22.72H61.2088V23.72H62.2087ZM67.7288 24.72C71.1844 24.72 73.9281 24.0409 75.7417 22.4774L74.4358 20.9626C73.1561 22.0658 70.9931 22.72 67.7288 22.72V24.72ZM75.7289 22.4882C77.5497 20.971 78.4888 19.0128 78.4888 16.68H76.4888C76.4888 18.4005 75.8279 19.8024 74.4486 20.9518L75.7289 22.4882ZM78.4888 16.68V16.12H76.4888V16.68H78.4888ZM78.4888 16.12C78.4888 13.5762 77.6168 11.4879 75.8063 9.9896L74.5312 11.5304C75.814 12.592 76.4888 14.0771 76.4888 16.12H78.4888ZM75.8195 10.0007C74.0893 8.51767 71.7488 7.84 68.9287 7.84V9.84C71.442 9.84 73.2615 10.4423 74.518 11.5193L75.8195 10.0007ZM68.9287 7.84C66.2107 7.84 63.785 8.46476 61.6873 9.74672L62.7302 11.4533C64.4725 10.3886 66.5268 9.84 68.9287 9.84V7.84ZM61.6873 9.74672C59.6242 11.0075 57.8676 12.773 56.4103 15.015L58.0872 16.105C59.4032 14.0803 60.9533 12.5392 62.7302 11.4533L61.6873 9.74672ZM57.9153 14.8145L51.1153 8.73453L49.7822 10.2255L56.5822 16.3055L57.9153 14.8145ZM51.2487 10.08C52.1752 8.84467 53.2052 7.68585 54.3392 6.60335L52.9583 5.15664C51.7456 6.31415 50.6423 7.55533 49.6488 8.88L51.2487 10.08ZM54.34 6.60264C55.5013 5.4918 56.7877 4.55861 58.201 3.80148L57.2565 2.03852C55.6832 2.88139 54.2495 3.92153 52.9575 5.15735L54.34 6.60264ZM58.2118 3.79557C59.6783 2.98646 61.3054 2.34939 63.0978 1.88849L62.5997 -0.0484962C60.6588 0.4506 58.8725 1.14686 57.2457 2.04442L58.2118 3.79557ZM63.0978 1.88849C64.8661 1.43378 66.9132 1.2 69.2487 1.2V-0.800003C66.7843 -0.800003 64.5647 -0.553789 62.5997 -0.0484962L63.0978 1.88849ZM69.2487 1.2C71.994 1.2 74.4837 1.53669 76.7254 2.19901L77.2921 0.280981C74.8405 -0.443365 72.1568 -0.800003 69.2487 -0.800003V1.2ZM76.7511 2.20623C79.0462 2.81825 80.9464 3.72606 82.4766 4.91072L83.7009 3.32928C81.9245 1.95394 79.7713 0.94174 77.2664 0.273764L76.7511 2.20623ZM82.4888 4.92C84.0779 6.11186 85.2807 7.54001 86.1143 9.20721L87.9032 8.31278C86.9234 6.35332 85.5129 4.68814 83.6888 3.32L82.4888 4.92ZM86.1309 9.23885C87.0017 10.8354 87.4488 12.6673 87.4488 14.76H89.4488C89.4488 12.3727 88.9358 10.2046 87.8867 8.28114L86.1309 9.23885ZM87.4488 14.76C87.4488 16.4076 87.1745 17.8773 86.6427 19.1827L88.4948 19.9373C89.1363 18.3627 89.4488 16.6324 89.4488 14.76H87.4488ZM86.6427 19.1827C86.1003 20.5139 85.3664 21.66 84.4437 22.6312L85.8938 24.0087C86.9977 22.8466 87.8639 21.4861 88.4948 19.9373L86.6427 19.1827ZM84.4255 22.651C83.5493 23.6245 82.4995 24.4321 81.2674 25.0728L82.1901 26.8472C83.6246 26.1012 84.8682 25.1488 85.912 23.989L84.4255 22.651ZM81.2525 25.0807C80.0603 25.7265 78.764 26.2012 77.3592 26.5022L77.7783 28.4578C79.3602 28.1188 80.8372 27.5802 82.205 26.8393L81.2525 25.0807ZM76.5687 27.48V27.88H78.5687V27.48H76.5687ZM77.3787 28.8618C78.9415 29.1643 80.3968 29.6669 81.7484 30.3678L82.6691 28.5922C81.1407 27.7998 79.5026 27.2357 77.7588 26.8982L77.3787 28.8618ZM81.7749 30.381C83.1099 31.0238 84.2639 31.86 85.2446 32.8897L86.6929 31.5103C85.5402 30.3 84.1876 29.3229 82.6426 28.579L81.7749 30.381ZM85.2446 32.8897C86.2141 33.9076 87.0021 35.156 87.6003 36.6514L89.4572 35.9086C88.7754 34.204 87.8568 32.7324 86.6929 31.5103L85.2446 32.8897ZM87.6047 36.6624C88.1864 38.0681 88.4888 39.6948 88.4888 41.56H90.4888C90.4888 39.4786 90.1511 37.5852 89.4528 35.8976L87.6047 36.6624ZM88.4888 41.56C88.4888 43.8712 88.0126 45.9562 87.0743 47.8328L88.8632 48.7272C89.9516 46.5504 90.4888 44.1555 90.4888 41.56H88.4888ZM87.0743 47.8328C86.1311 49.7192 84.7903 51.3364 83.0379 52.6882L84.2596 54.2718C86.2405 52.7436 87.7797 50.8941 88.8632 48.7272L87.0743 47.8328ZM83.0269 52.6969C81.3274 54.0465 79.2309 55.1139 76.716 55.8838L77.3015 57.7962C80.0132 56.9661 82.3434 55.7935 84.2706 54.2631L83.0269 52.6969ZM76.7288 55.88C74.2757 56.5955 71.4923 56.96 68.3688 56.96V58.96C71.6452 58.96 74.6218 58.5779 77.2887 57.8L76.7288 55.88ZM68.3688 56.96C65.7734 56.96 63.4941 56.6743 61.5202 56.1176L60.9773 58.0424C63.1634 58.659 65.6308 58.96 68.3688 58.96V56.96ZM61.4971 56.1113C59.4969 55.5985 57.749 54.8859 56.2432 53.9825L55.2143 55.6975C56.9085 56.7141 58.8406 57.4949 61.0004 58.0487L61.4971 56.1113ZM56.2432 53.9825C54.7122 53.0639 53.3973 52.025 52.2914 50.8688L50.8461 52.2512C52.0869 53.5484 53.5453 54.6961 55.2143 55.6975L56.2432 53.9825ZM52.3059 50.8843C51.1627 49.6372 50.1532 48.3682 49.2757 47.0777L47.6218 48.2023C48.5576 49.5785 49.6281 50.9228 50.8316 52.2357L52.3059 50.8843ZM49.0604 48.4311L56.8204 42.4311L55.5971 40.8489L47.8371 46.8489L49.0604 48.4311ZM55.3495 42.1515C56.7371 44.4827 58.3874 46.4188 60.3069 47.9431L61.5506 46.3769C59.8434 45.0212 58.3471 43.2773 57.068 41.1285L55.3495 42.1515ZM60.3179 47.9518C62.4128 49.5678 65.1859 50.32 68.5287 50.32V48.32C65.4716 48.32 63.178 47.6322 61.5396 46.3682L60.3179 47.9518ZM68.5287 50.32C71.8644 50.32 74.5824 49.5707 76.5336 47.9243L75.2439 46.3957C73.7818 47.6293 71.5931 48.32 68.5287 48.32V50.32ZM76.5357 47.9225C78.5508 46.2127 79.5287 43.8635 79.5287 41H77.5287C77.5287 43.3631 76.7467 45.1206 75.2418 46.3975L76.5357 47.9225ZM79.5287 41V40.36H77.5287V41H79.5287ZM79.5287 40.36C79.5287 37.5205 78.4729 35.2512 76.31 33.7063L75.1475 35.3337C76.7179 36.4555 77.5287 38.0795 77.5287 40.36H79.5287ZM76.3251 33.7173C74.2221 32.155 71.3407 31.44 67.8087 31.44V33.44C71.1035 33.44 73.5021 34.1116 75.1324 35.3227L76.3251 33.7173ZM67.8087 31.44H62.2087V33.44H67.8087V31.44ZM63.2087 32.44V23.72H61.2088V32.44H63.2087ZM62.2087 24.72H67.7288V22.72H62.2087V24.72Z" fill="#56EBFF" mask="url(#path-1-outside-1_211_17161)"/>
</svg>
