<svg width="1600" height="841" viewBox="0 0 1600 841" fill="none" xmlns="http://www.w3.org/2000/svg">
<mask id="mask0_1130_2639" style="mask-type:alpha" maskUnits="userSpaceOnUse" x="0" y="0" width="1600" height="841">
<rect width="1600" height="841" fill="#D9D9D9"/>
</mask>
<g mask="url(#mask0_1130_2639)">
<g opacity="0.3">
<mask id="path-2-inside-1_1130_2639" fill="white">
<path d="M1614 -396C1614 -289.104 1592.95 -183.255 1552.04 -84.4957C1511.13 14.2634 1451.17 103.998 1375.58 179.585C1300 255.172 1210.26 315.131 1111.5 356.038C1012.75 396.945 906.896 418 800 418C693.104 418 587.255 396.945 488.496 356.038C389.737 315.131 300.002 255.172 224.415 179.585C148.828 103.998 88.8694 14.2633 47.962 -84.4957C7.05471 -183.255 -14 -289.104 -14 -396L800 -396H1614Z"/>
</mask>
<path d="M1614 -396C1614 -289.104 1592.95 -183.255 1552.04 -84.4957C1511.13 14.2634 1451.17 103.998 1375.58 179.585C1300 255.172 1210.26 315.131 1111.5 356.038C1012.75 396.945 906.896 418 800 418C693.104 418 587.255 396.945 488.496 356.038C389.737 315.131 300.002 255.172 224.415 179.585C148.828 103.998 88.8694 14.2633 47.962 -84.4957C7.05471 -183.255 -14 -289.104 -14 -396L800 -396H1614Z" stroke="url(#paint0_linear_1130_2639)" stroke-width="2" mask="url(#path-2-inside-1_1130_2639)"/>
</g>
<g opacity="0.3">
<mask id="path-3-inside-2_1130_2639" fill="white">
<path d="M1614 1289C1614 1182.1 1592.95 1076.25 1552.04 977.496C1511.13 878.737 1451.17 789.002 1375.58 713.415C1300 637.828 1210.26 577.869 1111.5 536.962C1012.75 496.055 906.896 475 800 475C693.104 475 587.255 496.055 488.496 536.962C389.737 577.869 300.002 637.828 224.415 713.415C148.828 789.002 88.8694 878.737 47.962 977.496C7.05471 1076.25 -14 1182.1 -14 1289L800 1289H1614Z"/>
</mask>
<path d="M1614 1289C1614 1182.1 1592.95 1076.25 1552.04 977.496C1511.13 878.737 1451.17 789.002 1375.58 713.415C1300 637.828 1210.26 577.869 1111.5 536.962C1012.75 496.055 906.896 475 800 475C693.104 475 587.255 496.055 488.496 536.962C389.737 577.869 300.002 637.828 224.415 713.415C148.828 789.002 88.8694 878.737 47.962 977.496C7.05471 1076.25 -14 1182.1 -14 1289L800 1289H1614Z" stroke="url(#paint1_linear_1130_2639)" stroke-width="2" mask="url(#path-3-inside-2_1130_2639)"/>
</g>
</g>
<defs>
<linearGradient id="paint0_linear_1130_2639" x1="830.99" y1="418" x2="828.5" y2="41.0001" gradientUnits="userSpaceOnUse">
<stop stop-color="#F9F8F4"/>
<stop offset="1" stop-color="#121212"/>
</linearGradient>
<linearGradient id="paint1_linear_1130_2639" x1="830.99" y1="475" x2="830.99" y2="788.5" gradientUnits="userSpaceOnUse">
<stop stop-color="#F9F8F4"/>
<stop offset="1" stop-color="#121212"/>
</linearGradient>
</defs>
</svg>
