<svg width="487" height="640" viewBox="0 0 487 640" fill="none" xmlns="http://www.w3.org/2000/svg" preserveAspectRatio="none">
<rect x="2.5" y="3.10645" width="482" height="634" stroke="#F9F8F4"/>
<path fill-rule="evenodd" clip-rule="evenodd" d="M487 3.60645V0.606448L459 0.606445V3.60645L484 3.60645V30.6064H487V3.60645ZM30 0.606448H3H0V28.6064H3L3 3.60645H30V0.606448ZM487 306.606V333.606H484V306.606H487ZM3 333.606L3 306.606H0V333.606H3ZM484 639.606H457V636.606H484V611.606H487V639.606H484ZM3.54062e-06 609.606L0 636.606V639.606H28V636.606H3L3 609.606H3.54062e-06Z" fill="#F9F8F4"/>
</svg>
