<svg width="1600" height="495" viewBox="0 0 1600 495" fill="none" xmlns="http://www.w3.org/2000/svg">
<path d="M127.014 425.93L64.1006 478.171H306.423L348.364 425.93H127.014Z" fill="#212121"/>
<path d="M587.286 382H383.63L348.363 425.93H569.65L587.286 382Z" fill="#212121"/>
<path d="M-18 382V425.93H127.014L179.917 382H-18Z" fill="#212121"/>
<path d="M255.688 541.368H523.306L548.677 478.171H306.423L255.688 541.368Z" fill="#212121"/>
<path d="M-18 541.368H-12.0059L64.1005 478.171H-18V541.368Z" fill="#212121"/>
<path d="M791 541.368H1058.62L1033.25 478.171H791V541.368Z" fill="#212121"/>
<path d="M1600 478.171V425.93H1454.99L1517.9 478.171H1600Z" fill="#212121"/>
<path d="M569.649 425.93L548.677 478.171H790.999V425.93H569.649Z" fill="#212121"/>
<path d="M1402.08 382H1198.37L1233.64 425.93H1454.99L1402.08 382Z" fill="#212121"/>
<path d="M1275.58 478.171L1326.31 541.368H1594.01L1517.9 478.171H1275.58Z" fill="#212121"/>
<path d="M994.655 382H791V425.93H1012.29L994.655 382Z" fill="#212121"/>
<path d="M1012.29 425.93L1033.25 478.171H1275.58L1233.64 425.93H1012.29Z" fill="#212121"/>
<path d="M1233.64 425.93L1275.58 478.171H1517.9L1454.99 425.93H1233.64Z" fill="#F9F8F4"/>
<path d="M-12.0059 541.368H255.688L306.423 478.171H64.1005L-12.0059 541.368Z" fill="#F9F8F4"/>
<path d="M383.631 382H179.917L127.014 425.93H348.364L383.631 382Z" fill="#F9F8F4"/>
<path d="M1058.62 541.368H1326.31L1275.58 478.171H1033.25L1058.62 541.368Z" fill="#F9F8F4"/>
<path d="M523.306 541.368H790.999V478.171H548.677L523.306 541.368Z" fill="#F9F8F4"/>
<path d="M1517.9 478.171L1594 541.368H1600V478.171H1517.9Z" fill="#F9F8F4"/>
<path d="M-18 425.93V478.171H64.1005L127.014 425.93H-18Z" fill="#F9F8F4"/>
<path d="M348.364 425.93L306.423 478.171H548.677L569.65 425.93H348.364Z" fill="#F9F8F4"/>
<path d="M1198.37 382H994.654L1012.29 425.93H1233.63L1198.37 382Z" fill="#F9F8F4"/>
<path d="M791 425.93V478.171H1033.25L1012.29 425.93H791Z" fill="#F9F8F4"/>
<path d="M1600 382H1402.08L1454.99 425.93H1600V382Z" fill="#F9F8F4"/>
<path d="M790.999 382H587.286L569.649 425.93H790.999V382Z" fill="#F9F8F4"/>
<path d="M310.841 164.556H303.175V159.677C303.175 156.213 300.367 153.404 296.902 153.404H229.994C226.53 153.404 223.722 156.212 223.722 159.677V164.556H216.056C211.437 164.556 207.693 168.3 207.693 172.919C207.693 177.538 211.437 181.282 216.056 181.282H223.722V186.161C223.722 189.625 226.53 192.434 229.994 192.434H296.902C300.366 192.434 303.175 189.626 303.175 186.161V181.282H310.841C315.46 181.282 319.204 177.538 319.204 172.919C319.204 168.3 315.46 164.556 310.841 164.556Z" fill="#212121"/>
<path d="M310.841 164.556H303.175V159.677C303.175 156.213 300.367 153.404 296.902 153.404H269.024C272.488 153.404 275.297 156.212 275.297 159.677V164.556H282.963C287.582 164.556 291.326 168.3 291.326 172.919C291.326 177.538 287.582 181.282 282.963 181.282H275.297V186.161C275.297 189.625 272.489 192.434 269.024 192.434H296.902C300.366 192.434 303.175 189.626 303.175 186.161V181.282H310.841C315.46 181.282 319.204 177.538 319.204 172.919C319.204 168.3 315.46 164.556 310.841 164.556Z" fill="#D2FF00"/>
<path d="M331.75 412.671H195.147C186.679 412.671 179.814 405.806 179.814 397.338C179.814 388.87 186.679 382.005 195.147 382.005H331.75C340.218 382.005 347.083 388.87 347.083 397.338C347.083 405.806 340.218 412.671 331.75 412.671Z" fill="#212121"/>
<path d="M315.022 342.976H211.874C200.326 342.976 190.965 352.337 190.965 363.884C190.965 375.432 200.326 384.793 211.874 384.793H315.022C326.57 384.793 335.931 375.432 335.931 363.884C335.931 352.337 326.57 342.976 315.022 342.976Z" fill="#212121"/>
<path d="M217.682 329.037H309.215C313.19 329.037 316.417 332.264 316.417 336.239V342.976H210.48V336.239C210.48 332.264 213.707 329.037 217.682 329.037Z" fill="#212121"/>
<path d="M331.75 382.005H264.843C273.311 382.005 280.176 388.87 280.176 397.338C280.176 405.806 273.311 412.671 264.843 412.671H331.75C340.218 412.671 347.083 405.806 347.083 397.338C347.083 388.87 340.218 382.005 331.75 382.005Z" fill="#D2FF00"/>
<path d="M315.023 342.976H275.994C287.542 342.976 296.903 352.337 296.903 363.885C296.903 375.433 287.542 384.794 275.994 384.794H315.023C326.571 384.794 335.932 375.433 335.932 363.885C335.932 352.337 326.571 342.976 315.023 342.976Z" fill="#D2FF00"/>
<path d="M309.215 329.037H292.488C296.465 329.037 299.69 332.261 299.69 336.239V342.976H316.417V336.239C316.417 332.261 313.193 329.037 309.215 329.037Z" fill="#D2FF00"/>
<path d="M296.902 192.434H229.995C238.752 236.449 239.193 285.022 218.844 329.037H308.054C287.705 285.022 288.146 236.449 296.903 192.434H296.902Z" fill="#212121"/>
<path d="M294.295 207.374C294.953 202.822 295.807 197.943 296.902 192.434H229.994C231.09 197.945 231.943 202.822 232.601 207.374C251.367 195.263 275.529 195.263 294.295 207.374Z" fill="#D2FF00"/>
<path d="M291.326 145.041H235.57V153.404H291.326V145.041Z" fill="#D2FF00"/>
<path d="M292.122 145.041H234.776C232.213 145.041 230.095 143.004 230.051 140.441C229.581 113.001 215.157 87.237 209.73 78.492C208.591 76.657 208.971 74.24 210.673 72.912C241.671 48.735 285.228 48.735 316.224 72.912C317.927 74.24 318.306 76.657 317.167 78.492C311.74 87.237 297.314 113 296.846 140.441C296.802 143.003 294.684 145.041 292.121 145.041H292.122Z" fill="#212121"/>
<path d="M243.6 232.403C243.233 232.403 242.928 232.117 242.903 231.75C242.702 228.407 242.429 224.99 242.097 221.59C242.059 221.206 242.339 220.866 242.723 220.828C243.15 220.776 243.447 221.073 243.485 221.454C243.82 224.871 244.092 228.306 244.296 231.663C244.318 232.05 244.026 232.379 243.643 232.403H243.6Z" fill="#D2FF00"/>
<path d="M236.641 305.368C236.578 305.368 236.516 305.36 236.456 305.344C236.083 305.24 235.868 304.857 235.969 304.486C240.774 287.171 243.268 268.465 243.385 248.882C243.388 248.501 243.698 248.191 244.082 248.191H244.087C244.471 248.194 244.781 248.507 244.778 248.893C244.661 268.595 242.148 287.424 237.313 304.856C237.226 305.166 236.946 305.368 236.641 305.368Z" fill="#D2FF00"/>
<path d="M236.636 124.16C236.307 124.16 236.015 123.926 235.95 123.591C232.819 106.987 226.114 92.2246 221.036 82.7676C220.856 82.4276 220.982 82.0056 221.322 81.8226C221.657 81.6486 222.079 81.7676 222.267 82.1086C227.388 91.6536 234.156 106.554 237.322 123.336C237.393 123.714 237.142 124.076 236.764 124.15C236.72 124.158 236.677 124.16 236.636 124.16Z" fill="#D2FF00"/>
<path d="M316.224 72.9126C312.369 69.9056 308.318 67.2746 304.122 65.0156C297.138 76.8836 283.613 103.391 283.133 131.517C283.084 134.392 280.707 136.679 277.831 136.679H229.87C229.948 137.931 230.029 139.183 230.051 140.443C230.095 143.005 232.213 145.043 234.776 145.043H292.122C294.685 145.043 296.803 143.005 296.847 140.443C297.316 113.002 311.741 87.2386 317.168 78.4936C318.307 76.6586 317.927 74.2416 316.225 72.9136L316.224 72.9126Z" fill="#D2FF00"/>
<path d="M282.963 21.3255H271.812V10.1745C271.812 5.55552 268.068 1.81152 263.449 1.81152C258.83 1.81152 255.086 5.55552 255.086 10.1745V21.3255H243.935C239.316 21.3255 235.572 25.0695 235.572 29.6885C235.572 34.3075 239.316 38.0515 243.935 38.0515H255.086V54.7785H271.813V38.0515H282.964C287.583 38.0515 291.327 34.3075 291.327 29.6885C291.327 25.0695 287.582 21.3255 282.963 21.3255Z" fill="#212121"/>
<path d="M331.751 380.192H330.812C335.179 375.961 337.746 370.083 337.746 363.884C337.746 352.542 329.301 342.981 318.231 341.413V336.238C318.231 331.279 314.2 327.243 309.243 327.227C292.183 289.655 288.548 244.878 298.442 194.092C302.165 193.37 304.989 190.092 304.989 186.162V183.097H310.842C316.453 183.097 321.019 178.531 321.019 172.92C321.019 167.309 316.453 162.743 310.842 162.743H304.989V159.677C304.989 155.22 301.36 151.591 296.903 151.591H293.141V146.752C296.209 146.264 298.605 143.645 298.659 140.473C299.114 113.825 312.829 88.92 318.705 79.449C320.352 76.803 319.764 73.378 317.338 71.483C304.311 61.324 289.155 55.407 273.626 53.59V39.867H282.964C288.575 39.867 293.141 35.301 293.141 29.69C293.141 24.079 288.575 19.515 282.964 19.515H273.626V10.175C273.626 4.564 269.06 0 263.449 0C257.838 0 253.272 4.564 253.272 10.175V19.515H243.934C238.323 19.515 233.757 24.079 233.757 29.69C233.757 35.301 238.322 39.867 243.934 39.867H253.272V53.589C237.742 55.406 222.586 61.323 209.56 71.483C207.134 73.372 206.546 76.797 208.188 79.449C214.066 88.92 227.782 113.826 228.239 140.473C228.291 143.645 230.689 146.264 233.758 146.752V151.591H229.995C225.538 151.591 221.909 155.22 221.909 159.677V162.743H216.056C210.445 162.743 205.879 167.309 205.879 172.92C205.879 178.531 210.445 183.097 216.056 183.097H221.909V186.162C221.909 190.092 224.733 193.37 228.456 194.092C238.347 244.878 234.713 289.655 217.655 327.227C212.699 327.241 208.667 331.279 208.667 336.239V341.414C197.597 342.982 189.152 352.543 189.152 363.885C189.152 370.084 191.719 375.962 196.083 380.193H195.146C185.691 380.193 178 387.884 178 397.339C178 406.794 185.691 414.485 195.146 414.485H331.749C341.204 414.485 348.895 406.794 348.895 397.339C348.895 387.884 341.204 380.193 331.749 380.193L331.751 380.192ZM255.086 36.24H244.32C240.895 36.24 237.767 33.782 237.42 30.374C237.021 26.456 240.097 23.138 243.935 23.138H255.086C256.087 23.138 256.899 22.326 256.899 21.325V10.56C256.899 7.134 259.358 4.005 262.767 3.659C266.685 3.261 270 6.338 270 10.176V21.327C270 22.328 270.811 23.139 271.812 23.139H282.578C286.004 23.139 289.133 25.598 289.48 29.007C289.879 32.925 286.803 36.241 282.965 36.241H271.814C270.813 36.241 270.001 37.053 270.001 38.054V46.489C270.001 50.071 267.098 52.949 263.516 52.947H263.385C259.804 52.95 256.9 50.071 256.9 46.489V38.054C256.9 37.053 256.088 36.241 255.087 36.241L255.086 36.24ZM231.863 140.413C231.392 112.862 217.303 87.265 211.27 77.537C210.603 76.464 210.826 75.089 211.787 74.341C226.997 62.479 245.222 56.55 263.449 56.55C281.676 56.55 299.903 62.48 315.108 74.341C316.072 75.09 316.292 76.464 315.625 77.537C309.592 87.264 295.503 112.861 295.035 140.413C295.008 141.965 293.701 143.228 292.122 143.228H234.776C233.194 143.228 231.887 141.965 231.863 140.413ZM237.384 146.854H289.514V151.591H237.384V146.854ZM225.536 186.161V181.282C225.536 180.28 224.725 179.469 223.723 179.469H216.057C212.444 179.469 209.507 176.531 209.507 172.919C209.507 169.307 212.444 166.369 216.057 166.369H223.723C224.725 166.369 225.536 165.558 225.536 164.556V159.677C225.536 157.219 227.537 155.218 229.995 155.218H296.903C299.361 155.218 301.362 157.219 301.362 159.677V162.743H245.581C244.579 162.743 243.768 163.554 243.768 164.556C243.768 165.558 244.579 166.369 245.581 166.369H310.841C314.454 166.369 317.391 169.307 317.391 172.919C317.391 176.531 314.453 179.469 310.841 179.469H258.823C257.821 179.469 257.01 180.28 257.01 181.282C257.01 182.284 257.821 183.095 258.823 183.095H301.362V186.16C301.362 188.618 299.361 190.619 296.903 190.619H229.995C227.537 190.619 225.536 188.619 225.536 186.161ZM232.195 194.247H294.703C285.963 239.719 287.962 280.478 300.628 315.693C302.649 321.312 298.478 327.223 292.507 327.223H234.391C228.42 327.223 224.249 321.312 226.269 315.693C238.933 280.478 240.93 239.719 232.195 194.247ZM331.75 410.858H195.147C187.693 410.858 181.627 404.792 181.627 397.338C181.627 389.884 187.693 383.818 195.147 383.818H201.471C202.29 383.818 203.009 383.265 203.222 382.473C203.434 381.681 203.086 380.842 202.375 380.434C196.454 377.028 192.778 370.685 192.778 363.884C192.778 353.873 200.605 345.513 210.599 344.854C211.552 344.791 212.292 344.002 212.292 343.046V336.237C212.292 333.267 214.709 330.849 217.68 330.849H309.212C312.185 330.849 314.602 333.267 314.602 336.237V341.244H248.743C247.741 341.244 246.93 342.055 246.93 343.057C246.93 344.059 247.741 344.87 248.743 344.87H315.825C315.932 344.87 316.024 344.827 316.126 344.809C316.185 344.819 316.235 344.849 316.296 344.853C326.29 345.512 334.117 353.872 334.117 363.883C334.117 370.538 330.58 376.733 324.88 380.191H239.209C238.207 380.191 237.396 381.002 237.396 382.004C237.396 383.006 238.207 383.817 239.209 383.817H331.749C339.203 383.817 345.269 389.883 345.269 397.337C345.269 404.791 339.203 410.857 331.749 410.857L331.75 410.858Z" fill="#D2FF00"/>
<path d="M238.264 183.096H245.582C246.584 183.096 247.395 182.285 247.395 181.283C247.395 180.281 246.584 179.47 245.582 179.47H238.264C237.262 179.47 236.451 180.281 236.451 181.283C236.451 182.285 237.262 183.096 238.264 183.096Z" fill="#D2FF00"/>
<path d="M235.503 341.245H228.185C227.183 341.245 226.372 342.056 226.372 343.058C226.372 344.06 227.183 344.871 228.185 344.871H235.503C236.505 344.871 237.316 344.06 237.316 343.058C237.316 342.056 236.505 341.245 235.503 341.245Z" fill="#D2FF00"/>
<path d="M225.969 380.192H218.651C217.649 380.192 216.838 381.003 216.838 382.005C216.838 383.007 217.649 383.818 218.651 383.818H225.969C226.971 383.818 227.782 383.007 227.782 382.005C227.782 381.003 226.971 380.192 225.969 380.192Z" fill="#D2FF00"/>
<path d="M278.242 237.736H274.06V241.918H278.242V237.736Z" fill="#D2FF00"/>
<path d="M278.167 248.887H273.985V253.069H278.167V248.887Z" fill="#D2FF00"/>
<path d="M278.717 226.585H274.535V230.767H278.717V226.585Z" fill="#D2FF00"/>
<path d="M278.525 260.039H274.343V264.221H278.525V260.039Z" fill="#D2FF00"/>
<path d="M279.464 271.19H275.282V275.372H279.464V271.19Z" fill="#D2FF00"/>
<path d="M280.928 282.341H276.746V286.523H280.928V282.341Z" fill="#D2FF00"/>
<path d="M283.019 293.492H278.837V297.674H283.019V293.492Z" fill="#D2FF00"/>
<path d="M285.803 304.644H281.621V308.826H285.803V304.644Z" fill="#D2FF00"/>
<path d="M253.819 389.371H249.637C249.253 389.371 248.94 389.684 248.94 390.068C248.94 390.452 249.253 390.765 249.637 390.765H253.819C254.203 390.765 254.516 390.452 254.516 390.068C254.516 389.684 254.203 389.371 253.819 389.371Z" fill="#D2FF00"/>
<path d="M237.324 389.371H200.576C200.192 389.371 199.879 389.684 199.879 390.068C199.879 390.452 200.192 390.765 200.576 390.765H237.324C237.708 390.765 238.021 390.452 238.021 390.068C238.021 389.684 237.708 389.371 237.324 389.371Z" fill="#D2FF00"/>
<path d="M217.302 351.821H267.989C268.373 351.821 268.686 351.508 268.686 351.124C268.686 350.74 268.373 350.427 267.989 350.427H217.302C216.918 350.427 216.605 350.74 216.605 351.124C216.605 351.508 216.918 351.821 217.302 351.821Z" fill="#D2FF00"/>
<path d="M222.879 173.322H273.566C273.95 173.322 274.263 173.009 274.263 172.625C274.263 172.241 273.95 171.928 273.566 171.928H222.879C222.495 171.928 222.182 172.241 222.182 172.625C222.182 173.009 222.495 173.322 222.879 173.322Z" fill="#D2FF00"/>
<path d="M331.75 407.096H195.147C187.632 407.096 181.392 401.686 180.079 394.551C179.913 395.456 179.814 396.385 179.814 397.339C179.814 405.807 186.679 412.672 195.147 412.672H331.75C340.218 412.672 347.083 405.807 347.083 397.339C347.083 396.386 346.984 395.456 346.818 394.551C345.505 401.686 339.264 407.096 331.75 407.096Z" fill="#D2FF00"/>
<path d="M428.428 355.276H434.66C443.966 355.276 451.833 347.944 452.201 338.931C452.285 336.851 452.058 334.756 451.523 332.703C449.486 324.894 442.734 318.841 434.718 317.637C433.659 317.476 432.589 317.396 431.534 317.396C420.127 317.396 410.849 326.675 410.849 338.081L410.85 338.286C410.941 347.653 418.826 355.275 428.427 355.275L428.428 355.276Z" fill="#212121"/>
<path d="M451.524 332.704C450.007 326.888 445.873 322.05 440.551 319.46C443.411 322.482 445.192 326.489 445.235 330.895L445.237 331.1C445.237 342.506 435.958 351.785 424.552 351.785C423.496 351.785 422.426 351.705 421.368 351.544C419.322 351.237 417.359 350.61 415.535 349.723C418.754 353.125 423.344 355.276 428.428 355.276H434.661C443.966 355.276 451.833 347.944 452.202 338.931C452.285 336.852 452.059 334.756 451.524 332.704Z" fill="#D2FF00"/>
<path d="M408.84 360.512H454.226C455.525 360.512 456.582 359.455 456.582 358.156C456.582 356.856 455.526 355.8 454.226 355.8H408.84C407.542 355.8 406.484 356.856 406.484 358.156C406.484 359.455 407.541 360.512 408.84 360.512Z" fill="#212121"/>
<path d="M454.227 355.8H445.499C446.798 355.8 447.855 356.856 447.855 358.156C447.855 359.455 446.799 360.512 445.499 360.512H454.227C455.526 360.512 456.583 359.455 456.583 358.156C456.583 356.856 455.527 355.8 454.227 355.8Z" fill="#D2FF00"/>
<path d="M414.807 417.836C415.612 419.104 416.991 419.862 418.494 419.862H444.573C446.076 419.862 447.456 419.104 448.26 417.836C449.063 416.567 449.16 415 448.519 413.642C441.263 398.264 442.351 381.229 444.375 366.592L444.455 366.015L443.95 365.719C440.19 363.52 435.896 362.357 431.533 362.357C427.171 362.357 422.877 363.52 419.116 365.719L418.612 366.015L418.691 366.592C420.715 381.229 421.805 398.264 414.547 413.642C413.906 415 414.004 416.567 414.807 417.836Z" fill="#212121"/>
<path d="M469.296 447.51C468.45 444.95 465.883 443.13 463.041 443.087H418.261C418.116 443.087 417.999 442.97 417.999 442.825C417.999 442.68 418.117 442.563 418.261 442.563H462.8L463.041 442.367C465.431 440.426 466.564 437.463 466.07 434.444C465.414 430.412 461.694 427.371 457.418 427.371H426.734C426.589 427.371 426.471 427.254 426.471 427.109C426.471 426.964 426.589 426.847 426.734 426.847H457.456V424.599C457.456 422.278 455.567 420.389 453.245 420.389H409.823C407.501 420.389 405.612 422.278 405.612 424.599L405.587 427.246L405.35 427.372C401.393 427.372 397.916 430.183 397.046 434.223C396.951 434.722 396.898 435.234 396.893 435.738L396.898 436.108C396.905 436.289 396.914 436.471 396.931 436.65C396.944 436.79 396.963 436.931 396.984 437.059C397.009 437.24 397.04 437.419 397.078 437.589C397.107 437.722 397.138 437.855 397.173 437.995C397.22 438.167 397.272 438.336 397.337 438.527C397.378 438.649 397.421 438.776 397.465 438.883C397.53 439.052 397.603 439.217 397.676 439.373C397.734 439.495 397.792 439.62 397.859 439.748C397.942 439.906 398.034 440.058 398.17 440.281C398.226 440.373 398.282 440.464 398.338 440.542C398.436 440.691 398.545 440.832 398.743 441.085L398.914 441.298C399.052 441.458 399.202 441.612 399.42 441.831L399.577 441.99C399.81 442.208 400.057 442.414 400.316 442.608C400.408 442.676 400.446 442.795 400.41 442.904C400.374 443.011 400.274 443.082 400.161 443.082C397.259 443.082 394.633 444.905 393.758 447.55C392.97 449.979 394.33 452.697 396.79 453.609C397.785 453.979 398.836 454.166 399.91 454.166H463.158C464.232 454.166 465.282 453.979 466.278 453.609C468.738 452.697 470.098 449.979 469.297 447.511L469.296 447.51Z" fill="#212121"/>
<path d="M445.199 427.37C449.474 427.37 453.194 430.411 453.851 434.443C454.345 437.462 453.211 440.425 450.822 442.366L450.581 442.562H462.8L463.041 442.366C465.431 440.425 466.564 437.462 466.07 434.443C465.414 430.411 461.694 427.37 457.418 427.37H445.199Z" fill="#D2FF00"/>
<path d="M452.22 424.598V426.846H457.456V424.598C457.456 422.277 455.567 420.388 453.246 420.388H448.009C450.331 420.388 452.22 422.277 452.22 424.598Z" fill="#D2FF00"/>
<path d="M469.297 447.509C468.451 444.949 465.884 443.13 463.042 443.087H443.841C446.683 443.13 449.249 444.948 450.095 447.509C450.896 449.977 449.536 452.695 447.076 453.607C446.081 453.977 445.03 454.164 443.957 454.164H463.158C464.232 454.164 465.282 453.977 466.278 453.607C468.738 452.695 470.098 449.977 469.297 447.509Z" fill="#D2FF00"/>
<path d="M470.623 447.072C469.81 444.613 467.825 442.771 465.366 442.034C466.793 440.299 467.582 438.135 467.582 435.836C467.582 430.781 463.759 426.604 458.854 426.037V424.599C458.854 421.506 456.338 418.99 453.246 418.99H453.117C441.715 401.43 443.477 381.21 446.475 361.91H454.228C456.298 361.91 457.982 360.226 457.982 358.157C457.982 356.088 456.297 354.403 454.228 354.403H446.359C450.939 350.248 453.618 344.367 453.618 338.082C453.618 325.906 443.712 316 431.535 316C419.359 316 409.453 325.906 409.453 338.082C409.453 344.366 412.131 350.248 416.712 354.403H408.843C406.773 354.403 405.089 356.088 405.089 358.157C405.089 360.226 406.773 361.91 408.843 361.91H416.595C419.593 381.21 421.355 401.43 409.954 418.99H409.824C406.732 418.99 404.216 421.506 404.216 424.599V426.037C399.312 426.603 395.488 430.781 395.488 435.836C395.488 438.134 396.277 440.299 397.705 442.034C395.245 442.771 393.261 444.614 392.448 447.072C391.585 449.675 391.981 452.4 393.532 454.549C395.054 456.659 397.516 457.919 400.115 457.919H462.958C465.557 457.919 468.019 456.659 469.541 454.549C471.092 452.401 471.488 449.675 470.625 447.072H470.623ZM411.723 338.277C411.723 338.212 411.722 338.147 411.722 338.082C411.722 326.154 422.315 316.655 434.589 318.5C442.276 319.654 448.718 325.403 450.679 332.924C451.203 334.929 451.41 336.937 451.33 338.895C450.973 347.65 443.423 354.402 434.66 354.402H428.427C419.426 354.402 411.812 347.278 411.723 338.277ZM416.241 359.639H408.841C408.023 359.639 407.358 358.974 407.358 358.156C407.358 357.338 408.023 356.673 408.841 356.673H454.227C455.045 356.673 455.71 357.338 455.71 358.156C455.71 358.974 455.045 359.639 454.227 359.639H416.241ZM415.337 414.016C422.493 398.851 421.701 381.985 419.558 366.473C426.952 362.151 436.116 362.151 443.511 366.473C441.368 381.985 440.575 398.851 447.731 414.016C448.823 416.33 447.132 418.99 444.573 418.99H418.496C415.936 418.99 414.245 416.33 415.338 414.016H415.337ZM465.974 452.789C465.097 453.114 464.149 453.292 463.158 453.292H399.909C398.918 453.292 397.97 453.114 397.093 452.789C395.103 452.051 393.932 449.838 394.588 447.819C394.592 447.808 394.595 447.796 394.599 447.785C395.344 445.529 397.611 443.954 400.16 443.954C400.65 443.954 401.084 443.64 401.238 443.176C401.391 442.712 401.231 442.202 400.839 441.909C400.603 441.733 400.381 441.546 400.169 441.349C400.098 441.283 400.036 441.211 399.968 441.143C399.834 441.008 399.699 440.873 399.576 440.73C399.502 440.644 399.435 440.552 399.366 440.462C399.261 440.328 399.156 440.195 399.061 440.056C398.994 439.958 398.934 439.855 398.871 439.753C398.787 439.616 398.703 439.478 398.628 439.335C398.57 439.227 398.519 439.116 398.468 439.005C398.401 438.862 398.336 438.718 398.279 438.571C398.234 438.456 398.193 438.339 398.154 438.222C398.104 438.073 398.057 437.922 398.017 437.769C397.985 437.65 397.956 437.529 397.93 437.407C397.897 437.252 397.87 437.095 397.847 436.937C397.829 436.814 397.811 436.69 397.8 436.565C397.784 436.405 397.776 436.242 397.771 436.08C397.767 435.97 397.764 435.861 397.765 435.751C397.77 435.285 397.817 434.829 397.903 434.387C397.912 434.337 397.923 434.288 397.933 434.238C398.671 430.817 401.712 428.244 405.35 428.244C405.424 428.244 405.488 428.215 405.558 428.202C405.623 428.19 405.687 428.186 405.747 428.164C405.834 428.131 405.907 428.079 405.982 428.026C406.031 427.993 406.084 427.969 406.128 427.928C406.2 427.86 406.251 427.774 406.304 427.688C406.33 427.644 406.368 427.61 406.388 427.564C406.449 427.424 406.486 427.271 406.486 427.109V424.599C406.486 422.756 407.98 421.261 409.824 421.261H453.246C455.089 421.261 456.584 422.756 456.584 424.599V425.974H426.734C426.107 425.974 425.599 426.482 425.599 427.109C425.599 427.736 426.107 428.244 426.734 428.244H457.419C461.19 428.244 464.603 430.862 465.21 434.584C465.659 437.341 464.605 439.972 462.491 441.691H418.262C417.634 441.691 417.127 442.199 417.127 442.826C417.127 443.453 417.635 443.961 418.262 443.961H463.043C465.508 443.998 467.733 445.556 468.469 447.785C468.472 447.796 468.476 447.808 468.48 447.819C469.135 449.838 467.964 452.051 465.974 452.789Z" fill="#D2FF00"/>
<path d="M418.879 428.243H421.498C422.125 428.243 422.633 427.735 422.633 427.108C422.633 426.481 422.125 425.973 421.498 425.973H418.879C418.252 425.973 417.744 426.481 417.744 427.108C417.744 427.735 418.252 428.243 418.879 428.243Z" fill="#D2FF00"/>
<path d="M413.025 441.69H410.407C409.779 441.69 409.271 442.199 409.271 442.826C409.271 443.452 409.78 443.961 410.407 443.961H413.025C413.653 443.961 414.16 443.452 414.16 442.826C414.16 442.199 413.652 441.69 413.025 441.69Z" fill="#D2FF00"/>
<path d="M438.635 369.938H436.017V372.557H438.635V369.938Z" fill="#D2FF00"/>
<path d="M438.052 376.921H435.434V379.539H438.052V376.921Z" fill="#D2FF00"/>
<path d="M437.874 383.903H435.256V386.522H437.874V383.903Z" fill="#D2FF00"/>
<path d="M438.025 390.887H435.406V393.505H438.025V390.887Z" fill="#D2FF00"/>
<path d="M438.776 397.869H436.157V400.488H438.776V397.869Z" fill="#D2FF00"/>
<path d="M440.289 404.852H437.671V407.47H440.289V404.852Z" fill="#D2FF00"/>
<path d="M442.749 411.834H440.131V414.452H442.749V411.834Z" fill="#D2FF00"/>
<path d="M424.336 378.954H424.364C424.604 378.938 424.787 378.73 424.772 378.49C424.699 377.329 424.61 376.176 424.51 375.033C424.49 374.792 424.285 374.598 424.038 374.635C423.797 374.656 423.62 374.869 423.64 375.108C423.741 376.245 423.829 377.391 423.9 378.544C423.915 378.776 424.107 378.954 424.336 378.954Z" fill="#D2FF00"/>
<path d="M421.707 407.329C421.746 407.341 421.787 407.346 421.827 407.346C422.017 407.346 422.191 407.222 422.246 407.029C424.066 400.641 424.968 393.809 425.004 386.143C425.005 385.902 424.811 385.707 424.569 385.705H424.568C424.327 385.705 424.133 385.899 424.131 386.14C424.095 393.726 423.204 400.48 421.407 406.791C421.34 407.022 421.475 407.263 421.706 407.329L421.707 407.329Z" fill="#D2FF00"/>
<path d="M415.798 338.373C416.038 338.373 416.234 338.177 416.234 337.937C416.234 329.579 423.033 322.78 431.391 322.78C431.631 322.78 431.827 322.584 431.827 322.344C431.827 322.103 431.631 321.907 431.391 321.907C422.552 321.907 415.361 329.097 415.361 337.937C415.361 338.177 415.557 338.373 415.798 338.373Z" fill="#D2FF00"/>
<path d="M440.154 447.073H437.536C437.295 447.073 437.1 447.269 437.1 447.51C437.1 447.75 437.295 447.946 437.536 447.946H440.154C440.395 447.946 440.591 447.75 440.591 447.51C440.591 447.269 440.395 447.073 440.154 447.073Z" fill="#D2FF00"/>
<path d="M429.826 447.073H403.324C403.083 447.073 402.888 447.269 402.888 447.51C402.888 447.75 403.083 447.946 403.324 447.946H429.826C430.066 447.946 430.262 447.75 430.262 447.51C430.262 447.269 430.066 447.073 429.826 447.073Z" fill="#D2FF00"/>
<path d="M408.56 432.236H433.316C433.556 432.236 433.752 432.04 433.752 431.8C433.752 431.559 433.556 431.363 433.316 431.363H408.56C408.32 431.363 408.124 431.559 408.124 431.8C408.124 432.04 408.32 432.236 408.56 432.236Z" fill="#D2FF00"/>
<path d="M1136.43 357.276H1142.66C1151.97 357.276 1159.83 349.944 1160.2 340.931C1160.28 338.851 1160.06 336.756 1159.52 334.703C1157.49 326.894 1150.73 320.841 1142.72 319.637C1141.66 319.476 1140.59 319.396 1139.53 319.396C1128.13 319.396 1118.85 328.675 1118.85 340.081L1118.85 340.286C1118.94 349.653 1126.83 357.275 1136.43 357.275L1136.43 357.276Z" fill="#212121"/>
<path d="M1159.52 334.704C1158.01 328.888 1153.87 324.05 1148.55 321.46C1151.41 324.482 1153.19 328.489 1153.24 332.895L1153.24 333.1C1153.24 344.506 1143.96 353.785 1132.55 353.785C1131.5 353.785 1130.43 353.705 1129.37 353.544C1127.32 353.237 1125.36 352.61 1123.54 351.723C1126.75 355.125 1131.34 357.276 1136.43 357.276H1142.66C1151.97 357.276 1159.83 349.944 1160.2 340.931C1160.29 338.852 1160.06 336.756 1159.52 334.704Z" fill="#56EBFF"/>
<path d="M1116.84 362.512H1162.23C1163.52 362.512 1164.58 361.455 1164.58 360.156C1164.58 358.856 1163.53 357.8 1162.23 357.8H1116.84C1115.54 357.8 1114.48 358.856 1114.48 360.156C1114.48 361.455 1115.54 362.512 1116.84 362.512Z" fill="#212121"/>
<path d="M1162.23 357.8H1153.5C1154.8 357.8 1155.86 358.856 1155.86 360.156C1155.86 361.455 1154.8 362.512 1153.5 362.512H1162.23C1163.53 362.512 1164.58 361.455 1164.58 360.156C1164.58 358.856 1163.53 357.8 1162.23 357.8Z" fill="#56EBFF"/>
<path d="M1122.81 419.836C1123.61 421.104 1124.99 421.862 1126.49 421.862H1152.57C1154.08 421.862 1155.46 421.104 1156.26 419.836C1157.06 418.567 1157.16 417 1156.52 415.642C1149.26 400.264 1150.35 383.229 1152.37 368.592L1152.45 368.015L1151.95 367.719C1148.19 365.52 1143.9 364.357 1139.53 364.357C1135.17 364.357 1130.88 365.52 1127.12 367.719L1126.61 368.015L1126.69 368.592C1128.72 383.229 1129.8 400.264 1122.55 415.642C1121.91 417 1122 418.567 1122.81 419.836Z" fill="#212121"/>
<path d="M1177.3 449.51C1176.45 446.95 1173.88 445.13 1171.04 445.087H1126.26C1126.12 445.087 1126 444.97 1126 444.825C1126 444.68 1126.12 444.563 1126.26 444.563H1170.8L1171.04 444.367C1173.43 442.426 1174.56 439.463 1174.07 436.444C1173.41 432.412 1169.69 429.371 1165.42 429.371H1134.73C1134.59 429.371 1134.47 429.254 1134.47 429.109C1134.47 428.964 1134.59 428.847 1134.73 428.847H1165.46V426.599C1165.46 424.278 1163.57 422.389 1161.24 422.389H1117.82C1115.5 422.389 1113.61 424.278 1113.61 426.599L1113.59 429.246L1113.35 429.372C1109.39 429.372 1105.92 432.183 1105.05 436.223C1104.95 436.722 1104.9 437.234 1104.89 437.738L1104.9 438.108C1104.91 438.289 1104.91 438.471 1104.93 438.65C1104.94 438.79 1104.96 438.931 1104.98 439.059C1105.01 439.24 1105.04 439.419 1105.08 439.589C1105.11 439.722 1105.14 439.855 1105.17 439.995C1105.22 440.167 1105.27 440.336 1105.34 440.527C1105.38 440.649 1105.42 440.776 1105.46 440.883C1105.53 441.052 1105.6 441.217 1105.68 441.373C1105.73 441.495 1105.79 441.62 1105.86 441.748C1105.94 441.906 1106.03 442.058 1106.17 442.281C1106.23 442.373 1106.28 442.464 1106.34 442.542C1106.44 442.691 1106.55 442.832 1106.74 443.085L1106.91 443.298C1107.05 443.458 1107.2 443.612 1107.42 443.831L1107.58 443.99C1107.81 444.208 1108.06 444.414 1108.32 444.608C1108.41 444.676 1108.45 444.795 1108.41 444.904C1108.37 445.011 1108.27 445.082 1108.16 445.082C1105.26 445.082 1102.63 446.905 1101.76 449.55C1100.97 451.979 1102.33 454.697 1104.79 455.609C1105.79 455.979 1106.84 456.166 1107.91 456.166H1171.16C1172.23 456.166 1173.28 455.979 1174.28 455.609C1176.74 454.697 1178.1 451.979 1177.3 449.511L1177.3 449.51Z" fill="#212121"/>
<path d="M1153.2 429.37C1157.47 429.37 1161.19 432.411 1161.85 436.443C1162.34 439.462 1161.21 442.425 1158.82 444.366L1158.58 444.562H1170.8L1171.04 444.366C1173.43 442.425 1174.56 439.462 1174.07 436.443C1173.41 432.411 1169.69 429.37 1165.42 429.37H1153.2Z" fill="#56EBFF"/>
<path d="M1160.22 426.598V428.846H1165.46V426.598C1165.46 424.277 1163.57 422.388 1161.25 422.388H1156.01C1158.33 422.388 1160.22 424.277 1160.22 426.598Z" fill="#56EBFF"/>
<path d="M1177.3 449.509C1176.45 446.949 1173.88 445.13 1171.04 445.087H1151.84C1154.68 445.13 1157.25 446.948 1158.1 449.509C1158.9 451.977 1157.54 454.695 1155.08 455.607C1154.08 455.977 1153.03 456.164 1151.96 456.164H1171.16C1172.23 456.164 1173.28 455.977 1174.28 455.607C1176.74 454.695 1178.1 451.977 1177.3 449.509Z" fill="#56EBFF"/>
<path d="M1178.62 449.072C1177.81 446.613 1175.83 444.771 1173.37 444.034C1174.79 442.299 1175.58 440.135 1175.58 437.836C1175.58 432.781 1171.76 428.604 1166.85 428.037V426.599C1166.85 423.506 1164.34 420.99 1161.25 420.99H1161.12C1149.72 403.43 1151.48 383.21 1154.48 363.91H1162.23C1164.3 363.91 1165.98 362.226 1165.98 360.157C1165.98 358.088 1164.3 356.403 1162.23 356.403H1154.36C1158.94 352.248 1161.62 346.367 1161.62 340.082C1161.62 327.906 1151.71 318 1139.54 318C1127.36 318 1117.45 327.906 1117.45 340.082C1117.45 346.366 1120.13 352.248 1124.71 356.403H1116.84C1114.77 356.403 1113.09 358.088 1113.09 360.157C1113.09 362.226 1114.77 363.91 1116.84 363.91H1124.6C1127.59 383.21 1129.36 403.43 1117.95 420.99H1117.82C1114.73 420.99 1112.22 423.506 1112.22 426.599V428.037C1107.31 428.603 1103.49 432.781 1103.49 437.836C1103.49 440.134 1104.28 442.299 1105.7 444.034C1103.24 444.771 1101.26 446.614 1100.45 449.072C1099.59 451.675 1099.98 454.4 1101.53 456.549C1103.05 458.659 1105.52 459.919 1108.12 459.919H1170.96C1173.56 459.919 1176.02 458.659 1177.54 456.549C1179.09 454.401 1179.49 451.675 1178.63 449.072H1178.62ZM1119.72 340.277C1119.72 340.212 1119.72 340.147 1119.72 340.082C1119.72 328.154 1130.31 318.655 1142.59 320.5C1150.28 321.654 1156.72 327.403 1158.68 334.924C1159.2 336.929 1159.41 338.937 1159.33 340.895C1158.97 349.65 1151.42 356.402 1142.66 356.402H1136.43C1127.43 356.402 1119.81 349.278 1119.72 340.277ZM1124.24 361.639H1116.84C1116.02 361.639 1115.36 360.974 1115.36 360.156C1115.36 359.338 1116.02 358.673 1116.84 358.673H1162.23C1163.04 358.673 1163.71 359.338 1163.71 360.156C1163.71 360.974 1163.04 361.639 1162.23 361.639H1124.24ZM1123.34 416.016C1130.49 400.851 1129.7 383.985 1127.56 368.473C1134.95 364.151 1144.12 364.151 1151.51 368.473C1149.37 383.985 1148.57 400.851 1155.73 416.016C1156.82 418.33 1155.13 420.99 1152.57 420.99H1126.5C1123.94 420.99 1122.25 418.33 1123.34 416.016H1123.34ZM1173.97 454.789C1173.1 455.114 1172.15 455.292 1171.16 455.292H1107.91C1106.92 455.292 1105.97 455.114 1105.09 454.789C1103.1 454.051 1101.93 451.838 1102.59 449.819C1102.59 449.808 1102.6 449.796 1102.6 449.785C1103.34 447.529 1105.61 445.954 1108.16 445.954C1108.65 445.954 1109.08 445.64 1109.24 445.176C1109.39 444.712 1109.23 444.202 1108.84 443.909C1108.6 443.733 1108.38 443.546 1108.17 443.349C1108.1 443.283 1108.04 443.211 1107.97 443.143C1107.83 443.008 1107.7 442.873 1107.58 442.73C1107.5 442.644 1107.44 442.552 1107.37 442.462C1107.26 442.328 1107.16 442.195 1107.06 442.056C1106.99 441.958 1106.93 441.855 1106.87 441.753C1106.79 441.616 1106.7 441.478 1106.63 441.335C1106.57 441.227 1106.52 441.116 1106.47 441.005C1106.4 440.862 1106.34 440.718 1106.28 440.571C1106.23 440.456 1106.19 440.339 1106.15 440.222C1106.1 440.073 1106.06 439.922 1106.02 439.769C1105.98 439.65 1105.96 439.529 1105.93 439.407C1105.9 439.252 1105.87 439.095 1105.85 438.937C1105.83 438.814 1105.81 438.69 1105.8 438.565C1105.78 438.405 1105.78 438.242 1105.77 438.08C1105.77 437.97 1105.76 437.861 1105.77 437.751C1105.77 437.285 1105.82 436.829 1105.9 436.387C1105.91 436.337 1105.92 436.288 1105.93 436.238C1106.67 432.817 1109.71 430.244 1113.35 430.244C1113.42 430.244 1113.49 430.215 1113.56 430.202C1113.62 430.19 1113.69 430.186 1113.75 430.164C1113.83 430.131 1113.91 430.079 1113.98 430.026C1114.03 429.993 1114.08 429.969 1114.13 429.928C1114.2 429.86 1114.25 429.774 1114.3 429.688C1114.33 429.644 1114.37 429.61 1114.39 429.564C1114.45 429.424 1114.49 429.271 1114.49 429.109V426.599C1114.49 424.756 1115.98 423.261 1117.82 423.261H1161.25C1163.09 423.261 1164.58 424.756 1164.58 426.599V427.974H1134.73C1134.11 427.974 1133.6 428.482 1133.6 429.109C1133.6 429.736 1134.11 430.244 1134.73 430.244H1165.42C1169.19 430.244 1172.6 432.862 1173.21 436.584C1173.66 439.341 1172.61 441.972 1170.49 443.691H1126.26C1125.63 443.691 1125.13 444.199 1125.13 444.826C1125.13 445.453 1125.63 445.961 1126.26 445.961H1171.04C1173.51 445.998 1175.73 447.556 1176.47 449.785C1176.47 449.796 1176.48 449.808 1176.48 449.819C1177.14 451.838 1175.96 454.051 1173.97 454.789Z" fill="#56EBFF"/>
<path d="M1126.88 430.243H1129.5C1130.13 430.243 1130.63 429.735 1130.63 429.108C1130.63 428.481 1130.12 427.973 1129.5 427.973H1126.88C1126.25 427.973 1125.74 428.481 1125.74 429.108C1125.74 429.735 1126.25 430.243 1126.88 430.243Z" fill="#56EBFF"/>
<path d="M1121.02 443.69H1118.41C1117.78 443.69 1117.27 444.199 1117.27 444.826C1117.27 445.452 1117.78 445.961 1118.41 445.961H1121.02C1121.65 445.961 1122.16 445.452 1122.16 444.826C1122.16 444.199 1121.65 443.69 1121.02 443.69Z" fill="#56EBFF"/>
<path d="M1146.63 371.938H1144.02V374.557H1146.63V371.938Z" fill="#56EBFF"/>
<path d="M1146.05 378.921H1143.43V381.539H1146.05V378.921Z" fill="#56EBFF"/>
<path d="M1145.87 385.903H1143.26V388.522H1145.87V385.903Z" fill="#56EBFF"/>
<path d="M1146.02 392.887H1143.41V395.505H1146.02V392.887Z" fill="#56EBFF"/>
<path d="M1146.78 399.869H1144.16V402.488H1146.78V399.869Z" fill="#56EBFF"/>
<path d="M1148.29 406.852H1145.67V409.47H1148.29V406.852Z" fill="#56EBFF"/>
<path d="M1150.75 413.834H1148.13V416.452H1150.75V413.834Z" fill="#56EBFF"/>
<path d="M1132.34 380.954H1132.36C1132.6 380.938 1132.79 380.73 1132.77 380.49C1132.7 379.329 1132.61 378.176 1132.51 377.033C1132.49 376.792 1132.29 376.598 1132.04 376.635C1131.8 376.656 1131.62 376.869 1131.64 377.108C1131.74 378.245 1131.83 379.391 1131.9 380.544C1131.92 380.776 1132.11 380.954 1132.34 380.954Z" fill="#56EBFF"/>
<path d="M1129.71 409.329C1129.75 409.341 1129.79 409.346 1129.83 409.346C1130.02 409.346 1130.19 409.222 1130.25 409.029C1132.07 402.641 1132.97 395.809 1133 388.143C1133.01 387.902 1132.81 387.707 1132.57 387.705H1132.57C1132.33 387.705 1132.13 387.899 1132.13 388.14C1132.1 395.726 1131.2 402.48 1129.41 408.791C1129.34 409.022 1129.47 409.263 1129.71 409.329L1129.71 409.329Z" fill="#56EBFF"/>
<path d="M1123.8 340.373C1124.04 340.373 1124.23 340.177 1124.23 339.937C1124.23 331.579 1131.03 324.78 1139.39 324.78C1139.63 324.78 1139.83 324.584 1139.83 324.344C1139.83 324.103 1139.63 323.907 1139.39 323.907C1130.55 323.907 1123.36 331.097 1123.36 339.937C1123.36 340.177 1123.56 340.373 1123.8 340.373Z" fill="#56EBFF"/>
<path d="M1148.15 449.073H1145.54C1145.3 449.073 1145.1 449.269 1145.1 449.51C1145.1 449.75 1145.3 449.946 1145.54 449.946H1148.15C1148.4 449.946 1148.59 449.75 1148.59 449.51C1148.59 449.269 1148.4 449.073 1148.15 449.073Z" fill="#56EBFF"/>
<path d="M1137.83 449.073H1111.32C1111.08 449.073 1110.89 449.269 1110.89 449.51C1110.89 449.75 1111.08 449.946 1111.32 449.946H1137.83C1138.07 449.946 1138.26 449.75 1138.26 449.51C1138.26 449.269 1138.07 449.073 1137.83 449.073Z" fill="#56EBFF"/>
<path d="M1116.56 434.236H1141.32C1141.56 434.236 1141.75 434.04 1141.75 433.8C1141.75 433.559 1141.56 433.363 1141.32 433.363H1116.56C1116.32 433.363 1116.12 433.559 1116.12 433.8C1116.12 434.04 1116.32 434.236 1116.56 434.236Z" fill="#56EBFF"/>
<path d="M1371.67 382.797H1278.57C1268.15 382.797 1259.7 374.348 1259.7 363.925C1259.7 353.502 1268.15 345.053 1278.57 345.053H1371.67C1382.1 345.053 1390.55 353.502 1390.55 363.925C1390.55 374.348 1382.1 382.797 1371.67 382.797Z" fill="#212121"/>
<path d="M1365.38 136.205C1365.38 112.487 1344.87 93.5599 1320.62 96.1899C1300.03 98.4229 1284.86 116.63 1284.86 137.342C1284.86 144.531 1290.69 150.359 1297.88 150.359H1352.36C1359.54 150.359 1365.36 144.549 1365.38 137.372L1365.38 136.205Z" fill="#212121"/>
<path d="M1337.79 94.086C1342.33 87.088 1340.33 77.7403 1333.33 73.2074C1326.33 68.6744 1316.98 70.6728 1312.45 77.6708C1307.92 84.6688 1309.92 94.0165 1316.91 98.5494C1323.91 103.082 1333.26 101.084 1337.79 94.086Z" fill="#212121"/>
<path d="M1365.35 136.188C1365.35 114.592 1348.33 97.0211 1326.97 96.0391C1330.02 101.17 1331.8 107.141 1331.8 113.542C1331.8 132.526 1316.41 147.916 1297.43 147.916C1293.46 147.916 1289.66 147.209 1286.11 145.97C1286.86 148.945 1287.95 151.776 1289.32 154.448H1360.94C1363.74 148.963 1365.35 142.77 1365.35 136.189V136.188Z" fill="#56EBFF"/>
<path d="M1329.57 71.4512C1331.39 73.7502 1332.51 76.6152 1332.51 79.7712C1332.51 87.2272 1326.47 93.2722 1319.01 93.2722C1315.86 93.2722 1312.99 92.1442 1310.69 90.3302C1312.59 96.4962 1318.33 100.978 1325.12 100.978C1333.46 100.978 1340.22 94.2192 1340.22 85.8802C1340.22 79.0912 1335.74 73.3502 1329.57 71.4512Z" fill="#56EBFF"/>
<path d="M1386.77 407.959H1263.47C1255.83 407.959 1249.64 401.763 1249.64 394.12C1249.64 386.477 1255.83 380.281 1263.47 380.281H1386.77C1394.41 380.281 1400.61 386.477 1400.61 394.12C1400.61 401.763 1394.41 407.959 1386.77 407.959Z" fill="#212121"/>
<path d="M1386.77 380.28H1326.38C1334.02 380.28 1340.22 386.476 1340.22 394.119C1340.22 401.762 1334.02 407.958 1326.38 407.958H1386.77C1394.41 407.958 1400.61 401.762 1400.61 394.119C1400.61 386.476 1394.41 380.28 1386.77 380.28Z" fill="#56EBFF"/>
<path d="M1371.67 345.054H1336.45C1346.87 345.054 1355.32 353.503 1355.32 363.926C1355.32 374.349 1346.87 382.798 1336.45 382.798H1371.67C1382.1 382.798 1390.55 374.349 1390.55 363.926C1390.55 353.503 1382.1 345.054 1371.67 345.054Z" fill="#56EBFF"/>
<path d="M1283.81 332.473H1366.43C1370.02 332.473 1372.93 335.386 1372.93 338.973V345.054H1277.31V338.973C1277.31 335.385 1280.23 332.473 1283.81 332.473Z" fill="#212121"/>
<path d="M1366.43 332.473H1351.33C1354.92 332.473 1357.83 335.383 1357.83 338.973V345.054H1372.93V338.973C1372.93 335.383 1370.02 332.473 1366.43 332.473Z" fill="#56EBFF"/>
<path d="M1367.9 194.079H1360.98V189.676C1360.98 186.549 1358.44 184.014 1355.32 184.014H1294.93C1291.8 184.014 1289.27 186.549 1289.27 189.676V194.079H1282.35C1278.18 194.079 1274.8 197.459 1274.8 201.628C1274.8 205.797 1278.18 209.177 1282.35 209.177H1289.27V213.58C1289.27 216.707 1291.8 219.242 1294.93 219.242H1355.32C1358.44 219.242 1360.98 216.707 1360.98 213.58V209.177H1367.9C1372.07 209.177 1375.45 205.797 1375.45 201.628C1375.45 197.459 1372.07 194.079 1367.9 194.079Z" fill="#212121"/>
<path d="M1367.9 194.079H1360.98V189.676C1360.98 186.549 1358.44 184.014 1355.32 184.014H1335.19C1338.31 184.014 1340.85 186.549 1340.85 189.676V194.079H1347.77C1351.94 194.079 1355.32 197.459 1355.32 201.628C1355.32 205.797 1351.94 209.177 1347.77 209.177H1340.85V213.58C1340.85 216.707 1338.31 219.242 1335.19 219.242H1355.32C1358.44 219.242 1360.98 216.707 1360.98 213.58V209.177H1367.9C1372.07 209.177 1375.45 205.797 1375.45 201.628C1375.45 197.459 1372.07 194.079 1367.9 194.079Z" fill="#56EBFF"/>
<path d="M1355.32 219.241H1294.93C1301.91 255.726 1302 295.987 1284.86 332.472H1365.38C1348.24 295.987 1348.33 255.726 1355.32 219.241Z" fill="#212121"/>
<path d="M1353.11 232.823C1353.65 228.644 1354.37 224.207 1355.32 219.241H1294.93C1295.88 224.207 1296.59 228.645 1297.13 232.823C1314.14 221.762 1336.11 221.762 1353.12 232.823H1353.11Z" fill="#56EBFF"/>
<path d="M1355.32 176.466H1294.93V184.015H1355.32V176.466Z" fill="#56EBFF"/>
<path d="M1358.18 176.466H1294.12C1290.25 176.466 1286.95 173.715 1286.23 169.915C1283.98 157.984 1280.72 145.759 1275.13 133.774C1274.23 131.838 1276.69 130.093 1278.19 131.614L1278.36 131.789C1283.3 136.795 1291.36 136.857 1296.37 131.928L1296.61 131.695C1301.4 126.983 1309.01 126.792 1314.08 131.202C1314.94 131.951 1315.79 132.701 1316.64 133.452C1321.48 137.741 1328.77 137.741 1333.61 133.452C1334.45 132.701 1335.31 131.951 1336.17 131.202C1341.24 126.792 1348.85 126.983 1353.64 131.695L1353.88 131.928C1358.89 136.857 1366.95 136.795 1371.89 131.789L1372.06 131.614C1373.56 130.094 1376.02 131.838 1375.12 133.774C1369.21 146.436 1365.91 159.365 1363.65 171.934C1363.17 174.566 1360.86 176.466 1358.19 176.466H1358.18Z" fill="#212121"/>
<path d="M1372.06 131.614L1371.88 131.789C1368.98 134.728 1365.01 135.914 1361.21 135.435C1357.62 145.11 1355.3 154.851 1353.58 164.385C1353.1 167.017 1350.79 168.917 1348.12 168.917H1286.03C1286.09 169.249 1286.17 169.583 1286.23 169.915C1286.95 173.715 1290.25 176.466 1294.12 176.466H1358.18C1360.86 176.466 1363.17 174.566 1363.64 171.934C1365.91 159.365 1369.21 146.436 1375.11 133.774C1376.02 131.838 1373.56 130.093 1372.06 131.614H1372.06Z" fill="#56EBFF"/>
<path d="M1306.78 256.982C1306.44 256.982 1306.16 256.714 1306.15 256.373C1306.05 253.356 1305.88 250.245 1305.65 247.129C1305.62 246.783 1305.88 246.48 1306.23 246.456C1306.61 246.375 1306.88 246.692 1306.9 247.036C1307.14 250.169 1307.3 253.297 1307.4 256.334C1307.42 256.68 1307.14 256.97 1306.8 256.983H1306.78V256.982Z" fill="#56EBFF"/>
<path d="M1299.49 316.047C1299.43 316.047 1299.37 316.037 1299.31 316.02C1298.98 315.917 1298.79 315.566 1298.89 315.234C1303.01 301.768 1305.43 287.241 1306.08 272.055C1306.1 271.706 1306.4 271.478 1306.74 271.453C1307.08 271.468 1307.35 271.763 1307.34 272.109C1306.68 287.401 1304.24 302.034 1300.09 315.603C1300.01 315.873 1299.76 316.048 1299.49 316.048V316.047Z" fill="#56EBFF"/>
<path d="M1292.27 162.426C1291.98 162.426 1291.72 162.227 1291.66 161.932C1290.21 155.398 1288.57 149.496 1286.65 143.893C1286.54 143.564 1286.71 143.207 1287.04 143.094C1287.36 142.976 1287.73 143.155 1287.84 143.485C1289.78 149.134 1291.43 155.078 1292.89 161.661C1292.96 162 1292.75 162.334 1292.41 162.41C1292.36 162.42 1292.32 162.425 1292.27 162.425L1292.27 162.426Z" fill="#56EBFF"/>
<path d="M1386.77 378.644H1385.92C1389.86 374.825 1392.18 369.52 1392.18 363.925C1392.18 353.688 1384.56 345.058 1374.57 343.643V338.972C1374.57 334.494 1370.93 330.848 1366.45 330.838C1352.14 299.786 1348.86 262.758 1356.72 220.737C1360.07 220.082 1362.62 217.124 1362.62 213.58V210.813H1367.9C1372.96 210.813 1377.08 206.692 1377.08 201.628C1377.08 196.564 1372.96 192.443 1367.9 192.443H1362.62V189.676C1362.62 186.218 1360.19 183.326 1356.95 182.579V178.103H1358.18C1361.67 178.103 1364.64 175.631 1365.25 172.225C1367.95 157.265 1371.56 145.266 1376.6 134.467C1377.34 132.872 1376.85 131.056 1375.41 130.049C1373.98 129.051 1372.12 129.221 1370.72 130.644C1369.6 131.779 1368.29 132.606 1366.89 133.156C1365.66 116.192 1354.3 101.659 1338.12 96.3954C1340.45 93.5194 1341.86 89.8634 1341.86 85.8824C1341.86 76.6554 1334.35 69.1484 1325.12 69.1484C1315.9 69.1484 1308.39 76.6554 1308.39 85.8824C1308.39 89.8634 1309.79 93.5204 1312.12 96.3964C1295.95 101.659 1284.58 116.203 1283.35 133.158C1281.96 132.609 1280.65 131.783 1279.53 130.651C1279.53 130.649 1279.36 130.467 1279.35 130.464C1278.13 129.223 1276.27 129.049 1274.84 130.049C1273.39 131.054 1272.9 132.87 1273.65 134.465C1278.48 144.83 1281.97 156.192 1284.62 170.218C1285.43 174.51 1289.01 177.66 1293.29 178.03V182.58C1290.06 183.328 1287.63 186.219 1287.63 189.677V192.444H1282.35C1277.28 192.444 1273.16 196.565 1273.16 201.629C1273.16 206.693 1277.28 210.814 1282.35 210.814H1287.63V213.581C1287.63 217.125 1290.18 220.082 1293.53 220.738C1301.38 262.759 1298.11 299.788 1283.8 330.839C1279.32 330.847 1275.68 334.494 1275.68 338.973V343.644C1265.69 345.059 1258.07 353.689 1258.07 363.926C1258.07 369.521 1260.38 374.826 1264.32 378.645H1263.48C1254.94 378.645 1248 385.587 1248 394.121C1248 402.655 1254.94 409.597 1263.48 409.597H1386.77C1395.31 409.597 1402.25 402.655 1402.25 394.121C1402.25 385.587 1395.31 378.645 1386.77 378.645L1386.77 378.644ZM1353.68 182.377H1296.56V178.101H1353.68V182.377ZM1325.12 72.4194C1332.55 72.4194 1338.58 78.4574 1338.58 85.8804C1338.58 93.3034 1332.55 99.3414 1325.12 99.3414C1317.7 99.3414 1311.66 93.3044 1311.66 85.8804C1311.66 78.4564 1317.7 72.4194 1325.12 72.4194ZM1308.74 101.236C1311.87 99.7724 1315.46 99.9484 1318.64 101.299C1320.63 102.145 1322.82 102.614 1325.12 102.614C1327.42 102.614 1329.61 102.144 1331.61 101.299C1334.79 99.9494 1338.37 99.7724 1341.51 101.236C1351.84 106.064 1359.47 115.229 1362.4 126.167C1363.56 130.501 1358.33 133.95 1355.1 130.834C1355.07 130.809 1355.05 130.783 1355.02 130.757L1354.79 130.528C1349.44 125.269 1340.78 125.019 1335.09 129.968C1334.23 130.719 1333.37 131.471 1332.52 132.222C1328.3 135.956 1321.96 135.956 1317.73 132.227C1316.88 131.474 1316.02 130.721 1315.15 129.968C1309.46 125.019 1300.81 125.27 1295.46 130.526L1295.22 130.76C1295.2 130.783 1295.18 130.807 1295.15 130.83C1291.93 133.949 1286.69 130.497 1287.85 126.163C1290.79 115.23 1298.41 106.064 1308.74 101.237L1308.74 101.236ZM1287.83 169.609C1285.13 155.308 1281.57 143.7 1276.61 133.082C1276.57 133.001 1276.51 132.866 1276.71 132.731C1276.77 132.687 1276.82 132.672 1276.86 132.672C1276.94 132.672 1276.98 132.716 1277.02 132.753C1277.02 132.756 1277.19 132.935 1277.2 132.937C1282.76 138.576 1291.87 138.643 1297.52 133.097L1297.75 132.864C1301.89 128.79 1308.59 128.601 1313 132.436C1313.86 133.183 1314.71 133.93 1315.55 134.675C1321.01 139.513 1329.24 139.518 1334.69 134.675C1335.53 133.928 1336.38 133.183 1337.24 132.436C1341.65 128.608 1348.34 128.789 1352.49 132.866L1352.72 133.095C1358.37 138.641 1367.49 138.575 1373.21 132.763C1373.28 132.697 1373.37 132.616 1373.54 132.731C1373.73 132.866 1373.67 133.001 1373.63 133.082C1368.47 144.145 1364.78 156.399 1362.03 171.644C1361.7 173.489 1360.08 174.829 1358.18 174.829H1294.12C1291.05 174.829 1288.4 172.635 1287.83 169.61L1287.83 169.609ZM1290.9 213.579V209.176C1290.9 208.272 1290.17 207.539 1289.27 207.539H1282.35C1279.09 207.539 1276.43 204.888 1276.43 201.627C1276.43 198.366 1279.09 195.715 1282.35 195.715H1289.27C1290.17 195.715 1290.9 194.983 1290.9 194.078V189.675C1290.9 187.456 1292.71 185.65 1294.93 185.65H1355.32C1357.54 185.65 1359.34 187.456 1359.34 189.675V192.442H1309.65C1308.75 192.442 1308.01 193.174 1308.01 194.078C1308.01 194.982 1308.74 195.715 1309.65 195.715H1367.9C1371.16 195.715 1373.81 198.366 1373.81 201.627C1373.81 204.888 1371.16 207.539 1367.9 207.539H1321.6C1320.7 207.539 1319.96 208.271 1319.96 209.176C1319.96 210.081 1320.7 210.813 1321.6 210.813H1359.34V213.58C1359.34 215.799 1357.54 217.605 1355.32 217.605H1294.93C1292.71 217.605 1290.9 215.798 1290.9 213.579ZM1296.9 220.877H1353.35C1346.59 257.561 1348.23 290.539 1358.2 319.163C1360.19 324.878 1355.95 330.835 1349.9 330.835H1300.35C1294.3 330.835 1290.06 324.878 1292.05 319.164C1302.01 290.54 1303.65 257.562 1296.9 220.877H1296.9ZM1386.77 406.322H1263.48C1256.75 406.322 1251.27 400.847 1251.27 394.119C1251.27 387.391 1256.75 381.916 1263.48 381.916H1269.18C1269.92 381.916 1270.57 381.417 1270.76 380.702C1270.96 379.987 1270.64 379.23 1270 378.862C1264.65 375.788 1261.34 370.062 1261.34 363.924C1261.34 354.889 1268.4 347.342 1277.42 346.748C1278.28 346.692 1278.95 345.979 1278.95 345.116V338.97C1278.95 336.289 1281.13 334.107 1283.81 334.107H1366.43C1369.11 334.107 1371.29 336.289 1371.29 338.97V343.489H1312.51C1311.61 343.489 1310.88 344.221 1310.88 345.126C1310.88 346.031 1311.61 346.763 1312.51 346.763H1372.95C1381.91 347.421 1388.91 354.933 1388.91 363.925C1388.91 369.931 1385.72 375.523 1380.57 378.644H1303.91C1303 378.644 1302.27 379.376 1302.27 380.281C1302.27 381.186 1303 381.918 1303.91 381.918H1386.77C1393.5 381.918 1398.97 387.393 1398.97 394.121C1398.97 400.849 1393.5 406.324 1386.77 406.324L1386.77 406.322Z" fill="#56EBFF"/>
<path d="M1303.05 210.812H1309.65C1310.55 210.812 1311.29 210.08 1311.29 209.175C1311.29 208.27 1310.55 207.538 1309.65 207.538H1303.05C1302.14 207.538 1301.41 208.27 1301.41 209.175C1301.41 210.08 1302.14 210.812 1303.05 210.812Z" fill="#56EBFF"/>
<path d="M1300.56 343.49H1293.96C1293.05 343.49 1292.32 344.222 1292.32 345.127C1292.32 346.032 1293.05 346.764 1293.96 346.764H1300.56C1301.47 346.764 1302.2 346.032 1302.2 345.127C1302.2 344.222 1301.47 343.49 1300.56 343.49Z" fill="#56EBFF"/>
<path d="M1291.96 378.645H1285.35C1284.45 378.645 1283.72 379.377 1283.72 380.282C1283.72 381.187 1284.45 381.919 1285.35 381.919H1291.96C1292.86 381.919 1293.59 381.187 1293.59 380.282C1293.59 379.377 1292.86 378.645 1291.96 378.645Z" fill="#56EBFF"/>
<path d="M1339.38 250.065H1335.61V253.839H1339.38V250.065Z" fill="#56EBFF"/>
<path d="M1339.16 260.131H1335.39V263.905H1339.16V260.131Z" fill="#56EBFF"/>
<path d="M1339.3 270.195H1335.52V273.969H1339.3V270.195Z" fill="#56EBFF"/>
<path d="M1339.93 280.261H1336.16V284.035H1339.93V280.261Z" fill="#56EBFF"/>
<path d="M1341.13 290.325H1337.36V294.099H1341.13V290.325Z" fill="#56EBFF"/>
<path d="M1342.88 300.391H1339.1V304.165H1342.88V300.391Z" fill="#56EBFF"/>
<path d="M1345.34 310.455H1341.56V314.229H1345.34V310.455Z" fill="#56EBFF"/>
<path d="M1318.95 386.929H1315.17C1314.83 386.929 1314.54 387.212 1314.54 387.558C1314.54 387.904 1314.83 388.187 1315.17 388.187H1318.95C1319.29 388.187 1319.58 387.904 1319.58 387.558C1319.58 387.212 1319.29 386.929 1318.95 386.929Z" fill="#56EBFF"/>
<path d="M1304.06 386.929H1270.89C1270.55 386.929 1270.26 387.212 1270.26 387.558C1270.26 387.904 1270.55 388.187 1270.89 388.187H1304.06C1304.41 388.187 1304.69 387.904 1304.69 387.558C1304.69 387.212 1304.41 386.929 1304.06 386.929Z" fill="#56EBFF"/>
<path d="M1285.99 353.036H1331.74C1332.08 353.036 1332.37 352.753 1332.37 352.407C1332.37 352.061 1332.08 351.778 1331.74 351.778H1285.99C1285.64 351.778 1285.36 352.061 1285.36 352.407C1285.36 352.753 1285.64 353.036 1285.99 353.036Z" fill="#56EBFF"/>
<path d="M1291.02 201.99H1336.77C1337.12 201.99 1337.4 201.707 1337.4 201.361C1337.4 201.015 1337.12 200.732 1336.77 200.732H1291.02C1290.67 200.732 1290.39 201.015 1290.39 201.361C1290.39 201.707 1290.67 201.99 1291.02 201.99Z" fill="#56EBFF"/>
<path d="M1386.77 402.927H1263.47C1256.69 402.927 1251.06 398.044 1249.87 391.604C1249.72 392.421 1249.63 393.26 1249.63 394.12C1249.63 401.763 1255.83 407.958 1263.47 407.958H1386.77C1394.41 407.958 1400.61 401.763 1400.61 394.12C1400.61 393.259 1400.52 392.421 1400.37 391.604C1399.18 398.044 1393.55 402.927 1386.77 402.927H1386.77Z" fill="#56EBFF"/>
<path d="M1626.19 301.247H1561.47C1565.11 333.316 1564.27 366.253 1556.49 398.322H1631.17C1623.39 366.253 1622.54 333.316 1626.19 301.247Z" fill="#212121"/>
<path d="M1624.97 315.326C1625.24 310.828 1625.62 306.205 1626.19 301.247H1561.47C1562.03 306.204 1562.42 310.827 1562.68 315.326C1581.44 302.448 1606.22 302.448 1624.97 315.326Z" fill="#56EBFF"/>
<path d="M1570.87 328.309H1570.88C1571.23 328.299 1571.5 328.012 1571.49 327.667C1571.42 325.372 1571.32 323.068 1571.2 320.754C1571.19 320.411 1570.93 320.175 1570.55 320.163C1570.21 320.182 1569.94 320.474 1569.96 320.817C1570.08 323.121 1570.17 325.421 1570.24 327.706C1570.25 328.042 1570.53 328.309 1570.87 328.309Z" fill="#56EBFF"/>
<path d="M1571 338.689H1571C1570.65 338.689 1570.38 338.964 1570.37 339.306C1570.26 353.295 1569.15 367.045 1567.08 380.178C1567.03 380.518 1567.26 380.838 1567.6 380.891C1567.63 380.896 1567.67 380.898 1567.7 380.898C1568 380.898 1568.26 380.678 1568.31 380.372C1570.39 367.178 1571.51 353.365 1571.62 339.315C1571.62 338.972 1571.34 338.69 1571 338.688V338.689Z" fill="#56EBFF"/>
<path d="M1638.63 281.335H1549.02C1546.27 281.335 1544.05 283.564 1544.05 286.313C1544.05 289.062 1546.27 291.291 1549.02 291.291H1555.87V295.647C1555.87 298.74 1558.38 301.247 1561.47 301.247H1626.19C1629.28 301.247 1631.79 298.74 1631.79 295.647V291.291H1638.63C1641.38 291.291 1643.61 289.062 1643.61 286.313C1643.61 283.564 1641.38 281.335 1638.63 281.335Z" fill="#212121"/>
<path d="M1628.68 216.618V239.02H1606.27V216.618H1581.38V239.02H1558.98V216.618H1539.07L1545.25 264.035C1545.99 269.659 1550.78 273.867 1556.45 273.867H1631.21C1636.88 273.867 1641.67 269.659 1642.4 264.035L1648.59 216.618H1628.68Z" fill="#212121"/>
<path d="M1639.82 216.618L1634.94 254.079C1634.2 259.703 1629.41 263.911 1623.74 263.911H1548.98C1547.64 263.911 1546.35 263.659 1545.15 263.223L1545.25 264.035C1545.99 269.659 1550.78 273.867 1556.45 273.867H1631.21C1636.88 273.867 1641.67 269.659 1642.4 264.035L1648.59 216.618H1639.82Z" fill="#56EBFF"/>
<path d="M1631.17 273.867H1556.49V281.334H1631.17V273.867Z" fill="#56EBFF"/>
<path d="M1649.83 438.148H1646.88C1650.91 435.473 1653.57 430.9 1653.57 425.703C1653.57 417.455 1646.88 410.769 1638.63 410.769V404.754C1638.63 401.203 1635.75 398.324 1632.2 398.324H1555.46C1551.9 398.324 1549.03 401.203 1549.03 404.754V410.769C1540.78 410.769 1534.09 417.455 1534.09 425.703C1534.09 430.901 1536.75 435.474 1540.78 438.148H1537.82C1531.64 438.148 1526.62 443.163 1526.62 449.349C1526.62 455.535 1531.64 460.55 1537.82 460.55H1649.83C1656.02 460.55 1661.03 455.535 1661.03 449.349C1661.03 443.163 1656.02 438.148 1649.83 438.148Z" fill="#212121"/>
<path d="M1649.83 438.148H1597.56C1603.75 438.148 1608.76 443.163 1608.76 449.349C1608.76 455.535 1603.75 460.55 1597.56 460.55H1649.83C1656.02 460.55 1661.03 455.535 1661.03 449.349C1661.03 443.163 1656.02 438.148 1649.83 438.148Z" fill="#56EBFF"/>
<path d="M1595.86 444.725H1592.13C1591.79 444.725 1591.51 445.005 1591.51 445.347C1591.51 445.689 1591.79 445.969 1592.13 445.969H1595.86C1596.21 445.969 1596.48 445.689 1596.48 445.347C1596.48 445.005 1596.2 444.725 1595.86 444.725Z" fill="#56EBFF"/>
<path d="M1581.13 444.725H1543.35C1543 444.725 1542.72 445.005 1542.72 445.347C1542.72 445.689 1543 445.969 1543.35 445.969H1581.13C1581.48 445.969 1581.76 445.689 1581.76 445.347C1581.76 445.005 1581.48 444.725 1581.13 444.725Z" fill="#56EBFF"/>
<path d="M1553.3 418.676H1603.54C1603.88 418.676 1604.16 418.396 1604.16 418.054C1604.16 417.712 1603.88 417.432 1603.54 417.432H1553.3C1552.96 417.432 1552.68 417.712 1552.68 418.054C1552.68 418.396 1552.96 418.676 1553.3 418.676Z" fill="#56EBFF"/>
<path d="M1651.1 436.592C1653.7 433.612 1655.18 429.764 1655.18 425.702C1655.18 417.121 1648.62 410.043 1640.25 409.229V404.752C1640.25 400.409 1636.78 396.879 1632.47 396.731C1625.62 367.785 1624 336.17 1627.67 302.709C1630.94 302.021 1633.4 299.117 1633.4 295.648V292.911H1638.63C1642.27 292.911 1645.23 289.95 1645.23 286.314C1645.23 282.678 1642.27 279.717 1638.63 279.717H1632.78V275.341C1638.54 274.625 1643.24 270.122 1644.01 264.245L1650.19 216.828C1650.25 216.366 1650.11 215.902 1649.8 215.552C1649.5 215.202 1649.05 215 1648.59 215H1628.67C1627.78 215 1627.06 215.724 1627.06 216.619V237.402H1607.89V216.619C1607.89 215.724 1607.17 215 1606.27 215H1581.38C1580.49 215 1579.76 215.724 1579.76 216.619V237.402H1560.6V216.619C1560.6 215.724 1559.87 215 1558.98 215H1539.07C1538.6 215 1538.16 215.202 1537.85 215.552C1537.54 215.902 1537.4 216.366 1537.46 216.828L1543.65 264.245C1544.41 270.122 1549.12 274.625 1554.87 275.341V279.717H1549.02C1545.38 279.717 1542.42 282.678 1542.42 286.314C1542.42 289.95 1545.38 292.911 1549.02 292.911H1554.25V295.648C1554.25 299.117 1556.71 302.021 1559.98 302.709C1563.65 336.172 1562.03 367.79 1555.18 396.731C1550.87 396.879 1547.4 400.409 1547.4 404.752V409.229C1539.03 410.043 1532.47 417.122 1532.47 425.702C1532.47 429.764 1533.95 433.612 1536.55 436.592C1530.08 437.229 1525 442.705 1525 449.349C1525 456.418 1530.75 462.169 1537.82 462.169H1649.83C1656.9 462.169 1662.65 456.418 1662.65 449.349C1662.65 442.706 1657.57 437.229 1651.09 436.592H1651.1ZM1546.86 263.826L1540.91 218.237H1557.36V239.02C1557.36 239.915 1558.09 240.639 1558.98 240.639H1581.38C1582.28 240.639 1583 239.915 1583 239.02V218.237H1604.66V239.02C1604.66 239.915 1605.38 240.639 1606.28 240.639H1628.68C1629.57 240.639 1630.3 239.915 1630.3 239.02V218.237H1646.75L1640.8 263.826C1640.18 268.629 1636.05 272.249 1631.21 272.249H1556.45C1551.61 272.249 1547.49 268.63 1546.86 263.826H1546.86ZM1558.11 275.486H1629.55V279.716H1558.11V275.486ZM1557.49 295.647V291.291C1557.49 290.397 1556.76 289.672 1555.87 289.672H1549.02C1547.17 289.672 1545.66 288.165 1545.66 286.313C1545.66 284.461 1547.17 282.954 1549.02 282.954H1638.63C1640.49 282.954 1641.99 284.461 1641.99 286.313C1641.99 288.165 1640.49 289.672 1638.63 289.672H1589.46C1588.57 289.672 1587.85 290.396 1587.85 291.291C1587.85 292.186 1588.57 292.91 1589.46 292.91H1630.17V295.647C1630.17 297.842 1628.38 299.628 1626.19 299.628H1561.47C1559.27 299.628 1557.49 297.841 1557.49 295.647H1557.49ZM1563.28 302.866H1624.38C1621.16 332.606 1622.08 360.923 1627.11 387.236C1628.05 392.154 1624.3 396.703 1619.3 396.703H1568.36C1563.36 396.703 1559.61 392.154 1560.55 387.236C1565.58 360.925 1566.5 332.61 1563.28 302.866ZM1649.83 458.93H1537.83C1532.54 458.93 1528.24 454.632 1528.24 449.348C1528.24 444.064 1532.54 439.766 1537.83 439.766H1540.78C1541.49 439.766 1542.12 439.297 1542.33 438.614C1542.53 437.931 1542.26 437.195 1541.67 436.798C1537.94 434.321 1535.71 430.172 1535.71 425.702C1535.71 418.359 1541.68 412.386 1549.02 412.386C1549.92 412.386 1550.64 411.662 1550.64 410.767V404.751C1550.64 402.099 1552.8 399.941 1555.46 399.941H1632.2C1634.86 399.941 1637.02 402.099 1637.02 404.751V409.148H1583.37C1582.48 409.148 1581.76 409.872 1581.76 410.767C1581.76 411.662 1582.48 412.386 1583.37 412.386H1638.63C1645.98 412.386 1651.95 418.358 1651.95 425.702C1651.95 430.022 1649.85 434.028 1646.34 436.529H1573.42C1572.52 436.529 1571.8 437.253 1571.8 438.148C1571.8 439.043 1572.52 439.767 1573.42 439.767H1649.83C1655.12 439.767 1659.42 444.065 1659.42 449.349C1659.42 454.633 1655.12 458.931 1649.83 458.931L1649.83 458.93Z" fill="#56EBFF"/>
<path d="M1561.33 436.529H1555.99C1555.1 436.529 1554.37 437.253 1554.37 438.148C1554.37 439.043 1555.1 439.767 1555.99 439.767H1561.33C1562.23 439.767 1562.95 439.043 1562.95 438.148C1562.95 437.253 1562.23 436.529 1561.33 436.529Z" fill="#56EBFF"/>
<path d="M1572.91 410.768C1572.91 409.873 1572.18 409.149 1571.29 409.149H1565.95C1565.05 409.149 1564.33 409.873 1564.33 410.768C1564.33 411.663 1565.05 412.387 1565.95 412.387H1571.29C1572.18 412.387 1572.91 411.663 1572.91 410.768Z" fill="#56EBFF"/>
<path d="M1570.22 292.91H1575.93C1576.82 292.91 1577.55 292.186 1577.55 291.291C1577.55 290.396 1576.82 289.672 1575.93 289.672H1570.22C1569.33 289.672 1568.61 290.396 1568.61 291.291C1568.61 292.186 1569.33 292.91 1570.22 292.91Z" fill="#56EBFF"/>
<path d="M1571.06 248.665H1559.85C1559.51 248.665 1559.23 248.944 1559.23 249.287C1559.23 249.63 1559.51 249.909 1559.85 249.909H1571.06C1571.4 249.909 1571.68 249.63 1571.68 249.287C1571.68 248.944 1571.4 248.665 1571.06 248.665Z" fill="#56EBFF"/>
<path d="M1649.83 455.571H1537.82C1532.5 455.571 1528.06 451.843 1526.92 446.859C1526.74 447.662 1526.62 448.49 1526.62 449.348C1526.62 455.534 1531.64 460.549 1537.82 460.549H1649.83C1656.02 460.549 1661.03 455.534 1661.03 449.348C1661.03 448.489 1660.92 447.662 1660.74 446.859C1659.6 451.843 1655.16 455.571 1649.83 455.571Z" fill="#56EBFF"/>
<path d="M221.42 469.077H218.281C222.563 466.233 225.389 461.371 225.389 455.845C225.389 447.076 218.28 439.967 209.511 439.967V433.572C209.511 429.796 206.45 426.736 202.675 426.736H126.373C122.597 426.736 119.537 429.797 119.537 433.572V439.967C110.768 439.967 103.659 447.076 103.659 455.845C103.659 461.371 106.485 466.233 110.767 469.077H107.628C101.051 469.077 95.7197 474.409 95.7197 480.985C95.7197 487.561 101.051 492.893 107.628 492.893H221.42C227.997 492.893 233.328 487.561 233.328 480.985C233.328 474.409 227.996 469.077 221.42 469.077Z" fill="#212121"/>
<path d="M221.42 469.077H165.847C172.424 469.077 177.755 474.409 177.755 480.985C177.755 487.561 172.423 492.893 165.847 492.893H221.42C227.997 492.893 233.328 487.561 233.328 480.985C233.328 474.409 227.996 469.077 221.42 469.077Z" fill="#D2FF00"/>
<path d="M196.28 433.572V439.967H209.511V433.572C209.511 429.796 206.45 426.736 202.675 426.736H189.443C193.219 426.736 196.279 429.797 196.279 433.572H196.28Z" fill="#D2FF00"/>
<path d="M183.879 469.078H218.281C222.563 466.234 225.389 461.372 225.389 455.846C225.389 447.077 218.28 439.968 209.511 439.968H175.109C183.878 439.968 190.987 447.077 190.987 455.846C190.987 461.372 188.161 466.234 183.879 469.078Z" fill="#D2FF00"/>
<path d="M204.219 312.944H196.942V308.313C196.942 305.024 194.276 302.359 190.988 302.359H138.062C134.774 302.359 132.108 305.025 132.108 308.313V312.944H124.831C120.447 312.944 116.892 316.498 116.892 320.883C116.892 325.268 120.446 328.822 124.831 328.822H132.108V333.453C132.108 336.741 134.774 339.407 138.062 339.407H190.988C194.276 339.407 196.942 336.741 196.942 333.453V328.822H204.219C208.604 328.822 212.158 325.268 212.158 320.883C212.158 316.498 208.604 312.944 204.219 312.944Z" fill="#212121"/>
<path d="M204.219 312.944H196.942V308.313C196.942 305.024 194.276 302.359 190.988 302.359H172.464C175.752 302.359 178.418 305.025 178.418 308.313V312.944H185.695C190.08 312.944 193.634 316.498 193.634 320.883C193.634 325.268 190.08 328.822 185.695 328.822H178.418V333.453C178.418 336.741 175.752 339.407 172.464 339.407H190.988C194.276 339.407 196.942 336.741 196.942 333.453V328.822H204.219C208.604 328.822 212.158 325.268 212.158 320.883C212.158 316.498 208.604 312.944 204.219 312.944Z" fill="#D2FF00"/>
<path d="M190.987 339.407H138.061C138.463 368.256 136.508 397.886 127.476 426.735H201.573C192.541 397.886 190.585 368.256 190.988 339.407H190.987Z" fill="#212121"/>
<path d="M145.785 361.466C145.357 361.496 145.112 361.737 145.098 362.102C145.041 363.553 144.977 365.024 144.899 366.512C144.88 366.878 145.16 367.189 145.524 367.207C145.536 367.208 145.547 367.208 145.559 367.208C145.909 367.208 146.201 366.934 146.219 366.581C146.296 365.085 146.364 363.609 146.421 362.153C146.435 361.787 146.151 361.481 145.785 361.466Z" fill="#D2FF00"/>
<path d="M144.831 377.216C144.449 377.199 144.146 377.454 144.114 377.817C143.233 387.894 141.863 397.632 140.043 406.76C139.972 407.118 140.204 407.467 140.562 407.538C140.606 407.547 140.649 407.551 140.692 407.551C141.001 407.551 141.277 407.334 141.339 407.019C143.17 397.844 144.546 388.058 145.431 377.934C145.463 377.57 145.193 377.249 144.83 377.217L144.831 377.216Z" fill="#D2FF00"/>
<path d="M138.014 355.285C153.821 343.8 175.227 343.8 191.034 355.285C190.933 349.902 190.914 344.668 190.987 339.407H138.061C138.134 344.668 138.115 349.901 138.014 355.285Z" fill="#D2FF00"/>
<path d="M178.873 360.578H174.904V364.548H178.873V360.578Z" fill="#D2FF00"/>
<path d="M179.443 371.163H175.474V375.132H179.443V371.163Z" fill="#D2FF00"/>
<path d="M180.321 381.748H176.352V385.717H180.321V381.748Z" fill="#D2FF00"/>
<path d="M181.617 392.333H177.648V396.302H181.617V392.333Z" fill="#D2FF00"/>
<path d="M183.338 402.919H179.369V406.889H183.338V402.919Z" fill="#D2FF00"/>
<path d="M185.578 413.504H181.609V417.473H185.578V413.504Z" fill="#D2FF00"/>
<path d="M156.585 201.8L133.454 234.456C120.606 252.594 121.741 277.145 136.206 294.022L143.354 302.361H185.695L192.843 294.022C207.308 277.146 208.442 252.594 195.595 234.456L172.464 201.8H156.585Z" fill="#212121"/>
<path d="M153.195 220.319C152.902 220.112 152.484 220.177 152.273 220.477L147.897 226.656C147.686 226.954 147.756 227.367 148.055 227.579C148.171 227.66 148.304 227.7 148.437 227.7C148.644 227.7 148.848 227.603 148.977 227.421L153.353 221.242C153.564 220.944 153.494 220.53 153.195 220.319Z" fill="#D2FF00"/>
<path d="M139.393 238.66C131.993 249.107 129.862 262.118 133.55 274.353C133.637 274.639 133.899 274.823 134.183 274.823C134.246 274.823 134.31 274.814 134.374 274.795C134.723 274.69 134.922 274.321 134.816 273.971C131.248 262.13 133.309 249.538 140.473 239.425C140.684 239.127 140.614 238.714 140.315 238.502C140.02 238.298 139.607 238.361 139.393 238.66Z" fill="#D2FF00"/>
<path d="M195.594 234.455L172.463 201.8H162.209L179.716 226.516C192.564 244.654 191.429 269.206 176.964 286.082C172.427 291.375 165.805 294.421 158.834 294.421H136.549L143.354 302.36H185.695L192.843 294.021C207.308 277.145 208.442 252.593 195.595 234.455H195.594Z" fill="#D2FF00"/>
<path d="M174.01 203.953C181.043 198.715 182.499 188.768 177.262 181.735C172.024 174.701 162.077 173.245 155.044 178.483C148.01 183.72 146.554 193.668 151.792 200.701C157.029 207.734 166.976 209.19 174.01 203.953Z" fill="#212121"/>
<path d="M169.203 176.04C171.111 178.458 172.297 181.471 172.297 184.79C172.297 192.632 165.94 198.989 158.098 198.989C154.779 198.989 151.766 197.803 149.348 195.895C151.345 202.38 157.383 207.094 164.523 207.094C173.292 207.094 180.401 199.985 180.401 191.216C180.401 184.076 175.687 178.039 169.202 176.041L169.203 176.04Z" fill="#D2FF00"/>
<path d="M222.762 467.422C225.537 464.254 227.111 460.163 227.111 455.844C227.111 446.721 220.131 439.196 211.231 438.33V433.57C211.231 428.918 207.492 425.135 202.863 425.032C193.376 394.004 192.447 362.505 192.692 340.921C196.103 340.141 198.661 337.095 198.661 333.452V330.542H204.218C209.544 330.542 213.877 326.208 213.877 320.882C213.877 315.556 209.544 311.222 204.218 311.222H198.661V308.312C198.661 304.082 195.219 300.637 190.987 300.637H189.435L194.149 295.138C209.151 277.637 210.323 252.272 196.998 233.459L176.306 204.248C179.867 201.025 182.122 196.383 182.122 191.213C182.122 181.509 174.228 173.614 164.524 173.614C154.82 173.614 146.926 181.509 146.926 191.213C146.926 196.383 149.18 201.025 152.741 204.247L132.051 233.458C118.725 252.272 119.897 277.636 134.9 295.137L139.613 300.636H138.061C133.829 300.636 130.387 304.081 130.387 308.311V311.221H124.83C119.504 311.221 115.171 315.555 115.171 320.881C115.171 326.207 119.503 330.541 124.83 330.541H130.387V333.451C130.387 337.094 132.945 340.141 136.356 340.92C136.603 362.504 135.675 394.003 126.185 425.031C121.556 425.134 117.817 428.917 117.817 433.568V438.328C108.918 439.194 101.939 446.719 101.939 455.842C101.939 460.16 103.511 464.251 106.284 467.42C99.398 468.097 94 473.92 94 480.982C94 488.497 100.113 494.612 107.628 494.612H221.421C228.936 494.612 235.05 488.498 235.05 480.982C235.05 473.919 229.649 468.097 222.762 467.42V467.422ZM150.366 191.213C150.366 183.406 156.717 177.056 164.524 177.056C172.331 177.056 178.682 183.406 178.682 191.213C178.682 199.02 172.331 205.37 164.524 205.37C156.717 205.37 150.366 199.02 150.366 191.213ZM137.513 292.9C123.562 276.621 122.468 252.94 134.86 235.445L152.843 210.057C154.278 208.03 156.855 207.225 159.22 207.984C160.893 208.52 162.674 208.813 164.524 208.813C166.374 208.813 168.155 208.521 169.828 207.984C172.193 207.226 174.769 208.031 176.205 210.057L194.192 235.449C206.603 252.973 205.511 276.599 191.537 292.9V292.902C187.327 297.812 181.183 300.638 174.716 300.638H154.336C147.868 300.638 141.723 297.812 137.514 292.901L137.513 292.9ZM133.827 333.453V328.822C133.827 327.871 133.057 327.101 132.107 327.101H124.83C121.401 327.101 118.611 324.313 118.611 320.883C118.611 317.453 121.401 314.665 124.83 314.665H132.107C133.057 314.665 133.827 313.895 133.827 312.944V308.313C133.827 305.979 135.726 304.08 138.061 304.08H190.987C193.322 304.08 195.221 305.98 195.221 308.313V311.223H158.616C157.666 311.223 156.896 311.993 156.896 312.944C156.896 313.895 157.666 314.665 158.616 314.665H204.218C207.647 314.665 210.437 317.453 210.437 320.883C210.437 324.313 207.647 327.101 204.218 327.101H148.03C147.08 327.101 146.31 327.871 146.31 328.822C146.31 329.773 147.08 330.543 148.03 330.543H195.221V333.453C195.221 335.787 193.322 337.686 190.987 337.686H138.061C135.726 337.686 133.827 335.787 133.827 333.453ZM139.803 341.128H189.246C189.037 360.384 189.761 387.392 196.534 415.032C197.777 420.104 194.017 425.015 188.795 425.015H140.254C135.032 425.015 131.273 420.104 132.516 415.032C139.29 387.391 140.013 360.385 139.803 341.129V341.128ZM107.629 470.797H110.768C111.526 470.797 112.196 470.298 112.414 469.572C112.634 468.846 112.351 468.063 111.719 467.642C107.75 465.009 105.38 460.597 105.38 455.845C105.38 448.038 111.731 441.688 119.538 441.688C120.488 441.688 121.258 440.918 121.258 439.967V433.571C121.258 430.752 123.554 428.457 126.375 428.457H202.677C205.498 428.457 207.793 430.752 207.793 433.571V438.251H159.503C158.553 438.251 157.783 439.021 157.783 439.972C157.783 440.923 158.553 441.693 159.503 441.693H209.564C217.347 441.721 223.671 448.055 223.671 455.845C223.671 460.438 221.443 464.697 217.711 467.355H149.356C148.406 467.355 147.636 468.125 147.636 469.076C147.636 470.027 148.406 470.797 149.356 470.797H221.423C227.041 470.797 231.61 475.366 231.61 480.984C231.61 481.325 231.542 481.648 231.509 481.98C229.412 485.351 225.686 487.6 221.422 487.6H107.63C103.365 487.6 99.639 485.351 97.541 481.978C97.508 481.646 97.441 481.324 97.441 480.984C97.441 475.366 102.01 470.797 107.629 470.797Z" fill="#D2FF00"/>
<path d="M128.404 470.798H134.137C135.087 470.798 135.857 470.028 135.857 469.077C135.857 468.126 135.087 467.356 134.137 467.356H128.404C127.454 467.356 126.684 468.126 126.684 469.077C126.684 470.028 127.454 470.798 128.404 470.798Z" fill="#D2FF00"/>
<path d="M138.55 441.693H144.284C145.234 441.693 146.004 440.923 146.004 439.972C146.004 439.021 145.234 438.251 144.284 438.251H138.55C137.6 438.251 136.83 439.021 136.83 439.972C136.83 440.923 137.6 441.693 138.55 441.693Z" fill="#D2FF00"/>
<path d="M142.738 314.666H147.7C148.65 314.666 149.42 313.896 149.42 312.945C149.42 311.994 148.65 311.224 147.7 311.224H142.738C141.788 311.224 141.018 311.994 141.018 312.945C141.018 313.896 141.788 314.666 142.738 314.666Z" fill="#D2FF00"/>
<path d="M164.04 476.068H160.071C159.707 476.068 159.409 476.365 159.409 476.729C159.409 477.093 159.706 477.391 160.071 477.391H164.04C164.404 477.391 164.701 477.094 164.701 476.729C164.701 476.364 164.404 476.068 164.04 476.068Z" fill="#D2FF00"/>
<path d="M148.381 476.068H113.498C113.134 476.068 112.836 476.365 112.836 476.729C112.836 477.093 113.133 477.391 113.498 477.391H148.381C148.745 477.391 149.043 477.094 149.043 476.729C149.043 476.364 148.746 476.068 148.381 476.068Z" fill="#D2FF00"/>
<path d="M124.084 448.375H172.198C172.562 448.375 172.86 448.078 172.86 447.713C172.86 447.348 172.563 447.051 172.198 447.051H124.084C123.72 447.051 123.422 447.348 123.422 447.713C123.422 448.078 123.719 448.375 124.084 448.375Z" fill="#D2FF00"/>
<path d="M129.376 321.335H177.49C177.854 321.335 178.152 321.038 178.152 320.673C178.152 320.308 177.855 320.011 177.49 320.011H129.376C129.012 320.011 128.714 320.308 128.714 320.673C128.714 321.038 129.011 321.335 129.376 321.335Z" fill="#D2FF00"/>
</svg>
