<svg width="359" height="134" viewBox="0 0 359 134" fill="none" xmlns="http://www.w3.org/2000/svg">
<g clip-path="url(#clip0_632_3)">
<path d="M5.58121 106.044L-9.85547 118.862H49.6019L59.8926 106.044H5.58121Z" fill="#212121"/>
<path d="M118.516 95.2646H68.5459L59.8926 106.043H114.188L118.516 95.2646Z" fill="#212121"/>
<path d="M-30 95.2646V106.043H5.58124L18.5618 95.2646H-30Z" fill="#212121"/>
<path d="M37.1543 134.369H102.818L109.044 118.862H49.6029L37.1543 134.369Z" fill="#212121"/>
<path d="M168.5 134.369H234.164L227.941 118.862H168.5V134.369Z" fill="#212121"/>
<path d="M366.999 118.862V106.044H331.418L346.855 118.862H366.999Z" fill="#212121"/>
<path d="M114.189 106.044L109.043 118.862H168.5V106.044H114.189Z" fill="#212121"/>
<path d="M318.437 95.2646H268.453L277.106 106.043H331.418L318.437 95.2646Z" fill="#212121"/>
<path d="M287.398 118.862L299.847 134.369H365.53L346.856 118.862H287.398Z" fill="#212121"/>
<path d="M218.47 95.2646H168.5V106.043H222.796L218.47 95.2646Z" fill="#212121"/>
<path d="M222.797 106.044L227.941 118.862H287.399L277.108 106.044H222.797Z" fill="#212121"/>
<path d="M277.107 106.044L287.398 118.862H346.856L331.419 106.044H277.107Z" fill="#F9F8F4"/>
<path d="M-28.5293 134.369H37.1533L49.6018 118.862H-9.85549L-28.5293 134.369Z" fill="#F9F8F4"/>
<path d="M68.5467 95.2646H18.5626L5.58203 106.043H59.8935L68.5467 95.2646Z" fill="#F9F8F4"/>
<path d="M234.165 134.369H299.847L287.399 118.862H227.941L234.165 134.369Z" fill="#F9F8F4"/>
<path d="M102.816 134.369H168.499V118.862H109.042L102.816 134.369Z" fill="#F9F8F4"/>
<path d="M346.855 118.862L365.529 134.369H367V118.862H346.855Z" fill="#F9F8F4"/>
<path d="M-30 106.044V118.862H-9.85543L5.58125 106.044H-30Z" fill="#F9F8F4"/>
<path d="M59.8923 106.044L49.6016 118.862H109.042L114.188 106.044H59.8923Z" fill="#F9F8F4"/>
<path d="M268.453 95.2646H218.469L222.795 106.043H277.106L268.453 95.2646Z" fill="#F9F8F4"/>
<path d="M168.5 106.044V118.862H227.941L222.796 106.044H168.5Z" fill="#F9F8F4"/>
<path d="M367 95.2646H318.438L331.418 106.043H367V95.2646Z" fill="#F9F8F4"/>
<path d="M168.501 95.2646H118.517L114.189 106.043H168.501V95.2646Z" fill="#F9F8F4"/>
<path d="M49.634 40.4241H47.7508V39.2256C47.7508 38.3746 47.061 37.6846 46.2098 37.6846H29.7733C28.9224 37.6846 28.2326 38.3744 28.2326 39.2256V40.4241H26.3494C25.2147 40.4241 24.2949 41.3439 24.2949 42.4786C24.2949 43.6133 25.2147 44.533 26.3494 44.533H28.2326V45.7316C28.2326 46.5825 28.9224 47.2726 29.7733 47.2726H46.2098C47.0607 47.2726 47.7508 46.5828 47.7508 45.7316V44.533H49.634C50.7687 44.533 51.6884 43.6133 51.6884 42.4786C51.6884 41.3439 50.7687 40.4241 49.634 40.4241Z" fill="#212121"/>
<path d="M49.634 40.4241H47.7508V39.2256C47.7508 38.3746 47.061 37.6846 46.2098 37.6846H39.3613C40.2123 37.6846 40.9023 38.3744 40.9023 39.2256V40.4241H42.7855C43.9202 40.4241 44.84 41.3439 44.84 42.4786C44.84 43.6133 43.9202 44.533 42.7855 44.533H40.9023V45.7316C40.9023 46.5825 40.2125 47.2726 39.3613 47.2726H46.2098C47.0607 47.2726 47.7508 46.5828 47.7508 45.7316V44.533H49.634C50.7687 44.533 51.6884 43.6133 51.6884 42.4786C51.6884 41.3439 50.7687 40.4241 49.634 40.4241Z" fill="#D2FF00"/>
<path d="M54.7695 101.375H21.212C19.1317 101.375 17.4453 99.6887 17.4453 97.6085C17.4453 95.5282 19.1317 93.8418 21.212 93.8418H54.7695C56.8497 93.8418 58.5361 95.5282 58.5361 97.6085C58.5361 99.6887 56.8497 101.375 54.7695 101.375Z" fill="#212121"/>
<path d="M50.661 84.2539H25.322C22.4852 84.2539 20.1855 86.5535 20.1855 89.3902C20.1855 92.2269 22.4852 94.5265 25.322 94.5265H50.661C53.4978 94.5265 55.7975 92.2269 55.7975 89.3902C55.7975 86.5535 53.4978 84.2539 50.661 84.2539Z" fill="#212121"/>
<path d="M26.7477 80.8301H49.2335C50.21 80.8301 51.0027 81.6228 51.0027 82.5993V84.2543H24.9785V82.5993C24.9785 81.6228 25.7713 80.8301 26.7477 80.8301Z" fill="#212121"/>
<path d="M54.7702 93.8418H38.334C40.4142 93.8418 42.1006 95.5282 42.1006 97.6085C42.1006 99.6887 40.4142 101.375 38.334 101.375H54.7702C56.8504 101.375 58.5368 99.6887 58.5368 97.6085C58.5368 95.5282 56.8504 93.8418 54.7702 93.8418Z" fill="#D2FF00"/>
<path d="M50.66 84.2539H41.0723C43.9091 84.2539 46.2087 86.5535 46.2087 89.3904C46.2087 92.2272 43.9091 94.5268 41.0723 94.5268H50.66C53.4969 94.5268 55.7965 92.2272 55.7965 89.3904C55.7965 86.5535 53.4969 84.2539 50.66 84.2539Z" fill="#D2FF00"/>
<path d="M49.2341 80.8301H45.125C46.102 80.8301 46.8942 81.6221 46.8942 82.5993V84.2543H51.0033V82.5993C51.0033 81.6221 50.2113 80.8301 49.2341 80.8301Z" fill="#D2FF00"/>
<path d="M46.2087 47.2725H29.7725C31.9237 58.0851 32.0321 70.0174 27.0332 80.83H48.9483C43.9494 70.0174 44.0577 58.0851 46.209 47.2725H46.2087Z" fill="#212121"/>
<path d="M45.5694 50.9426C45.7311 49.8243 45.9409 48.6258 46.2099 47.2725H29.7734C30.0427 48.6263 30.2522 49.8243 30.4139 50.9426C35.0239 47.9674 40.9594 47.9674 45.5694 50.9426Z" fill="#D2FF00"/>
<path d="M44.8394 35.6299H31.1426V37.6843H44.8394V35.6299Z" fill="#D2FF00"/>
<path d="M45.035 35.6305H30.9475C30.3179 35.6305 29.7976 35.1301 29.7868 34.5005C29.6713 27.7596 26.128 21.4305 24.7948 19.2822C24.515 18.8315 24.6083 18.2377 25.0264 17.9115C32.6413 11.9722 43.3414 11.9722 50.9558 17.9115C51.3741 18.2377 51.4672 18.8315 51.1874 19.2822C49.8543 21.4305 46.3104 27.7594 46.1954 34.5005C46.1846 35.1298 45.6643 35.6305 45.0347 35.6305H45.035Z" fill="#212121"/>
<path d="M33.1142 57.092C33.0241 57.092 32.9491 57.0217 32.943 56.9316C32.8936 56.1104 32.8265 55.2709 32.745 54.4357C32.7357 54.3414 32.8044 54.2579 32.8988 54.2485C33.0037 54.2358 33.0766 54.3087 33.086 54.4023C33.1683 55.2417 33.2351 56.0855 33.2852 56.9102C33.2906 57.0053 33.2189 57.0861 33.1248 57.092H33.1142Z" fill="#D2FF00"/>
<path d="M31.4056 75.0157C31.3901 75.0157 31.3749 75.0137 31.3601 75.0098C31.2685 74.9842 31.2157 74.8901 31.2405 74.799C32.4209 70.5454 33.0335 65.9502 33.0623 61.1395C33.063 61.0459 33.1392 60.9697 33.2335 60.9697H33.2347C33.3291 60.9705 33.4052 61.0474 33.4045 61.1422C33.3757 65.9821 32.7584 70.6076 31.5707 74.8899C31.5493 74.966 31.4805 75.0157 31.4056 75.0157Z" fill="#D2FF00"/>
<path d="M31.4051 30.501C31.3243 30.501 31.2526 30.4435 31.2366 30.3612C30.4674 26.2823 28.8203 22.6559 27.5729 20.3327C27.5286 20.2492 27.5596 20.1455 27.6431 20.1006C27.7254 20.0578 27.8291 20.0871 27.8753 20.1708C29.1333 22.5156 30.7959 26.1759 31.5736 30.2985C31.5911 30.3914 31.5294 30.4803 31.4366 30.4985C31.4257 30.5005 31.4152 30.501 31.4051 30.501Z" fill="#D2FF00"/>
<path d="M50.9557 17.9116C50.0087 17.1729 49.0135 16.5266 47.9827 15.9717C46.2671 18.8871 42.9445 25.3988 42.8266 32.3081C42.8146 33.0144 42.2307 33.5762 41.5242 33.5762H29.7422C29.7613 33.8838 29.7812 34.1913 29.7867 34.5009C29.7975 35.1302 30.3178 35.6309 30.9474 35.6309H45.0348C45.6645 35.6309 46.1848 35.1302 46.1956 34.5009C46.3108 27.7598 49.8544 21.4309 51.1876 19.2826C51.4674 18.8319 51.374 18.2381 50.9559 17.9119L50.9557 17.9116Z" fill="#D2FF00"/>
<path d="M42.7845 5.23907H40.0452V2.49974C40.0452 1.36505 39.1254 0.445312 37.9908 0.445312C36.8561 0.445312 35.9363 1.36505 35.9363 2.49974V5.23907H33.197C32.0623 5.23907 31.1426 6.15881 31.1426 7.2935C31.1426 8.42819 32.0623 9.34793 33.197 9.34793H35.9363V13.457H40.0454V9.34793H42.7848C43.9195 9.34793 44.8392 8.42819 44.8392 7.2935C44.8392 6.15881 43.9192 5.23907 42.7845 5.23907Z" fill="#212121"/>
<path d="M54.77 93.3969H54.5394C55.6121 92.3575 56.2427 90.9135 56.2427 89.3907C56.2427 86.6045 54.1682 84.2557 51.4487 83.8705V82.5993C51.4487 81.3811 50.4585 80.3896 49.2408 80.3857C45.0499 71.1558 44.1569 60.156 46.5874 47.6801C47.502 47.5027 48.1958 46.6975 48.1958 45.732V44.9791H49.6336C51.012 44.9791 52.1336 43.8574 52.1336 42.479C52.1336 41.1007 51.012 39.979 49.6336 39.979H48.1958V39.2258C48.1958 38.1309 47.3043 37.2394 46.2094 37.2394H45.2852V36.0507C46.0389 35.9308 46.6275 35.2874 46.6407 34.5082C46.7525 27.9619 50.1217 21.8438 51.5652 19.5172C51.9698 18.8672 51.8253 18.0258 51.2294 17.5603C48.0292 15.0647 44.306 13.6111 40.4912 13.1648V9.79361H42.7852C44.1635 9.79361 45.2852 8.67194 45.2852 7.29356C45.2852 5.91518 44.1635 4.794 42.7852 4.794H40.4912V2.49956C40.4912 1.12118 39.3695 0 37.9912 0C36.6128 0 35.4911 1.12118 35.4911 2.49956V4.794H33.1972C31.8188 4.794 30.6971 5.91518 30.6971 7.29356C30.6971 8.67194 31.8185 9.79361 33.1972 9.79361H35.4911V13.1645C31.676 13.6109 27.9529 15.0644 24.7529 17.5603C24.157 18.0244 24.0125 18.8657 24.4159 19.5172C25.8599 21.8438 29.2293 27.9622 29.3416 34.5082C29.3543 35.2874 29.9434 35.9308 30.6974 36.0507V37.2394H29.7729C28.678 37.2394 27.7866 38.1309 27.7866 39.2258V39.979H26.3487C24.9703 39.979 23.8487 41.1007 23.8487 42.479C23.8487 43.8574 24.9703 44.9791 26.3487 44.9791H27.7866V45.732C27.7866 46.6975 28.4803 47.5027 29.3949 47.6801C31.8247 60.156 30.932 71.1558 26.7415 80.3857C25.5241 80.3891 24.5336 81.3811 24.5336 82.5995V83.8708C21.8141 84.256 19.7396 86.6047 19.7396 89.391C19.7396 90.9138 20.3702 92.3577 21.4422 93.3971H21.212C18.8893 93.3971 17 95.2865 17 97.6092C17 99.9318 18.8893 101.821 21.212 101.821H54.7695C57.0922 101.821 58.9816 99.9318 58.9816 97.6092C58.9816 95.2865 57.0922 93.3971 54.7695 93.3971L54.77 93.3969ZM35.9367 8.90262H33.292C32.4506 8.90262 31.6822 8.29879 31.5969 7.46159C31.4989 6.49911 32.2546 5.68402 33.1974 5.68402H35.9367C36.1826 5.68402 36.3821 5.48454 36.3821 5.23864V2.59414C36.3821 1.75252 36.9862 0.983857 37.8236 0.89886C38.7861 0.801088 39.6005 1.55697 39.6005 2.49981V5.23913C39.6005 5.48503 39.7997 5.68426 40.0456 5.68426H42.6903C43.532 5.68426 44.3006 6.28833 44.3859 7.12578C44.4839 8.08826 43.7282 8.90286 42.7854 8.90286H40.0461C39.8002 8.90286 39.6007 9.10233 39.6007 9.34824V11.4204C39.6007 12.3003 38.8876 13.0073 38.0076 13.0068H37.9754C37.0957 13.0075 36.3823 12.3003 36.3823 11.4204V9.34824C36.3823 9.10233 36.1829 8.90286 35.937 8.90286L35.9367 8.90262ZM30.2318 34.4935C30.1161 27.7254 26.6551 21.4373 25.173 19.0475C25.0092 18.7839 25.0639 18.4461 25.3 18.2624C29.0365 15.3484 33.5136 13.8919 37.9912 13.8919C42.4687 13.8919 46.9463 15.3487 50.6816 18.2624C50.9184 18.4464 50.9724 18.7839 50.8086 19.0475C49.3265 21.437 45.8654 27.7251 45.7505 34.4935C45.7438 34.8747 45.4228 35.185 45.0349 35.185H30.9474C30.5588 35.185 30.2377 34.8747 30.2318 34.4935ZM31.5881 36.0757H44.3942V37.2394H31.5881V36.0757ZM28.6776 45.7318V44.5332C28.6776 44.2871 28.4783 44.0878 28.2322 44.0878H26.349C25.4614 44.0878 24.7399 43.3661 24.7399 42.4788C24.7399 41.5915 25.4614 40.8697 26.349 40.8697H28.2322C28.4783 40.8697 28.6776 40.6705 28.6776 40.4244V39.2258C28.6776 38.622 29.1691 38.1304 29.7729 38.1304H46.2094C46.8132 38.1304 47.3048 38.622 47.3048 39.2258V39.979H33.6018C33.3556 39.979 33.1564 40.1782 33.1564 40.4244C33.1564 40.6705 33.3556 40.8697 33.6018 40.8697H49.6333C50.5209 40.8697 51.2424 41.5915 51.2424 42.4788C51.2424 43.3661 50.5207 44.0878 49.6333 44.0878H36.8547C36.6086 44.0878 36.4094 44.2871 36.4094 44.5332C36.4094 44.7794 36.6086 44.9786 36.8547 44.9786H47.3048V45.7315C47.3048 46.3354 46.8132 46.8269 46.2094 46.8269H29.7729C29.1691 46.8269 28.6776 46.3356 28.6776 45.7318ZM30.3134 47.7182H45.6689C43.5219 58.8887 44.013 68.9014 47.1244 77.5522C47.6209 78.9326 46.5963 80.3847 45.1295 80.3847H30.8529C29.386 80.3847 28.3614 78.9326 28.8576 77.5522C31.9686 68.9014 32.4592 58.8887 30.3134 47.7182ZM54.7698 100.93H21.2123C19.3811 100.93 17.891 99.44 17.891 97.6089C17.891 95.7778 19.3811 94.2876 21.2123 94.2876H22.7658C22.967 94.2876 23.1436 94.1518 23.196 93.9572C23.248 93.7627 23.1626 93.5566 22.9879 93.4563C21.5334 92.6196 20.6303 91.0614 20.6303 89.3907C20.6303 86.9314 22.5531 84.8777 25.0082 84.7159C25.2423 84.7004 25.4241 84.5065 25.4241 84.2717V82.599C25.4241 81.8694 26.0178 81.2754 26.7477 81.2754H49.2332C49.9635 81.2754 50.5573 81.8694 50.5573 82.599V83.829H34.3785C34.1324 83.829 33.9331 84.0283 33.9331 84.2744C33.9331 84.5206 34.1324 84.7198 34.3785 84.7198H50.8577C50.884 84.7198 50.9066 84.7092 50.9316 84.7048C50.9461 84.7073 50.9584 84.7146 50.9734 84.7156C53.4285 84.8775 55.3513 86.9312 55.3513 89.3905C55.3513 91.0253 54.4824 92.5472 53.0821 93.3966H32.0364C31.7903 93.3966 31.5911 93.5959 31.5911 93.842C31.5911 94.0882 31.7903 94.2874 32.0364 94.2874H54.7695C56.6007 94.2874 58.0908 95.7775 58.0908 97.6087C58.0908 99.4398 56.6007 100.93 54.7695 100.93L54.7698 100.93Z" fill="#D2FF00"/>
<path d="M31.8047 44.9786H33.6025C33.8486 44.9786 34.0478 44.7794 34.0478 44.5333C34.0478 44.2871 33.8486 44.0879 33.6025 44.0879H31.8047C31.5586 44.0879 31.3594 44.2871 31.3594 44.5333C31.3594 44.7794 31.5586 44.9786 31.8047 44.9786Z" fill="#D2FF00"/>
<path d="M31.1259 83.8301H29.3282C29.082 83.8301 28.8828 84.0293 28.8828 84.2755C28.8828 84.5216 29.082 84.7208 29.3282 84.7208H31.1259C31.3721 84.7208 31.5713 84.5216 31.5713 84.2755C31.5713 84.0293 31.3721 83.8301 31.1259 83.8301Z" fill="#D2FF00"/>
<path d="M28.7841 93.3965H26.9864C26.7402 93.3965 26.541 93.5957 26.541 93.8419C26.541 94.088 26.7402 94.2872 26.9864 94.2872H28.7841C29.0303 94.2872 29.2295 94.088 29.2295 93.8419C29.2295 93.5957 29.0303 93.3965 28.7841 93.3965Z" fill="#D2FF00"/>
<path d="M41.625 58.4014H40.5977V59.4287H41.625V58.4014Z" fill="#D2FF00"/>
<path d="M41.6074 61.1406H40.5801V62.168H41.6074V61.1406Z" fill="#D2FF00"/>
<path d="M41.7422 55.6621H40.7148V56.6894H41.7422V55.6621Z" fill="#D2FF00"/>
<path d="M41.6953 63.8799H40.668V64.9072H41.6953V63.8799Z" fill="#D2FF00"/>
<path d="M41.9258 66.6191H40.8984V67.6465H41.9258V66.6191Z" fill="#D2FF00"/>
<path d="M42.2852 69.3584H41.2578V70.3857H42.2852V69.3584Z" fill="#D2FF00"/>
<path d="M42.7988 72.0977H41.7715V73.125H42.7988V72.0977Z" fill="#D2FF00"/>
<path d="M43.4824 74.8379H42.4551V75.8652H43.4824V74.8379Z" fill="#D2FF00"/>
<path d="M35.6263 95.6514H34.599C34.5046 95.6514 34.4277 95.7283 34.4277 95.8226C34.4277 95.9169 34.5046 95.9938 34.599 95.9938H35.6263C35.7206 95.9938 35.7975 95.9169 35.7975 95.8226C35.7975 95.7283 35.7206 95.6514 35.6263 95.6514Z" fill="#D2FF00"/>
<path d="M31.5736 95.6514H22.5462C22.4519 95.6514 22.375 95.7283 22.375 95.8226C22.375 95.9169 22.4519 95.9938 22.5462 95.9938H31.5736C31.668 95.9938 31.7449 95.9169 31.7449 95.8226C31.7449 95.7283 31.668 95.6514 31.5736 95.6514Z" fill="#D2FF00"/>
<path d="M26.6556 86.4274H39.1072C39.2016 86.4274 39.2784 86.3505 39.2784 86.2562C39.2784 86.1618 39.2016 86.085 39.1072 86.085H26.6556C26.5613 86.085 26.4844 86.1618 26.4844 86.2562C26.4844 86.3505 26.5613 86.4274 26.6556 86.4274Z" fill="#D2FF00"/>
<path d="M28.0247 42.5778H40.4764C40.5707 42.5778 40.6476 42.5009 40.6476 42.4066C40.6476 42.3122 40.5707 42.2354 40.4764 42.2354H28.0247C27.9304 42.2354 27.8535 42.3122 27.8535 42.4066C27.8535 42.5009 27.9304 42.5778 28.0247 42.5778Z" fill="#D2FF00"/>
<path d="M54.7695 100.006H21.212C19.3659 100.006 17.833 98.6766 17.5104 96.9238C17.4696 97.1461 17.4453 97.3744 17.4453 97.6087C17.4453 99.6889 19.1317 101.375 21.212 101.375H54.7695C56.8497 101.375 58.5361 99.6889 58.5361 97.6087C58.5361 97.3746 58.5118 97.1461 58.471 96.9238C58.1485 98.6766 56.6153 100.006 54.7695 100.006Z" fill="#D2FF00"/>
<path d="M27.2753 123.137H26.3324C27.6187 122.283 28.4675 120.823 28.4675 119.163C28.4675 116.529 26.3321 114.393 23.6981 114.393V112.472C23.6981 111.338 22.7787 110.419 21.6447 110.419H-1.27487C-2.40911 110.419 -3.32827 111.338 -3.32827 112.472V114.393C-5.9623 114.393 -8.09772 116.529 -8.09772 119.163C-8.09772 120.823 -7.24883 122.283 -5.96261 123.137H-6.90551C-8.88111 123.137 -10.4824 124.739 -10.4824 126.714C-10.4824 128.69 -8.88111 130.291 -6.90551 130.291H27.2753C29.2509 130.291 30.8523 128.69 30.8523 126.714C30.8523 124.739 29.2506 123.137 27.2753 123.137Z" fill="#212121"/>
<path d="M27.275 123.138H10.582C12.5576 123.138 14.1589 124.739 14.1589 126.715C14.1589 128.69 12.5573 130.292 10.582 130.292H27.275C29.2506 130.292 30.852 128.69 30.852 126.715C30.852 124.739 29.2503 123.138 27.275 123.138Z" fill="#D2FF00"/>
<path d="M19.7236 112.472V114.393H23.698V112.472C23.698 111.338 22.7785 110.419 21.6446 110.419H17.6699C18.8042 110.419 19.7233 111.338 19.7233 112.472H19.7236Z" fill="#D2FF00"/>
<path d="M15.9976 123.138H26.3313C27.6175 122.283 28.4664 120.823 28.4664 119.163C28.4664 116.529 26.331 114.394 23.697 114.394H13.3633C15.9973 114.394 18.1327 116.529 18.1327 119.163C18.1327 120.823 17.2838 122.283 15.9976 123.138Z" fill="#D2FF00"/>
<path d="M22.1082 76.2381H19.9224V74.8471C19.9224 73.8591 19.1216 73.0586 18.1339 73.0586H2.23599C1.24834 73.0586 0.447536 73.8594 0.447536 74.8471V76.2381H-1.73834C-3.05521 76.2381 -4.12305 77.3057 -4.12305 78.6228C-4.12305 79.94 -3.05551 81.0075 -1.73834 81.0075H0.447536V82.3986C0.447536 83.3863 1.24834 84.1871 2.23599 84.1871H18.1339C19.1216 84.1871 19.9224 83.3863 19.9224 82.3986V81.0075H22.1082C23.4254 81.0075 24.4929 79.94 24.4929 78.6228C24.4929 77.3057 23.4254 76.2381 22.1082 76.2381Z" fill="#212121"/>
<path d="M22.1069 76.2381H19.9211V74.8471C19.9211 73.8591 19.1202 73.0586 18.1326 73.0586H12.5684C13.556 73.0586 14.3568 73.8594 14.3568 74.8471V76.2381H16.5427C17.8598 76.2381 18.9274 77.3057 18.9274 78.6228C18.9274 79.94 17.8598 81.0075 16.5427 81.0075H14.3568V82.3986C14.3568 83.3863 13.556 84.1871 12.5684 84.1871H18.1326C19.1202 84.1871 19.9211 83.3863 19.9211 82.3986V81.0075H22.1069C23.4241 81.0075 24.4916 79.94 24.4916 78.6228C24.4916 77.3057 23.4241 76.2381 22.1069 76.2381Z" fill="#D2FF00"/>
<path d="M18.1321 84.1875H2.23422C2.35497 92.8532 1.76772 101.753 -0.945312 110.419H21.3119C18.5989 101.753 18.0114 92.8532 18.1324 84.1875H18.1321Z" fill="#212121"/>
<path d="M4.55547 90.8128C4.42691 90.8218 4.35331 90.8942 4.3491 91.0038C4.33198 91.4397 4.31277 91.8816 4.28934 92.3285C4.28363 92.4385 4.36774 92.5319 4.47707 92.5373C4.48068 92.5376 4.48397 92.5376 4.48758 92.5376C4.59271 92.5376 4.68042 92.4553 4.68582 92.3492C4.70895 91.8999 4.72939 91.4565 4.74651 91.0192C4.75071 90.9092 4.66541 90.8173 4.55547 90.8128Z" fill="#D2FF00"/>
<path d="M4.26822 95.5432C4.15347 95.5381 4.06246 95.6147 4.05285 95.7237C3.78822 98.7507 3.3767 101.676 2.83001 104.418C2.80868 104.525 2.87837 104.63 2.9859 104.651C2.99912 104.654 3.01204 104.655 3.02495 104.655C3.11777 104.655 3.20069 104.59 3.21931 104.495C3.7693 101.739 4.18262 98.7999 4.44846 95.7589C4.45807 95.6495 4.37696 95.5531 4.26793 95.5435L4.26822 95.5432Z" fill="#D2FF00"/>
<path d="M2.2207 88.9569C6.96881 85.5071 13.3987 85.5071 18.1468 88.9569C18.1165 87.34 18.1108 85.7678 18.1327 84.1875H2.23482C2.25675 85.7678 2.25104 87.3397 2.2207 88.9569Z" fill="#D2FF00"/>
<path d="M14.495 90.5469H13.3027V91.7394H14.495V90.5469Z" fill="#D2FF00"/>
<path d="M14.6649 93.7266H13.4727V94.9188H14.6649V93.7266Z" fill="#D2FF00"/>
<path d="M14.9285 96.9053H13.7363V98.0975H14.9285V96.9053Z" fill="#D2FF00"/>
<path d="M15.3192 100.085H14.127V101.277H15.3192V100.085Z" fill="#D2FF00"/>
<path d="M15.8367 103.266H14.6445V104.458H15.8367V103.266Z" fill="#D2FF00"/>
<path d="M16.5086 106.444H15.3164V107.637H16.5086V106.444Z" fill="#D2FF00"/>
<path d="M7.79882 42.8525L0.850731 52.6617C-3.00855 58.11 -2.66763 65.4847 1.67736 70.5542L3.82448 73.059H16.5429L18.69 70.5542C23.035 65.485 23.3756 58.11 19.5166 52.6617L12.5686 42.8525H7.79882Z" fill="#212121"/>
<path d="M6.78032 48.415C6.69231 48.3529 6.56675 48.3724 6.50337 48.4625L5.18891 50.3185C5.12553 50.4081 5.14655 50.5321 5.23636 50.5958C5.27121 50.6201 5.31116 50.6321 5.35111 50.6321C5.41329 50.6321 5.47458 50.603 5.51333 50.5483L6.82779 48.6923C6.89117 48.6028 6.87013 48.4784 6.78032 48.415Z" fill="#D2FF00"/>
<path d="M2.63473 53.9249C0.411916 57.063 -0.228181 60.9712 0.87962 64.6464C0.905753 64.7323 0.984451 64.7875 1.06976 64.7875C1.08868 64.7875 1.1079 64.7848 1.12713 64.7791C1.23196 64.7476 1.29174 64.6368 1.2599 64.5316C0.188143 60.9748 0.807221 57.1924 2.95914 54.1547C3.02252 54.0652 3.00149 53.9411 2.91168 53.8774C2.82306 53.8162 2.69901 53.8351 2.63473 53.9249Z" fill="#D2FF00"/>
<path d="M19.5172 52.6614L12.5691 42.8525H9.48901L14.7477 50.2767C18.607 55.725 18.2661 63.1 13.9211 68.1692C12.5583 69.7591 10.5692 70.674 8.47523 70.674H1.78125L3.82533 73.0588H16.5437L18.6908 70.5539C23.0358 65.4847 23.3765 58.1097 19.5175 52.6614H19.5172Z" fill="#D2FF00"/>
<path d="M13.0342 43.4994C15.1468 41.9262 15.5842 38.9382 14.011 36.8256C12.4378 34.7129 9.44978 34.2755 7.33709 35.8487C5.2244 37.4219 4.78705 40.4099 6.36025 42.5226C7.93345 44.6353 10.9215 45.0726 13.0342 43.4994Z" fill="#212121"/>
<path d="M11.589 35.1152C12.1622 35.8416 12.5184 36.7466 12.5184 37.7436C12.5184 40.0991 10.6089 42.0087 8.25332 42.0087C7.25636 42.0087 6.35132 41.6524 5.625 41.0793C6.22486 43.0272 8.03855 44.4432 10.1833 44.4432C12.8173 44.4432 14.9527 42.3078 14.9527 39.6738C14.9527 37.5291 13.5367 35.7157 11.5887 35.1155L11.589 35.1152Z" fill="#D2FF00"/>
<path d="M27.6775 122.641C28.5111 121.689 28.9839 120.46 28.9839 119.163C28.9839 116.423 26.8872 114.162 24.2139 113.902V112.472C24.2139 111.075 23.0907 109.939 21.7003 109.908C18.8506 100.587 18.5715 91.1258 18.6451 84.6424C19.6697 84.4081 20.4381 83.4931 20.4381 82.3988V81.5247H22.1073C23.7071 81.5247 25.0087 80.2229 25.0087 78.6231C25.0087 77.0232 23.7071 75.7214 22.1073 75.7214H20.4381V74.8473C20.4381 73.5767 19.4042 72.5419 18.133 72.5419H17.6668L19.0828 70.8901C23.5891 65.6331 23.9411 58.014 19.9386 52.363L13.7231 43.5886C14.7927 42.6204 15.4701 41.2261 15.4701 39.6731C15.4701 36.7582 13.0989 34.3867 10.184 34.3867C7.26912 34.3867 4.89792 36.7582 4.89792 39.6731C4.89792 41.2261 5.57498 42.6204 6.64463 43.5883L0.429767 52.3627C-3.5731 58.014 -3.22105 65.6328 1.28555 70.8898L2.70124 72.5416H2.23505C0.963845 72.5416 -0.0700665 73.5764 -0.0700665 74.847V75.7211H-1.73928C-3.3391 75.7211 -4.64065 77.0229 -4.64065 78.6228C-4.64065 80.2226 -3.3394 81.5244 -1.73928 81.5244H-0.0700665V82.3985C-0.0700665 83.4928 0.698304 84.4081 1.7229 84.6421C1.79709 91.1255 1.51834 100.587 -1.33227 109.907C-2.72273 109.938 -3.84584 111.075 -3.84584 112.472V113.901C-6.51893 114.162 -8.61528 116.422 -8.61528 119.162C-8.61528 120.459 -8.14309 121.688 -7.31013 122.64C-9.37855 122.844 -11 124.593 -11 126.714C-11 128.971 -9.16378 130.808 -6.90642 130.808H27.2747C29.5321 130.808 31.3686 128.972 31.3686 126.714C31.3686 124.592 29.7463 122.844 27.6775 122.64V122.641ZM5.93123 39.6731C5.93123 37.328 7.83895 35.4206 10.184 35.4206C12.5291 35.4206 14.4368 37.328 14.4368 39.6731C14.4368 42.0182 12.5291 43.9256 10.184 43.9256C7.83895 43.9256 5.93123 42.0182 5.93123 39.6731ZM2.07043 70.2178C-2.12017 65.328 -2.44877 58.2147 1.27354 52.9595L6.67526 45.3335C7.10631 44.7246 7.88039 44.4828 8.59079 44.7108C9.09333 44.8718 9.62831 44.9598 10.184 44.9598C10.7397 44.9598 11.2747 44.8721 11.7772 44.7108C12.4876 44.4831 13.2614 44.7249 13.6927 45.3335L19.0957 52.9607C22.8237 58.2246 22.4957 65.3213 18.2982 70.2178V70.2184C17.0336 71.6933 15.188 72.5422 13.2455 72.5422H7.12373C5.18087 72.5422 3.33505 71.6933 2.07075 70.2181L2.07043 70.2178ZM0.963242 82.3991V81.0081C0.963242 80.7224 0.731939 80.4911 0.446579 80.4911H-1.73928C-2.76928 80.4911 -3.60734 79.6537 -3.60734 78.6234C-3.60734 77.5931 -2.76928 76.7556 -1.73928 76.7556H0.446579C0.731939 76.7556 0.963242 76.5243 0.963242 76.2387V74.8476C0.963242 74.1465 1.53367 73.5761 2.23505 73.5761H18.133C18.8343 73.5761 19.4048 74.1468 19.4048 74.8476V75.7217H8.40936C8.124 75.7217 7.8927 75.953 7.8927 76.2387C7.8927 76.5243 8.124 76.7556 8.40936 76.7556H22.1073C23.1373 76.7556 23.9753 77.5931 23.9753 78.6234C23.9753 79.6537 23.1373 80.4911 22.1073 80.4911H5.22954C4.94418 80.4911 4.71288 80.7224 4.71288 81.0081C4.71288 81.2938 4.94418 81.525 5.22954 81.525H19.4048V82.3991C19.4048 83.1002 18.8343 83.6707 18.133 83.6707H2.23505C1.53367 83.6707 0.963242 83.1002 0.963242 82.3991ZM2.75832 84.7046H17.61C17.5472 90.4887 17.7647 98.6013 19.7992 106.904C20.1725 108.427 19.0431 109.903 17.4745 109.903H2.89378C1.3252 109.903 0.196061 108.427 0.569433 106.904C2.60421 98.601 2.8214 90.489 2.75832 84.7049V84.7046ZM-6.90611 123.655H-5.96323C-5.73554 123.655 -5.53429 123.505 -5.4688 123.287C-5.40272 123.068 -5.48773 122.833 -5.67757 122.707C-6.86978 121.916 -7.58167 120.591 -7.58167 119.163C-7.58167 116.818 -5.67395 114.911 -3.32889 114.911C-3.04353 114.911 -2.81224 114.679 -2.81224 114.394V112.473C-2.81224 111.626 -2.12257 110.936 -1.2752 110.936H21.6444C22.4918 110.936 23.1811 111.626 23.1811 112.473V113.878H8.67579C8.39043 113.878 8.15914 114.11 8.15914 114.395C8.15914 114.681 8.39043 114.912 8.67579 114.912H23.7131C26.051 114.921 27.9506 116.823 27.9506 119.163C27.9506 120.543 27.2813 121.822 26.1603 122.621H5.62784C5.34248 122.621 5.11119 122.852 5.11119 123.138C5.11119 123.423 5.34248 123.655 5.62784 123.655H27.2753C28.9629 123.655 30.3353 125.027 30.3353 126.715C30.3353 126.817 30.3149 126.914 30.305 127.014C29.6751 128.026 28.5558 128.702 27.275 128.702H-6.90582C-8.18694 128.702 -9.30615 128.026 -9.93635 127.013C-9.94626 126.913 -9.96638 126.817 -9.96638 126.715C-9.96638 125.027 -8.59395 123.655 -6.90611 123.655Z" fill="#D2FF00"/>
<path d="M-0.664996 123.654H1.05709C1.34245 123.654 1.57374 123.423 1.57374 123.137C1.57374 122.851 1.34245 122.62 1.05709 122.62H-0.664996C-0.950357 122.62 -1.18164 122.851 -1.18164 123.137C-1.18164 123.423 -0.950357 123.654 -0.664996 123.654Z" fill="#D2FF00"/>
<path d="M2.3819 114.912H4.10426C4.38962 114.912 4.62092 114.681 4.62092 114.395C4.62092 114.109 4.38962 113.878 4.10426 113.878H2.3819C2.09654 113.878 1.86523 114.109 1.86523 114.395C1.86523 114.681 2.09654 114.912 2.3819 114.912Z" fill="#D2FF00"/>
<path d="M3.63971 76.7556H5.13019C5.41555 76.7556 5.64685 76.5243 5.64685 76.2386C5.64685 75.953 5.41555 75.7217 5.13019 75.7217H3.63971C3.35435 75.7217 3.12305 75.953 3.12305 76.2386C3.12305 76.5243 3.35435 76.7556 3.63971 76.7556Z" fill="#D2FF00"/>
<path d="M10.0395 125.237H8.8473C8.73797 125.237 8.64844 125.327 8.64844 125.436C8.64844 125.545 8.73766 125.635 8.8473 125.635H10.0395C10.1488 125.635 10.2381 125.545 10.2381 125.436C10.2381 125.326 10.1488 125.237 10.0395 125.237Z" fill="#D2FF00"/>
<path d="M5.33522 125.237H-5.14293C-5.25227 125.237 -5.3418 125.327 -5.3418 125.436C-5.3418 125.545 -5.25257 125.635 -5.14293 125.635H5.33522C5.44456 125.635 5.53407 125.545 5.53407 125.436C5.53407 125.326 5.44486 125.237 5.33522 125.237Z" fill="#D2FF00"/>
<path d="M-1.96324 116.918H12.4892C12.5986 116.918 12.6881 116.829 12.6881 116.719C12.6881 116.61 12.5989 116.521 12.4892 116.521H-1.96324C-2.07258 116.521 -2.16211 116.61 -2.16211 116.719C-2.16211 116.829 -2.07288 116.918 -1.96324 116.918Z" fill="#D2FF00"/>
<path d="M-0.373418 78.7581H14.079C14.1884 78.7581 14.2779 78.6688 14.2779 78.5592C14.2779 78.4496 14.1887 78.3604 14.079 78.3604H-0.373418C-0.482756 78.3604 -0.572266 78.4496 -0.572266 78.5592C-0.572266 78.6688 -0.483057 78.7581 -0.373418 78.7581Z" fill="#D2FF00"/>
<path d="M306.782 91.241H282.104C279.341 91.241 277.102 89.0014 277.102 86.2386C277.102 83.4759 279.341 81.2363 282.104 81.2363H306.782C309.545 81.2363 311.784 83.4759 311.784 86.2386C311.784 89.0014 309.545 91.241 306.782 91.241Z" fill="#212121"/>
<path d="M305.115 25.8746C305.115 19.5877 299.678 14.5708 293.25 15.268C287.792 15.8599 283.771 20.6859 283.771 26.1759C283.771 28.0815 285.316 29.6263 287.222 29.6263H301.663C303.566 29.6263 305.109 28.0863 305.114 26.1839L305.115 25.8746Z" fill="#212121"/>
<path d="M297.801 14.7102C299.003 12.8553 298.473 10.3776 296.618 9.17603C294.763 7.9745 292.285 8.50419 291.084 10.3591C289.882 12.2141 290.412 14.6918 292.267 15.8933C294.122 17.0949 296.6 16.5652 297.801 14.7102Z" fill="#212121"/>
<path d="M305.105 25.8697C305.105 20.1453 300.593 15.4878 294.933 15.2275C295.741 16.5876 296.213 18.1703 296.213 19.867C296.213 24.899 292.133 28.9783 287.101 28.9783C286.049 28.9783 285.042 28.7909 284.102 28.4625C284.299 29.2511 284.59 30.0015 284.951 30.7098H303.936C304.678 29.2559 305.105 27.6143 305.105 25.8699V25.8697Z" fill="#56EBFF"/>
<path d="M295.621 8.71094C296.102 9.32032 296.401 10.0797 296.401 10.9163C296.401 12.8926 294.799 14.4949 292.823 14.4949C291.986 14.4949 291.227 14.1959 290.617 13.7151C291.121 15.3495 292.642 16.5375 294.442 16.5375C296.652 16.5375 298.444 14.746 298.444 12.5356C298.444 10.736 297.256 9.2143 295.621 8.71094Z" fill="#56EBFF"/>
<path d="M310.783 97.9107H278.102C276.076 97.9107 274.434 96.2684 274.434 94.2425C274.434 92.2166 276.076 90.5742 278.102 90.5742H310.783C312.809 90.5742 314.452 92.2166 314.452 94.2425C314.452 96.2684 312.809 97.9107 310.783 97.9107Z" fill="#212121"/>
<path d="M310.783 90.5742H294.775C296.801 90.5742 298.444 92.2166 298.444 94.2425C298.444 96.2684 296.801 97.9107 294.775 97.9107H310.783C312.809 97.9107 314.451 96.2684 314.451 94.2425C314.451 92.2166 312.809 90.5742 310.783 90.5742Z" fill="#56EBFF"/>
<path d="M306.781 81.2363H297.443C300.206 81.2363 302.446 83.4759 302.446 86.2386C302.446 89.0014 300.206 91.241 297.443 91.241H306.781C309.544 91.241 311.783 89.0014 311.783 86.2386C311.783 83.4759 309.544 81.2363 306.781 81.2363Z" fill="#56EBFF"/>
<path d="M283.492 77.9014H305.391C306.342 77.9014 307.114 78.6735 307.114 79.6243V81.2362H281.77V79.6243C281.77 78.6732 282.542 77.9014 283.492 77.9014Z" fill="#212121"/>
<path d="M305.392 77.9014H301.391C302.342 77.9014 303.114 78.6727 303.114 79.6243V81.2362H307.115V79.6243C307.115 78.6727 306.344 77.9014 305.392 77.9014Z" fill="#56EBFF"/>
<path d="M305.782 41.2187H303.947V40.0516C303.947 39.2227 303.275 38.5508 302.447 38.5508H286.439C285.61 38.5508 284.939 39.2227 284.939 40.0516V41.2187H283.104C281.999 41.2187 281.104 42.1146 281.104 43.2196C281.104 44.3247 281.999 45.2206 283.104 45.2206H284.939V46.3877C284.939 47.2166 285.611 47.8885 286.439 47.8885H302.447C303.275 47.8885 303.947 47.2166 303.947 46.3877V45.2206H305.782C306.887 45.2206 307.783 44.3247 307.783 43.2196C307.783 42.1146 306.887 41.2187 305.782 41.2187Z" fill="#212121"/>
<path d="M305.78 41.2187H303.946V40.0516C303.946 39.2227 303.274 38.5508 302.445 38.5508H297.109C297.938 38.5508 298.61 39.2227 298.61 40.0516V41.2187H300.444C301.549 41.2187 302.445 42.1146 302.445 43.2196C302.445 44.3247 301.549 45.2206 300.444 45.2206H298.61V46.3877C298.61 47.2166 297.938 47.8885 297.109 47.8885H302.445C303.274 47.8885 303.946 47.2166 303.946 46.3877V45.2206H305.78C306.885 45.2206 307.781 44.3247 307.781 43.2196C307.781 42.1146 306.885 41.2187 305.78 41.2187Z" fill="#56EBFF"/>
<path d="M302.447 47.8887H286.439C288.291 57.5596 288.315 68.2314 283.771 77.9023H305.115C300.571 68.2314 300.595 57.5596 302.447 47.8887Z" fill="#212121"/>
<path d="M301.863 51.4888C302.006 50.3811 302.195 49.205 302.447 47.8887H286.439C286.691 49.205 286.88 50.3813 287.023 51.4888C291.532 48.5569 297.354 48.5569 301.863 51.4888H301.863Z" fill="#56EBFF"/>
<path d="M302.447 36.5498H286.439V38.5508H302.447V36.5498Z" fill="#56EBFF"/>
<path d="M303.206 36.5496H286.225C285.2 36.5496 284.324 35.8204 284.133 34.8131C283.536 31.6506 282.674 28.4102 281.192 25.2334C280.953 24.7202 281.605 24.2577 282.003 24.6609L282.048 24.7072C283.357 26.0342 285.493 26.0506 286.822 24.7441L286.885 24.6823C288.155 23.4333 290.171 23.3827 291.516 24.5516C291.744 24.7502 291.97 24.949 292.195 25.148C293.476 26.2849 295.41 26.2849 296.692 25.148C296.916 24.949 297.142 24.7502 297.371 24.5516C298.716 23.3827 300.731 23.4333 302.002 24.6823L302.064 24.7441C303.393 26.0506 305.529 26.0342 306.838 24.7072L306.884 24.6609C307.282 24.258 307.934 24.7202 307.694 25.2334C306.129 28.5897 305.255 32.0167 304.654 35.3483C304.528 36.0459 303.916 36.5496 303.207 36.5496H303.206Z" fill="#212121"/>
<path d="M306.883 24.6611L306.837 24.7075C306.069 25.4865 305.016 25.8009 304.008 25.6739C303.056 28.2384 302.441 30.8204 301.985 33.3476C301.859 34.0452 301.247 34.5489 300.538 34.5489H284.08C284.097 34.6369 284.116 34.7254 284.133 34.8134C284.323 35.8206 285.199 36.5498 286.224 36.5498H303.205C303.914 36.5498 304.527 36.0462 304.653 35.3486C305.254 32.017 306.127 28.5899 307.693 25.2337C307.933 24.7205 307.28 24.258 306.883 24.6611H306.883Z" fill="#56EBFF"/>
<path d="M289.58 57.8921C289.49 57.8921 289.416 57.8211 289.413 57.7307C289.387 56.931 289.343 56.1064 289.282 55.2804C289.275 55.1887 289.344 55.1084 289.436 55.102C289.536 55.0806 289.608 55.1646 289.614 55.2558C289.676 56.0862 289.72 56.9153 289.747 57.7203C289.75 57.812 289.678 57.8889 289.585 57.8924H289.58V57.8921Z" fill="#56EBFF"/>
<path d="M287.649 73.5479C287.633 73.5479 287.617 73.5452 287.6 73.5407C287.512 73.5134 287.463 73.4204 287.49 73.3324C288.581 69.763 289.222 65.9124 289.395 61.8871C289.399 61.7946 289.479 61.7342 289.569 61.7275C289.661 61.7315 289.733 61.8097 289.729 61.9014C289.554 65.9548 288.908 69.8335 287.809 73.4302C287.787 73.5017 287.721 73.5481 287.649 73.5481V73.5479Z" fill="#56EBFF"/>
<path d="M285.735 32.8282C285.658 32.8282 285.59 32.7755 285.572 32.6973C285.189 30.9654 284.755 29.4009 284.245 27.9158C284.216 27.8286 284.262 27.7339 284.349 27.704C284.432 27.6727 284.531 27.7202 284.561 27.8076C285.074 29.305 285.512 30.8805 285.898 32.6255C285.918 32.7153 285.861 32.8038 285.771 32.824C285.76 32.8266 285.747 32.828 285.735 32.828L285.735 32.8282Z" fill="#56EBFF"/>
<path d="M310.783 90.1373H310.559C311.603 89.125 312.218 87.7188 312.218 86.2358C312.218 83.5223 310.197 81.2348 307.549 80.8598V79.6216C307.549 78.4347 306.583 77.4682 305.396 77.4656C301.603 69.2348 300.735 59.4199 302.817 48.2816C303.706 48.108 304.381 47.3239 304.381 46.3845V45.6511H305.781C307.123 45.6511 308.216 44.5588 308.216 43.2165C308.216 41.8742 307.123 40.7818 305.781 40.7818H304.381V40.0484C304.381 39.1318 303.737 38.3652 302.88 38.1672V36.9808H303.206C304.129 36.9808 304.917 36.3256 305.079 35.4227C305.795 31.4574 306.75 28.2768 308.086 25.4144C308.283 24.9916 308.154 24.5103 307.771 24.2433C307.392 23.9788 306.899 24.0239 306.528 24.4011C306.231 24.7019 305.884 24.9211 305.514 25.0669C305.188 20.5703 302.176 16.7181 297.889 15.3228C298.506 14.5605 298.878 13.5914 298.878 12.5362C298.878 10.0904 296.888 8.10059 294.442 8.10059C291.997 8.10059 290.007 10.0904 290.007 12.5362C290.007 13.5914 290.379 14.5608 290.996 15.3231C286.71 16.7181 283.696 20.5732 283.371 25.0674C283.001 24.9219 282.654 24.703 282.358 24.4029C282.358 24.4024 282.311 24.3541 282.31 24.3533C281.986 24.0244 281.493 23.9783 281.114 24.2433C280.731 24.5097 280.601 24.9911 280.798 25.4139C282.08 28.1613 283.005 31.1729 283.707 34.8908C283.921 36.0284 284.871 36.8634 286.005 36.9615V38.1675C285.148 38.3658 284.505 39.1321 284.505 40.0487V40.7821H283.104C281.762 40.7821 280.67 41.8744 280.67 43.2167C280.67 44.559 281.762 45.6514 283.104 45.6514H284.505V46.3848C284.505 47.3242 285.179 48.108 286.069 48.2819C288.15 59.4202 287.282 69.2353 283.489 77.4659C282.303 77.468 281.337 78.4347 281.337 79.6219V80.86C278.688 81.2351 276.668 83.5226 276.668 86.2361C276.668 87.7191 277.282 89.1253 278.326 90.1376H278.102C275.84 90.1376 274 91.9777 274 94.2397C274 96.5018 275.84 98.3419 278.102 98.3419H310.784C313.046 98.3419 314.886 96.5018 314.886 94.2397C314.886 91.9777 313.046 90.1376 310.784 90.1376L310.783 90.1373ZM302.012 38.1137H286.873V36.9803H302.012V38.1137ZM294.443 8.96761C296.41 8.96761 298.011 10.5681 298.011 12.5357C298.011 14.5032 296.411 16.1037 294.443 16.1037C292.475 16.1037 290.875 14.5035 290.875 12.5357C290.875 10.5678 292.475 8.96761 294.443 8.96761ZM290.1 16.606C290.93 16.218 291.881 16.2646 292.724 16.6227C293.253 16.847 293.833 16.9713 294.443 16.9713C295.052 16.9713 295.632 16.8467 296.161 16.6227C297.005 16.2649 297.955 16.218 298.785 16.606C301.524 17.8857 303.546 20.3151 304.323 23.2144C304.631 24.3632 303.244 25.2774 302.388 24.4514C302.381 24.4448 302.374 24.4379 302.367 24.431L302.305 24.3703C300.887 22.9763 298.594 22.9101 297.085 24.2219C296.857 24.4209 296.63 24.6203 296.405 24.8193C295.285 25.8091 293.603 25.8091 292.483 24.8207C292.256 24.6211 292.029 24.4215 291.8 24.2219C290.291 22.9101 287.998 22.9766 286.581 24.3698L286.517 24.4318C286.511 24.4379 286.505 24.4443 286.499 24.4504C285.644 25.2771 284.255 24.3621 284.563 23.2133C285.341 20.3153 287.362 17.8857 290.1 16.6063L290.1 16.606ZM284.559 34.7293C283.843 30.9386 282.897 27.8617 281.584 25.0473C281.574 25.0258 281.557 24.99 281.609 24.9542C281.626 24.9426 281.639 24.9386 281.651 24.9386C281.67 24.9386 281.682 24.9503 281.691 24.9601C281.692 24.9609 281.738 25.0083 281.739 25.0089C283.213 26.5036 285.628 26.5213 287.125 25.0513L287.188 24.9895C288.285 23.9096 290.061 23.8595 291.23 24.8761C291.458 25.0741 291.683 25.2721 291.906 25.4695C293.352 26.7519 295.533 26.7532 296.979 25.4695C297.201 25.2715 297.428 25.0741 297.654 24.8761C298.822 23.8614 300.597 23.9094 301.697 24.99L301.759 25.0507C303.256 26.5208 305.672 26.5033 307.19 24.9627C307.208 24.9452 307.232 24.9238 307.276 24.9542C307.327 24.99 307.31 25.0258 307.3 25.0473C305.932 27.9797 304.955 31.2278 304.226 35.2687C304.138 35.7578 303.709 36.113 303.205 36.113H286.224C285.41 36.113 284.709 35.5314 284.558 34.7296L284.559 34.7293ZM285.372 46.3843V45.2172C285.372 44.9776 285.178 44.7833 284.938 44.7833H283.104C282.24 44.7833 281.537 44.0806 281.537 43.2162C281.537 42.3518 282.24 41.6491 283.104 41.6491H284.938C285.178 41.6491 285.372 41.4551 285.372 41.2152V40.0481C285.372 39.46 285.851 38.9813 286.439 38.9813H302.446C303.034 38.9813 303.513 39.46 303.513 40.0481V40.7816H290.341C290.102 40.7816 289.907 40.9756 289.907 41.2152C289.907 41.4548 290.101 41.6491 290.341 41.6491H305.781C306.645 41.6491 307.348 42.3518 307.348 43.2162C307.348 44.0806 306.645 44.7833 305.781 44.7833H293.509C293.27 44.7833 293.075 44.9773 293.075 45.2172C293.075 45.4571 293.269 45.6511 293.509 45.6511H303.513V46.3845C303.513 46.9727 303.034 47.4514 302.446 47.4514H286.439C285.851 47.4514 285.372 46.9725 285.372 46.3843ZM286.961 48.3187H301.924C300.134 58.0424 300.567 66.7837 303.209 74.3709C303.737 75.8858 302.613 77.4648 301.009 77.4648H287.876C286.272 77.4648 285.148 75.8858 285.675 74.3712C288.317 66.784 288.751 58.0426 286.961 48.3187H286.961ZM310.783 97.4738H278.102C276.319 97.4738 274.867 96.0226 274.867 94.2392C274.867 92.4558 276.319 91.0046 278.102 91.0046H279.615C279.811 91.0046 279.983 90.8723 280.034 90.6828C280.085 90.4933 280.001 90.2926 279.831 90.1951C278.414 89.3803 277.535 87.8625 277.535 86.2355C277.535 83.8407 279.408 81.8402 281.799 81.6828C282.027 81.6679 282.204 81.479 282.204 81.2502V79.6211C282.204 78.9105 282.782 78.3321 283.493 78.3321H305.391C306.103 78.3321 306.681 78.9105 306.681 79.6211V80.8189H291.1C290.861 80.8189 290.667 81.013 290.667 81.2529C290.667 81.4927 290.861 81.6868 291.1 81.6868H307.12C309.495 81.8612 311.35 83.8523 311.35 86.2358C311.35 87.8278 310.504 89.31 309.14 90.1373H288.82C288.58 90.1373 288.386 90.3313 288.386 90.5712C288.386 90.8111 288.58 91.0051 288.82 91.0051H310.783C312.567 91.0051 314.018 92.4564 314.018 94.2397C314.018 96.0231 312.567 97.4743 310.783 97.4743L310.783 97.4738Z" fill="#56EBFF"/>
<path d="M288.59 45.651H290.341C290.58 45.651 290.774 45.457 290.774 45.2171C290.774 44.9772 290.58 44.7832 290.341 44.7832H288.59C288.35 44.7832 288.156 44.9772 288.156 45.2171C288.156 45.457 288.35 45.651 288.59 45.651Z" fill="#56EBFF"/>
<path d="M287.933 80.8184H286.182C285.942 80.8184 285.748 81.0124 285.748 81.2523C285.748 81.4922 285.942 81.6862 286.182 81.6862H287.933C288.172 81.6862 288.366 81.4922 288.366 81.2523C288.366 81.0124 288.172 80.8184 287.933 80.8184Z" fill="#56EBFF"/>
<path d="M285.651 90.1367H283.9C283.661 90.1367 283.467 90.3308 283.467 90.5706C283.467 90.8105 283.661 91.0045 283.9 91.0045H285.651C285.891 91.0045 286.085 90.8105 286.085 90.5706C286.085 90.3308 285.891 90.1367 285.651 90.1367Z" fill="#56EBFF"/>
<path d="M298.221 56.0586H297.221V57.059H298.221V56.0586Z" fill="#56EBFF"/>
<path d="M298.164 58.7266H297.164V59.7269H298.164V58.7266Z" fill="#56EBFF"/>
<path d="M298.2 61.3945H297.199V62.3949H298.2V61.3945Z" fill="#56EBFF"/>
<path d="M298.368 64.0625H297.367V65.0629H298.368V64.0625Z" fill="#56EBFF"/>
<path d="M298.686 66.7305H297.686V67.7308H298.686V66.7305Z" fill="#56EBFF"/>
<path d="M299.149 69.3984H298.148V70.3988H299.149V69.3984Z" fill="#56EBFF"/>
<path d="M299.801 72.0664H298.801V73.0668H299.801V72.0664Z" fill="#56EBFF"/>
<path d="M292.806 92.3369H291.805C291.714 92.3369 291.639 92.4119 291.639 92.5036C291.639 92.5954 291.714 92.6704 291.805 92.6704H292.806C292.897 92.6704 292.972 92.5954 292.972 92.5036C292.972 92.4119 292.897 92.3369 292.806 92.3369Z" fill="#56EBFF"/>
<path d="M288.859 92.3369H280.067C279.975 92.3369 279.9 92.4119 279.9 92.5036C279.9 92.5954 279.975 92.6704 280.067 92.6704H288.859C288.951 92.6704 289.026 92.5954 289.026 92.5036C289.026 92.4119 288.951 92.3369 288.859 92.3369Z" fill="#56EBFF"/>
<path d="M284.069 83.353H296.196C296.287 83.353 296.362 83.278 296.362 83.1863C296.362 83.0945 296.287 83.0195 296.196 83.0195H284.069C283.977 83.0195 283.902 83.0945 283.902 83.1863C283.902 83.278 283.977 83.353 284.069 83.353Z" fill="#56EBFF"/>
<path d="M285.403 43.3159H297.53C297.621 43.3159 297.696 43.2409 297.696 43.1491C297.696 43.0574 297.621 42.9824 297.53 42.9824H285.403C285.311 42.9824 285.236 43.0574 285.236 43.1491C285.236 43.2409 285.311 43.3159 285.403 43.3159Z" fill="#56EBFF"/>
<path d="M310.784 96.5765H278.102C276.304 96.5765 274.811 95.2822 274.497 93.5752C274.457 93.7918 274.434 94.0141 274.434 94.2421C274.434 96.268 276.076 97.9103 278.102 97.9103H310.783C312.809 97.9103 314.452 96.268 314.452 94.2421C314.452 94.0139 314.428 93.7918 314.388 93.5752C314.074 95.2822 312.581 96.5765 310.783 96.5765H310.784Z" fill="#56EBFF"/>
<path d="M253.663 63.9661H256.513C260.77 63.9661 264.369 60.6121 264.537 56.4894C264.576 55.5381 264.472 54.5796 264.227 53.6406C263.295 50.0685 260.206 47.2994 256.54 46.7487C256.055 46.6752 255.566 46.6387 255.083 46.6387C249.866 46.6387 245.621 50.8831 245.621 56.1007L245.622 56.1944C245.663 60.4792 249.27 63.9658 253.662 63.9658L253.663 63.9661Z" fill="#212121"/>
<path d="M264.228 53.6412C263.534 50.9807 261.643 48.7678 259.209 47.583C260.517 48.9653 261.332 50.7985 261.351 52.8139L261.352 52.9076C261.352 58.1252 257.108 62.3697 251.89 62.3697C251.407 62.3697 250.918 62.3331 250.434 62.2596C249.498 62.1191 248.6 61.8323 247.766 61.4262C249.238 62.9825 251.338 63.9667 253.663 63.9667H256.514C260.771 63.9667 264.37 60.6127 264.538 56.4899C264.577 55.5386 264.473 54.5802 264.228 53.6412Z" fill="#56EBFF"/>
<path d="M244.703 66.3616H265.464C266.058 66.3616 266.542 65.8783 266.542 65.2838C266.542 64.6894 266.058 64.2061 265.464 64.2061H244.703C244.109 64.2061 243.625 64.6894 243.625 65.2838C243.625 65.8783 244.108 66.3616 244.703 66.3616Z" fill="#212121"/>
<path d="M265.465 64.2061H261.473C262.067 64.2061 262.55 64.6894 262.55 65.2838C262.55 65.8783 262.067 66.3616 261.473 66.3616H265.465C266.059 66.3616 266.543 65.8783 266.543 65.2838C266.543 64.6894 266.06 64.2061 265.465 64.2061Z" fill="#56EBFF"/>
<path d="M247.432 92.5838C247.8 93.1639 248.431 93.5108 249.119 93.5108H261.048C261.736 93.5108 262.367 93.1639 262.735 92.5838C263.102 92.0037 263.146 91.2869 262.853 90.6655C259.534 83.6311 260.032 75.8385 260.958 69.1432L260.994 68.8789L260.763 68.7439C259.043 67.7379 257.079 67.2061 255.083 67.2061C253.088 67.2061 251.124 67.7379 249.403 68.7439L249.173 68.8789L249.209 69.1432C250.135 75.8385 250.633 83.6311 247.313 90.6655C247.02 91.2869 247.065 92.0037 247.432 92.5838Z" fill="#212121"/>
<path d="M272.357 106.157C271.971 104.986 270.796 104.154 269.496 104.134H249.012C248.946 104.134 248.892 104.081 248.892 104.014C248.892 103.948 248.946 103.894 249.012 103.894H269.386L269.496 103.805C270.589 102.917 271.108 101.561 270.882 100.18C270.582 98.3362 268.88 96.945 266.924 96.945H252.888C252.821 96.945 252.768 96.8913 252.768 96.825C252.768 96.7587 252.821 96.705 252.888 96.705H266.941V95.6772C266.941 94.6151 266.077 93.751 265.015 93.751H245.152C244.09 93.751 243.226 94.6151 243.226 95.6772L243.215 96.8876L243.106 96.9453C241.296 96.9453 239.705 98.2313 239.308 100.079C239.264 100.308 239.24 100.542 239.238 100.772L239.24 100.942C239.243 101.024 239.247 101.108 239.255 101.189C239.261 101.253 239.27 101.318 239.279 101.377C239.291 101.459 239.305 101.541 239.322 101.619C239.335 101.68 239.35 101.741 239.366 101.805C239.387 101.883 239.411 101.961 239.441 102.048C239.46 102.104 239.479 102.162 239.499 102.211C239.529 102.288 239.562 102.364 239.596 102.435C239.622 102.491 239.649 102.548 239.679 102.607C239.718 102.679 239.76 102.748 239.822 102.851C239.848 102.893 239.873 102.934 239.898 102.97C239.944 103.038 239.994 103.103 240.084 103.218L240.162 103.316C240.225 103.389 240.294 103.459 240.393 103.56L240.465 103.632C240.572 103.732 240.685 103.826 240.804 103.915C240.846 103.946 240.863 104 240.846 104.05C240.83 104.099 240.784 104.132 240.733 104.132C239.405 104.132 238.204 104.966 237.803 106.176C237.443 107.287 238.065 108.53 239.191 108.947C239.646 109.116 240.126 109.202 240.618 109.202H269.55C270.041 109.202 270.521 109.116 270.977 108.947C272.102 108.53 272.724 107.287 272.358 106.158L272.357 106.157Z" fill="#212121"/>
<path d="M261.336 96.9443C263.292 96.9443 264.993 98.3356 265.294 100.18C265.52 101.561 265.001 102.916 263.908 103.804L263.798 103.894H269.387L269.497 103.804C270.59 102.916 271.109 101.561 270.883 100.18C270.583 98.3356 268.881 96.9443 266.925 96.9443H261.336Z" fill="#56EBFF"/>
<path d="M264.547 95.6772V96.705H266.943V95.6772C266.943 94.6151 266.079 93.751 265.017 93.751H262.621C263.683 93.751 264.547 94.6151 264.547 95.6772Z" fill="#56EBFF"/>
<path d="M272.357 106.158C271.971 104.987 270.796 104.154 269.496 104.135H260.713C262.013 104.154 263.187 104.986 263.574 106.158C263.94 107.287 263.318 108.53 262.193 108.947C261.738 109.116 261.257 109.202 260.766 109.202H269.549C270.041 109.202 270.521 109.116 270.977 108.947C272.102 108.53 272.724 107.287 272.357 106.158Z" fill="#56EBFF"/>
<path d="M272.965 105.957C272.593 104.832 271.685 103.99 270.56 103.653C271.213 102.859 271.574 101.869 271.574 100.817C271.574 98.5053 269.825 96.5942 267.582 96.3351V95.677C267.582 94.2626 266.431 93.1116 265.016 93.1116H264.957C259.742 85.0788 260.548 75.8297 261.919 67.001H265.465C266.412 67.001 267.182 66.2305 267.182 65.284C267.182 64.3375 266.412 63.5671 265.465 63.5671H261.866C263.961 61.6665 265.186 58.976 265.186 56.1013C265.186 50.5312 260.655 46 255.085 46C249.515 46 244.984 50.5312 244.984 56.1013C244.984 58.9757 246.209 61.6662 248.304 63.5671H244.704C243.758 63.5671 242.987 64.3375 242.987 65.284C242.987 66.2305 243.758 67.001 244.704 67.001H248.251C249.622 75.8297 250.428 85.0788 245.213 93.1116H245.154C243.739 93.1116 242.588 94.2626 242.588 95.677V96.3351C240.345 96.5938 238.596 98.5053 238.596 100.817C238.596 101.869 238.957 102.859 239.609 103.653C238.484 103.99 237.577 104.833 237.205 105.957C236.81 107.148 236.991 108.395 237.701 109.377C238.397 110.343 239.523 110.919 240.712 110.919H269.459C270.648 110.919 271.774 110.343 272.47 109.377C273.18 108.395 273.361 107.148 272.966 105.957H272.965ZM246.022 56.1905C246.022 56.1607 246.022 56.1307 246.022 56.1009C246.022 50.6447 250.867 46.2998 256.482 47.1434C259.998 47.6715 262.945 50.3012 263.842 53.7416C264.081 54.6588 264.176 55.5772 264.14 56.4732C263.976 60.478 260.523 63.5667 256.514 63.5667H253.663C249.546 63.5667 246.063 60.3078 246.022 56.1905ZM248.089 65.9622H244.704C244.329 65.9622 244.025 65.658 244.025 65.2837C244.025 64.9094 244.329 64.6052 244.704 64.6052H265.465C265.839 64.6052 266.143 64.9094 266.143 65.2837C266.143 65.658 265.839 65.9622 265.465 65.9622H248.089ZM247.675 90.8361C250.949 83.8991 250.586 76.1841 249.606 69.0882C252.988 67.1111 257.18 67.1111 260.563 69.0882C259.583 76.1841 259.22 83.8991 262.494 90.8361C262.993 91.8947 262.22 93.1116 261.049 93.1116H249.12C247.949 93.1116 247.176 91.8947 247.676 90.8361H247.675ZM270.839 108.572C270.437 108.721 270.004 108.802 269.55 108.802H240.618C240.165 108.802 239.731 108.721 239.33 108.572C238.419 108.235 237.884 107.223 238.184 106.299C238.185 106.294 238.187 106.288 238.189 106.283C238.53 105.252 239.567 104.531 240.733 104.531C240.957 104.531 241.155 104.387 241.226 104.175C241.296 103.963 241.223 103.729 241.043 103.595C240.935 103.515 240.834 103.429 240.737 103.339C240.704 103.309 240.676 103.276 240.645 103.245C240.583 103.183 240.522 103.122 240.465 103.056C240.432 103.017 240.401 102.975 240.369 102.934C240.322 102.872 240.273 102.812 240.23 102.748C240.199 102.703 240.172 102.656 240.143 102.609C240.104 102.546 240.066 102.483 240.032 102.418C240.005 102.369 239.982 102.318 239.959 102.267C239.928 102.202 239.898 102.136 239.872 102.068C239.852 102.016 239.833 101.963 239.815 101.909C239.792 101.84 239.771 101.771 239.752 101.702C239.738 101.647 239.725 101.592 239.713 101.536C239.698 101.465 239.685 101.393 239.674 101.321C239.666 101.265 239.658 101.208 239.653 101.151C239.646 101.078 239.642 101.003 239.64 100.929C239.638 100.879 239.637 100.829 239.637 100.778C239.64 100.565 239.661 100.357 239.7 100.155C239.705 100.132 239.709 100.109 239.714 100.086C240.051 98.5217 241.443 97.3445 243.107 97.3445C243.141 97.3445 243.17 97.3315 243.202 97.3253C243.231 97.3199 243.261 97.3181 243.288 97.3079C243.328 97.2928 243.361 97.2689 243.396 97.245C243.418 97.2296 243.443 97.2187 243.463 97.2002C243.496 97.1688 243.519 97.1294 243.543 97.0901C243.555 97.0703 243.572 97.0546 243.582 97.0334C243.61 96.9695 243.626 96.8994 243.626 96.8252V95.6774C243.626 94.8341 244.31 94.1504 245.153 94.1504H265.016C265.859 94.1504 266.543 94.8341 266.543 95.6774V96.306H252.889C252.602 96.306 252.369 96.5384 252.369 96.8252C252.369 97.112 252.602 97.3445 252.889 97.3445H266.925C268.65 97.3445 270.211 98.5422 270.489 100.244C270.694 101.506 270.212 102.709 269.245 103.496H249.013C248.726 103.496 248.494 103.728 248.494 104.015C248.494 104.302 248.726 104.534 249.013 104.534H269.498C270.625 104.551 271.643 105.264 271.98 106.283C271.981 106.288 271.983 106.294 271.985 106.299C272.285 107.223 271.749 108.235 270.839 108.572Z" fill="#56EBFF"/>
<path d="M249.295 97.3441H250.492C250.78 97.3441 251.012 97.1117 251.012 96.8249C251.012 96.5381 250.779 96.3057 250.492 96.3057H249.295C249.007 96.3057 248.775 96.5381 248.775 96.8249C248.775 97.1117 249.008 97.3441 249.295 97.3441Z" fill="#56EBFF"/>
<path d="M246.617 103.495H245.42C245.133 103.495 244.9 103.728 244.9 104.014C244.9 104.301 245.133 104.534 245.42 104.534H246.617C246.905 104.534 247.137 104.301 247.137 104.014C247.137 103.728 246.904 103.495 246.617 103.495Z" fill="#56EBFF"/>
<path d="M258.333 70.6738H257.135V71.8716H258.333V70.6738Z" fill="#56EBFF"/>
<path d="M258.067 73.8682H256.869V75.0659H258.067V73.8682Z" fill="#56EBFF"/>
<path d="M257.985 77.0615H256.787V78.2593H257.985V77.0615Z" fill="#56EBFF"/>
<path d="M258.053 80.2559H256.855V81.4536H258.053V80.2559Z" fill="#56EBFF"/>
<path d="M258.397 83.4502H257.199V84.6479H258.397V83.4502Z" fill="#56EBFF"/>
<path d="M259.09 86.6445H257.893V87.8423H259.09V86.6445Z" fill="#56EBFF"/>
<path d="M260.215 89.8379H259.018V91.0356H260.215V89.8379Z" fill="#56EBFF"/>
<path d="M251.792 74.7978H251.804C251.914 74.7907 251.998 74.6956 251.991 74.5856C251.958 74.0547 251.917 73.5273 251.871 73.0043C251.862 72.8942 251.768 72.8053 251.655 72.8224C251.545 72.8317 251.464 72.9291 251.473 73.0385C251.52 73.5587 251.56 74.0827 251.592 74.6105C251.599 74.7165 251.687 74.7978 251.792 74.7978Z" fill="#56EBFF"/>
<path d="M250.589 87.7771C250.606 87.7826 250.625 87.785 250.643 87.785C250.73 87.785 250.81 87.7282 250.835 87.64C251.668 84.7181 252.08 81.5928 252.097 78.0861C252.097 77.976 252.008 77.8864 251.898 77.8857H251.897C251.787 77.8857 251.698 77.9746 251.697 78.0847C251.681 81.5549 251.273 84.6443 250.451 87.531C250.421 87.637 250.482 87.747 250.588 87.7775L250.589 87.7771Z" fill="#56EBFF"/>
<path d="M247.885 56.2343C247.995 56.2343 248.085 56.1447 248.085 56.0346C248.085 52.2113 251.195 49.1014 255.018 49.1014C255.128 49.1014 255.218 49.0118 255.218 48.9018C255.218 48.7917 255.128 48.7021 255.018 48.7021C250.975 48.7021 247.686 51.9912 247.686 56.0346C247.686 56.1447 247.775 56.2343 247.885 56.2343Z" fill="#56EBFF"/>
<path d="M259.028 105.958H257.83C257.72 105.958 257.631 106.048 257.631 106.158C257.631 106.268 257.72 106.357 257.83 106.357H259.028C259.138 106.357 259.228 106.268 259.228 106.158C259.228 106.048 259.138 105.958 259.028 105.958Z" fill="#56EBFF"/>
<path d="M254.303 105.958H242.18C242.07 105.958 241.98 106.048 241.98 106.158C241.98 106.268 242.07 106.357 242.18 106.357H254.303C254.413 106.357 254.503 106.268 254.503 106.158C254.503 106.048 254.413 105.958 254.303 105.958Z" fill="#56EBFF"/>
<path d="M244.575 99.1707H255.899C256.009 99.1707 256.098 99.0812 256.098 98.9711C256.098 98.861 256.009 98.7715 255.899 98.7715H244.575C244.465 98.7715 244.375 98.861 244.375 98.9711C244.375 99.0812 244.465 99.1707 244.575 99.1707Z" fill="#56EBFF"/>
<path d="M83.6625 67.9661H86.5133C90.7701 67.9661 94.3688 64.6121 94.5373 60.4894C94.5756 59.5381 94.4717 58.5796 94.227 57.6406C93.2951 54.0685 90.2064 51.2994 86.5397 50.7487C86.0553 50.6752 85.5658 50.6387 85.0832 50.6387C79.8655 50.6387 75.6211 54.8831 75.6211 60.1007L75.6218 60.1944C75.6631 64.4792 79.2704 67.9658 83.6622 67.9658L83.6625 67.9661Z" fill="#212121"/>
<path d="M94.2282 57.6412C93.5343 54.9807 91.6434 52.7678 89.2089 51.583C90.517 52.9653 91.332 54.7985 91.3514 56.8139L91.3521 56.9076C91.3521 62.1252 87.1077 66.3697 81.8901 66.3697C81.4074 66.3697 80.9176 66.3331 80.4336 66.2596C79.4976 66.1191 78.6 65.8323 77.7656 65.4262C79.2382 66.9825 81.3377 67.9667 83.6635 67.9667H86.5143C90.771 67.9667 94.3698 64.6127 94.5383 60.4899C94.5766 59.5386 94.473 58.5802 94.2282 57.6412Z" fill="#D2FF00"/>
<path d="M74.7028 70.3616H95.4638C96.0579 70.3616 96.5416 69.8783 96.5416 69.2838C96.5416 68.6894 96.0583 68.2061 95.4638 68.2061H74.7028C74.1087 68.2061 73.625 68.6894 73.625 69.2838C73.625 69.8783 74.1083 70.3616 74.7028 70.3616Z" fill="#212121"/>
<path d="M95.4652 68.2061H91.4727C92.0667 68.2061 92.5504 68.6894 92.5504 69.2838C92.5504 69.8783 92.0671 70.3616 91.4727 70.3616H95.4652C96.0593 70.3616 96.5429 69.8783 96.5429 69.2838C96.5429 68.6894 96.0596 68.2061 95.4652 68.2061Z" fill="#D2FF00"/>
<path d="M77.4323 96.5838C77.8004 97.1639 78.4311 97.5108 79.1188 97.5108H91.0482C91.7359 97.5108 92.367 97.1639 92.7348 96.5838C93.1022 96.0037 93.1463 95.2869 92.8534 94.6655C89.5339 87.6311 90.032 79.8385 90.9576 73.1432L90.9942 72.8789L90.7634 72.7439C89.0434 71.7379 87.0789 71.2061 85.0834 71.2061C83.0878 71.2061 81.1237 71.7379 79.4033 72.7439L79.1725 72.8789L79.2091 73.1432C80.1347 79.8385 80.6331 87.6311 77.3133 94.6655C77.0201 95.2869 77.0648 96.0037 77.4323 96.5838Z" fill="#212121"/>
<path d="M102.357 110.157C101.971 108.986 100.796 108.154 99.4964 108.134H79.0122C78.9459 108.134 78.8922 108.081 78.8922 108.014C78.8922 107.948 78.9462 107.894 79.0122 107.894H99.386L99.4961 107.805C100.589 106.917 101.108 105.561 100.882 104.18C100.582 102.336 98.8801 100.945 96.9242 100.945H82.8878C82.8215 100.945 82.7678 100.891 82.7678 100.825C82.7678 100.759 82.8215 100.705 82.8878 100.705H96.9412V99.6772C96.9412 98.6151 96.0771 97.751 95.0151 97.751H75.1523C74.0903 97.751 73.2261 98.6151 73.2261 99.6772L73.2145 100.888L73.1062 100.945C71.2962 100.945 69.7054 102.231 69.3078 104.079C69.2641 104.308 69.2398 104.542 69.2377 104.772L69.2401 104.942C69.2432 105.024 69.2473 105.108 69.2548 105.189C69.261 105.253 69.2695 105.318 69.2791 105.377C69.2907 105.459 69.3047 105.541 69.3222 105.619C69.3355 105.68 69.3495 105.741 69.3659 105.805C69.3871 105.883 69.411 105.961 69.4408 106.048C69.4596 106.104 69.4791 106.162 69.4992 106.211C69.529 106.288 69.5625 106.364 69.596 106.435C69.6223 106.491 69.6489 106.548 69.6794 106.607C69.7177 106.679 69.7597 106.748 69.8219 106.851C69.8475 106.893 69.8732 106.934 69.8985 106.97C69.9436 107.038 69.9935 107.103 70.0841 107.218L70.162 107.316C70.2253 107.389 70.294 107.459 70.3934 107.56L70.4652 107.632C70.5719 107.732 70.685 107.826 70.8036 107.915C70.8457 107.946 70.8628 108 70.8464 108.05C70.8299 108.099 70.7841 108.132 70.7325 108.132C69.4052 108.132 68.2037 108.966 67.8034 110.176C67.4432 111.287 68.0653 112.53 69.1906 112.947C69.6459 113.116 70.1265 113.202 70.6177 113.202H99.5497C100.041 113.202 100.521 113.116 100.977 112.947C102.102 112.53 102.724 111.287 102.358 110.158L102.357 110.157Z" fill="#212121"/>
<path d="M91.3359 100.944C93.2915 100.944 94.9931 102.336 95.2936 104.18C95.5195 105.561 95.001 106.916 93.9078 107.804L93.7977 107.894H99.3873L99.4973 107.804C100.59 106.916 101.109 105.561 100.883 104.18C100.583 102.336 98.8814 100.944 96.9255 100.944H91.3359Z" fill="#D2FF00"/>
<path d="M94.5473 99.6772V100.705H96.9428V99.6772C96.9428 98.6151 96.0786 97.751 95.0166 97.751H92.6211C93.6831 97.751 94.5473 98.6151 94.5473 99.6772Z" fill="#D2FF00"/>
<path d="M102.357 110.158C101.971 108.987 100.796 108.154 99.4964 108.135H90.7129C92.0128 108.154 93.187 108.986 93.574 110.158C93.9404 111.287 93.3183 112.53 92.193 112.947C91.7377 113.116 91.2571 113.202 90.7659 113.202H99.5494C100.041 113.202 100.521 113.116 100.977 112.947C102.102 112.53 102.724 111.287 102.357 110.158Z" fill="#D2FF00"/>
<path d="M102.965 109.957C102.593 108.832 101.685 107.99 100.56 107.653C101.213 106.859 101.574 105.869 101.574 104.817C101.574 102.505 99.8251 100.594 97.5817 100.335V99.677C97.5817 98.2626 96.4308 97.1116 95.0163 97.1116H94.9572C89.7416 89.0788 90.5476 79.8297 91.919 71.001H95.4655C96.4123 71.001 97.1824 70.2305 97.1824 69.284C97.1824 68.3375 96.412 67.5671 95.4655 67.5671H91.8657C93.9611 65.6665 95.1862 62.976 95.1862 60.1013C95.1862 54.5312 90.655 50 85.0849 50C79.5149 50 74.9837 54.5312 74.9837 60.1013C74.9837 62.9757 76.2088 65.6662 78.3042 67.5671H74.7044C73.7576 67.5671 72.9874 68.3375 72.9874 69.284C72.9874 70.2305 73.7579 71.001 74.7044 71.001H78.2508C79.6222 79.8297 80.4283 89.0788 75.2127 97.1116H75.1536C73.7391 97.1116 72.5882 98.2626 72.5882 99.677V100.335C70.3448 100.594 68.5957 102.505 68.5957 104.817C68.5957 105.869 68.9566 106.859 69.6095 107.653C68.4842 107.99 67.5767 108.833 67.2048 109.957C66.8103 111.148 66.9911 112.395 67.7008 113.377C68.3971 114.343 69.523 114.919 70.7122 114.919H99.4587C100.648 114.919 101.774 114.343 102.47 113.377C103.18 112.395 103.361 111.148 102.966 109.957H102.965ZM76.0221 60.1905C76.0221 60.1607 76.0218 60.1307 76.0218 60.1009C76.0218 54.6447 80.8672 50.2998 86.4816 51.1434C89.998 51.6715 92.9449 54.3012 93.8421 57.7416C94.0814 58.6588 94.1761 59.5772 94.1395 60.4732C93.9765 64.478 90.5227 67.5667 86.5144 67.5667H83.6633C79.5457 67.5667 76.0628 64.3078 76.0221 60.1905ZM78.0888 69.9622H74.7037C74.3294 69.9622 74.0252 69.658 74.0252 69.2837C74.0252 68.9094 74.3294 68.6052 74.7037 68.6052H95.4648C95.8391 68.6052 96.1433 68.9094 96.1433 69.2837C96.1433 69.658 95.8391 69.9622 95.4648 69.9622H78.0888ZM77.6752 94.8361C80.9489 87.8991 80.5862 80.1841 79.6058 73.0882C82.9882 71.1111 87.1803 71.1111 90.563 73.0882C89.5827 80.1841 89.22 87.8991 92.4936 94.8361C92.9931 95.8947 92.2195 97.1116 91.0488 97.1116H79.1201C77.9493 97.1116 77.1758 95.8947 77.6756 94.8361H77.6752ZM100.839 112.572C100.437 112.721 100.004 112.802 99.5503 112.802H70.6179C70.1646 112.802 69.7309 112.721 69.3296 112.572C68.4193 112.235 67.884 111.223 68.1838 110.299C68.1855 110.294 68.1872 110.288 68.1889 110.283C68.5297 109.252 69.5668 108.531 70.7327 108.531C70.9566 108.531 71.1552 108.387 71.2257 108.175C71.2957 107.963 71.2226 107.729 71.0431 107.595C70.9351 107.515 70.8336 107.429 70.7368 107.339C70.7044 107.309 70.676 107.276 70.6449 107.245C70.5834 107.183 70.5218 107.122 70.4654 107.056C70.4316 107.017 70.4012 106.975 70.3694 106.934C70.3215 106.872 70.2733 106.812 70.2299 106.748C70.1991 106.703 70.1718 106.656 70.1431 106.609C70.1045 106.546 70.0662 106.483 70.0317 106.418C70.0053 106.369 69.9821 106.318 69.9585 106.267C69.9281 106.202 69.8983 106.136 69.872 106.068C69.8515 106.016 69.8331 105.963 69.8149 105.909C69.792 105.84 69.7709 105.771 69.7524 105.702C69.7377 105.647 69.7247 105.592 69.7127 105.536C69.6977 105.465 69.685 105.393 69.6744 105.321C69.6662 105.265 69.6584 105.208 69.6529 105.151C69.6457 105.078 69.6423 105.003 69.6399 104.929C69.6382 104.879 69.6369 104.829 69.6372 104.778C69.6396 104.565 69.6608 104.357 69.7004 104.155C69.7045 104.132 69.7093 104.109 69.7141 104.086C70.0515 102.522 71.4427 101.344 73.1067 101.344C73.1406 101.344 73.1699 101.331 73.2021 101.325C73.2315 101.32 73.2609 101.318 73.2882 101.308C73.3282 101.293 73.3614 101.269 73.3959 101.245C73.4181 101.23 73.4427 101.219 73.4626 101.2C73.4957 101.169 73.519 101.129 73.5432 101.09C73.5552 101.07 73.5723 101.055 73.5815 101.033C73.6096 100.969 73.6263 100.899 73.6263 100.825V99.6774C73.6263 98.8341 74.3099 98.1504 75.1532 98.1504H95.016C95.8593 98.1504 96.5429 98.8341 96.5429 99.6774V100.306H82.8887C82.6016 100.306 82.3695 100.538 82.3695 100.825C82.3695 101.112 82.6019 101.344 82.8887 101.344H96.9251C98.6499 101.344 100.211 102.542 100.489 104.244C100.694 105.506 100.212 106.709 99.245 107.496H79.0131C78.726 107.496 78.4939 107.728 78.4939 108.015C78.4939 108.302 78.7263 108.534 79.0131 108.534H99.4976C100.625 108.551 101.643 109.264 101.98 110.283C101.981 110.288 101.983 110.294 101.985 110.299C102.285 111.223 101.749 112.235 100.839 112.572Z" fill="#D2FF00"/>
<path d="M79.2946 101.344H80.4924C80.7795 101.344 81.0116 101.112 81.0116 100.825C81.0116 100.538 80.7792 100.306 80.4924 100.306H79.2946C79.0075 100.306 78.7754 100.538 78.7754 100.825C78.7754 101.112 79.0078 101.344 79.2946 101.344Z" fill="#D2FF00"/>
<path d="M76.6174 107.495H75.4196C75.1325 107.495 74.9004 107.728 74.9004 108.014C74.9004 108.301 75.1328 108.534 75.4196 108.534H76.6174C76.9045 108.534 77.1366 108.301 77.1366 108.014C77.1366 107.728 76.9042 107.495 76.6174 107.495Z" fill="#D2FF00"/>
<path d="M88.3325 74.6738H87.1348V75.8716H88.3325V74.6738Z" fill="#D2FF00"/>
<path d="M88.0669 77.8682H86.8691V79.0659H88.0669V77.8682Z" fill="#D2FF00"/>
<path d="M87.9849 81.0615H86.7871V82.2593H87.9849V81.0615Z" fill="#D2FF00"/>
<path d="M88.0532 84.2559H86.8555V85.4536H88.0532V84.2559Z" fill="#D2FF00"/>
<path d="M88.397 87.4502H87.1992V88.6479H88.397V87.4502Z" fill="#D2FF00"/>
<path d="M89.0903 90.6445H87.8926V91.8423H89.0903V90.6445Z" fill="#D2FF00"/>
<path d="M90.2153 93.8379H89.0176V95.0356H90.2153V93.8379Z" fill="#D2FF00"/>
<path d="M81.7916 78.7978H81.8043C81.9143 78.7907 81.9977 78.6956 81.9912 78.5856C81.9577 78.0547 81.9171 77.5273 81.8713 77.0043C81.862 76.8942 81.7684 76.8053 81.6552 76.8224C81.5451 76.8317 81.4641 76.9291 81.4734 77.0385C81.5195 77.5587 81.5598 78.0827 81.592 78.6105C81.5992 78.7165 81.687 78.7978 81.7916 78.7978Z" fill="#D2FF00"/>
<path d="M80.5886 91.7771C80.6063 91.7826 80.6251 91.785 80.6432 91.785C80.7304 91.785 80.81 91.7282 80.835 91.64C81.6677 88.7181 82.0803 85.5928 82.0967 82.0861C82.0974 81.976 82.0085 81.8864 81.8977 81.8857H81.8971C81.787 81.8857 81.6981 81.9746 81.6974 82.0847C81.681 85.5549 81.2732 88.6443 80.4511 91.531C80.4207 91.637 80.4822 91.747 80.5882 91.7775L80.5886 91.7771Z" fill="#D2FF00"/>
<path d="M77.8852 60.2343C77.9952 60.2343 78.0848 60.1447 78.0848 60.0346C78.0848 56.2113 81.1947 53.1014 85.018 53.1014C85.1281 53.1014 85.2177 53.0118 85.2177 52.9018C85.2177 52.7917 85.1281 52.7021 85.018 52.7021C80.9749 52.7021 77.6855 55.9912 77.6855 60.0346C77.6855 60.1447 77.7751 60.2343 77.8852 60.2343Z" fill="#D2FF00"/>
<path d="M89.0282 109.958H87.8305C87.7204 109.958 87.6309 110.048 87.6309 110.158C87.6309 110.268 87.7204 110.357 87.8305 110.357H89.0282C89.1383 110.357 89.2279 110.268 89.2279 110.158C89.2279 110.048 89.1383 109.958 89.0282 109.958Z" fill="#D2FF00"/>
<path d="M84.3029 109.958H72.1801C72.07 109.958 71.9805 110.048 71.9805 110.158C71.9805 110.268 72.07 110.357 72.1801 110.357H84.3029C84.413 110.357 84.5025 110.268 84.5025 110.158C84.5025 110.048 84.413 109.958 84.3029 109.958Z" fill="#D2FF00"/>
<path d="M74.5746 103.171H85.8986C86.0087 103.171 86.0982 103.081 86.0982 102.971C86.0982 102.861 86.0087 102.771 85.8986 102.771H74.5746C74.4646 102.771 74.375 102.861 74.375 102.971C74.375 103.081 74.4646 103.171 74.5746 103.171Z" fill="#D2FF00"/>
<path d="M376.29 54.9307H353.08C354.387 66.4316 354.084 78.2439 351.295 89.7448H378.075C375.286 78.2439 374.983 66.4316 376.29 54.9307Z" fill="#212121"/>
<path d="M375.853 59.9798C375.948 58.3667 376.086 56.7088 376.288 54.9307H353.078C353.28 56.7084 353.418 58.3664 353.513 59.9798C360.24 55.3614 369.126 55.3614 375.853 59.9798Z" fill="#56EBFF"/>
<path d="M356.45 64.6363H356.456C356.579 64.6327 356.676 64.5297 356.673 64.406C356.648 63.583 356.614 62.7567 356.571 61.9268C356.564 61.8038 356.471 61.7191 356.337 61.7148C356.213 61.7217 356.119 61.8264 356.125 61.9494C356.168 62.7757 356.202 63.6005 356.226 64.42C356.23 64.5405 356.329 64.6363 356.45 64.6363Z" fill="#56EBFF"/>
<path d="M356.498 68.3588H356.496C356.374 68.3588 356.274 68.4574 356.273 68.58C356.233 73.5969 355.836 78.5285 355.093 83.2384C355.074 83.3603 355.157 83.4747 355.278 83.4937C355.29 83.4955 355.302 83.4962 355.313 83.4962C355.421 83.4962 355.516 83.4177 355.534 83.3079C356.281 78.5762 356.679 73.622 356.72 68.5833C356.72 68.4603 356.621 68.3591 356.498 68.3584V68.3588Z" fill="#56EBFF"/>
<path d="M380.752 47.79H348.615C347.629 47.79 346.83 48.5894 346.83 49.5753C346.83 50.5612 347.629 51.3606 348.615 51.3606H351.07V52.9228C351.07 54.032 351.969 54.9311 353.079 54.9311H376.288C377.397 54.9311 378.297 54.032 378.297 52.9228V51.3606H380.752C381.737 51.3606 382.537 50.5612 382.537 49.5753C382.537 48.5894 381.737 47.79 380.752 47.79Z" fill="#212121"/>
<path d="M377.181 24.5801V32.6141H369.147V24.5801H360.22V32.6141H352.186V24.5801H345.045L347.263 41.5853C347.526 43.6022 349.245 45.1114 351.279 45.1114H378.088C380.123 45.1114 381.841 43.6022 382.104 41.5853L384.323 24.5801H377.181Z" fill="#212121"/>
<path d="M381.18 24.5801L379.428 38.0148C379.164 40.0317 377.446 41.5408 375.412 41.5408H348.602C348.12 41.5408 347.658 41.4505 347.227 41.2941L347.265 41.5853C347.528 43.6022 349.246 45.1114 351.281 45.1114H378.09C380.124 45.1114 381.843 43.6022 382.106 41.5853L384.324 24.5801H381.18Z" fill="#56EBFF"/>
<path d="M378.075 45.1113H351.295V47.7892H378.075V45.1113Z" fill="#56EBFF"/>
<path d="M384.769 104.028H383.71C385.155 103.069 386.108 101.429 386.108 99.5651C386.108 96.6071 383.71 94.2093 380.752 94.2093V92.0521C380.752 90.7786 379.719 89.7461 378.446 89.7461H350.922C349.649 89.7461 348.616 90.7786 348.616 92.0521V94.2093C345.658 94.2093 343.26 96.6071 343.26 99.5651C343.26 101.429 344.213 103.069 345.658 104.028H344.599C342.381 104.028 340.582 105.827 340.582 108.045C340.582 110.264 342.381 112.062 344.599 112.062H384.769C386.987 112.062 388.786 110.264 388.786 108.045C388.786 105.827 386.987 104.028 384.769 104.028Z" fill="#212121"/>
<path d="M360.131 106.387H346.579C346.456 106.387 346.355 106.487 346.355 106.61C346.355 106.732 346.456 106.833 346.579 106.833H360.131C360.254 106.833 360.354 106.732 360.354 106.61C360.354 106.487 360.254 106.387 360.131 106.387Z" fill="#56EBFF"/>
<path d="M350.149 97.0448H368.164C368.287 97.0448 368.387 96.9443 368.387 96.8217C368.387 96.699 368.287 96.5986 368.164 96.5986H350.149C350.026 96.5986 349.926 96.699 349.926 96.8217C349.926 96.9443 350.026 97.0448 350.149 97.0448Z" fill="#56EBFF"/>
<path d="M385.222 103.47C386.158 102.401 386.688 101.021 386.688 99.5643C386.688 96.4869 384.334 93.9485 381.332 93.6566V92.051C381.332 90.4935 380.089 89.2275 378.544 89.1744C376.085 78.7935 375.506 67.4554 376.822 55.4552C377.994 55.2085 378.877 54.167 378.877 52.9229V51.9413H380.752C382.056 51.9413 383.117 50.8794 383.117 49.5754C383.117 48.2715 382.056 47.2095 380.752 47.2095H378.654V45.6402C380.718 45.3834 382.405 43.7685 382.68 41.6608L384.898 24.6556C384.92 24.4899 384.869 24.3235 384.758 24.198C384.649 24.0724 384.489 24 384.323 24H377.181C376.861 24 376.601 24.2597 376.601 24.5806V32.0341H369.727V24.5806C369.727 24.2597 369.467 24 369.147 24H360.22C359.9 24 359.64 24.2597 359.64 24.5806V32.0341H352.766V24.5806C352.766 24.2597 352.506 24 352.186 24H345.044C344.877 24 344.718 24.0724 344.608 24.198C344.498 24.3235 344.447 24.4899 344.469 24.6556L346.687 41.6608C346.962 43.7685 348.649 45.3834 350.713 45.6402V47.2095H348.615C347.31 47.2095 346.249 48.2715 346.249 49.5754C346.249 50.8794 347.31 51.9413 348.615 51.9413H350.489V52.9229C350.489 54.167 351.372 55.2085 352.544 55.4552C353.861 67.4561 353.282 78.7953 350.822 89.1744C349.277 89.2275 348.034 90.4935 348.034 92.051V93.6566C345.033 93.9485 342.678 96.4873 342.678 99.5643C342.678 101.021 343.209 102.401 344.144 103.47C341.821 103.698 340 105.662 340 108.045C340 110.58 342.062 112.643 344.597 112.643H384.767C387.302 112.643 389.365 110.58 389.365 108.045C389.365 105.663 387.543 103.698 385.221 103.47H385.222ZM347.839 41.5105L345.706 25.1609H351.607V32.6143C351.607 32.9353 351.866 33.195 352.187 33.195H360.221C360.541 33.195 360.801 32.9353 360.801 32.6143V25.1609H368.568V32.6143C368.568 32.9353 368.828 33.195 369.148 33.195H377.182C377.502 33.195 377.762 32.9353 377.762 32.6143V25.1609H383.663L381.531 41.5105C381.306 43.233 379.827 44.5313 378.09 44.5313H351.281C349.544 44.5313 348.065 43.2334 347.84 41.5105H347.839ZM351.874 45.6922H377.494V47.2092H351.874V45.6922ZM351.651 52.9225V51.3603C351.651 51.0397 351.392 50.7797 351.071 50.7797H348.616C347.951 50.7797 347.411 50.2393 347.411 49.5751C347.411 48.9109 347.951 48.3704 348.616 48.3704H380.752C381.417 48.3704 381.957 48.9109 381.957 49.5751C381.957 50.2393 381.417 50.7797 380.752 50.7797H363.119C362.799 50.7797 362.539 51.0394 362.539 51.3603C362.539 51.6813 362.799 51.941 363.119 51.941H377.717V52.9225C377.717 53.7097 377.076 54.3503 376.288 54.3503H353.079C352.291 54.3503 351.65 53.7094 351.65 52.9225H351.651ZM353.728 55.5115H375.641C374.487 66.1772 374.817 76.3326 376.62 85.7692C376.957 87.533 375.613 89.1644 373.817 89.1644H355.551C353.756 89.1644 352.412 87.533 352.749 85.7692C354.552 76.3333 354.882 66.1786 353.728 55.5115ZM384.769 111.481H344.599C342.704 111.481 341.163 109.94 341.163 108.045C341.163 106.15 342.704 104.608 344.599 104.608H345.658C345.914 104.608 346.14 104.44 346.213 104.195C346.288 103.95 346.192 103.686 345.979 103.544C344.64 102.655 343.84 101.167 343.84 99.5643C343.84 96.9309 345.983 94.7888 348.616 94.7888C348.936 94.7888 349.196 94.5292 349.196 94.2082V92.0507C349.196 91.0996 349.971 90.3256 350.922 90.3256H378.447C379.398 90.3256 380.172 91.0996 380.172 92.0507V93.6276H360.934C360.614 93.6276 360.354 93.8872 360.354 94.2082C360.354 94.5292 360.614 94.7888 360.934 94.7888H380.753C383.386 94.7888 385.529 96.9306 385.529 99.5643C385.529 101.114 384.777 102.55 383.518 103.447H357.364C357.044 103.447 356.784 103.707 356.784 104.028C356.784 104.349 357.043 104.608 357.364 104.608H384.77C386.665 104.608 388.206 106.15 388.206 108.045C388.206 109.94 386.665 111.481 384.77 111.481L384.769 111.481Z" fill="#56EBFF"/>
<path d="M353.029 103.447H351.113C350.793 103.447 350.533 103.707 350.533 104.028C350.533 104.349 350.793 104.609 351.113 104.609H353.029C353.35 104.609 353.61 104.349 353.61 104.028C353.61 103.707 353.35 103.447 353.029 103.447Z" fill="#56EBFF"/>
<path d="M357.182 94.2086C357.182 93.8876 356.922 93.6279 356.602 93.6279H354.686C354.365 93.6279 354.105 93.8876 354.105 94.2086C354.105 94.5295 354.365 94.7892 354.686 94.7892H356.602C356.922 94.7892 357.182 94.5295 357.182 94.2086Z" fill="#56EBFF"/>
<path d="M356.219 51.9405H358.265C358.585 51.9405 358.845 51.6809 358.845 51.3599C358.845 51.0389 358.586 50.7793 358.265 50.7793H356.219C355.899 50.7793 355.639 51.0389 355.639 51.3599C355.639 51.6809 355.898 51.9405 356.219 51.9405Z" fill="#56EBFF"/>
<path d="M356.517 36.0732H352.5C352.377 36.0732 352.277 36.1733 352.277 36.2963C352.277 36.4193 352.377 36.5194 352.5 36.5194H356.517C356.641 36.5194 356.741 36.4193 356.741 36.2963C356.741 36.1733 356.641 36.0732 356.517 36.0732Z" fill="#56EBFF"/>
<path d="M384.769 110.277H344.599C342.688 110.277 341.096 108.94 340.689 107.152C340.624 107.44 340.582 107.737 340.582 108.045C340.582 110.263 342.381 112.062 344.599 112.062H384.769C386.987 112.062 388.786 110.263 388.786 108.045C388.786 107.737 388.744 107.44 388.679 107.152C388.272 108.94 386.679 110.277 384.769 110.277Z" fill="#56EBFF"/>
</g>
<defs>
<clipPath id="clip0_632_3">
<rect width="359" height="134" fill="white"/>
</clipPath>
</defs>
</svg>
