<svg width="191" height="133" viewBox="0 0 191 133" fill="none" xmlns="http://www.w3.org/2000/svg">
<path d="M75.0368 37.5801C75.0107 37.6384 74.9847 37.6936 74.9492 37.752C74.9816 37.6968 75.0107 37.6384 75.0368 37.5801Z" fill="#F9F8F4"/>
<path d="M29.5977 38.0801C29.6237 38.1093 29.6497 38.1321 29.6789 38.1582C29.6497 38.1321 29.6205 38.1061 29.5977 38.0801Z" fill="#F9F8F4"/>
<path d="M38.835 24.5985C38.835 24.1244 38.5274 23.6479 37.9106 23.2848C35.303 21.7522 32.6922 20.2197 30.0854 18.684C29.4678 18.3209 29.1609 17.8476 29.1609 17.3734C29.1609 16.8993 29.4678 16.426 30.0854 16.0629C32.5979 14.5859 35.1111 13.1088 37.6236 11.6286C38.8557 10.9063 40.8552 10.9063 42.0872 11.6286C44.6948 13.1643 47.3056 14.6969 49.9124 16.2294C51.1445 16.9548 53.144 16.9548 54.3761 16.2294C56.9837 14.6969 59.5913 13.1643 62.2013 11.6286C63.4333 10.9063 65.4297 10.9063 66.6617 11.6286C69.1742 13.1088 71.6906 14.5859 74.2031 16.0629C74.8564 16.445 75.164 16.958 75.1244 17.4615C75.0887 17.9054 74.7811 18.3439 74.2031 18.6832C71.5923 20.2189 68.9847 21.7514 66.3771 23.284C65.7206 23.6693 65.413 24.1823 65.4527 24.6825C65.4883 25.1305 65.7991 25.5681 66.3771 25.9082C67.1414 26.3562 67.9065 26.8065 68.6707 27.2576C70.5133 28.3391 72.3566 29.4236 74.2023 30.509C74.8556 30.8912 75.1632 31.4041 75.1236 31.9076C75.0879 32.3524 74.7803 32.7932 74.2023 33.1293C71.6898 34.6064 69.1734 36.0866 66.6609 37.5636C65.4289 38.2859 63.4325 38.2859 62.2005 37.5636C59.5897 36.0279 56.9821 34.4954 54.3753 32.9628C53.1432 32.2374 51.1437 32.2374 49.9116 32.9628C47.304 34.4954 44.6932 36.0279 42.0864 37.5636C40.8544 38.2859 38.8549 38.2859 37.6228 37.5636C35.1103 36.0866 32.5979 34.6064 30.0846 33.1293C29.467 32.7702 29.1602 32.2929 29.1602 31.8188C29.1602 31.3447 29.467 30.8682 30.0846 30.5082C31.9271 29.4236 33.7736 28.3383 35.6162 27.2568C36.3804 26.8057 37.1455 26.3546 37.9098 25.9075C38.5243 25.5443 38.8342 25.0742 38.8342 24.5969L38.835 24.5985Z" fill="url(#paint0_linear_211_15230)"/>
<path d="M65.4525 24.684C65.4136 24.1845 65.7205 23.6707 66.3769 23.2854C68.9845 21.7529 71.5922 20.2203 74.2029 18.6846C74.7809 18.3445 75.0885 17.9069 75.1242 17.4629V22.694C75.1242 22.782 75.1147 22.8708 75.0917 22.9588C75.0687 23.0468 75.0394 23.1348 74.9934 23.2236C74.9212 23.3671 74.8206 23.5042 74.6897 23.6351C74.6636 23.6644 74.6342 23.6874 74.6049 23.7135C74.4907 23.8182 74.3567 23.9165 74.2029 24.0045C72.3572 25.0891 70.5139 26.1737 68.6714 27.2591C67.9071 26.808 67.142 26.3568 66.3777 25.9097C65.7998 25.5696 65.4882 25.1319 65.4525 24.684Z" fill="#212121"/>
<path d="M71.6758 58.1812L92.9601 70.6928C90.2351 74.4207 88.8691 78.4102 88.8691 82.4005V87.5594L71.6758 77.4532V58.1812Z" fill="#212121"/>
<path d="M135.594 76.4858C135.44 76.7443 135.254 76.9988 135.035 77.2438C135.254 76.9988 135.44 76.7435 135.594 76.4858Z" fill="#F9F8F4"/>
<path d="M116.951 90.572V85.2529C116.951 86.6975 117.889 88.138 119.761 89.2393C123.505 91.4417 129.58 91.4417 133.325 89.2393C135.197 88.138 136.131 86.6975 136.131 85.2529H136.134V90.572C136.134 90.5332 136.134 90.4967 136.128 90.4578C136.154 91.1278 135.974 91.7977 135.595 92.4344V92.4375C135.438 92.696 135.252 92.9473 135.036 93.1923C134.599 93.6855 134.027 94.1461 133.325 94.5584C129.58 96.7608 123.505 96.7608 119.761 94.5584C117.889 93.4571 116.951 92.0165 116.951 90.572Z" fill="#212121"/>
<path d="M134.553 77.7245C134.641 77.646 134.726 77.5675 134.804 77.4858C134.726 77.5643 134.641 77.646 134.553 77.7245Z" fill="#F9F8F4"/>
<path d="M123.339 79.9363C125.407 79.5082 127.678 79.5082 129.747 79.9363C131.054 80.2075 132.279 80.6523 133.325 81.2659C135.197 82.3671 136.131 83.8077 136.131 85.2522C136.131 86.6968 135.197 88.1373 133.325 89.2386C129.58 91.4411 123.505 91.4411 119.761 89.2386C117.889 88.1373 116.951 86.6968 116.951 85.2522C116.951 83.8077 117.889 82.3671 119.761 81.2659C120.807 80.6515 122.032 80.2075 123.339 79.9363Z" fill="url(#paint1_linear_211_15230)"/>
<path d="M136.133 74.6239C136.133 75.2542 135.953 75.8853 135.594 76.4863C135.973 75.8488 136.153 75.1797 136.127 74.5098C136.133 74.5486 136.133 74.5851 136.133 74.6239Z" fill="#F9F8F4"/>
<path d="M133.324 78.6103C133.56 78.4731 133.779 78.3296 133.981 78.1821C133.778 78.3288 133.559 78.4731 133.324 78.6103Z" fill="#F9F8F4"/>
<path d="M1.39648 50.2542V30.9829C1.39648 38.56 6.3144 46.1339 16.1463 51.9144C31.1601 60.7401 53.2911 62.8277 71.6767 58.1817V77.453C53.2903 82.0997 31.1601 80.0114 16.1463 71.1856C6.3144 65.4059 1.39648 57.8312 1.39648 50.2542Z" fill="#212121"/>
<path d="M29.3906 37.8379C29.4398 37.9069 29.4953 37.975 29.5603 38.044C29.4953 37.979 29.439 37.9069 29.3906 37.8379Z" fill="#F9F8F4"/>
<path d="M135.594 92.4345C135.973 91.7971 136.153 91.1272 136.127 90.458C136.133 90.4969 136.133 90.5333 136.133 90.5722C136.133 91.2025 135.953 91.8336 135.594 92.4345Z" fill="#F9F8F4"/>
<path d="M189.605 101.669C189.608 109.243 184.691 116.82 174.852 122.603C155.182 134.164 123.291 134.164 103.624 122.603C93.7858 116.823 88.8711 109.249 88.8743 101.672H88.8711V82.4006C88.8711 89.9745 93.789 97.5516 103.624 103.332C123.291 114.892 155.182 114.892 174.852 103.332C184.687 97.5516 189.605 89.9745 189.605 82.3975V101.669Z" fill="#212121"/>
<path d="M74.6055 23.7128C74.6346 23.6868 74.6638 23.6639 74.6899 23.6348C74.6638 23.6608 74.6378 23.6868 74.6055 23.7128Z" fill="#F9F8F4"/>
<path d="M29.1602 37.1384V31.8193C29.1602 32.2934 29.467 32.7699 30.0846 33.1299C32.5971 34.6069 35.1103 36.0871 37.6228 37.5642C38.8549 38.2864 40.8544 38.2864 42.0864 37.5642C44.694 36.0285 47.3048 34.4959 49.9116 32.9634C51.1437 32.2379 53.1432 32.2379 54.3753 32.9634C56.9829 34.4959 59.5905 36.0285 62.2005 37.5642C63.4325 38.2864 65.4289 38.2864 66.6609 37.5642C69.1734 36.0871 71.6898 34.6069 74.2023 33.1299C74.7803 32.7929 75.0879 32.3521 75.1236 31.9081V37.1392C75.1236 37.2859 75.0943 37.4365 75.0356 37.58C75.0094 37.6387 74.9801 37.6974 74.9476 37.7529C74.9151 37.8084 74.8754 37.8639 74.8334 37.9194C74.7906 37.9749 74.7422 38.0272 74.6899 38.0795C74.6764 38.0962 74.6637 38.1088 74.6471 38.1223C74.5226 38.2365 74.3759 38.3475 74.2031 38.449C71.6906 39.926 69.1742 41.4062 66.6617 42.8833C65.4297 43.6055 63.4333 43.6055 62.2013 42.8833C59.5905 41.3475 56.9829 39.815 54.3761 38.2825C53.144 37.557 51.1445 37.557 49.9124 38.2825C47.3048 39.815 44.694 41.3475 42.0872 42.8833C40.8552 43.6055 38.8557 43.6055 37.6236 42.8833C35.1111 41.4062 32.5987 39.926 30.0854 38.449C29.9316 38.3578 29.7944 38.2627 29.6803 38.158C29.6509 38.1318 29.6248 38.1088 29.5986 38.0795C29.5859 38.07 29.5724 38.0565 29.5629 38.0438C29.4979 37.9749 29.4416 37.9067 29.3932 37.8377C29.2363 37.6125 29.1602 37.3771 29.1602 37.1384Z" fill="#212121"/>
<path d="M133.325 65.3174C135.197 66.4186 136.131 67.8592 136.131 69.3037C136.131 70.7483 135.197 72.1888 133.325 73.2901C129.58 75.4894 123.505 75.4894 119.761 73.2901C117.889 72.1888 116.951 70.7451 116.951 69.3037C116.951 67.8624 117.889 66.4186 119.761 65.3174C123.505 63.1149 129.58 63.1149 133.325 65.3174Z" fill="url(#paint2_linear_211_15230)"/>
<path d="M29.5977 23.6348C29.6237 23.6608 29.6529 23.6868 29.6789 23.7128C29.6497 23.6868 29.6205 23.6608 29.5977 23.6348Z" fill="#F9F8F4"/>
<path d="M74.6465 38.1227C74.663 38.11 74.6757 38.0966 74.6891 38.0801L74.6465 38.1227Z" fill="#F9F8F4"/>
<path d="M135.594 92.4375C135.44 92.696 135.254 92.9473 135.035 93.1923C135.251 92.9473 135.437 92.696 135.594 92.4375Z" fill="#F9F8F4"/>
<path d="M29.1602 22.6931V17.374C29.1602 17.8481 29.467 18.3215 30.0846 18.6846C32.6922 20.2203 35.303 21.7528 37.9098 23.2854C38.5274 23.6485 38.8342 24.125 38.8342 24.5991C38.8342 25.0763 38.5235 25.5465 37.9098 25.9096C37.1455 26.3576 36.3804 26.8079 35.6162 27.259C33.7736 26.1744 31.9271 25.089 30.0846 24.0044C30.0061 23.9585 29.934 23.9093 29.8658 23.8641C29.8008 23.8118 29.7381 23.7626 29.6795 23.7135C29.6533 23.6873 29.624 23.6612 29.5978 23.635C29.3068 23.3472 29.1602 23.0198 29.1602 22.6931Z" fill="#212121"/>
<path d="M109.694 50.6921C109.651 51.2146 109.286 51.7346 108.606 52.1326C107.152 52.9857 104.8 52.9857 103.346 52.1326C100.983 50.7444 98.6184 49.3522 96.2558 47.9632C95.5304 47.5382 95.1641 46.9761 95.1641 46.4179C95.1641 45.8598 95.5304 45.2969 96.2558 44.8727C97.7067 44.0196 100.062 44.0196 101.513 44.8727C103.879 46.2618 106.241 47.65 108.606 49.0422C109.378 49.4965 109.74 50.0975 109.694 50.6921Z" fill="url(#paint3_linear_211_15230)"/>
<path d="M29.6797 23.7129C29.738 23.7618 29.7996 23.8107 29.865 23.8627C29.8003 23.8138 29.738 23.7649 29.6797 23.7129Z" fill="#F9F8F4"/>
<path d="M109.694 50.6921V55.9073C109.694 56.2895 109.525 56.6748 109.181 57.0149C109.149 57.0474 109.116 57.0767 109.083 57.1093C109.014 57.1679 108.939 57.2266 108.861 57.2861C108.782 57.3455 108.698 57.4002 108.606 57.4526C107.152 58.3056 104.8 58.3056 103.346 57.4526C100.983 56.0635 98.6184 54.6721 96.2558 53.2831C95.9815 53.1229 95.7627 52.9429 95.589 52.7535C95.5335 52.6877 95.4812 52.6258 95.4352 52.5576C95.2552 52.296 95.1641 52.0185 95.1641 51.7371V46.418C95.1641 46.9769 95.5304 47.539 96.2558 47.9632C98.6184 49.3522 100.983 50.7436 103.346 52.1327C104.8 52.9858 107.152 52.9858 108.606 52.1327C109.286 51.7339 109.652 51.2146 109.694 50.6921Z" fill="#212121"/>
<path d="M116.951 74.624C116.951 74.5225 116.954 74.425 116.965 74.3267C116.955 74.425 116.951 74.5225 116.951 74.624Z" fill="#F9F8F4"/>
<path d="M109.082 57.1095C109.114 57.0771 109.147 57.048 109.18 57.0156C109.151 57.048 109.115 57.0803 109.082 57.1095Z" fill="#F9F8F4"/>
<path d="M108.859 57.2862C108.938 57.2275 109.013 57.1688 109.081 57.1094C109.012 57.1712 108.938 57.2307 108.859 57.2862Z" fill="#F9F8F4"/>
<path d="M116.963 74.3263C116.953 74.4246 116.949 74.5221 116.949 74.6236V69.3037C116.949 70.7451 117.887 72.1888 119.759 73.2901C123.504 75.4894 129.578 75.4894 133.323 73.2901C135.195 72.1888 136.129 70.7451 136.129 69.3037H136.133V74.6236C136.133 74.5839 136.132 74.5483 136.126 74.5094C136.152 75.1794 135.972 75.8493 135.593 76.4859C135.44 76.7444 135.253 76.9989 135.034 77.2439C134.962 77.3255 134.884 77.4072 134.802 77.4857C134.724 77.5674 134.639 77.6459 134.551 77.7243C134.374 77.8813 134.185 78.0312 133.979 78.1818C133.776 78.3285 133.557 78.4728 133.323 78.6099C132.277 79.2244 131.052 79.6652 129.745 79.9363C127.676 79.5082 125.406 79.5082 123.337 79.9363C122.03 79.6652 120.805 79.2244 119.759 78.6099C117.887 77.5087 116.949 76.0649 116.949 74.6236C116.949 74.5221 116.952 74.4246 116.963 74.3263Z" fill="#212121"/>
<path d="M75.0905 22.958C75.0707 23.046 75.0382 23.134 74.9922 23.2228C75.0382 23.1348 75.0675 23.046 75.0905 22.958Z" fill="#F9F8F4"/>
<path d="M144.089 90.3628C144.086 90.3983 144.086 90.4346 144.086 90.4669V90.3951C144.089 90.3857 144.089 90.3723 144.089 90.3628Z" fill="#F9F8F4"/>
<path d="M163.266 74.6208V74.624C163.266 75.1631 163.135 75.7054 162.87 76.2279C162.782 76.4015 162.681 76.5743 162.564 76.744C162.446 76.9136 162.315 77.0809 162.168 77.2443C162.021 77.4044 161.861 77.5646 161.688 77.7247C161.511 77.8785 161.321 78.0315 161.113 78.1822C160.91 78.3288 160.691 78.4731 160.456 78.6103C159.414 79.2247 158.186 79.6655 156.878 79.9367C154.81 79.5086 152.539 79.5086 150.471 79.9367C149.167 79.6655 147.938 79.2247 146.893 78.6103C146.307 78.267 145.814 77.888 145.412 77.4892C145.252 77.3291 145.106 77.1626 144.975 76.9961C144.91 76.9144 144.847 76.8296 144.788 76.7448C144.671 76.5751 144.57 76.4015 144.482 76.2286C144.217 75.7062 144.086 75.1639 144.086 74.6247V69.3968C144.122 70.8081 145.06 72.2138 146.893 73.292C150.64 75.4913 156.712 75.4913 160.456 73.292C162.328 72.1908 163.266 70.747 163.266 69.3057V74.6208Z" fill="#212121"/>
<path d="M144.482 76.2275C144.57 76.4012 144.672 76.574 144.789 76.7437C144.672 76.574 144.57 76.4004 144.482 76.2275Z" fill="#F9F8F4"/>
<path d="M144.688 92.5361C144.88 92.8461 145.122 93.1474 145.413 93.4384C145.122 93.1474 144.877 92.8469 144.688 92.5361Z" fill="#F9F8F4"/>
<path d="M150.472 79.9363C152.54 79.5082 154.811 79.5082 156.879 79.9363C158.187 80.2075 159.412 80.6523 160.457 81.2659C162.329 82.3671 163.267 83.8077 163.267 85.2522C163.267 86.6968 162.329 88.1373 160.457 89.2386C156.713 91.4411 150.642 91.4411 146.894 89.2386C145.061 88.1603 144.123 86.7586 144.087 85.3442C144.048 83.8703 144.982 82.3901 146.894 81.2667C147.939 80.6523 149.164 80.2083 150.472 79.9371V79.9363Z" fill="url(#paint4_linear_211_15230)"/>
<path d="M160.457 78.6103C160.693 78.4731 160.911 78.3296 161.113 78.1821C160.907 78.3328 160.689 78.4731 160.457 78.6103Z" fill="#F9F8F4"/>
<path d="M144.087 69.3954C144.048 67.9215 144.982 66.4413 146.894 65.3179C150.641 63.1154 156.713 63.1154 160.457 65.3179C162.329 66.4191 163.267 67.8597 163.267 69.3042C163.267 70.7487 162.329 72.1893 160.457 73.2906C156.713 75.4899 150.642 75.4899 146.894 73.2906C145.061 72.2123 144.123 70.8074 144.087 69.3954Z" fill="url(#paint5_linear_211_15230)"/>
<path d="M162.17 77.2441C162.026 77.4075 161.863 77.5676 161.689 77.7246C161.862 77.5644 162.022 77.4043 162.17 77.2441Z" fill="#F9F8F4"/>
<path d="M161.938 93.4374C162.019 93.3557 162.098 93.274 162.17 93.1924C162.098 93.2772 162.019 93.3589 161.938 93.4374Z" fill="#F9F8F4"/>
<path d="M162.871 76.2275C162.783 76.4012 162.682 76.574 162.564 76.7437C162.682 76.574 162.783 76.4004 162.871 76.2275Z" fill="#F9F8F4"/>
<path d="M163.269 90.569V90.5721C163.269 91.4744 162.902 92.3758 162.171 93.1924C162.098 93.2741 162.02 93.3558 161.938 93.4374C161.536 93.8362 161.043 94.2152 160.458 94.5585C156.714 96.761 150.643 96.761 146.894 94.5585C146.309 94.2152 145.816 93.8362 145.414 93.4374C145.123 93.1465 144.881 92.846 144.689 92.5352C144.264 91.8684 144.065 91.1691 144.088 90.4667C144.088 90.4342 144.088 90.3985 144.091 90.362C144.091 90.3715 144.091 90.385 144.088 90.3945V85.3434C144.123 86.7578 145.061 88.1596 146.894 89.2378C150.642 91.4403 156.714 91.4403 160.458 89.2378C162.33 88.1366 163.268 86.696 163.268 85.2515V90.5674L163.269 90.569Z" fill="#212121"/>
<path d="M146.894 94.5585C150.642 96.761 156.713 96.761 160.458 94.5585C161.043 94.2152 161.536 93.8363 161.938 93.4375C162.02 93.359 162.098 93.2773 162.17 93.1925C162.902 92.3759 163.268 91.4736 163.268 90.5722V85.2531C163.268 83.8086 162.33 82.368 160.458 81.2668C159.413 80.6523 158.188 80.2083 156.88 79.9372C158.188 79.666 159.416 79.2252 160.458 78.6108C160.691 78.4736 160.91 78.3333 161.115 78.1827C161.324 78.032 161.514 77.879 161.69 77.7252C161.863 77.5682 162.026 77.4081 162.17 77.2448C162.317 77.0814 162.448 76.9149 162.566 76.7445C162.683 76.5748 162.785 76.4012 162.873 76.2283C163.137 75.7059 163.268 75.1636 163.268 74.6245V69.3046C163.268 67.86 162.33 66.4195 160.458 65.3182C156.714 63.1158 150.643 63.1158 146.895 65.3182C144.983 66.4425 144.048 67.9227 144.088 69.3957V74.6237C144.088 75.1628 144.219 75.7051 144.484 76.2276C144.572 76.4012 144.673 76.574 144.791 76.7437C144.849 76.8285 144.912 76.9133 144.977 76.995C145.108 77.1615 145.254 77.328 145.415 77.4881C145.816 77.8869 146.31 78.2659 146.895 78.6092C147.94 79.2236 149.169 79.6645 150.473 79.9356C149.165 80.2068 147.94 80.6515 146.895 81.2652C144.983 82.3894 144.048 83.8696 144.088 85.3427V90.466C144.065 91.1684 144.265 91.8677 144.689 92.5344C144.879 92.8444 145.124 93.1457 145.415 93.4367C145.816 93.8355 146.31 94.2144 146.895 94.5577L146.894 94.5585ZM103.345 57.4534C104.799 58.3065 107.151 58.3065 108.605 57.4534C108.696 57.4011 108.782 57.3456 108.86 57.2869C108.938 57.2314 109.013 57.1727 109.082 57.1101C109.114 57.0807 109.15 57.0482 109.18 57.0157C109.523 56.6756 109.693 56.2903 109.693 55.9082V50.6929C109.739 50.0983 109.376 49.4973 108.605 49.0431C106.239 47.6508 103.877 46.2626 101.512 44.8736C100.061 44.0205 97.7053 44.0205 96.2544 44.8736C95.529 45.2985 95.1627 45.8606 95.1627 46.4188V51.7379C95.1627 52.0193 95.2539 52.2968 95.4338 52.5585C95.4798 52.6266 95.5322 52.6893 95.5877 52.7543C95.7605 52.9438 95.9801 53.1237 96.2544 53.2839C98.6171 54.6729 100.982 56.0643 103.345 57.4534ZM116.95 74.6237C116.95 76.065 117.888 77.5088 119.76 78.61C120.806 79.2244 122.031 79.6653 123.338 79.9364C122.031 80.2075 120.806 80.6523 119.76 81.266C117.888 82.3672 116.95 83.8078 116.95 85.2523V90.5714C116.95 92.0159 117.888 93.4565 119.76 94.5577C123.505 96.7602 129.579 96.7602 133.324 94.5577C134.026 94.1463 134.598 93.6856 135.036 93.1917C135.254 92.9467 135.441 92.6954 135.595 92.4369V92.4338C135.954 91.8328 136.134 91.2017 136.134 90.5714V85.2523H136.131C136.131 83.8078 135.196 82.3672 133.324 81.266C132.278 80.6515 131.053 80.2075 129.746 79.9364C131.053 79.6653 132.278 79.2244 133.324 78.61C133.559 78.4728 133.778 78.3293 133.98 78.1819C134.186 78.0312 134.376 77.8814 134.552 77.7244C134.64 77.6459 134.725 77.5643 134.803 77.4858C134.885 77.4073 134.963 77.3256 135.036 77.244C135.254 76.999 135.441 76.7437 135.595 76.486C135.954 75.885 136.134 75.254 136.134 74.6237V69.3038H136.131C136.131 67.8592 135.196 66.4187 133.324 65.3174C129.579 63.115 123.505 63.115 119.76 65.3174C117.888 66.4187 116.95 67.8592 116.95 69.3038V74.6237ZM29.1605 22.6934C29.1605 23.0201 29.3072 23.3467 29.5982 23.6345C29.6212 23.6607 29.6505 23.6868 29.6798 23.713C29.7385 23.7653 29.8004 23.8145 29.8662 23.8636C29.9343 23.9096 30.0065 23.9588 30.085 24.004C31.9275 25.0885 33.774 26.1731 35.6165 27.2585C33.774 28.3399 31.9275 29.4245 30.085 30.5099C29.4674 30.8691 29.1605 31.3463 29.1605 31.8204V37.1395C29.1605 37.3782 29.2359 37.6136 29.3928 37.8388C29.442 37.9078 29.4975 37.9791 29.5625 38.0449C29.572 38.0576 29.5855 38.0711 29.5982 38.0806C29.6212 38.1068 29.6505 38.1329 29.6798 38.1591C29.794 38.2638 29.9312 38.3581 30.085 38.4501C32.5975 39.9271 35.1107 41.4073 37.6232 42.8844C38.8552 43.6066 40.8548 43.6066 42.0868 42.8844C44.6944 41.3487 47.3052 39.8161 49.912 38.2836C51.1441 37.5581 53.1436 37.5581 54.3756 38.2836C56.9833 39.8161 59.5909 41.3487 62.2009 42.8844C63.4329 43.6066 65.4293 43.6066 66.6613 42.8844C69.1738 41.4073 71.6902 39.9271 74.2027 38.4501C74.3755 38.3486 74.523 38.2376 74.6467 38.1234L74.6895 38.0806C74.7418 38.0283 74.791 37.976 74.833 37.9205C74.875 37.865 74.9146 37.8095 74.9472 37.754C74.9828 37.6953 75.009 37.6398 75.0352 37.5811C75.0938 37.4376 75.1232 37.287 75.1232 37.1403V31.9092C75.162 31.4058 74.8552 30.8928 74.2019 30.5107C72.3562 29.4261 70.5129 28.3407 68.6703 27.2593C70.5129 26.1747 72.3562 25.0893 74.2019 24.0047C74.3557 23.9167 74.4897 23.8184 74.6039 23.7138C74.6364 23.6876 74.6625 23.6615 74.6887 23.6353C74.8195 23.5045 74.921 23.3673 74.9924 23.2238C75.0383 23.1358 75.0708 23.047 75.0907 22.959C75.1137 22.871 75.1232 22.7822 75.1232 22.6942V17.4631C75.162 16.9597 74.8552 16.4467 74.2019 16.0646C71.6894 14.5875 69.173 13.1105 66.6605 11.6303C65.4285 10.908 63.4321 10.908 62.2001 11.6303C59.5893 13.166 56.9817 14.6985 54.3749 16.2311C53.1428 16.9565 51.1433 16.9565 49.9112 16.2311C47.3036 14.6985 44.6928 13.166 42.086 11.6303C40.854 10.908 38.8545 10.908 37.6224 11.6303C35.1099 13.1105 32.5975 14.5875 30.0842 16.0646C29.4666 16.4277 29.1597 16.901 29.1597 17.3751V22.6942L29.1605 22.6934ZM174.851 61.4651C184.686 67.2456 189.604 74.8227 189.604 82.3965C189.604 89.9704 184.686 97.5515 174.851 103.331C155.181 114.891 123.29 114.891 103.623 103.331C93.7879 97.5507 88.87 89.9736 88.87 82.3997C88.87 78.4102 90.2361 74.4207 92.961 70.692L71.6767 58.1804C53.2903 62.8272 31.1601 60.7389 16.1463 51.9131C6.3144 46.1342 1.39649 38.5603 1.39649 30.9832C1.39331 23.4062 6.31044 15.8283 16.1463 10.0486C35.8163 -1.51164 67.7071 -1.51164 87.3771 10.0486C116.536 27.1864 145.692 44.3233 174.851 61.4651Z" fill="#212121"/>
<path d="M74.9471 38.1494C74.8782 38.1494 74.8076 38.1319 74.7442 38.0939C74.5579 37.9821 74.4952 37.7411 74.6046 37.5532C74.63 37.5095 74.653 37.4636 74.6736 37.4176C74.7632 37.2186 74.9955 37.1258 75.1977 37.2178C75.3443 37.2836 75.4324 37.4279 75.4324 37.5793C75.4324 37.6332 75.4212 37.6887 75.3983 37.7411C75.365 37.8156 75.3317 37.8853 75.2857 37.9591C75.2111 38.0812 75.0811 38.1494 74.9471 38.1494Z" fill="#F9F8F4"/>
<path d="M29.4133 38.4511C29.3658 38.4083 29.3341 38.379 29.3023 38.3433C29.1565 38.1808 29.1699 37.931 29.3325 37.7851C29.4942 37.6393 29.7447 37.6496 29.8914 37.8129L29.9398 37.8589L29.4133 38.4511Z" fill="#F9F8F4"/>
<path d="M39.8534 38.5053C38.9789 38.5053 38.1036 38.3055 37.4218 37.9059L29.8836 33.4708C29.1724 33.0578 28.7633 32.4552 28.7633 31.8194C28.7633 31.1835 29.1724 30.5818 29.8844 30.1663C31.7261 29.0825 33.5718 27.9979 35.4159 26.9149L37.7096 25.5655C38.1789 25.2881 38.4382 24.9448 38.4382 24.5975C38.4382 24.2502 38.1718 23.8974 37.7088 23.6247L35.9432 22.5877C33.923 21.4008 31.9021 20.214 29.882 19.0239C29.1597 18.6006 28.7617 18.0139 28.7617 17.3725C28.7617 16.7311 29.1597 16.1444 29.8828 15.7202L37.4202 11.2867C38.7847 10.486 40.9213 10.4867 42.2858 11.2859C44.2805 12.4609 46.2769 13.6343 48.2716 14.8053L50.1118 15.8867C51.213 16.5336 53.0722 16.5336 54.1727 15.8867L61.9987 11.2859C63.3623 10.4852 65.4974 10.486 66.8603 11.2851L74.4025 15.7202C75.1636 16.1658 75.5711 16.8111 75.518 17.4906C75.4696 18.0852 75.0732 18.6299 74.4017 19.0239L66.5765 23.6239C66.0833 23.9133 65.8177 24.2875 65.8463 24.6506C65.8724 24.9781 66.1317 25.3031 66.5765 25.5648L74.4025 30.1655C75.1636 30.6103 75.5711 31.2573 75.518 31.9367C75.4696 32.5345 75.0724 33.0784 74.4009 33.47L66.8603 37.9035C65.4966 38.7027 63.3623 38.7019 61.9987 37.9043L54.1727 33.3028C53.0714 32.6558 51.2122 32.6558 50.1118 33.3028L48.2716 34.3842C46.2761 35.556 44.2805 36.7286 42.2866 37.9035C41.604 38.3031 40.7287 38.5037 39.8534 38.5037V38.5053ZM39.8542 11.4873C39.1137 11.4873 38.3732 11.649 37.823 11.9717L30.2855 16.4052C29.8154 16.6819 29.5561 17.0252 29.5561 17.374C29.5561 17.7229 29.8154 18.0662 30.2847 18.3421C32.3041 19.5321 34.325 20.719 36.3451 21.9059L38.1108 22.9437C38.833 23.3678 39.231 23.9561 39.231 24.5991C39.231 25.2381 38.833 25.8248 38.1108 26.2506L35.8171 27.5999C33.9738 28.6814 32.1273 29.766 30.2847 30.8513C29.8209 31.1225 29.5553 31.4753 29.5553 31.821C29.5553 32.1666 29.8201 32.5194 30.2832 32.7882L37.823 37.2241C38.9234 37.8679 40.7842 37.8694 41.8846 37.2233C43.8786 36.0491 45.8749 34.8765 47.8705 33.7039L49.7098 32.6233C51.0735 31.8194 53.211 31.8194 54.5754 32.6233L62.4006 37.2241C63.5003 37.8694 65.3595 37.8694 66.4591 37.2233L74.0005 32.7898C74.4429 32.5321 74.7006 32.2087 74.7275 31.878C74.7561 31.5133 74.4913 31.1391 74.0013 30.8529L66.1753 26.2521C65.5006 25.8557 65.1034 25.3103 65.055 24.7172C65.0019 24.0394 65.4102 23.3932 66.1745 22.9445L73.9997 18.3445C74.4421 18.0844 74.7006 17.7609 74.7267 17.4327C74.7553 17.0688 74.4905 16.6946 74.0005 16.4084L66.4575 11.9733C65.3587 11.3295 63.4995 11.3279 62.399 11.9733L54.5738 16.5733C53.2102 17.3772 51.0727 17.3772 49.7082 16.5733L47.8689 15.4927C45.8733 14.3201 43.877 13.1483 41.8822 11.9733C41.332 11.6514 40.5923 11.4897 39.8518 11.4897L39.8542 11.4873Z" fill="#F9F8F4"/>
<path d="M68.6718 27.6539C68.6021 27.6539 68.5323 27.6357 68.4705 27.5992L66.1776 26.2506C65.5029 25.8542 65.1057 25.3087 65.0573 24.7157C65.0042 24.0378 65.4125 23.3917 66.1768 22.9429L74.002 18.3429C74.4444 18.0829 74.7029 17.7594 74.7291 17.4312C74.7465 17.2187 74.932 17.0625 75.1405 17.0665C75.353 17.076 75.5211 17.2496 75.5211 17.4629V22.6948C75.5211 22.82 75.506 22.9421 75.4751 23.0587C75.441 23.1911 75.3998 23.3013 75.3451 23.4059C75.2571 23.5827 75.1302 23.7556 74.9693 23.9165C74.9526 23.9363 74.917 23.9688 74.8789 24.0006C74.7322 24.1338 74.5737 24.2495 74.4 24.3486L68.8708 27.6008C68.809 27.6373 68.7392 27.6555 68.6695 27.6555L68.6718 27.6539ZM65.8486 24.6523C65.8755 24.9805 66.1348 25.3048 66.5788 25.5664L68.6718 26.7977L74.0028 23.662C74.1297 23.5883 74.2415 23.5082 74.3382 23.4194C74.3437 23.4131 74.404 23.36 74.4095 23.3536C74.5094 23.2537 74.5863 23.1499 74.6395 23.0444C74.6688 22.9889 74.6886 22.9318 74.7084 22.8581C74.7219 22.8058 74.7283 22.7519 74.7283 22.6932V18.8075C74.6284 18.8844 74.5205 18.9574 74.404 19.0256L66.5788 23.6255C66.0864 23.9149 65.82 24.2891 65.8486 24.6523Z" fill="#F9F8F4" stroke="#F9F8F4" stroke-linejoin="round"/>
<path d="M88.8698 87.9558C88.8008 87.9558 88.731 87.9375 88.6692 87.901L71.4751 77.7949C71.3538 77.7235 71.2793 77.5935 71.2793 77.4532V58.1811C71.2793 58.0384 71.3554 57.9076 71.4783 57.837C71.602 57.7664 71.7534 57.7672 71.8763 57.8394L93.1606 70.3502C93.2573 70.4065 93.3255 70.5024 93.3477 70.6111C93.3699 70.7213 93.3453 70.8346 93.2795 70.925C90.6156 74.5704 89.2654 78.4307 89.2654 82.3988V87.5585C89.2654 87.7013 89.1893 87.8321 89.0656 87.9026C89.0046 87.9375 88.9364 87.955 88.869 87.955L88.8698 87.9558ZM72.0721 77.2264L88.4734 86.8664V82.3996C88.4734 78.3887 89.7895 74.4927 92.3852 70.814L72.0721 58.874V77.2264Z" fill="#F9F8F4" stroke="#F9F8F4"/>
<path d="M135.035 77.64C134.941 77.64 134.846 77.6067 134.771 77.5393C134.683 77.4608 134.639 77.353 134.639 77.2436C134.639 77.1492 134.672 77.0557 134.739 76.9796C134.937 76.7584 135.11 76.5245 135.253 76.2827C135.365 76.094 135.608 76.0329 135.796 76.1447C135.921 76.2193 135.99 76.3509 135.99 76.4856C135.99 76.5546 135.973 76.6252 135.935 76.6886C135.766 76.9724 135.562 77.2483 135.332 77.5076C135.253 77.5948 135.144 77.64 135.035 77.64Z" fill="#F9F8F4"/>
<path d="M116.951 90.9686C116.732 90.9686 116.555 90.791 116.555 90.5722C116.555 90.5048 116.558 90.4366 116.561 90.3692C116.571 90.1512 116.735 89.9728 116.976 89.9807C117.188 89.9902 117.355 90.1559 117.355 90.366C117.355 90.3724 117.355 90.3779 117.355 90.3835V90.4041L117.348 90.5714C117.348 90.7902 117.171 90.9678 116.952 90.9678L116.951 90.9686Z" fill="#F9F8F4"/>
<path d="M126.542 96.5981C124.012 96.5981 121.484 96.032 119.558 94.899C117.62 93.7589 116.553 92.2224 116.553 90.571V85.2519C116.553 85.0331 116.73 84.8555 116.949 84.8555C117.168 84.8555 117.346 85.0331 117.346 85.2519C117.346 86.61 118.274 87.9047 119.96 88.8965C123.59 91.03 129.493 91.03 133.122 88.8965C134.806 87.9063 135.734 86.6116 135.734 85.2519C135.734 85.0331 135.911 84.8555 136.13 84.8555C136.349 84.8555 136.53 85.0331 136.53 85.2519V90.571C136.53 90.5908 136.528 90.6106 136.526 90.6288C136.518 91.3059 136.325 91.9703 135.952 92.6085C135.946 92.6204 135.94 92.6315 135.933 92.6426C135.765 92.9193 135.564 93.1913 135.334 93.4529C134.861 93.9865 134.252 94.4725 133.525 94.899C131.601 96.0312 129.072 96.5965 126.543 96.5973L126.542 96.5981ZM117.353 90.3656C117.353 90.372 117.353 90.3775 117.353 90.3831L117.352 90.4037L117.347 90.571C117.347 91.9299 118.276 93.2246 119.962 94.2164C123.591 96.3507 129.496 96.3507 133.124 94.2164C133.779 93.8319 134.323 93.399 134.74 92.9288C134.931 92.7124 135.099 92.4856 135.241 92.2573C135.245 92.2478 135.25 92.2399 135.255 92.2312C135.595 91.6595 135.755 91.0681 135.732 90.4719C135.73 90.4417 135.732 90.4124 135.738 90.3847V87.6288C135.23 88.3542 134.484 89.0154 133.526 89.5791C129.676 91.8443 123.411 91.8443 119.561 89.5791C118.602 89.0154 117.857 88.355 117.348 87.6312V90.2927C117.352 90.3157 117.354 90.3403 117.354 90.3648L117.353 90.3656Z" fill="#F9F8F4"/>
<path d="M134.553 78.1205C134.443 78.1205 134.335 78.0753 134.256 77.9873C134.189 77.9111 134.156 77.8176 134.156 77.724C134.156 77.6138 134.201 77.506 134.289 77.4275C134.372 77.3546 134.45 77.2801 134.523 77.2063C134.676 77.0509 134.925 77.0485 135.081 77.2024C135.236 77.3538 135.241 77.6027 135.09 77.7597C135.005 77.8493 134.911 77.9357 134.815 78.0206C134.74 78.088 134.646 78.1205 134.552 78.1205H134.553Z" fill="#F9F8F4"/>
<path d="M126.543 91.2784C124.014 91.2784 121.486 90.7124 119.56 89.5802C117.622 88.4401 116.555 86.9036 116.555 85.253C116.555 83.6023 117.622 82.065 119.56 80.9249C120.623 80.3002 121.867 79.8371 123.259 79.5486C125.376 79.1101 127.709 79.1101 129.827 79.5486C131.218 79.8371 132.462 80.3002 133.525 80.9241C135.461 82.0634 136.528 83.5999 136.528 85.253C136.528 86.906 135.461 88.4417 133.525 89.5802C131.6 90.7132 129.071 91.2784 126.543 91.2784ZM123.419 80.3239C122.113 80.5959 120.95 81.028 119.962 81.6083C118.276 82.5994 117.348 83.894 117.348 85.253C117.348 86.6119 118.276 87.9058 119.962 88.8976C123.592 91.0311 129.495 91.0311 133.124 88.8976C134.808 87.9073 135.736 86.6127 135.736 85.253C135.736 83.8933 134.808 82.5978 133.124 81.6075C132.135 81.028 130.972 80.5959 129.666 80.3239C127.653 79.9093 125.434 79.9093 123.419 80.3239Z" fill="#F9F8F4" stroke="#F9F8F4"/>
<path d="M135.594 76.8823C135.525 76.8823 135.455 76.8648 135.391 76.8268C135.203 76.7142 135.141 76.4716 135.254 76.2837C135.594 75.7121 135.754 75.1206 135.731 74.5252C135.723 74.3159 135.878 74.1375 136.086 74.1153C136.297 74.0891 136.482 74.2374 136.518 74.4427C136.528 74.5038 136.53 74.5617 136.53 74.6227C136.53 75.3331 136.33 76.0284 135.935 76.6888C135.86 76.8125 135.728 76.8823 135.594 76.8823Z" fill="#F9F8F4"/>
<path d="M133.325 79.0065C133.189 79.0065 133.055 78.9359 132.982 78.8099C132.945 78.7465 132.928 78.6783 132.928 78.6101C132.928 78.4737 132.998 78.3413 133.125 78.2676C133.349 78.1376 133.556 78.0004 133.748 77.8609C133.926 77.7324 134.173 77.7713 134.302 77.9481C134.352 78.0186 134.378 78.0995 134.378 78.1804C134.378 78.3033 134.322 78.4246 134.214 78.5015C134.001 78.6561 133.771 78.8075 133.524 78.951C133.461 78.9883 133.392 79.0049 133.325 79.0049V79.0065Z" fill="#F9F8F4"/>
<path d="M51.6903 80.2812C38.5579 80.2812 25.6911 77.2566 15.9456 71.5276C6.30719 65.862 1 58.3064 1 50.2544V30.9824C1 30.7635 1.17759 30.5859 1.39641 30.5859C1.61523 30.5859 1.79283 30.7635 1.79283 30.9824C1.79283 38.7418 6.96128 46.0548 16.3468 51.5729C30.9324 60.1465 52.6123 62.5892 71.5792 57.7974C71.6965 57.7657 71.8234 57.7926 71.9201 57.8687C72.016 57.9441 72.0731 58.059 72.0731 58.1819V77.454C72.0731 77.6355 71.9494 77.7941 71.7742 77.8377C65.2682 79.482 58.4436 80.2812 51.6903 80.2812ZM1.79283 36.3197V50.2544C1.79283 58.0138 6.96128 65.3269 16.3468 70.845C30.8571 79.3734 52.3864 81.8367 71.2803 77.1432V58.6885C52.2405 63.3638 30.5741 60.8561 15.9448 52.2563C8.47241 47.8633 3.60365 42.3349 1.79283 36.3197Z" fill="#F9F8F4" stroke="#F9F8F4"/>
<path d="M29.5622 38.4405C29.4615 38.4405 29.36 38.4017 29.2831 38.3248C29.2006 38.2439 29.1301 38.1535 29.069 38.0671C29.0199 37.9973 28.9961 37.9173 28.9961 37.8388C28.9961 37.7143 29.054 37.5922 29.1634 37.5145C29.3426 37.3892 29.5899 37.4312 29.716 37.6088C29.754 37.6628 29.7976 37.7167 29.8484 37.769C29.999 37.926 29.9951 38.1749 29.8405 38.3263C29.7636 38.4025 29.6629 38.4405 29.5622 38.4405Z" fill="#F9F8F4"/>
<path d="M135.594 92.8305C135.525 92.8305 135.455 92.8131 135.391 92.775C135.203 92.6624 135.141 92.4198 135.254 92.2319C135.594 91.6603 135.754 91.0688 135.731 90.4726C135.723 90.2633 135.878 90.0842 136.087 90.0627C136.29 90.0382 136.484 90.1848 136.518 90.3918C136.528 90.4536 136.53 90.5107 136.53 90.5709C136.53 91.2813 136.33 91.9766 135.935 92.6363C135.86 92.76 135.728 92.8305 135.594 92.8305Z" fill="#F9F8F4"/>
<path d="M139.234 131.65C126.263 131.651 113.295 128.749 103.421 122.945C93.7997 117.293 88.4941 109.757 88.4758 101.721C88.4742 101.705 88.4727 101.688 88.4727 101.672V82.3996C88.4727 82.1808 88.6502 82.0032 88.8691 82.0032C89.0879 82.0032 89.2655 82.1808 89.2655 82.3996C89.2655 90.1606 94.4355 97.4736 103.823 102.99C123.348 114.466 155.12 114.466 174.649 102.99C184.036 97.4728 189.206 90.1598 189.206 82.3964C189.206 82.1776 189.384 82 189.603 82C189.821 82 189.999 82.1776 189.999 82.3964V101.668C190.002 109.72 184.693 117.276 175.051 122.945C165.177 128.748 152.203 131.65 139.235 131.65H139.234ZM89.2655 101.622C89.2671 101.639 89.2687 101.655 89.2687 101.671C89.2655 109.433 94.4339 116.745 103.823 122.261C123.348 133.738 155.12 133.738 174.649 122.261C184.039 116.741 189.209 109.427 189.206 101.668V87.7345C187.395 93.7513 182.525 99.2813 175.051 103.672C155.3 115.28 123.168 115.28 103.421 103.672C95.9474 99.2805 91.0779 93.7521 89.2663 87.7353V101.622L89.2655 101.622Z" fill="#F9F8F4" stroke="#F9F8F4"/>
<path d="M74.6041 24.1091C74.4891 24.1091 74.3766 24.0599 74.2981 23.9648C74.1609 23.7991 74.1807 23.5541 74.3441 23.413C74.3441 23.413 74.3631 23.3963 74.3647 23.3956C74.3805 23.3821 74.3932 23.3694 74.4059 23.3559C74.5565 23.2037 74.8015 23.1989 74.9585 23.3432C75.1155 23.4907 75.1274 23.7349 74.9854 23.8958C74.9632 23.9212 74.9387 23.9434 74.9149 23.9664C74.8943 23.9854 74.8721 24.0044 74.8483 24.0235C74.7754 24.0798 74.6889 24.1075 74.6033 24.1075L74.6041 24.1091Z" fill="#F9F8F4"/>
<path d="M39.8526 43.8241C38.9781 43.8241 38.1028 43.6243 37.421 43.2247L29.8828 38.7896C29.6869 38.6739 29.5379 38.5661 29.411 38.4503C29.3643 38.4083 29.3326 38.3789 29.3008 38.3433C29.2921 38.3338 29.2485 38.2878 29.2414 38.2775C29.1946 38.2339 29.1264 38.1498 29.067 38.0658C28.864 37.774 28.7617 37.4624 28.7617 37.1374V31.8183C28.7617 31.5995 28.9393 31.4219 29.1581 31.4219C29.377 31.4219 29.5545 31.5995 29.5545 31.8183C29.5545 32.164 29.8194 32.5168 30.2824 32.7855L37.8222 37.2214C38.9226 37.8652 40.7834 37.8668 41.8838 37.2206C43.8778 36.0464 45.8741 34.8738 47.8697 33.7013L49.709 32.6206C51.0727 31.8167 53.2102 31.8167 54.5746 32.6206L62.3998 37.2214C63.4995 37.8668 65.3587 37.8668 66.4583 37.2206L73.9997 32.7871C74.4421 32.5295 74.6998 32.206 74.7267 31.8754C74.7442 31.6637 74.9297 31.5012 75.1382 31.5107C75.3507 31.5202 75.5188 31.6938 75.5188 31.9071V37.1382C75.5188 37.3395 75.4791 37.5385 75.4014 37.7296C75.3642 37.8129 75.3285 37.8842 75.2888 37.9524C75.2476 38.0222 75.2 38.0904 75.1477 38.1585C75.0946 38.2291 75.0336 38.2941 74.9693 38.3591C74.9551 38.3734 74.898 38.4281 74.8821 38.44C74.7616 38.555 74.588 38.6826 74.4009 38.7912L66.8611 43.2239C65.4974 44.0247 63.3623 44.0239 61.9995 43.2247L54.1734 38.6231C53.0722 37.9762 51.213 37.9762 50.1126 38.6231L42.2866 43.2239C41.6039 43.6243 40.7279 43.8241 39.8526 43.8241ZM29.5545 33.2509V37.1382C29.5545 37.2999 29.6069 37.4545 29.7163 37.6115C29.752 37.6622 29.7956 37.7161 29.8463 37.7685L29.928 37.8501C30.0294 37.9421 30.1412 38.0222 30.2855 38.1078L37.8222 42.5413C38.9226 43.1851 40.7834 43.1867 41.8838 42.5405L49.709 37.9405C51.0735 37.1366 53.211 37.1374 54.5746 37.9405L62.3998 42.5413C63.4995 43.1867 65.3587 43.1867 66.4583 42.5405L73.9997 38.107C74.1385 38.0261 74.2645 37.9334 74.3755 37.8303C74.4453 37.7597 74.4833 37.7209 74.5158 37.6789C74.5475 37.6369 74.5785 37.5933 74.6038 37.5512C74.6276 37.51 74.6506 37.464 74.6712 37.418C74.7053 37.3348 74.7251 37.2365 74.7251 37.1382V33.2541C74.6252 33.331 74.5166 33.4032 74.4001 33.4713L66.8595 37.9048C65.4958 38.704 63.3615 38.7032 61.9979 37.9056L54.1719 33.304C53.0706 32.6571 51.2114 32.6571 50.111 33.304L48.2708 34.3855C46.2753 35.5573 44.2797 36.7299 42.2858 37.9048C40.9213 38.704 38.7847 38.7048 37.4202 37.9056L29.882 33.4705C29.7646 33.4024 29.6552 33.3286 29.5545 33.2509Z" fill="#F9F8F4" stroke="#F9F8F4"/>
<path d="M126.543 75.3281C124.014 75.3281 121.485 74.7628 119.56 73.6322C117.622 72.4913 116.555 70.954 116.555 69.3034C116.555 67.6527 117.622 66.1154 119.56 64.9753C123.41 62.7094 129.676 62.7094 133.525 64.9753C135.461 66.113 136.528 67.6503 136.528 69.3034C136.528 70.9564 135.461 72.4921 133.525 73.6314C131.6 74.762 129.071 75.3281 126.543 75.3281ZM126.543 64.058C124.16 64.058 121.777 64.5916 119.962 65.6587C118.276 66.6506 117.348 67.9452 117.348 69.3041C117.348 70.6631 118.276 71.957 119.962 72.9496C123.591 75.0807 129.495 75.0815 133.124 72.9488C134.808 71.9585 135.736 70.6638 135.736 69.3041C135.736 67.9444 134.808 66.649 133.124 65.6587C131.31 64.5924 128.926 64.058 126.543 64.058Z" fill="#F9F8F4"/>
<path d="M29.6539 24.1012C29.5707 24.1012 29.4882 24.0727 29.4177 24.0101C29.3757 23.9736 29.3336 23.9347 29.3003 23.8967C29.1584 23.7357 29.1703 23.4915 29.3265 23.3457C29.4819 23.1982 29.7261 23.2014 29.8783 23.3544L29.5976 23.6343L29.895 23.3718C29.8997 23.3782 29.9061 23.3837 29.9116 23.3885H29.9132C29.9203 23.394 29.9267 23.4012 29.933 23.4075C29.9354 23.4099 29.9386 23.4123 29.9409 23.4146H29.9401C30.0733 23.5669 30.0908 23.8103 29.9536 23.9601C29.8712 24.0505 29.7626 24.1012 29.6539 24.1012Z" fill="#F9F8F4"/>
<path d="M74.6469 38.5181C74.5343 38.5181 74.4234 38.4705 74.3449 38.3785C74.2093 38.2208 74.2204 37.9837 74.3694 37.8378L74.6469 38.1217L74.3813 37.8307L74.4186 37.8608L74.3861 37.8228C74.5351 37.6737 74.7873 37.6563 74.9434 37.7974C75.0996 37.9393 75.1306 38.1661 74.9982 38.3294C74.9902 38.3389 74.9775 38.3532 74.9617 38.369C74.9339 38.396 74.9006 38.4269 74.884 38.4404C74.8134 38.4927 74.7302 38.5189 74.6477 38.5189L74.6469 38.5181Z" fill="#F9F8F4"/>
<path d="M135.035 93.5886C134.942 93.5886 134.848 93.5561 134.772 93.4887C134.609 93.3436 134.593 93.0947 134.737 92.9306C134.936 92.7038 135.111 92.4683 135.255 92.2313C135.369 92.0466 135.612 91.9871 135.798 92.0973C135.985 92.2099 136.046 92.4517 135.935 92.6404C135.77 92.9187 135.566 93.193 135.331 93.4562C135.253 93.5434 135.144 93.5886 135.035 93.5886Z" fill="#F9F8F4"/>
<path d="M35.6157 27.6538C35.5459 27.6538 35.477 27.6355 35.4151 27.5991L29.8828 24.3453C29.7972 24.2961 29.7179 24.2422 29.6426 24.1915L29.4229 24.0163L29.5966 23.6341L29.3175 23.9164C28.9544 23.5572 28.7617 23.1346 28.7617 22.6938V17.374C28.7617 17.1551 28.9393 16.9775 29.1581 16.9775C29.377 16.9775 29.5545 17.1551 29.5545 17.374C29.5545 17.7228 29.8138 18.0661 30.2832 18.342C32.3025 19.532 34.3234 20.7189 36.3435 21.9058L38.1092 22.9436C38.8314 23.3677 39.2294 23.956 39.2294 24.599C39.2294 25.238 38.8314 25.8247 38.1092 26.2505L35.8155 27.5999C35.7537 27.6363 35.6839 27.6546 35.6141 27.6546L35.6157 27.6538ZM29.9335 23.409L30.081 23.5279C30.1492 23.5762 30.2134 23.6199 30.2839 23.6611L35.6157 26.7975L37.7096 25.5655C38.1789 25.288 38.4382 24.9447 38.4382 24.5974C38.4382 24.2502 38.1718 23.8973 37.7088 23.6246L35.9432 22.5876C33.923 21.4007 31.9021 20.2139 29.882 19.0238C29.7646 18.9549 29.6552 18.8811 29.5545 18.8042V22.6922C29.5545 22.9158 29.6655 23.1442 29.8748 23.3511L29.6774 23.711L29.9327 23.4074L29.9335 23.409Z" fill="#F9F8F4" stroke="#F9F8F4"/>
<path d="M95.2848 53.0102L95.5885 52.7549L95.2833 53.007C95.219 52.9309 95.1588 52.858 95.1057 52.7787C95.0605 52.7105 95.0391 52.6344 95.0391 52.5591C95.0391 52.4314 95.1009 52.3054 95.2151 52.2285C95.3974 52.1087 95.644 52.1563 95.7645 52.3379C95.8018 52.3942 95.8454 52.4441 95.8898 52.4972L95.2848 53.0102Z" fill="#F9F8F4"/>
<path d="M105.976 53.1736C104.957 53.1736 103.939 52.9413 103.145 52.4759L96.0543 48.3056C95.2369 47.8275 94.7676 47.1385 94.7676 46.4187C94.7676 45.6988 95.2369 45.0098 96.0543 44.5301C97.6408 43.5978 100.126 43.597 101.714 44.5301L108.807 48.6996C109.681 49.2142 110.148 49.9515 110.089 50.7221V50.7237C110.034 51.3992 109.578 52.0216 108.806 52.4751C108.013 52.9405 106.994 53.1728 105.975 53.1728L105.976 53.1736ZM98.8839 44.634C97.9991 44.634 97.1136 44.8274 96.4563 45.2136C95.8871 45.5473 95.5604 45.9866 95.5604 46.4187C95.5604 46.8507 95.8871 47.2892 96.4555 47.6222L103.547 51.7924C104.886 52.5773 107.066 52.5781 108.406 51.7924C108.948 51.4745 109.265 51.0734 109.299 50.6635C109.333 50.206 109.008 49.7398 108.405 49.3846L101.312 45.2151C100.654 44.829 99.7687 44.6356 98.8839 44.6356V44.634Z" fill="#F9F8F4"/>
<path d="M29.8498 24.2549C29.7736 24.2549 29.6975 24.2311 29.6293 24.1796C29.554 24.1241 29.4827 24.0678 29.4153 24.0076C29.2535 23.8625 29.2385 23.6159 29.3804 23.4518C29.5223 23.2893 29.7697 23.271 29.9354 23.4082L30.0828 23.5271C30.0876 23.5311 30.0924 23.535 30.0963 23.539C30.0987 23.5406 30.1011 23.5422 30.1035 23.5445C30.2565 23.6833 30.2929 23.9267 30.1661 24.0916C30.086 24.1963 29.9687 24.2541 29.8505 24.2541L29.8498 24.2549Z" fill="#F9F8F4"/>
<path d="M105.978 58.4932C104.959 58.4932 103.94 58.2609 103.145 57.7947L96.0543 53.6244C95.761 53.4532 95.5057 53.2502 95.2964 53.0219C95.2187 52.9307 95.1592 52.8577 95.1053 52.7777C94.8817 52.4534 94.7676 52.1014 94.7676 51.7375V46.4184C94.7676 46.1996 94.9452 46.022 95.164 46.022C95.3828 46.022 95.5604 46.1996 95.5604 46.4184C95.5604 46.8497 95.8871 47.2889 96.4555 47.6219L103.547 51.7922C104.886 52.5771 107.066 52.5779 108.406 51.7922C108.949 51.4743 109.266 51.0723 109.299 50.6616C109.315 50.4491 109.5 50.3064 109.71 50.2969C109.922 50.3056 110.091 50.48 110.091 50.6933V55.9077C110.091 56.408 109.873 56.8885 109.46 57.2976C109.454 57.3039 109.348 57.4046 109.341 57.411C109.267 57.476 109.184 57.5402 109.099 57.6044C109.007 57.6726 108.908 57.7376 108.802 57.7979C108.011 58.2617 106.995 58.4932 105.978 58.4932ZM95.5604 47.9557V51.7351C95.5604 51.9396 95.6278 52.1394 95.761 52.3337C95.8014 52.3939 95.8442 52.4439 95.8894 52.497C96.0361 52.6564 96.2296 52.8102 96.4547 52.9418L103.547 57.1121C104.886 57.8977 107.066 57.8985 108.406 57.1121C108.487 57.0661 108.558 57.0201 108.623 56.9701C108.694 56.917 108.763 56.8631 108.824 56.8108L108.901 56.7347C109.161 56.4786 109.297 56.1924 109.297 55.9085V52.1307C109.151 52.2536 108.988 52.3702 108.806 52.4772C107.219 53.408 104.732 53.408 103.145 52.4772L96.0535 48.3069C95.8712 48.1999 95.7055 48.0833 95.5596 47.9573L95.5604 47.9557Z" fill="#F9F8F4" stroke="#F9F8F4"/>
<path d="M116.951 75.0191C116.732 75.0191 116.555 74.8415 116.555 74.6227C116.555 74.5093 116.559 74.3975 116.57 74.2865C116.591 74.0693 116.782 73.917 117.003 73.9305C117.207 73.9503 117.36 74.1232 117.36 74.3246C117.36 74.338 117.36 74.3507 117.359 74.3642C117.35 74.4498 117.348 74.5354 117.348 74.6227C117.348 74.8415 117.17 75.0191 116.951 75.0191Z" fill="#F9F8F4"/>
<path d="M109.082 57.5055C108.977 57.5055 108.873 57.4643 108.795 57.3826C108.647 57.2272 108.649 56.9814 108.801 56.83C108.804 56.8276 108.855 56.7777 108.858 56.7753C108.865 56.7682 108.873 56.7618 108.88 56.7563C108.881 56.7539 108.883 56.7523 108.885 56.7499C109.043 56.6286 109.288 56.6167 109.433 56.7563C109.585 56.9061 109.616 57.1249 109.474 57.2827C109.436 57.3239 109.39 57.366 109.348 57.404C109.272 57.4722 109.177 57.5063 109.082 57.5063V57.5055Z" fill="#F9F8F4"/>
<path d="M108.862 57.6823C108.739 57.6823 108.618 57.626 108.541 57.5198C108.413 57.3438 108.45 57.0988 108.624 56.9688C108.695 56.9156 108.763 56.8617 108.825 56.8094C108.989 56.6675 109.238 56.6849 109.381 56.8482C109.525 57.0108 109.51 57.2589 109.35 57.404C109.27 57.4762 109.183 57.5451 109.091 57.6101C109.022 57.6593 108.941 57.6831 108.862 57.6831V57.6823Z" fill="#F9F8F4"/>
<path d="M74.8331 38.3161C74.7499 38.3161 74.6658 38.2899 74.5945 38.2352C74.4914 38.1575 74.4375 38.0394 74.4375 37.9197C74.4375 37.8364 74.4637 37.7516 74.5176 37.6802C74.5501 37.6366 74.581 37.5938 74.6064 37.551C74.7182 37.3639 74.9624 37.302 75.1495 37.4115C75.2747 37.486 75.3445 37.6184 75.3445 37.754C75.3445 37.8221 75.3271 37.8919 75.289 37.9553C75.2494 38.0227 75.2018 38.0909 75.1495 38.1591C75.0718 38.2622 74.9528 38.3161 74.8331 38.3161Z" fill="#F9F8F4"/>
<path d="M129.747 80.3324C129.72 80.3324 129.693 80.3292 129.666 80.3237C127.652 79.909 125.434 79.909 123.419 80.3237C123.366 80.3348 123.311 80.3348 123.258 80.3237C121.863 80.0351 120.618 79.5728 119.56 78.9521C117.622 77.8112 116.555 76.2747 116.555 74.6232V69.3041C116.555 69.0853 116.732 68.9077 116.951 68.9077C117.17 68.9077 117.348 69.0853 117.348 69.3041C117.348 70.6622 118.276 71.9569 119.962 72.9496C123.591 75.0807 129.495 75.0807 133.124 72.9496C134.808 71.9585 135.736 70.6638 135.736 69.3041C135.736 69.0853 135.913 68.9077 136.132 68.9077C136.351 68.9077 136.532 69.0853 136.532 69.3041V74.6232C136.532 74.643 136.53 74.6629 136.528 74.6811C136.52 75.3677 136.321 76.0424 135.937 76.6885C135.768 76.9724 135.564 77.2483 135.334 77.5075C135.255 77.5955 135.17 77.6859 135.08 77.7715C135.006 77.8492 134.913 77.9349 134.817 78.0205C134.632 78.1854 134.432 78.3432 134.216 78.5017C134.002 78.6563 133.772 78.8078 133.524 78.9513C132.468 79.572 131.224 80.0343 129.827 80.3229C129.8 80.3284 129.774 80.3324 129.747 80.3324ZM126.543 79.22C127.627 79.22 128.711 79.3239 129.745 79.5316C131.023 79.2589 132.159 78.8339 133.123 78.2678C133.348 78.1378 133.556 78.0007 133.748 77.8611C133.943 77.7192 134.122 77.5773 134.289 77.4282C134.37 77.3561 134.447 77.2855 134.519 77.2118C134.604 77.1286 134.676 77.0548 134.74 76.9819C134.939 76.7591 135.112 76.5252 135.254 76.2834C135.594 75.7118 135.755 75.1203 135.732 74.5249C135.73 74.4948 135.732 74.4654 135.738 74.4377V71.6818C135.23 72.4073 134.484 73.0693 133.525 73.633C129.675 75.8941 123.41 75.8949 119.56 73.6338C118.602 73.0693 117.857 72.4081 117.348 71.6842V74.2252C117.356 74.2577 117.361 74.291 117.361 74.3259C117.361 74.3394 117.361 74.3521 117.359 74.3655C117.351 74.4512 117.348 74.5368 117.348 74.624C117.348 75.9829 118.277 77.2776 119.963 78.2694C120.926 78.8347 122.062 79.2597 123.341 79.5324C124.376 79.3247 125.46 79.2208 126.544 79.2208L126.543 79.22Z" fill="#F9F8F4" stroke="#F9F8F4"/>
<path d="M74.9941 23.6183C74.933 23.6183 74.8704 23.604 74.8117 23.5739C74.6754 23.5033 74.5977 23.3638 74.5977 23.2211C74.5977 23.16 74.6119 23.0982 74.6421 23.0395C74.6682 22.988 74.6888 22.9317 74.7079 22.858C74.7618 22.6479 74.9727 22.5179 75.1836 22.5718C75.3937 22.6225 75.5253 22.831 75.4785 23.0427C75.4523 23.1624 75.4079 23.2837 75.3469 23.4019L75.3453 23.4042C75.2747 23.5406 75.1368 23.6191 74.9933 23.6191L74.9941 23.6183Z" fill="#F9F8F4"/>
<path d="M144.088 90.8635C143.869 90.8635 143.691 90.6859 143.691 90.4671C143.691 90.4227 143.691 90.3743 143.697 90.3244C143.717 90.1127 143.894 89.9517 144.111 89.9668C144.322 89.9771 144.488 90.1515 144.488 90.3624C144.488 90.3735 144.487 90.3862 144.486 90.4005L144.484 90.4671C144.484 90.6859 144.307 90.8635 144.088 90.8635ZM143.717 90.2554C143.697 90.3085 143.695 90.3521 143.695 90.364H143.698C143.702 90.3212 143.709 90.2792 143.717 90.2554Z" fill="#F9F8F4"/>
<path d="M150.472 80.3327C150.446 80.3327 150.419 80.3295 150.392 80.324C148.994 80.0338 147.75 79.5724 146.693 78.9524C146.096 78.6019 145.572 78.2047 145.135 77.7703C144.962 77.599 144.805 77.4198 144.664 77.2406C144.596 77.1558 144.529 77.0623 144.464 76.9695C144.337 76.7856 144.226 76.5961 144.13 76.4074C143.839 75.8318 143.691 75.2324 143.691 74.6235V69.3956C143.691 69.1792 143.866 69.0024 144.083 68.9992C144.33 69.0143 144.479 69.1697 144.484 69.3853C144.518 70.7125 145.445 71.9786 147.095 72.9491C150.725 75.0786 156.63 75.0786 160.257 72.9483C161.942 71.9564 162.871 70.6618 162.871 69.3036C162.871 69.0848 163.048 68.9072 163.267 68.9072C163.486 68.9072 163.664 69.0848 163.664 69.3036V74.6227C163.664 75.2324 163.516 75.8318 163.225 76.4058C163.128 76.5953 163.018 76.7848 162.891 76.9687C162.764 77.1526 162.623 77.3326 162.463 77.5094C162.306 77.6799 162.139 77.8479 161.957 78.0152C161.764 78.1849 161.564 78.3458 161.345 78.5036C161.134 78.6566 160.904 78.8081 160.657 78.9516C159.605 79.5716 158.36 80.033 156.959 80.3232C156.906 80.3343 156.852 80.3343 156.798 80.3232C154.784 79.9085 152.566 79.9085 150.552 80.3232C150.526 80.3287 150.499 80.3319 150.472 80.3319L150.472 80.3327ZM153.676 79.2203C154.761 79.2203 155.845 79.3242 156.879 79.5319C158.162 79.2584 159.298 78.8334 160.258 78.2689C160.482 78.1381 160.69 78.001 160.882 77.8614C161.082 77.7171 161.262 77.572 161.43 77.4254C161.586 77.2811 161.739 77.1289 161.879 76.9766C162.012 76.8292 162.132 76.6754 162.24 76.5192C162.347 76.3646 162.439 76.206 162.519 76.0482C162.753 75.5868 162.872 75.1079 162.872 74.6235V71.6845C162.363 72.4076 161.617 73.0688 160.659 73.6325C156.81 75.8928 150.545 75.892 146.694 73.6333C145.738 73.0704 144.993 72.4099 144.484 71.6869V74.6235C144.484 75.1063 144.602 75.5868 144.837 76.049C144.917 76.206 145.009 76.3638 145.116 76.5184C145.17 76.5969 145.226 76.6738 145.286 76.7475C145.409 76.9053 145.546 77.0607 145.694 77.2081C146.084 77.5942 146.555 77.9518 147.095 78.2681C148.057 78.8334 149.194 79.2584 150.474 79.5319C151.508 79.3242 152.592 79.2203 153.676 79.2203Z" fill="#F9F8F4"/>
<path d="M144.79 77.1397C144.665 77.1397 144.541 77.0802 144.464 76.9692C144.336 76.7845 144.225 76.595 144.129 76.4063C144.099 76.3492 144.086 76.2882 144.086 76.2271C144.086 76.082 144.165 75.9433 144.302 75.8735C144.496 75.7728 144.735 75.8513 144.835 76.0471C144.915 76.2049 145.007 76.3627 145.115 76.5173C145.163 76.5863 145.186 76.6647 145.186 76.7424C145.186 76.8677 145.126 76.9922 145.015 77.0691C144.946 77.1159 144.868 77.1397 144.79 77.1397Z" fill="#F9F8F4"/>
<path d="M145.414 93.8337C145.312 93.8337 145.211 93.7949 145.133 93.7172C144.815 93.3992 144.551 93.0718 144.35 92.7428C144.235 92.5573 144.293 92.3139 144.48 92.1989C144.665 92.0855 144.908 92.1426 145.024 92.3265C145.201 92.6112 145.426 92.8902 145.693 93.1574C145.771 93.2351 145.809 93.3366 145.809 93.4381C145.809 93.5396 145.77 93.6411 145.693 93.718C145.616 93.7957 145.514 93.8345 145.413 93.8345L145.414 93.8337Z" fill="#F9F8F4"/>
<path d="M145.413 77.885C145.313 77.885 145.211 77.8462 145.134 77.7693C144.962 77.598 144.804 77.4189 144.664 77.2397C144.607 77.1667 144.58 77.0803 144.58 76.9947C144.58 76.8773 144.632 76.7608 144.732 76.6823C144.904 76.5483 145.153 76.5769 145.288 76.7497C145.409 76.9035 145.545 77.0589 145.693 77.2064C145.772 77.2841 145.811 77.3863 145.811 77.4878C145.811 77.5893 145.772 77.69 145.696 77.7669C145.618 77.8454 145.516 77.8842 145.414 77.8842L145.413 77.885Z" fill="#F9F8F4"/>
<path d="M153.677 91.2778C151.148 91.2778 148.619 90.7117 146.693 89.5795C144.798 88.4656 143.732 86.9648 143.691 85.3538C143.646 83.6627 144.712 82.0889 146.693 80.9242C147.756 80.2995 149.001 79.8365 150.392 79.5479C152.509 79.1086 154.842 79.1094 156.96 79.5479C158.351 79.8365 159.596 80.2995 160.659 80.9234C162.597 82.0643 163.665 83.6008 163.665 85.2523C163.665 86.9037 162.597 88.4402 160.659 89.5795C158.735 90.7117 156.206 91.2778 153.677 91.2778ZM150.553 80.3241C149.246 80.596 148.083 81.0281 147.095 81.6084C145.375 82.6201 144.447 83.9433 144.484 85.3331C144.518 86.6611 145.445 87.9265 147.095 88.8969C150.726 91.0288 156.63 91.0288 160.257 88.8969C161.943 87.9051 162.871 86.6112 162.871 85.2523C162.871 83.8934 161.943 82.5987 160.257 81.6068C159.269 81.0273 158.105 80.5952 156.799 80.3233C154.786 79.9086 152.568 79.9086 150.554 80.3233L150.553 80.3241Z" fill="#F9F8F4" stroke="#F9F8F4"/>
<path d="M160.458 79.0065C160.322 79.0065 160.19 78.9367 160.115 78.8107C160.004 78.6228 160.067 78.3802 160.256 78.2684C160.421 78.1709 160.58 78.071 160.732 77.9663C160.783 77.9314 160.832 77.8957 160.881 77.8609C161.059 77.7324 161.306 77.7713 161.435 77.9481C161.564 78.1249 161.524 78.3722 161.347 78.5015C161.294 78.5403 161.24 78.5784 161.186 78.6156C161.019 78.7314 160.842 78.8432 160.657 78.9518C160.594 78.9891 160.525 79.0065 160.458 79.0065Z" fill="#F9F8F4"/>
<path d="M153.677 75.3274C151.148 75.3274 148.62 74.7621 146.693 73.6324C144.798 72.5169 143.732 71.016 143.691 69.405C143.646 67.7131 144.712 66.1401 146.693 64.9755C150.546 62.712 156.811 62.712 160.659 64.9755C162.597 66.1156 163.665 67.6521 163.665 69.3035C163.665 70.955 162.597 72.4915 160.659 73.6316C158.735 74.7621 156.206 75.3266 153.677 75.3274ZM153.677 64.059C151.294 64.059 148.91 64.5925 147.095 65.6589C145.375 66.6713 144.447 67.9946 144.484 69.3844C144.518 70.7124 145.445 71.9785 147.095 72.9489C150.726 75.0785 156.631 75.0785 160.257 72.9482C161.942 71.9563 162.871 70.6616 162.871 69.3035C162.871 67.9454 161.942 66.6499 160.257 65.6581C158.444 64.5917 156.06 64.059 153.677 64.059Z" fill="#F9F8F4" stroke="#F9F8F4"/>
<path d="M161.689 78.1206C161.582 78.1206 161.475 78.077 161.397 77.9914C161.249 77.8305 161.26 77.5807 161.421 77.4333C161.585 77.2818 161.737 77.1288 161.877 76.9766C162.024 76.8172 162.273 76.8038 162.434 76.9496C162.596 77.0955 162.611 77.3429 162.467 77.5062C162.314 77.6806 162.14 77.8519 161.955 78.0184C161.879 78.0865 161.784 78.1206 161.689 78.1206H161.689Z" fill="#F9F8F4"/>
<path d="M161.939 93.8333C161.836 93.8333 161.733 93.7929 161.655 93.7144C161.504 93.559 161.506 93.3093 161.659 93.1563C161.735 93.0809 161.807 93.0056 161.873 92.9311C162.017 92.7678 162.265 92.7519 162.429 92.8922C162.594 93.0342 162.614 93.2815 162.474 93.448C162.394 93.5432 162.306 93.6351 162.213 93.7239C162.136 93.7977 162.038 93.8341 161.938 93.8341L161.939 93.8333Z" fill="#F9F8F4"/>
<path d="M162.566 77.1397C162.488 77.1397 162.409 77.1175 162.34 77.0691C162.229 76.9922 162.17 76.8685 162.17 76.7432C162.17 76.6648 162.193 76.5871 162.24 76.5181C162.348 76.3635 162.439 76.2049 162.52 76.0471C162.619 75.8513 162.857 75.7728 163.052 75.8735C163.19 75.9433 163.269 76.0828 163.269 76.2271C163.269 76.2874 163.255 76.3484 163.226 76.4063C163.129 76.595 163.019 76.7845 162.891 76.9684C162.814 77.0802 162.691 77.1397 162.565 77.1397H162.566Z" fill="#F9F8F4"/>
<path d="M153.678 96.5976C151.149 96.5976 148.621 96.0315 146.694 94.8993C146.097 94.5497 145.573 94.1525 145.136 93.718C144.826 93.408 144.562 93.0806 144.354 92.7452C143.89 92.0174 143.667 91.2452 143.693 90.4531C143.693 90.442 143.693 90.4286 143.693 90.4127C143.693 90.4064 143.693 90.4 143.693 90.3945V85.3434C143.693 85.1261 143.868 84.9501 144.085 84.947C144.332 84.9184 144.481 85.1166 144.486 85.3331C144.52 86.6603 145.447 87.9264 147.097 88.896C150.727 91.0279 156.632 91.0279 160.259 88.896C161.944 87.9042 162.873 86.6103 162.873 85.2514C162.873 85.0326 163.05 84.855 163.269 84.855C163.488 84.855 163.666 85.0326 163.666 85.2514V90.5705C163.666 91.5829 163.251 92.5803 162.467 93.4564C162.392 93.5412 162.307 93.63 162.219 93.7172C161.782 94.1517 161.258 94.5489 160.661 94.8993C158.737 96.0307 156.208 96.5968 153.68 96.5968L153.678 96.5976ZM144.475 90.4793H144.485C144.465 91.1088 144.646 91.7288 145.025 92.3226C145.204 92.6104 145.429 92.8895 145.696 93.1567C146.085 93.542 146.556 93.8988 147.096 94.2159C150.727 96.3502 156.632 96.3494 160.259 94.2167C160.799 93.8996 161.27 93.542 161.661 93.1559C161.735 93.0806 161.808 93.0053 161.875 92.9307C162.529 92.2005 162.874 91.3855 162.874 90.5713V87.6323C162.365 88.3553 161.619 89.0157 160.661 89.5794C156.812 91.843 150.547 91.843 146.695 89.5794C145.739 89.0181 144.994 88.3577 144.485 87.6346V90.3096C144.488 90.3263 144.489 90.3445 144.489 90.362C144.489 90.3731 144.488 90.3858 144.486 90.4C144.484 90.4246 144.481 90.4531 144.475 90.4793Z" fill="#F9F8F4" stroke="#F9F8F4"/>
<path d="M139.235 112.378C126.264 112.379 113.296 109.477 103.422 103.673C93.7823 98.0079 88.4735 90.453 88.4735 82.3995C88.4735 78.3886 89.7896 74.4926 92.3854 70.8139L71.6156 58.6059C52.4942 63.3938 30.6597 60.9067 15.9448 52.2562C6.30719 46.5898 1 39.035 1 30.9822C0.99683 22.9286 6.30402 15.3714 15.9448 9.70585C35.6942 -1.90195 67.8283 -1.90195 87.5776 9.70585C116.735 26.842 145.894 43.9822 175.052 61.1239C184.691 66.7887 190 74.3436 190 82.3963C190 90.4491 184.691 98.0079 175.052 103.673C165.178 109.475 152.203 112.377 139.235 112.378ZM71.6767 57.7845C71.7465 57.7845 71.8162 57.8028 71.8773 57.8392L93.1615 70.3501C93.2583 70.4064 93.3264 70.5023 93.3486 70.6109C93.3708 70.7211 93.3463 70.8345 93.2805 70.9249C90.6166 74.5703 89.2664 78.4306 89.2664 82.3987C89.2664 90.1597 94.4364 97.4727 103.823 102.989C123.348 114.466 155.121 114.466 174.65 102.989C184.037 97.4719 189.207 90.1589 189.207 82.3955C189.207 74.6321 184.038 67.3231 174.65 61.8058C145.491 44.664 116.335 27.5263 87.1757 10.3885C67.6483 -1.08692 35.8741 -1.08692 16.3468 10.3893C6.95811 15.9074 1.78966 23.2204 1.79283 30.9822C1.79283 38.7416 6.96128 46.0546 16.3468 51.5727C30.9324 60.1464 52.6123 62.5891 71.5792 57.7972C71.6117 57.7885 71.6442 57.7845 71.6767 57.7845ZM126.543 96.5983C124.014 96.5983 121.485 96.0322 119.56 94.8992C117.621 93.7591 116.554 92.2226 116.554 90.5712V85.2521C116.554 83.6006 117.621 82.0641 119.56 80.924C120.232 80.5292 120.976 80.1986 121.785 79.9362C120.975 79.6737 120.23 79.3447 119.56 78.9515C117.621 77.8106 116.554 76.2741 116.554 74.6226V69.3035C116.554 67.6521 117.621 66.1156 119.56 64.9755C123.41 62.712 129.674 62.712 133.524 64.9755C135.441 66.1021 136.505 67.6188 136.527 69.252C136.529 69.2687 136.53 69.2861 136.53 69.3035V74.6226C136.53 75.333 136.329 76.0283 135.935 76.6895C135.766 76.9726 135.563 77.2485 135.331 77.5077C135.253 77.5957 135.168 77.6861 135.078 77.7717C135 77.8494 134.91 77.9367 134.814 78.0207C134.63 78.1856 134.43 78.3434 134.213 78.5019C134 78.6565 133.769 78.808 133.522 78.9515C132.853 79.3447 132.108 79.6737 131.298 79.9362C132.106 80.1986 132.851 80.5292 133.524 80.9232C135.44 82.0506 136.504 83.5673 136.526 85.2005C136.528 85.218 136.529 85.2346 136.529 85.2521V90.5712C136.529 91.2712 136.334 91.9562 135.95 92.6087C135.946 92.6198 135.94 92.6293 135.934 92.6397C135.769 92.9179 135.565 93.1923 135.33 93.4555C134.859 93.9867 134.251 94.4727 133.523 94.8992C131.598 96.0314 129.07 96.5967 126.541 96.5975L126.543 96.5983ZM126.543 64.0582C124.16 64.0582 121.776 64.5918 119.962 65.6589C118.276 66.6507 117.348 67.9454 117.348 69.3043V74.6234C117.348 75.9823 118.276 77.277 119.962 78.2688C120.945 78.846 122.109 79.2773 123.42 79.5485C123.604 79.5865 123.735 79.7483 123.735 79.9362C123.735 80.1241 123.604 80.2858 123.42 80.3239C122.114 80.5958 120.95 81.0279 119.962 81.6082C118.277 82.5993 117.348 83.894 117.348 85.2529V90.572C117.348 91.9309 118.277 93.2255 119.963 94.2174C123.593 96.3517 129.497 96.3517 133.125 94.2174C133.781 93.8329 134.324 93.4 134.741 92.9298C134.936 92.7126 135.104 92.4874 135.24 92.2615C135.245 92.2512 135.25 92.2417 135.256 92.2313C135.576 91.6954 135.739 91.1372 135.739 90.572V85.302C135.737 85.2854 135.736 85.2695 135.736 85.2529C135.736 83.8924 134.808 82.5977 133.124 81.6074C132.136 81.0279 130.972 80.5958 129.667 80.3239C129.483 80.2858 129.351 80.1241 129.351 79.9362C129.351 79.7483 129.483 79.5865 129.667 79.5485C130.977 79.2765 132.141 78.8452 133.124 78.2681C133.348 78.138 133.556 78.0009 133.749 77.8613C133.944 77.7194 134.123 77.5775 134.29 77.4285C134.374 77.3547 134.452 77.2794 134.524 77.2065C134.604 77.1288 134.676 77.055 134.74 76.9821C134.939 76.7593 135.112 76.5254 135.254 76.2836C135.575 75.7469 135.738 75.1887 135.738 74.6234V69.3535C135.736 69.3376 135.735 69.321 135.735 69.3043C135.735 67.9438 134.807 66.6492 133.123 65.6589C131.309 64.5918 128.926 64.0582 126.543 64.0582ZM153.677 96.5975C151.148 96.5975 148.62 96.0314 146.693 94.8992C146.096 94.5496 145.572 94.1524 145.135 93.7179C144.816 93.3992 144.553 93.0717 144.351 92.7427C143.889 92.0181 143.666 91.2459 143.692 90.4538V85.344C143.647 83.6633 144.714 82.0895 146.694 80.9248C147.366 80.53 148.112 80.1994 148.92 79.937C148.109 79.6745 147.364 79.3447 146.694 78.9523C146.097 78.6018 145.573 78.2046 145.136 77.7702C144.963 77.5989 144.806 77.4197 144.665 77.2406C144.597 77.1557 144.53 77.0622 144.465 76.9694C144.338 76.7855 144.227 76.596 144.131 76.4073C143.84 75.8317 143.692 75.2323 143.692 74.6234V69.3955C143.647 67.7147 144.714 66.141 146.695 64.9763C150.546 62.7128 156.811 62.7128 160.661 64.9763C162.598 66.1164 163.666 67.6529 163.666 69.3043V74.6203C163.666 75.2331 163.519 75.8325 163.228 76.4065C163.131 76.596 163.021 76.7855 162.893 76.9694C162.766 77.1533 162.625 77.3333 162.466 77.5101C162.316 77.6806 162.142 77.8518 161.957 78.0191C161.766 78.1856 161.567 78.3465 161.347 78.5043C161.133 78.6597 160.904 78.808 160.661 78.9515C159.992 79.3447 159.248 79.6745 158.435 79.937C159.244 80.1994 159.987 80.53 160.66 80.924C162.598 82.0649 163.665 83.6014 163.665 85.2529V90.5688C163.665 91.5844 163.251 92.5818 162.467 93.4578C162.394 93.5435 162.306 93.6362 162.214 93.7242C161.782 94.1532 161.258 94.5504 160.661 94.9008C158.737 96.0322 156.208 96.5975 153.68 96.5983L153.677 96.5975ZM153.677 64.059C151.294 64.059 148.91 64.5926 147.095 65.6589C145.375 66.6714 144.447 67.9946 144.484 69.3844V74.6226C144.484 75.1055 144.603 75.5859 144.837 76.0481C144.917 76.2051 145.009 76.3629 145.116 76.5175C145.17 76.596 145.227 76.6729 145.286 76.7466C145.41 76.9044 145.546 77.0598 145.694 77.2073C146.084 77.5934 146.555 77.9509 147.095 78.2673C148.078 78.8444 149.241 79.2749 150.554 79.5477C150.738 79.5857 150.869 79.7475 150.869 79.9354C150.869 80.1233 150.737 80.285 150.554 80.3231C149.247 80.595 148.084 81.0271 147.095 81.6074C145.375 82.6191 144.447 83.9423 144.484 85.3322V90.3944C144.484 90.3991 144.484 90.4744 144.484 90.4792C144.465 91.1079 144.645 91.7279 145.024 92.3217C145.196 92.6024 145.422 92.8815 145.696 93.1558C146.085 93.5411 146.556 93.8979 147.096 94.215C150.726 96.3477 156.63 96.3477 160.258 94.2158C160.798 93.8987 161.269 93.5411 161.66 93.155C161.736 93.0813 161.805 93.0107 161.867 92.9362C162.528 92.1996 162.873 91.3846 162.873 90.5712V85.2521C162.873 83.8932 161.944 82.5985 160.259 81.6067C159.271 81.0271 158.107 80.595 156.801 80.3231C156.617 80.285 156.485 80.1233 156.485 79.9354C156.485 79.7475 156.617 79.5857 156.801 79.5477C158.116 79.2741 159.279 78.8437 160.259 78.2681C160.479 78.138 160.687 78.004 160.883 77.8605C161.084 77.7162 161.264 77.5712 161.431 77.4245C161.587 77.2834 161.74 77.1343 161.874 76.9813C162.013 76.8275 162.134 76.6737 162.241 76.5175C162.348 76.3629 162.44 76.2043 162.521 76.0465C162.754 75.5851 162.873 75.1063 162.873 74.6218V69.3028C162.873 67.9438 161.944 66.6492 160.259 65.6573C158.445 64.591 156.062 64.0574 153.679 64.0574L153.677 64.059ZM105.978 58.4925C104.959 58.4925 103.939 58.2602 103.145 57.7941L96.0546 53.6238C95.7612 53.4525 95.5059 53.2496 95.2966 53.0212C95.2189 52.9301 95.1595 52.8571 95.1056 52.777C94.882 52.4528 94.7678 52.1008 94.7678 51.7369V46.4178C94.7678 45.6971 95.2372 45.0089 96.0546 44.5292C97.641 43.5969 100.127 43.5961 101.714 44.5292L108.807 48.6987C109.681 49.2133 110.149 49.9506 110.089 50.7212L110.091 55.9055C110.091 56.4058 109.873 56.8863 109.461 57.2954C109.438 57.3207 109.392 57.3636 109.35 57.4016C109.269 57.4745 109.182 57.5435 109.09 57.6085C109.007 57.6704 108.909 57.7354 108.802 57.7956C108.011 58.2594 106.995 58.4917 105.978 58.4917L105.978 58.4925ZM103.547 57.1106C104.886 57.8955 107.065 57.8963 108.406 57.1106C108.487 57.0647 108.558 57.0187 108.623 56.9687C108.697 56.9164 108.76 56.8672 108.818 56.8157C108.841 56.7951 108.867 56.7721 108.887 56.7491C109.161 56.4772 109.298 56.1917 109.298 55.9079V50.6935C109.334 50.2059 109.009 49.7397 108.405 49.3845L101.312 45.2158C99.9957 44.4412 97.7718 44.442 96.4557 45.2158C95.8865 45.5496 95.5598 45.9888 95.5598 46.4209V51.7369C95.5598 51.9414 95.6272 52.1412 95.7604 52.3354C95.8009 52.3957 95.8437 52.4456 95.8889 52.4988C96.0355 52.6581 96.229 52.8119 96.4542 52.9435L103.546 57.1138L103.547 57.1106ZM39.8549 43.8236C38.9804 43.8236 38.1052 43.6238 37.4233 43.2243L29.8851 38.7892C29.6893 38.6734 29.5402 38.5656 29.4134 38.4498C29.3714 38.4118 29.3349 38.3777 29.3056 38.3452C29.296 38.3349 29.2524 38.2889 29.2437 38.277C29.2017 38.2421 29.1303 38.1525 29.0693 38.0653C28.8663 37.7736 28.7641 37.462 28.7641 37.1369V31.8178C28.7641 31.1828 29.1732 30.5802 29.8851 30.1648C31.5326 29.1944 33.1849 28.2239 34.8347 27.2559L29.8843 24.343C29.7987 24.2939 29.7194 24.24 29.6441 24.1892C29.5545 24.1226 29.4832 24.0671 29.4158 24.0061C29.3761 23.9712 29.3349 23.9324 29.3008 23.8943C28.9559 23.5542 28.7641 23.1316 28.7641 22.6908V17.3709C28.7641 16.7295 29.1621 16.1428 29.8851 15.7187L37.4225 11.2852C38.787 10.4844 40.9237 10.4852 42.2881 11.2844C44.2829 12.4593 46.2792 13.6327 48.274 14.8037L50.1141 15.8852C51.2154 16.5321 53.0746 16.5321 54.175 15.8852L62.001 11.2844C63.3647 10.4836 65.4998 10.4844 66.8626 11.2836L74.4048 15.7187C75.1659 16.1642 75.5734 16.8096 75.5203 17.489V22.69C75.5211 22.8153 75.506 22.9374 75.4759 23.0539C75.4529 23.1601 75.4085 23.2814 75.3459 23.4012C75.2579 23.578 75.131 23.7508 74.9701 23.9117C74.9352 23.9474 74.8964 23.9847 74.8504 24.0219C74.7338 24.1298 74.5745 24.2447 74.4016 24.3446L69.4536 27.2551L74.4048 30.1648C75.1659 30.6096 75.5734 31.2565 75.5203 31.936V37.1361C75.5211 37.3375 75.4823 37.5365 75.4038 37.7276C75.3657 37.8132 75.3324 37.883 75.2872 37.9575C75.2507 38.0201 75.2024 38.0883 75.1509 38.1565C75.0977 38.2271 75.0367 38.2921 74.9725 38.3571C74.764 38.5521 74.5911 38.6798 74.404 38.7892L66.8642 43.2219C65.5005 44.0226 63.3655 44.0218 62.0026 43.2227L54.1766 38.6211C53.0753 37.9741 51.2162 37.9741 50.1157 38.6211L42.2897 43.2219C41.6071 43.6223 40.7318 43.822 39.8565 43.822L39.8549 43.8236ZM39.8557 11.4865C39.1152 11.4865 38.3747 11.6483 37.8245 11.971L30.2871 16.4045C29.8169 16.6812 29.5577 17.0244 29.5577 17.3733V22.6932C29.5577 22.9167 29.6687 23.1451 29.878 23.352L29.9454 23.4162C29.9953 23.4614 30.0484 23.5026 30.1047 23.5447C30.1523 23.5756 30.2165 23.62 30.2871 23.6604L35.8194 26.9158C35.9407 26.9871 36.0153 27.1172 36.0153 27.2575C36.0153 27.3986 35.9407 27.5286 35.8194 27.6C33.9769 28.6806 32.1304 29.7652 30.2879 30.8506C29.8241 31.1217 29.5585 31.4745 29.5585 31.8202V37.1393C29.5585 37.301 29.6108 37.4556 29.7202 37.6126C29.7543 37.661 29.7955 37.7149 29.8439 37.7633L29.9422 37.86C30.0334 37.9432 30.1452 38.0225 30.2895 38.1089L37.8261 42.5424C38.9265 43.1862 40.7873 43.1878 41.8877 42.5416L49.713 37.9416C51.0774 37.1377 53.2149 37.1377 54.5785 37.9416L62.4038 42.5424C63.5034 43.1878 65.3626 43.1878 66.4622 42.5416L74.0036 38.1081C74.1424 38.0273 74.2684 37.9345 74.3794 37.8314C74.4492 37.7609 74.4873 37.722 74.5198 37.68C74.5515 37.638 74.5824 37.5944 74.6078 37.5524C74.6371 37.5048 74.6561 37.4628 74.6752 37.4192C74.7092 37.3359 74.7291 37.2376 74.7291 37.1393V31.9082C74.7584 31.5118 74.4936 31.1376 74.0036 30.8514L68.4713 27.6C68.35 27.5286 68.2755 27.3986 68.2755 27.2575C68.2755 27.1172 68.35 26.9871 68.4713 26.9158L74.0036 23.6612C74.1305 23.5875 74.2423 23.5074 74.339 23.4186L74.4104 23.3528C74.5103 23.2529 74.5872 23.149 74.6403 23.0436C74.6728 22.981 74.6942 22.9247 74.7053 22.8708C74.7219 22.8042 74.7291 22.751 74.7291 22.6916V17.4597C74.7584 17.0641 74.4936 16.6899 74.0036 16.4037L66.4607 11.9686C65.3618 11.3248 63.5026 11.3232 62.4022 11.9686L54.577 16.5686C53.2133 17.3733 51.0758 17.3725 49.7114 16.5686L47.872 15.4879C45.8765 14.3154 43.8801 13.1436 41.8854 11.9686C41.3351 11.6467 40.5954 11.485 39.8549 11.485L39.8557 11.4865Z" fill="#F9F8F4" stroke="#F9F8F4" stroke-linejoin="round"/>
<defs>
<linearGradient id="paint0_linear_211_15230" x1="52.144" y1="11.0869" x2="52.144" y2="38.1053" gradientUnits="userSpaceOnUse">
<stop stop-color="#D2FF00"/>
<stop offset="1" stop-color="#56EBFF"/>
</linearGradient>
<linearGradient id="paint1_linear_211_15230" x1="126.541" y1="79.6152" x2="126.541" y2="90.8904" gradientUnits="userSpaceOnUse">
<stop stop-color="#D2FF00"/>
<stop offset="1" stop-color="#56EBFF"/>
</linearGradient>
<linearGradient id="paint2_linear_211_15230" x1="126.541" y1="63.6655" x2="126.541" y2="74.9395" gradientUnits="userSpaceOnUse">
<stop stop-color="#D2FF00"/>
<stop offset="1" stop-color="#56EBFF"/>
</linearGradient>
<linearGradient id="paint3_linear_211_15230" x1="102.431" y1="44.2329" x2="102.431" y2="52.7725" gradientUnits="userSpaceOnUse">
<stop stop-color="#D2FF00"/>
<stop offset="1" stop-color="#56EBFF"/>
</linearGradient>
<linearGradient id="paint4_linear_211_15230" x1="153.677" y1="79.6152" x2="153.677" y2="90.8904" gradientUnits="userSpaceOnUse">
<stop stop-color="#D2FF00"/>
<stop offset="1" stop-color="#56EBFF"/>
</linearGradient>
<linearGradient id="paint5_linear_211_15230" x1="153.677" y1="63.666" x2="153.677" y2="74.94" gradientUnits="userSpaceOnUse">
<stop stop-color="#D2FF00"/>
<stop offset="1" stop-color="#56EBFF"/>
</linearGradient>
</defs>
</svg>
