<svg width="156" height="167" viewBox="0 0 156 167" fill="none" xmlns="http://www.w3.org/2000/svg">
<path d="M89.487 161.331L84.489 164.235C81.0479 166.234 75.4412 166.234 71.9741 164.235L6.23496 126.279C4.49118 125.275 3.62187 123.953 3.62698 122.63L3.6293 105.266C3.6293 106.588 4.49861 107.905 6.23728 108.909L71.9764 146.86C75.4436 148.865 81.0502 148.865 84.4913 146.86L149.804 108.904C151.511 107.91 152.37 106.609 152.375 105.307L152.373 122.682C152.368 123.983 151.509 125.284 149.801 126.279L103.293 153.306" fill="#212121"/>
<path d="M142.192 97.2864L149.761 101.656C153.228 103.658 153.246 106.905 149.802 108.906L84.492 146.86C81.048 148.862 75.4424 148.862 71.9757 146.86L6.23889 108.906C2.77222 106.905 2.75413 103.658 6.19806 101.657L71.5081 63.7029C74.952 61.7012 80.5577 61.7012 84.0244 63.7029L131.078 90.8694" fill="#212121"/>
<path d="M137.841 54.1584C137.709 54.1584 137.576 54.1283 137.451 54.0647C137.03 53.8499 136.86 53.3318 137.077 52.9091L154.375 18.9815C154.59 18.5589 155.111 18.396 155.531 18.6075C155.952 18.8223 156.121 19.3405 155.905 19.7631L138.606 53.6908C138.455 53.9877 138.153 54.1589 137.841 54.1589V54.1584Z" fill="#F9F8F4"/>
<path d="M80.3891 89.8668L109.502 108.885L77.8019 126.537L44.3418 108.627C44.3418 108.627 67.6608 94.3744 75.3795 89.8218C76.9294 88.9074 78.8554 88.926 80.3886 89.8672L80.3891 89.8668Z" fill="#212121"/>
<path d="M109.973 108.165L87.2393 93.3155C86.8663 93.7697 86.3936 94.1593 85.8564 94.465L107.843 108.826L77.7944 125.559L46.0707 108.578C49.8686 106.259 61.3467 99.2561 69.5042 94.3389C69.0329 93.9761 68.6595 93.521 68.3807 93.0107C64.5795 95.3024 60.1994 97.96 56.5212 100.197C47.8715 105.457 43.5282 108.231 43.4914 108.519C43.4459 108.871 43.6241 109.215 43.9377 109.383L77.3974 127.293C77.5249 127.362 77.6641 127.396 77.8033 127.396C77.9475 127.396 78.0918 127.359 78.2207 127.287L109.921 109.634C110.185 109.488 110.35 109.215 110.362 108.915C110.373 108.615 110.225 108.329 109.973 108.165Z" fill="#F9F8F4"/>
<path d="M59.5764 150.749C59.4303 150.749 59.2828 150.712 59.1468 150.633L17.4489 126.557C17.0379 126.321 16.8974 125.796 17.1353 125.385C17.3733 124.974 17.8966 124.838 18.3076 125.071L60.0055 149.147C60.4165 149.384 60.5575 149.909 60.3191 150.32C60.1614 150.595 59.8715 150.749 59.576 150.749L59.5764 150.749Z" fill="#F9F8F4"/>
<path d="M127.146 133.011C126.851 133.011 126.561 132.856 126.403 132.581C126.165 132.17 126.306 131.645 126.717 131.409L137.694 125.071C138.103 124.833 138.628 124.972 138.866 125.384C139.104 125.795 138.963 126.32 138.552 126.557L127.575 132.895C127.439 132.974 127.292 133.01 127.146 133.01L127.146 133.011Z" fill="#F9F8F4"/>
<path d="M96.4253 150.749C96.1303 150.749 95.8399 150.594 95.6822 150.319C95.4442 149.908 95.5848 149.383 95.9958 149.147L113.782 138.878C114.188 138.638 114.718 138.779 114.955 139.191C115.193 139.602 115.052 140.127 114.641 140.364L96.8545 150.633C96.7185 150.712 96.571 150.748 96.4249 150.748L96.4253 150.749Z" fill="#F9F8F4"/>
<path d="M32.0859 56.2173L77.8856 102.426V72.3747L32.0859 56.2173Z" fill="url(#paint0_linear_211_15203)"/>
<path d="M123.912 55.9956L77.8848 102.427V72.3752L123.912 55.9956Z" fill="url(#paint1_linear_211_15203)"/>
<path d="M78.127 41.6335V72.3748L124.154 55.9952L109.571 31.4126L78.127 41.6335Z" fill="url(#paint2_linear_211_15203)"/>
<path d="M77.8856 41.6335L46.6689 31.4126L32.0859 56.2174L77.8856 72.3748V41.6335Z" fill="url(#paint3_linear_211_15203)"/>
<path d="M46.5552 11.415L32.0859 29.4127V56.2173L46.6689 31.4125L46.5552 11.415Z" fill="url(#paint4_linear_211_15203)"/>
<path d="M109.415 11.0962L109.33 31.4128L123.913 55.9954V28.8856L109.415 11.0962Z" fill="url(#paint5_linear_211_15203)"/>
<path d="M78.1272 41.6338L109.571 31.4128L109.657 11.0962L78.1272 0.861328L46.7969 11.4153L46.9105 31.4128L78.1272 41.6338Z" fill="url(#paint6_linear_211_15203)"/>
<path d="M153.481 105.301C153.481 103.584 152.382 102.038 150.424 100.905L142.867 96.5426C142.455 96.3023 141.94 96.4396 141.699 96.8515C141.459 97.2635 141.596 97.7788 142.008 98.0196L149.565 102.416C152.533 104.081 152.432 106.564 149.599 108.152L84.3027 146.108C81.1083 147.997 75.8529 147.962 72.6585 146.108L6.91523 108.152C4.10311 106.575 3.91153 104.082 6.88091 102.416L51.3102 76.5891C56.3889 81.7026 77.175 102.732 77.6231 103.074C77.9738 103.349 78.2415 103.38 78.6325 103.074C79.108 102.712 92.9042 88.7144 104.922 76.6156L130.879 91.5961C131.291 91.8364 131.841 91.6991 132.047 91.2867C132.288 90.8743 132.15 90.3593 131.738 90.119L106.173 75.3533L124.765 56.5982C124.842 56.4483 124.78 56.6882 125.013 55.9946V28.8848C125.013 28.6867 124.945 28.4956 124.82 28.3429L110.323 10.5531C110.264 10.4803 110.174 10.4543 110.097 10.4056C110.036 10.3657 109.994 10.3012 109.922 10.278L78.3927 0.0436344C78.2165 -0.0166716 78.0272 -0.0134155 77.8546 0.0468905L46.56 10.5888L46.5571 10.5898L46.5233 10.6009C46.4593 10.6222 46.4245 10.6807 46.3688 10.715C46.2858 10.7661 46.1907 10.7971 46.1276 10.876L31.6588 28.8736C31.5363 29.0263 31.4691 29.2155 31.4691 29.4117V56.2164C31.6055 56.723 31.316 56.1501 31.7172 56.8204L50.0466 75.313L6.02272 100.904C4.06463 102.037 3 103.583 3 105.266C3 105.619 3.01065 122.976 3.01065 122.623C3.0023 124.327 4.08083 125.888 6.0482 127.021L71.7869 164.979C75.5774 167.161 81.4465 167.135 85.1623 164.977L90.1603 162.072C90.5713 161.834 90.7104 161.307 90.4725 160.898C90.2326 160.486 89.7043 160.35 89.2984 160.586L84.3004 163.491C81.0986 165.355 75.871 165.348 72.6455 163.491L6.9069 125.533C5.4962 124.721 4.72334 123.691 4.72844 122.628L4.73031 108.711C4.73031 108.711 4.73587 108.715 4.73773 108.716C5.12044 109.057 5.55973 109.375 6.05749 109.663L71.8008 147.618C75.4224 149.696 81.4322 149.76 85.1623 147.618L150.459 109.663C150.949 109.379 151.383 109.07 151.758 108.738L151.756 122.678C151.753 123.718 150.99 124.733 149.613 125.534L103.105 152.562C102.694 152.8 102.555 153.327 102.793 153.736C103.033 154.147 103.556 154.281 103.967 154.049L150.477 127.019C152.403 125.897 153.467 124.357 153.474 122.682L153.476 105.337C153.476 105.324 153.482 105.312 153.482 105.3L153.481 105.301ZM78.986 42.2569L109.184 32.4419L122.883 55.5349L78.986 71.156V42.2569ZM33.5951 55.7543L47.2989 32.4437L77.2682 42.256V71.1597C76.5464 70.9051 38.9781 57.6531 33.5951 55.7543ZM78.986 100.339V72.9791C115.158 60.1071 83.9641 71.2075 120.89 58.0673L78.986 100.339ZM123.295 52.8629L110.431 31.1787L110.505 13.4947L123.295 29.1895V52.8629ZM78.132 1.7642L108.794 11.7184L108.756 21.0682L108.715 30.7872L88.9091 37.2251L78.1288 40.7289L54.75 33.0746L47.7651 30.7876L47.7132 21.6582L47.6584 12.0306L78.132 1.7642ZM33.1855 29.7142L45.9504 13.8366L46.0492 31.1801L33.1855 53.0624V29.7142ZM77.2682 72.981V100.339L35.5736 58.2733C61.2185 67.3196 52.1967 64.1369 77.2682 72.981Z" fill="#F9F8F4"/>
<path d="M77.8028 127.396C77.6637 127.396 77.5245 127.362 77.3969 127.293L43.9373 109.383C43.7796 109.299 43.652 109.167 43.5732 109.007L0.0887785 20.905C-0.120901 20.4791 0.0535743 19.9642 0.478036 19.7545C0.903889 19.5448 1.42066 19.7211 1.62848 20.1437L44.9904 107.999L77.7945 125.56L108.858 108.263L133.638 59.6581C133.853 59.2355 134.369 59.0726 134.793 59.2842C135.214 59.4989 135.384 60.0171 135.167 60.4397L110.268 109.276C110.191 109.427 110.07 109.552 109.921 109.635L78.2204 127.288C78.0914 127.359 77.9471 127.397 77.8028 127.397V127.396Z" fill="#F9F8F4"/>
<defs>
<linearGradient id="paint0_linear_211_15203" x1="54.9858" y1="56.2173" x2="54.9858" y2="102.426" gradientUnits="userSpaceOnUse">
<stop stop-color="#D2FF00"/>
<stop offset="1" stop-color="#56EBFF"/>
</linearGradient>
<linearGradient id="paint1_linear_211_15203" x1="100.898" y1="55.9956" x2="100.898" y2="102.427" gradientUnits="userSpaceOnUse">
<stop stop-color="#D2FF00"/>
<stop offset="1" stop-color="#56EBFF"/>
</linearGradient>
<linearGradient id="paint2_linear_211_15203" x1="101.14" y1="31.4126" x2="101.14" y2="72.3748" gradientUnits="userSpaceOnUse">
<stop stop-color="#D2FF00"/>
<stop offset="1" stop-color="#56EBFF"/>
</linearGradient>
<linearGradient id="paint3_linear_211_15203" x1="54.9858" y1="31.4126" x2="54.9858" y2="72.3748" gradientUnits="userSpaceOnUse">
<stop stop-color="#D2FF00"/>
<stop offset="1" stop-color="#56EBFF"/>
</linearGradient>
<linearGradient id="paint4_linear_211_15203" x1="39.3774" y1="11.415" x2="39.3774" y2="56.2173" gradientUnits="userSpaceOnUse">
<stop stop-color="#D2FF00"/>
<stop offset="1" stop-color="#56EBFF"/>
</linearGradient>
<linearGradient id="paint5_linear_211_15203" x1="116.622" y1="11.0962" x2="116.622" y2="55.9954" gradientUnits="userSpaceOnUse">
<stop stop-color="#D2FF00"/>
<stop offset="1" stop-color="#56EBFF"/>
</linearGradient>
<linearGradient id="paint6_linear_211_15203" x1="78.2268" y1="0.861328" x2="78.2268" y2="41.6338" gradientUnits="userSpaceOnUse">
<stop stop-color="#D2FF00"/>
<stop offset="1" stop-color="#56EBFF"/>
</linearGradient>
</defs>
</svg>
