<svg width="164" height="179" viewBox="0 0 164 179" fill="none" xmlns="http://www.w3.org/2000/svg">
<path d="M88.7885 61.2556L88.9761 129.005C88.9891 133.768 85.6439 139.568 81.4949 141.963L21.2124 176.768C17.0679 179.162 13.6968 177.243 13.6834 172.476L13.3594 56.9374C13.3465 52.1704 16.6957 46.3703 20.8451 43.9761L81.1232 9.17131C85.2721 6.77711 88.6432 8.70003 88.6561 13.467L88.7442 45.2934" fill="#212121"/>
<path d="M88.9913 129.012C88.9913 133.772 85.6441 139.574 81.4787 141.954L21.23 176.764C17.0646 179.145 13.6806 177.248 13.6806 172.488L13.6433 157.649L13.3457 60.842V56.9369C13.3457 52.1764 16.6929 46.3747 20.8582 43.9571L81.107 9.18422C85.2723 6.76663 88.6568 8.701 88.6568 13.461V17.924L88.7315 45.2963L88.8056 61.251L88.9544 114.731L88.9918 129.012L88.9913 129.012Z" fill="#212121"/>
<path d="M63.0488 5.24391L68.716 1.97433C70.8027 0.766034 72.6972 0.628683 74.0429 1.42493L86.4538 8.64635C85.1082 7.85011 83.2141 7.98746 81.1265 9.16789L20.8559 43.9846C16.683 46.3733 13.3323 52.167 13.3597 56.945V61.1188L13.6623 164.812L13.6897 172.5C13.6897 174.862 14.5138 176.509 15.8863 177.306L3.44749 170.084C2.10234 169.288 1.25085 167.64 1.25085 165.251L0.920898 49.7235C0.920898 44.9734 4.27158 39.1524 8.41702 36.7632L52.5503 11.3003" fill="#212121"/>
<path d="M51.1417 143.076C53.518 141.704 55.4444 142.775 55.4524 145.506C55.4604 148.236 53.5459 151.58 51.1701 152.952C48.7933 154.324 46.8908 153.184 46.8828 150.453C46.8749 147.722 48.7645 144.449 51.1417 143.076Z" fill="#212121"/>
<path d="M74.6569 39.2933C77.39 37.7152 79.6036 38.9907 79.6125 42.1314C79.6215 45.2721 77.4224 49.0811 74.6893 50.6592C71.9562 52.2372 69.7302 50.9831 69.7217 47.8424C69.7127 44.7018 71.9243 40.8718 74.6574 39.2938L74.6569 39.2933Z" fill="url(#paint0_linear_211_15162)"/>
<path d="M27.6237 63.7591C30.3568 62.1811 32.5704 63.4565 32.5793 66.5972C32.5883 69.7379 30.3892 73.5469 27.6561 75.125C24.923 76.703 22.697 75.4489 22.6885 72.3083C22.6795 69.1676 24.8906 65.3377 27.6242 63.7596L27.6237 63.7591Z" fill="url(#paint1_linear_211_15162)"/>
<path d="M70.8515 76.3737V77.6632C70.8883 80.8322 68.6404 84.6646 65.9138 86.2491L57.9549 90.8181L44.7999 98.4456L36.8405 103.015C34.1138 104.599 31.8659 103.346 31.8659 100.177V98.8875L31.8291 85.9167V84.5905C31.8291 81.4582 34.0402 77.6258 36.7668 76.0418L65.8401 59.2391C68.5668 57.6914 70.8147 58.944 70.8147 62.0767V63.4034L70.8515 76.3742V76.3737Z" fill="url(#paint2_linear_211_15162)"/>
<path d="M31.916 147.243V118.119C31.9096 115.752 33.5767 112.875 35.6265 111.692L44.8127 106.388L57.9925 98.7792L67.1687 93.4812C69.2285 92.2918 70.8966 93.2428 70.9036 95.6097L70.9244 125.013L31.916 147.244V147.243Z" fill="url(#paint3_linear_211_15162)"/>
<path d="M40.4238 127.197L62.4176 114.663V106.388L40.4238 118.922V127.197Z" fill="#212121"/>
<path d="M57.9693 90.8237L57.9922 98.7792L44.8124 106.388L44.79 98.4328L57.9693 90.8237Z" fill="#212121"/>
<path d="M76.4638 60.1473C76.8455 59.9269 77.2068 59.8174 77.5303 59.8074C78.3708 59.781 78.9541 60.4285 78.9571 61.5681L78.9775 68.8124C78.9819 70.39 77.8737 72.3099 76.5007 73.1027L70.8588 76.3598L70.8125 63.4099L75.4103 60.7554L76.4643 60.1468L76.4638 60.1473Z" fill="url(#paint4_linear_211_15162)"/>
<path d="M31.8241 85.9194L31.8704 98.8693L26.9267 101.723C25.5537 102.516 24.438 101.88 24.4335 100.303L24.4131 93.0582C24.4096 91.8037 25.1098 90.3336 26.0867 89.3851C26.3385 89.1407 26.6087 88.9302 26.8899 88.768L28.2241 87.9976L31.8241 85.9194Z" fill="url(#paint5_linear_211_15162)"/>
<path d="M75.9964 59.3659L75.7755 59.5132L75.7387 51.0382C78.4658 49.159 80.5291 45.4003 80.5291 42.1207C80.5291 38.044 77.2913 36.649 74.191 38.5098C71.1692 40.2416 68.7745 44.3686 68.8109 47.8323C68.8109 51.4283 71.2673 52.8416 73.8959 52.033L73.9327 60.5448L71.6848 61.8342C71.6062 58.1501 68.6581 56.5835 65.3835 58.4442L36.3102 75.2469C33.2885 77.0156 30.8933 81.1058 30.8933 84.6063V85.3801L28.7558 86.6332L28.6822 75.542C31.4456 73.6629 33.5094 69.8673 33.5094 66.5878C33.5094 62.6071 30.3389 61.0768 27.1713 62.9763C24.1133 64.7082 21.7549 68.8352 21.7549 72.2988C21.7549 74.7523 23.0333 76.721 25.4395 76.721C25.8819 76.721 26.3607 76.6473 26.8399 76.5L26.9136 87.7017L26.4343 87.9594C24.4163 89.3051 23.4867 91.4062 23.4867 93.0445L23.5235 100.304C23.5235 102.395 25.1379 103.717 27.3928 102.515L30.9674 100.452C31.048 104.247 34.2121 105.661 37.305 103.805L43.8641 100.01L43.9009 105.832L35.1676 110.88C32.8092 112.243 31.0038 115.412 31.0038 118.102V147.249C31.0038 147.581 31.151 147.876 31.4462 148.023C31.5935 148.134 31.7408 148.17 31.9254 148.17C32.0727 148.17 32.22 148.134 32.3678 148.06L71.3902 125.803C71.6848 125.656 71.8321 125.361 71.8321 125.03V95.6248C71.8321 92.6 69.4673 91.1016 66.7103 92.6767L58.8986 97.1725V91.3504L66.3788 87.0393C69.4374 85.2706 71.7958 81.1436 71.7589 77.6799V76.9061L76.9544 73.8844C78.6126 72.9632 79.9025 70.7153 79.9025 68.7994L79.8657 61.5769C79.8657 59.2275 77.9671 58.2402 75.9964 59.3659ZM70.6537 47.8323V47.7586C70.6537 44.9583 72.7174 41.4947 75.1121 40.0943C77.0739 38.9397 78.6868 39.5578 78.6868 42.1207C78.6868 45.2544 76.2562 48.8445 74.2278 49.8587C74.191 49.8587 74.191 49.8955 74.1542 49.8955C72.0919 51.0854 70.6537 50.3061 70.6537 47.8323ZM23.5987 72.2998C23.5987 69.4995 25.6619 65.9617 28.094 64.5613C30.1438 63.3471 31.6686 64.1229 31.6686 66.5883C31.6686 71.5534 27.4679 73.9938 27.0997 74.3631C24.9289 75.5689 23.5987 74.6134 23.5987 72.2998ZM26.4726 100.931C25.7416 101.357 25.3674 101.21 25.3674 100.305L25.3305 93.0454C25.3305 91.6854 26.4627 90.0297 27.357 89.5818C27.7257 89.3668 31.263 87.303 30.8943 87.518L30.9311 98.3514L26.4721 100.931L26.4726 100.931ZM67.6324 94.2617C69.2513 93.4515 69.9903 94.0617 69.9903 95.6253V124.477L32.8475 145.665V118.102C32.8475 116.076 34.3211 113.496 36.0903 112.501C36.4595 112.288 68.0952 93.994 67.6324 94.2612V94.2617ZM57.0568 98.2409C56.6831 98.4564 45.0216 105.18 45.7442 104.763L45.7074 98.978L57.0568 92.4189V98.2409ZM65.4582 85.4548C22.7119 110.148 54.1948 91.9516 36.3849 102.221C34.2942 103.415 32.7739 102.684 32.7739 100.194C32.7699 98.5132 32.7351 84.229 32.7371 84.6073C32.7371 81.807 34.8003 78.2328 37.2328 76.8325L66.3062 60.0297C68.3381 58.9548 69.8803 59.4938 69.8803 62.093C69.8813 62.4712 69.9181 78.0582 69.9171 77.6799C69.954 80.4434 67.9265 84.0175 65.4582 85.4548ZM76.0338 72.2998L71.7594 74.7687L71.7226 63.9353C72.0914 63.7233 77.2869 60.7389 76.9181 60.9504C77.787 60.4542 78.0234 60.8255 78.0234 61.5769L78.0602 68.7994C78.0602 70.0888 77.1391 71.6738 76.0338 72.2998Z" fill="#F9F8F4"/>
<path d="M110.518 85.9192L102.752 81.5075C106.235 76.3772 108.062 69.7813 109.047 64.7202L116.813 69.1319C115.828 74.193 114.001 80.7889 110.518 85.9192Z" fill="#212121"/>
<path d="M124.718 7.72483C134.262 2.18845 142.753 1.30562 148.119 4.43037L156.66 9.31085C151.26 6.18609 142.768 7.06892 133.225 12.5715C116.956 21.9796 103.846 41.0332 103.88 55.3322C103.914 61.106 106.121 65.2156 109.858 67.3555L101.317 62.475C97.6145 60.3351 95.3731 56.2255 95.3731 50.4517C95.3482 39.9632 102.429 26.867 112.648 16.9418C116.208 13.6036 120.294 10.5664 124.718 7.72533L124.718 7.72483Z" fill="#212121"/>
<path d="M133.225 12.5847C149.402 3.24474 162.575 7.14484 162.616 21.4225C162.656 35.6255 149.547 54.7243 133.371 64.0643C130.66 65.6294 127.97 66.8581 125.474 67.625C120.741 75.998 115.632 81.9678 110.517 85.9192C114 80.7889 115.827 74.193 116.812 69.1319C109.058 69.0164 103.918 64.1474 103.893 55.3265C103.852 41.0489 116.961 21.9749 133.224 12.5852L133.225 12.5847Z" fill="#212121"/>
<path d="M157.142 8.54126C155.532 7.59124 148.213 3.41296 148.584 3.63242C142.664 0.192153 133.8 1.39398 124.255 6.92688C123.816 7.18217 123.664 7.74551 123.92 8.18643C124.175 8.62885 124.742 8.77466 125.179 8.52135C134.008 3.40251 142.408 2.17181 147.663 5.23038L150.059 6.59942C149.968 6.59594 149.865 6.61784 149.773 6.61535C144.03 6.47849 137.756 8.89459 132.765 11.774C116.295 21.2976 102.925 40.8389 102.959 55.337C102.976 58.4214 103.787 61.4899 104.826 63.4193L101.777 61.6775C98.2413 59.6337 96.2945 55.6465 96.2945 50.4505C96.2711 40.5477 102.941 27.6526 113.29 17.602C113.656 17.2477 113.663 16.6644 113.308 16.2992C112.954 15.9359 112.375 15.9249 112.005 16.2812C101.318 26.6628 94.4268 40.076 94.4522 50.4525C94.4522 56.3323 96.7265 60.8863 100.859 63.2755L107.595 67.1234C106.27 72.8115 104.376 77.4656 101.974 80.9954C101.864 81.2164 101.79 81.4746 101.864 81.7324C101.901 81.9534 102.085 82.1748 102.306 82.3221C110.205 86.8 110.127 86.8548 110.523 86.8548C110.696 86.8548 110.916 86.7935 111.076 86.6338C111.69 86.0192 118.612 81.4682 126.11 68.3939C128.505 67.62 131.121 66.4406 133.848 64.8565C150.245 55.3867 163.585 35.8937 163.548 21.4125C163.511 15.4128 161.285 10.9852 157.142 8.54225V8.54126ZM110.228 84.68L104.074 81.1795C106.249 77.7159 107.98 73.2942 109.27 68.0983C111.076 69.1667 113.25 69.8301 115.682 70.0142C114.574 75.1644 112.979 80.236 110.228 84.68ZM132.927 63.271C130.2 64.8555 127.583 65.9977 125.189 66.7347C124.968 66.8083 124.783 66.9556 124.673 67.1771C121.356 73.036 117.782 77.8632 113.95 81.6583C115.553 77.6512 116.432 75.6999 117.708 69.314C117.817 68.6611 117.259 68.2087 116.824 68.2087C109.178 68.0769 104.885 63.0491 104.811 55.3121V55.2384C104.811 41.3833 117.782 22.591 133.701 13.3789C148.718 4.74069 155.831 10.1004 156.2 10.1094C159.768 12.2189 161.669 16.1016 161.705 21.4115C161.742 35.3035 148.808 54.0958 132.927 63.271Z" fill="#F9F8F4"/>
<path d="M50.6812 142.28C48.0272 143.811 45.9545 147.402 45.9619 150.456C45.9694 153.882 48.6214 155.487 51.6312 153.75C54.2996 152.21 56.3828 148.588 56.3738 145.504C56.3663 142.081 53.6984 140.538 50.6812 142.28ZM50.71 152.154C48.9299 153.179 47.8077 152.442 47.8043 150.452C47.7973 148.038 49.5007 145.087 51.6023 143.876V143.874C53.3098 142.893 54.5275 143.436 54.5315 145.508C54.5385 147.912 52.7882 150.954 50.71 152.154Z" fill="#F9F8F4"/>
<path d="M56.4235 28.5284L44.9909 35.1277C44.55 35.3815 44.3992 35.9444 44.6545 36.3853C44.8237 36.6804 45.1347 36.8461 45.4518 36.8461C45.6085 36.8461 45.7667 36.8063 45.9126 36.7222L57.3451 30.1228C57.786 29.869 57.9373 29.3062 57.6816 28.8653C57.4278 28.4229 56.8609 28.2681 56.424 28.5289L56.4235 28.5284Z" fill="#F9F8F4"/>
<path d="M56.2657 82.683C56.0642 82.7994 55.8606 82.9811 55.681 83.2189C53.4814 86.1511 50.6213 88.705 47.0074 88.2154C46.8297 88.1885 46.6312 88.2412 46.4356 88.3542C46.0773 88.5612 45.7284 88.9693 45.5293 89.4585C45.2118 90.2204 45.3686 90.8977 45.8822 90.9574C50.3954 91.5745 54.1373 88.2507 56.8669 84.6044C57.3591 83.942 57.4919 83.097 57.1714 82.7148C56.9619 82.4754 56.6156 82.4809 56.2657 82.683Z" fill="#212121"/>
<path d="M42.1676 79.0011C40.2048 80.1343 38.6049 82.9166 38.6113 85.1611C38.6178 87.4388 40.2282 88.3341 42.191 87.2009C44.1636 86.0618 45.7536 83.3187 45.7477 81.041C45.7412 78.7966 44.1403 77.862 42.1676 79.0011Z" fill="#212121"/>
<path d="M60.4723 68.4332C58.519 69.5609 56.9096 72.3487 56.916 74.5931C56.9225 76.8709 58.5424 77.7607 60.4956 76.633C62.4778 75.4889 64.0583 72.7508 64.0519 70.4731C64.0454 68.2287 62.4544 67.2886 60.4723 68.4332Z" fill="#212121"/>
<path d="M89.7256 61.2475L89.5763 13.4615C89.5763 10.8239 88.6338 8.82835 86.9209 7.8425C86.9044 7.83305 86.8845 7.83156 86.8676 7.8226C86.8666 7.8226 86.8656 7.8216 86.8651 7.82111L74.5099 0.631529C72.8169 -0.368751 70.5894 -0.17616 68.256 1.17646L62.5882 4.44752C62.1473 4.70133 61.996 5.26417 62.2518 5.70509C62.5036 6.14601 63.0669 6.29331 63.5093 6.0415L69.1786 2.77044C70.888 1.7826 72.4964 1.57956 73.5778 2.22153L82.6605 7.50609C82.6316 7.51455 82.6003 7.53595 82.5714 7.54491C81.9488 7.737 81.3158 7.99727 80.6709 8.36902C80.6689 8.37002 80.6669 8.37051 80.6654 8.37151C80.6654 8.37151 80.6629 8.373 80.6619 8.3735C-1.96124 56.0655 26.5796 39.5912 20.3963 43.1599C16.0985 45.6556 12.4239 51.7588 12.4239 56.9364C12.7483 168.998 12.5304 93.7153 12.6085 120.725L12.7583 172.487C12.7583 173.208 12.8444 173.868 12.9827 174.486C12.9877 174.509 12.9852 174.537 12.9907 174.559L3.917 169.291C2.79082 168.625 2.17176 167.192 2.17176 165.25L1.84229 49.7234C1.84229 45.2525 4.99792 39.7972 8.87712 37.5608L53.0104 12.0979C53.4513 11.8441 53.6026 11.2813 53.3468 10.8404C53.093 10.3994 52.5262 10.2447 52.0892 10.5039L7.95596 35.9648C3.56966 38.4944 0 44.6658 0 49.7254L0.329439 165.252C0.329439 167.868 1.2705 169.866 2.98491 170.882L15.4232 178.103C15.4332 178.109 15.4446 178.106 15.4546 178.111C17.3959 179.207 19.7603 178.663 21.6897 177.561L37.0362 168.695L81.9548 142.761C86.4854 140.146 89.9128 134.003 89.9128 129.013V129.011C89.8391 102.333 89.7863 83.2417 89.7256 61.2475ZM81.0172 141.157L32.0602 169.442L20.7521 175.971C17.1317 178.053 14.6111 176.388 14.6111 172.498L14.5683 158.183L88.0187 116.325L88.0535 129.007C88.0665 133.518 84.782 139.005 81.0172 141.157ZM87.7335 13.469L87.7445 17.3815L14.2866 59.243C14.2886 58.6224 14.2936 56.8194 14.2941 56.7602C14.3617 52.2181 17.5407 46.943 21.3149 44.7827C27.4769 41.224 -1.00278 57.6729 81.5676 9.98191C84.8491 8.0779 87.7216 9.13988 87.7335 13.469ZM14.4856 130.388L14.2921 61.3615L87.739 19.5075L87.8674 61.257C87.8674 61.257 87.8669 61.258 87.8669 61.259L88.0132 114.208L14.5623 156.064L14.4856 130.388Z" fill="#F9F8F4"/>
<line x1="146.623" y1="20.2914" x2="123.319" y2="59.4433" stroke="#F9F8F4" stroke-width="2.79657"/>
<line x1="116.359" y1="38.1336" x2="153.126" y2="39.2388" stroke="#F9F8F4" stroke-width="2.79657"/>
<defs>
<linearGradient id="paint0_linear_211_15162" x1="74.6671" y1="38.6162" x2="74.6671" y2="51.3406" gradientUnits="userSpaceOnUse">
<stop stop-color="#D2FF00"/>
<stop offset="1" stop-color="#56EBFF"/>
</linearGradient>
<linearGradient id="paint1_linear_211_15162" x1="27.6339" y1="63.082" x2="27.6339" y2="75.8065" gradientUnits="userSpaceOnUse">
<stop stop-color="#D2FF00"/>
<stop offset="1" stop-color="#56EBFF"/>
</linearGradient>
<linearGradient id="paint2_linear_211_15162" x1="51.3405" y1="58.5767" x2="51.3405" y2="103.7" gradientUnits="userSpaceOnUse">
<stop stop-color="#D2FF00"/>
<stop offset="1" stop-color="#56EBFF"/>
</linearGradient>
<linearGradient id="paint3_linear_211_15162" x1="51.4202" y1="92.9688" x2="51.4202" y2="147.244" gradientUnits="userSpaceOnUse">
<stop stop-color="#D2FF00"/>
<stop offset="1" stop-color="#56EBFF"/>
</linearGradient>
<linearGradient id="paint4_linear_211_15162" x1="74.895" y1="59.8066" x2="74.895" y2="76.3598" gradientUnits="userSpaceOnUse">
<stop stop-color="#D2FF00"/>
<stop offset="1" stop-color="#56EBFF"/>
</linearGradient>
<linearGradient id="paint5_linear_211_15162" x1="28.1417" y1="85.9194" x2="28.1417" y2="102.064" gradientUnits="userSpaceOnUse">
<stop stop-color="#D2FF00"/>
<stop offset="1" stop-color="#56EBFF"/>
</linearGradient>
</defs>
</svg>
