<svg width="176" height="156" viewBox="0 0 176 156" fill="none" xmlns="http://www.w3.org/2000/svg">
<g clip-path="url(#clip0_211_15118)">
<path d="M15.5796 89.3965C23.7161 84.8048 30.3195 88.5377 30.3463 97.6489C30.3731 106.788 23.8119 117.922 15.6754 122.513C7.53947 127.105 0.935574 123.4 0.909262 114.261C0.882453 105.15 7.44365 93.9882 15.5796 89.3965Z" fill="#212121"/>
<path d="M26.4544 87.6109C23.3699 85.8729 19.3422 86.2279 15.1327 88.6395C6.74999 93.3566 -0.036097 104.849 0.000144489 114.248C0.000144489 119.001 1.70548 122.584 4.79047 124.286C6.06041 125.031 7.51206 125.386 9.07243 125.386C11.2494 125.386 13.6448 124.676 16.1122 123.293C18.5796 121.91 20.9025 119.923 23.007 117.547L21.4104 116.625C19.5234 118.718 17.4184 120.491 15.2052 121.732C11.5761 123.789 8.20164 124.179 5.6975 122.761C3.19386 121.377 1.8147 118.327 1.8147 114.248C1.77846 105.416 8.1654 94.5977 16.0397 90.1644C18.2172 88.9227 20.2854 88.3198 22.1725 88.3198C23.4062 88.3198 24.5674 88.6036 25.5474 89.1712C28.051 90.5547 29.4302 93.5692 29.4302 97.6485C29.4302 100.025 28.9948 102.508 28.1603 104.991L29.7569 105.877C30.7364 103.111 31.2448 100.273 31.2448 97.6485C31.2448 92.8956 29.5394 89.3489 26.4544 87.6109Z" fill="#F9F8F4"/>
<path d="M26.5153 119.529L13.2524 112.029C12.3871 111.533 11.835 110.483 11.835 108.996C11.8201 105.978 13.9986 102.303 16.6681 100.801C18.011 100.043 19.2338 99.971 20.1294 100.466L67.6603 127.343C66.7801 126.847 65.5573 126.906 64.1995 127.679C61.529 129.18 59.3665 132.854 59.3665 135.858C59.3814 137.361 59.918 138.41 60.7834 138.906L38.27 126.175" fill="#212121"/>
<path d="M16.2211 100.025C13.2458 101.728 10.9229 105.665 10.9229 108.999C10.9229 110.737 11.6124 112.121 12.8099 112.794L26.0549 120.278C26.4903 120.527 27.0349 120.385 27.2886 119.959C27.5428 119.534 27.3973 119.002 26.9619 118.753L13.7169 111.269C13.0998 110.914 12.7369 110.099 12.7369 108.999C12.7369 106.303 14.7327 102.899 17.1276 101.586C18.1438 100.983 19.0509 100.877 19.668 101.232L52.1095 119.569L53.9241 118.541L20.575 99.7068C19.3413 98.9974 17.7809 99.1392 16.2206 100.026L16.2211 100.025Z" fill="#F9F8F4"/>
<path d="M88.5309 122.568L88.591 143.181L67.4453 155.114L67.3857 134.501L88.5309 122.568Z" fill="url(#paint0_linear_211_15118)"/>
<path d="M67.4441 156C67.2882 156 67.1324 155.961 66.9924 155.883C66.7104 155.725 66.5371 155.432 66.5371 155.116L66.4785 134.503C66.4785 134.186 66.6503 133.892 66.9323 133.734L88.0779 121.801C88.3579 121.641 88.7035 121.643 88.9835 121.799C89.265 121.957 89.4372 122.249 89.4387 122.566L89.4973 143.179C89.4993 143.497 89.3255 143.791 89.0435 143.949L67.8979 155.882C67.7579 155.961 67.6 156.001 67.4441 156.001V156ZM68.2946 135.012L68.3477 153.581L87.6808 142.67L87.6277 124.101L68.2946 135.012Z" fill="#F9F8F4"/>
<path d="M67.4443 155.115L46.665 143.311L46.6055 122.699L67.3847 134.501L67.4443 155.115Z" fill="url(#paint1_linear_211_15118)"/>
<path d="M67.4436 156.001C67.2857 156.001 67.1284 155.961 66.9884 155.881L46.2096 144.078C45.9296 143.919 45.7593 143.628 45.7578 143.313L45.6992 122.7C45.6972 122.382 45.871 122.088 46.153 121.93C46.4365 121.771 46.7855 121.773 47.062 121.93L67.8408 133.733C68.1208 133.893 68.2911 134.184 68.2926 134.499L68.3511 155.112C68.3531 155.429 68.1794 155.723 67.8974 155.881C67.7574 155.961 67.5995 156.001 67.4436 156.001ZM47.5699 142.8L66.5326 153.571L66.4795 135.012L47.5168 124.241L47.5699 142.8V142.8Z" fill="#F9F8F4"/>
<path d="M67.3847 134.501L46.6055 122.699L67.7506 110.765L88.5299 122.569L67.3847 134.501Z" fill="#212121"/>
<path d="M88.9792 121.804L73.8834 113.22V115.277L86.7297 122.584L67.3882 133.473L48.4096 122.691L61.6908 115.207V113.149L46.1591 121.946C45.8692 122.088 45.6875 122.372 45.6875 122.691C45.6875 123.01 45.8687 123.294 46.1591 123.471L66.9161 135.282C67.061 135.353 67.2427 135.389 67.3877 135.389C67.5327 135.389 67.7144 135.353 67.8231 135.282L88.9792 123.329C89.2696 123.187 89.4508 122.868 89.4508 122.584C89.4508 122.265 89.2691 121.945 88.9792 121.804Z" fill="#F9F8F4"/>
<path d="M73.9306 93.3527L73.8924 122.734C73.8899 123.614 73.2976 124.493 72.1136 125.165C69.7425 126.512 65.8785 126.512 63.4921 125.165C62.2916 124.488 61.6894 123.593 61.6924 122.698L61.7301 93.3174C61.7271 94.2115 62.3294 95.1067 63.5298 95.7842C65.9168 97.1314 69.7802 97.1314 72.1518 95.7842C73.3358 95.1116 73.9276 94.2324 73.9306 93.3527Z" fill="#212121"/>
<path d="M72.1335 90.8969C74.5209 92.2441 74.5329 94.4311 72.1523 95.7838C69.7808 97.131 65.9173 97.131 63.5304 95.7838C61.1528 94.4416 61.121 92.2436 63.4926 90.8969C65.8736 89.5448 69.7564 89.5552 72.1335 90.8969Z" fill="#212121"/>
<path d="M118.542 137.062L24.5744 74.4115C23.8635 73.9351 23.4837 72.9857 23.5885 71.6504L26.454 34.833L120.421 97.4833L117.552 134.301C117.447 135.639 117.831 136.585 118.542 137.062Z" fill="#212121"/>
<path d="M124.321 30.6965L174.089 63.8782C173.289 63.347 172.076 63.4127 170.665 64.2092L125.636 89.6184C122.978 91.121 120.645 94.6422 120.422 97.4835L26.4541 34.8331C26.6775 31.9884 29.0109 28.4671 31.6684 26.9681L76.6977 1.5589C78.1081 0.762343 79.3215 0.693142 80.1218 1.22783L103.61 16.8882" fill="#212121"/>
<path d="M170.667 64.2089C173.326 62.7084 175.299 63.7987 175.078 66.6404L172.209 103.458C171.988 106.3 169.655 109.82 166.996 111.321L121.965 136.733C119.309 138.232 117.333 137.143 117.554 134.301L120.423 97.4832C120.644 94.6414 122.979 91.1196 125.635 89.6206L170.667 64.2084V64.2089Z" fill="#212121"/>
<path d="M37.4865 125.74C37.2323 126.166 37.3773 126.698 37.8131 126.946L46.6312 131.947V129.89L38.7202 125.421C38.2848 125.172 37.7407 125.315 37.4865 125.74Z" fill="#F9F8F4"/>
<path d="M174.636 63.1978C97.7683 11.9049 135.84 37.3102 124.833 29.9649C124.42 29.6946 123.857 29.7936 123.571 30.1969C123.289 30.6021 123.396 31.1547 123.809 31.4301L171.153 62.9957C170.843 63.1137 170.528 63.2625 170.211 63.4427L125.18 88.8515C125.157 88.8644 125.138 88.8863 125.115 88.8993C122.82 90.2215 120.531 93.1305 119.772 95.9777L63.6909 58.5867L27.4211 34.4042C27.8376 31.9483 29.891 28.9936 32.1221 27.7365L77.1514 2.3268C78.1721 1.75029 79.0935 1.6099 79.6108 1.95939L103.099 17.6212C103.513 17.8985 104.08 17.7945 104.36 17.3892C104.642 16.984 104.536 16.4314 104.123 16.156L80.633 0.494714C79.508 -0.257038 77.906 -0.146018 76.2438 0.792428L31.215 26.1997C28.2889 27.8505 25.8017 31.6063 25.5514 34.7567C25.5514 34.7602 25.5485 34.7622 25.5485 34.7656L22.6834 71.5841C22.5578 73.1981 23.0468 74.4626 24.0636 75.1447L60.8184 99.6498L60.7836 122.69C60.7836 123.931 61.6182 125.137 63.0336 125.918C64.3765 126.698 66.0818 127.052 67.8239 127.052C69.5292 127.052 71.2351 126.698 72.5775 125.918C73.9929 125.102 74.7912 123.967 74.7912 122.726L74.825 108.988C94.999 122.433 118.556 138.118 118.12 137.85C119.44 138.66 121.068 138.264 122.418 137.5L167.451 112.088C170.381 110.436 172.869 106.674 173.115 103.526L175.982 66.7086C176.106 65.1105 175.62 63.8833 174.636 63.1978H174.636ZM72.9766 122.726C72.9766 123.329 72.505 123.931 71.6705 124.392C69.5655 125.598 66.0456 125.563 63.9411 124.392C63.0703 123.896 62.5987 123.293 62.5987 122.69L62.6334 100.86L73.0114 107.779L72.9776 122.726H72.9766ZM116.629 134.712L25.0892 73.681C24.6355 73.3778 24.4195 72.6624 24.494 71.719L27.2389 36.43L119.477 97.9277C115.67 146.77 116.9 130.983 116.647 134.233C116.634 134.396 116.629 134.555 116.629 134.711L116.629 134.712ZM171.305 103.391C171.108 105.928 168.927 109.208 166.544 110.554L121.511 135.966C119.343 137.192 118.309 136.279 118.46 134.369C118.522 133.569 121.367 97.053 121.328 97.5519V97.5504C121.488 95.4958 123.429 91.8918 126.089 90.3888L171.12 64.9766C171.123 64.9751 171.126 64.9741 171.129 64.9726C172.957 63.951 174.349 64.3224 174.171 66.5737L171.304 103.391H171.305Z" fill="#F9F8F4"/>
<path d="M128.131 98.0575C128.235 97.5795 129.013 96.4668 129.507 96.1626L166.656 75.1992L164.499 102.884C164.395 103.364 163.615 104.478 163.119 104.782L125.974 125.744L128.131 98.0575Z" fill="url(#paint2_linear_211_15118)"/>
<path d="M125.973 126.631C125.805 126.631 125.638 126.586 125.49 126.494C125.206 126.319 125.043 126.004 125.068 125.676L127.226 97.9901C127.229 97.9503 127.236 97.9104 127.244 97.8721C127.405 97.1343 128.355 95.8234 129.026 95.4112L166.202 74.4309C166.491 74.2646 166.85 74.2696 167.139 74.4483C167.423 74.623 167.586 74.9387 167.561 75.2658L165.404 102.952C165.225 103.807 164.274 105.12 163.6 105.532L126.426 126.511C126.286 126.591 126.128 126.63 125.972 126.63L125.973 126.631ZM129.03 98.2101L127.008 124.137L162.666 104.016C162.921 103.858 163.538 102.984 163.614 102.696L165.622 76.8056L129.962 96.9302C129.72 97.081 129.144 97.8895 129.031 98.2101H129.03Z" fill="#F9F8F4"/>
<path d="M146.75 95.27C149.86 93.5151 152.168 94.7896 151.909 98.1142C151.65 101.439 148.922 105.556 145.812 107.311C142.702 109.065 140.394 107.791 140.653 104.466C140.912 101.142 143.639 97.025 146.75 95.27Z" fill="#212121"/>
<path d="M139.746 104.398C140.03 100.762 142.907 96.4143 146.295 94.5041C150.138 92.332 153.119 94.2427 152.814 98.1827C152.531 101.818 149.655 106.165 146.265 108.079C142.439 110.242 139.439 108.354 139.746 104.399V104.398ZM147.203 96.0384C144.376 97.6336 141.791 101.523 141.557 104.533C141.347 107.242 142.99 107.883 145.358 106.544C148.185 104.947 150.77 101.057 151.003 98.0473C151.216 95.3066 149.538 94.7216 147.203 96.0384Z" fill="#F9F8F4"/>
<path d="M107.58 50.5369C105.044 52.3381 105.286 55.4118 108.126 57.4047L126.784 70.5001C129.62 72.4905 133.976 72.6444 136.512 70.8432C139.052 69.04 138.809 65.9662 135.972 63.9758L117.314 50.8809C114.474 48.888 110.119 48.7347 107.58 50.5379L107.58 50.5369Z" fill="url(#paint3_linear_211_15118)"/>
<path d="M126.255 71.2202L107.597 58.1253C104.273 55.7924 103.992 51.9878 107.048 49.8192C109.924 47.7775 114.665 47.9298 117.844 50.1602L136.502 63.2551C139.83 65.5925 140.097 69.3936 137.046 71.5597C134.219 73.5671 129.489 73.4884 126.255 71.2202ZM108.115 51.253C105.973 52.7729 106.453 55.1377 108.657 56.684L127.315 69.7789C129.808 71.5284 133.775 71.6877 135.979 70.1254C138.14 68.5911 137.62 66.2233 135.443 64.6959L116.785 51.601C114.154 49.7539 110.276 49.7186 108.115 51.253Z" fill="#F9F8F4"/>
<path d="M67.2805 23.6551C64.7436 25.4563 64.9868 28.53 67.8261 30.5229L86.4845 43.6183C89.3207 45.6087 93.6762 45.7626 96.2131 43.9613C98.7525 42.1581 98.5092 39.0844 95.6729 37.094L77.0145 23.9986C74.1748 22.0057 69.8198 21.8519 67.2805 23.6551Z" fill="url(#paint4_linear_211_15118)"/>
<path d="M85.955 44.3377L67.2951 31.2428C63.9753 28.9134 63.6918 25.1053 66.746 22.9382C69.6255 20.896 74.3686 21.0488 77.544 23.2777L96.2019 36.3726C99.5182 38.7021 99.8072 42.5041 96.746 44.6772C93.9311 46.6796 89.1934 46.6114 85.955 44.3377ZM67.8124 24.3725C65.6474 25.9128 66.187 28.2841 68.3545 29.802L87.0144 42.8969C89.5091 44.6479 93.4763 44.8057 95.6791 43.2434C97.8397 41.7091 97.3194 39.3413 95.1425 37.8139L76.4846 24.719C73.9472 22.9352 70.0559 22.7843 67.8129 24.3725H67.8124Z" fill="#F9F8F4"/>
</g>
<defs>
<linearGradient id="paint0_linear_211_15118" x1="77.9884" y1="122.568" x2="77.9884" y2="155.114" gradientUnits="userSpaceOnUse">
<stop stop-color="#D2FF00"/>
<stop offset="1" stop-color="#56EBFF"/>
</linearGradient>
<linearGradient id="paint1_linear_211_15118" x1="57.0249" y1="122.699" x2="57.0249" y2="155.115" gradientUnits="userSpaceOnUse">
<stop stop-color="#D2FF00"/>
<stop offset="1" stop-color="#56EBFF"/>
</linearGradient>
<linearGradient id="paint2_linear_211_15118" x1="146.315" y1="75.1992" x2="146.315" y2="125.744" gradientUnits="userSpaceOnUse">
<stop stop-color="#D2FF00"/>
<stop offset="1" stop-color="#56EBFF"/>
</linearGradient>
<linearGradient id="paint3_linear_211_15118" x1="122.048" y1="49.2798" x2="122.048" y2="72.0996" gradientUnits="userSpaceOnUse">
<stop stop-color="#D2FF00"/>
<stop offset="1" stop-color="#56EBFF"/>
</linearGradient>
<linearGradient id="paint4_linear_211_15118" x1="81.748" y1="22.3975" x2="81.748" y2="45.2178" gradientUnits="userSpaceOnUse">
<stop stop-color="#D2FF00"/>
<stop offset="1" stop-color="#56EBFF"/>
</linearGradient>
<clipPath id="clip0_211_15118">
<rect width="176" height="156" fill="white"/>
</clipPath>
</defs>
</svg>
