<svg width="179" height="51" viewBox="0 0 179 51" fill="none" xmlns="http://www.w3.org/2000/svg">
<rect x="2" y="2" width="175" height="47" fill="#212121"/>
<path fill-rule="evenodd" clip-rule="evenodd" d="M9.23871 0H0V1.15909H9.23871V0ZM177.845 1.15918L169.761 1.15918V8.75056e-05L177.845 8.82149e-05L177.845 0H179V9.27273H177.845L177.845 41.7272H179L179 49.8408H177.845V48.682L177.845 49.8407H1.15484V49.8408H9.23866V50.9999H1.15484V51H0V41.7273H1.15484L1.15484 48.6816H1.15522L1.15522 2.31836H2.31006L2.31006 48.6816H176.69V2.31836H177.845L177.845 2.31827H1.15493L1.15493 9.27282H8.75039e-05L8.78572e-05 1.15918H1.15493H177.845ZM85.4577 0H94.6964V1.15909H85.4577V0ZM169.761 51V49.8409H179V51H169.761ZM85.4586 51H94.6973V49.8409H85.4586V51Z" fill="#97FF00"/>
<path d="M33.1172 25.125H39.0703C39.0938 26.2812 38.957 27.3242 38.6602 28.2539C38.3711 29.1836 37.9648 29.957 37.4414 30.5742C36.9258 31.1914 36.3047 31.7109 35.5781 32.1328C34.8516 32.5469 34.0898 32.8438 33.293 33.0234C32.5039 33.2031 31.6719 33.293 30.7969 33.293C29.8359 33.293 28.9492 33.1914 28.1367 32.9883C27.3242 32.7852 26.625 32.5117 26.0391 32.168C25.4609 31.8242 24.9375 31.418 24.4688 30.9492C24.0078 30.4805 23.6328 29.9922 23.3438 29.4844C23.0625 28.9766 22.8242 28.4414 22.6289 27.8789C22.4414 27.3086 22.3086 26.7734 22.2305 26.2734C22.1602 25.7734 22.125 25.2812 22.125 24.7969C22.125 24.0078 22.2148 23.2305 22.3945 22.4648C22.582 21.6992 22.8867 20.9492 23.3086 20.2148C23.7383 19.4805 24.2617 18.8398 24.8789 18.293C25.5039 17.7383 26.2852 17.293 27.2227 16.957C28.168 16.6133 29.2148 16.4414 30.3633 16.4414C31.5273 16.4414 32.5547 16.6055 33.4453 16.9336C34.3438 17.2539 35.2188 17.7773 36.0703 18.5039V16.6992H38.1562V22.0547H36.0703C35.6016 21.0156 34.8633 20.1797 33.8555 19.5469C32.8555 18.9141 31.7617 18.5977 30.5742 18.5977C28.8711 18.5977 27.4844 19.1758 26.4141 20.332C25.3516 21.4883 24.8203 22.9844 24.8203 24.8203C24.8203 26.6406 25.3828 28.1445 26.5078 29.332C27.6406 30.5117 29.0781 31.1016 30.8203 31.1016C32.1719 31.1016 33.3359 30.7344 34.3125 30C35.2891 29.2656 35.875 28.3203 36.0703 27.1641H33.1172V25.125ZM42.8555 31.6289C41.7227 30.4883 41.1562 29.0586 41.1562 27.3398C41.1562 25.6211 41.7227 24.1914 42.8555 23.0508C43.9883 21.9102 45.4141 21.3398 47.1328 21.3398C48.8359 21.3398 50.2539 21.9102 51.3867 23.0508C52.5195 24.1914 53.0859 25.6211 53.0859 27.3398C53.0859 29.0586 52.5156 30.4883 51.375 31.6289C50.2344 32.7695 48.8125 33.3398 47.1094 33.3398C45.4062 33.3398 43.9883 32.7695 42.8555 31.6289ZM43.5586 27.3398C43.5586 28.4414 43.8984 29.3555 44.5781 30.082C45.2578 30.8086 46.1016 31.1719 47.1094 31.1719C48.1328 31.1719 48.9844 30.8086 49.6641 30.082C50.3438 29.3555 50.6836 28.4414 50.6836 27.3398C50.6836 26.2461 50.3398 25.332 49.6523 24.5977C48.9727 23.8633 48.125 23.4961 47.1094 23.4961C46.1016 23.4961 45.2578 23.8633 44.5781 24.5977C43.8984 25.332 43.5586 26.2461 43.5586 27.3398ZM60.7148 23.6367V21.668H62.1797V19.9219L64.4414 17.8828V21.668H66.5273V23.6367H64.4414V30.1875C64.4414 31.125 65.1367 31.3516 66.5273 30.8672V32.8828C65.8711 33.0859 65.3203 33.1875 64.875 33.1875C63.0781 33.1875 62.1797 32.293 62.1797 30.5039V23.6367H60.7148ZM69.8555 31.6289C68.7227 30.4883 68.1562 29.0586 68.1562 27.3398C68.1562 25.6211 68.7227 24.1914 69.8555 23.0508C70.9883 21.9102 72.4141 21.3398 74.1328 21.3398C75.8359 21.3398 77.2539 21.9102 78.3867 23.0508C79.5195 24.1914 80.0859 25.6211 80.0859 27.3398C80.0859 29.0586 79.5156 30.4883 78.375 31.6289C77.2344 32.7695 75.8125 33.3398 74.1094 33.3398C72.4062 33.3398 70.9883 32.7695 69.8555 31.6289ZM70.5586 27.3398C70.5586 28.4414 70.8984 29.3555 71.5781 30.082C72.2578 30.8086 73.1016 31.1719 74.1094 31.1719C75.1328 31.1719 75.9844 30.8086 76.6641 30.082C77.3438 29.3555 77.6836 28.4414 77.6836 27.3398C77.6836 26.2461 77.3398 25.332 76.6523 24.5977C75.9727 23.8633 75.125 23.4961 74.1094 23.4961C73.1016 23.4961 72.2578 23.8633 71.5781 24.5977C70.8984 25.332 70.5586 26.2461 70.5586 27.3398ZM87.3867 33V31.1484L94.4414 23.4961H89.8359V25.6758H87.9375V21.668H97.1484V23.6367L90 31.1484H95.1562V28.8281H97.1484V33H87.3867ZM100.371 31.0312V18.668H98.332V16.6992H102.633V26.8828L106.875 23.543V23.4961H104.977V21.668H111.27V23.4961H109.523L105.27 27.0234L109.277 31.0312H111.223V33H108.34L102.633 27.293V31.0312H104.309V33H98.3086V31.0312H100.371ZM122.895 27.2695H117.035L115.758 30.9609H117.75V33H111.328V30.9609H113.297L117.75 18.5273H115.84V16.6992H124.16V18.5273H122.238L126.633 30.9609H128.461V33H122.074V30.9609H124.09L122.895 27.2695ZM122.273 25.3711L120.105 18.5273H119.895L117.633 25.3711H122.273ZM130.5 36.1172V23.6367H128.613V21.668H132.762V23.4492H132.809C133.824 22.1367 135.137 21.4805 136.746 21.4805C138.363 21.4805 139.691 22.0352 140.73 23.1445C141.77 24.2461 142.289 25.6602 142.289 27.3867C142.289 29.0742 141.754 30.4883 140.684 31.6289C139.613 32.7695 138.293 33.3398 136.723 33.3398C136.004 33.3398 135.297 33.1914 134.602 32.8945C133.914 32.5898 133.301 32.1602 132.762 31.6055V36.1172H134.941V38.0859H128.438V36.1172H130.5ZM132.715 27.4805C132.715 28.582 133.051 29.4961 133.723 30.2227C134.395 30.9414 135.25 31.3008 136.289 31.3008C137.383 31.3008 138.266 30.9336 138.938 30.1992C139.617 29.457 139.957 28.4883 139.957 27.293C139.957 26.1914 139.617 25.2773 138.938 24.5508C138.266 23.8164 137.422 23.4492 136.406 23.4492C135.352 23.4492 134.473 23.832 133.77 24.5977C133.066 25.3633 132.715 26.3242 132.715 27.4805ZM145.5 36.1172V23.6367H143.613V21.668H147.762V23.4492H147.809C148.824 22.1367 150.137 21.4805 151.746 21.4805C153.363 21.4805 154.691 22.0352 155.73 23.1445C156.77 24.2461 157.289 25.6602 157.289 27.3867C157.289 29.0742 156.754 30.4883 155.684 31.6289C154.613 32.7695 153.293 33.3398 151.723 33.3398C151.004 33.3398 150.297 33.1914 149.602 32.8945C148.914 32.5898 148.301 32.1602 147.762 31.6055V36.1172H149.941V38.0859H143.438V36.1172H145.5ZM147.715 27.4805C147.715 28.582 148.051 29.4961 148.723 30.2227C149.395 30.9414 150.25 31.3008 151.289 31.3008C152.383 31.3008 153.266 30.9336 153.938 30.1992C154.617 29.457 154.957 28.4883 154.957 27.293C154.957 26.1914 154.617 25.2773 153.938 24.5508C153.266 23.8164 152.422 23.4492 151.406 23.4492C150.352 23.4492 149.473 23.832 148.77 24.5977C148.066 25.3633 147.715 26.3242 147.715 27.4805Z" fill="#F9F8F4"/>
</svg>
