<svg width="487" height="629" viewBox="0 0 487 629" fill="none" xmlns="http://www.w3.org/2000/svg" preserveAspectRatio="none">
<rect x="3" width="27" height="3" fill="#F9F8F4"/>
<rect x="487" y="3" width="27" height="3" transform="rotate(90 487 3)" fill="#F9F8F4"/>
<rect x="487" y="302" width="27" height="3" transform="rotate(90 487 302)" fill="#F9F8F4"/>
<rect x="3" y="302" width="27" height="3" transform="rotate(90 3 302)" fill="#F9F8F4"/>
<rect x="484" y="629" width="27" height="3" transform="rotate(-180 484 629)" fill="#F9F8F4"/>
<rect y="626" width="27" height="3" transform="rotate(-90 0 626)" fill="#F9F8F4"/>
<rect x="3" width="28" height="3" transform="rotate(90 3 0)" fill="#F9F8F4"/>
<rect x="487" y="3" width="28" height="3" transform="rotate(-180 487 3)" fill="#F9F8F4"/>
<rect x="484" y="629" width="28" height="3" transform="rotate(-90 484 629)" fill="#F9F8F4"/>
<rect y="626" width="28" height="3" fill="#F9F8F4"/>
</svg>
