<svg width="443" height="336" viewBox="0 0 443 336" fill="none" xmlns="http://www.w3.org/2000/svg">
<rect x="0.5" y="1.10645" width="442" height="334" stroke="#F9F8F4"/>
<rect x="132.898" y="271.919" width="173.795" height="46.191" rx="23.0955" stroke="#F9F8F4"/>
<rect x="157.684" y="266.676" width="7.47885" height="57.3333" rx="3.73942" fill="#212121" stroke="#F9F8F4"/>
<rect x="275.082" y="266.676" width="7.47885" height="57.3333" rx="3.73942" fill="#212121" stroke="#F9F8F4"/>
<path d="M238.056 271.1C251.569 271.1 262.523 260.092 262.523 246.513C262.523 232.934 251.569 221.926 238.056 221.926C224.544 221.926 213.59 232.934 213.59 246.513C213.59 260.092 224.544 271.1 238.056 271.1Z" fill="#212121"/>
<path d="M238.057 271.419C224.391 271.419 213.273 260.247 213.273 246.512C213.273 232.778 224.391 221.606 238.057 221.606C251.723 221.606 262.841 232.779 262.841 246.512C262.841 260.246 251.723 271.419 238.057 271.419ZM238.057 222.244C224.742 222.244 213.908 233.131 213.908 246.512C213.908 259.893 224.742 270.78 238.057 270.78C251.373 270.78 262.206 259.893 262.206 246.512C262.206 233.131 251.374 222.244 238.057 222.244Z" fill="#D2FF00"/>
<path d="M246.828 269.794C246.707 269.794 246.591 269.724 246.539 269.606C246.467 269.446 246.539 269.256 246.698 269.185C250.528 267.445 252.725 262.695 252.725 256.151C252.725 244.467 245.641 230.852 236.932 225.8C233.124 223.589 229.423 223.317 226.778 225.051C226.631 225.147 226.435 225.108 226.338 224.958C226.243 224.811 226.284 224.613 226.431 224.515C229.283 222.645 233.226 222.91 237.25 225.246C246.133 230.4 253.36 244.263 253.36 256.15C253.36 262.957 251.027 267.918 246.959 269.766C246.918 269.785 246.872 269.795 246.829 269.795L246.828 269.794Z" fill="#D2FF00"/>
<path d="M235.048 271.084C234.703 271.084 234.352 271.063 233.995 271.02C233.822 271 233.698 270.841 233.719 270.665C233.74 270.491 233.888 270.364 234.072 270.387C236.207 270.642 238.149 270.06 239.676 268.699C241.976 266.647 243.241 262.971 243.241 258.347C243.241 248.025 236.983 235.998 229.293 231.536C224.844 228.953 220.811 229.377 218.234 232.693C218.126 232.832 217.925 232.855 217.789 232.749C217.649 232.64 217.626 232.439 217.734 232.3C220.487 228.758 224.929 228.268 229.611 230.983C237.478 235.547 243.877 247.822 243.877 258.348C243.877 263.158 242.534 267.003 240.099 269.176C238.687 270.436 236.959 271.085 235.05 271.085L235.048 271.084Z" fill="#D2FF00"/>
<path d="M259.923 257.88C259.887 257.88 259.849 257.873 259.813 257.86C259.648 257.799 259.564 257.615 259.625 257.451C260.292 255.629 260.631 253.481 260.631 251.068C260.631 240.746 254.373 228.719 246.682 224.256C245.515 223.579 244.359 223.102 243.245 222.84C243.075 222.8 242.969 222.628 243.008 222.457C243.049 222.285 243.216 222.178 243.39 222.219C244.564 222.496 245.777 222.995 246.999 223.702C254.866 228.267 261.266 240.543 261.266 251.067C261.266 253.556 260.915 255.777 260.22 257.671C260.173 257.799 260.052 257.88 259.923 257.88Z" fill="#D2FF00"/>
<path d="M226.901 267.09C225.691 267.09 224.385 266.702 223.057 265.932C217.857 262.914 213.627 254.805 213.627 247.853C213.627 244.13 214.853 241.283 216.99 240.043C218.774 239.007 221.043 239.181 223.374 240.534C228.573 243.551 232.803 251.66 232.803 258.611C232.803 262.335 231.577 265.182 229.44 266.422C228.671 266.867 227.814 267.09 226.901 267.09ZM219.53 240.016C218.725 240.016 217.975 240.208 217.307 240.596C215.372 241.719 214.262 244.364 214.262 247.853C214.262 254.601 218.349 262.463 223.374 265.378C225.5 266.612 227.543 266.785 229.122 265.87C231.058 264.747 232.168 262.101 232.168 258.612C232.168 251.865 228.08 244.003 223.057 241.088C221.829 240.375 220.629 240.016 219.53 240.016Z" fill="#D2FF00"/>
<rect x="0.5" y="43.709" width="48.2952" height="18.3352" fill="#D2FF00" stroke="#F9F8F4"/>
<rect x="49.7949" y="43.709" width="48.2952" height="18.3352" stroke="#F9F8F4"/>
<rect x="99.0898" y="43.709" width="48.2952" height="18.3352" stroke="#F9F8F4"/>
<rect x="148.387" y="43.709" width="48.2952" height="18.3352" fill="#D2FF00" stroke="#F9F8F4"/>
<rect x="197.682" y="43.709" width="47.638" height="18.3352" stroke="#F9F8F4"/>
<rect x="246.318" y="43.709" width="48.2952" height="18.3352" stroke="#F9F8F4"/>
<rect x="295.615" y="43.709" width="48.2952" height="18.3352" stroke="#F9F8F4"/>
<rect x="344.91" y="43.709" width="48.2952" height="18.3352" fill="#D2FF00" stroke="#F9F8F4"/>
<rect x="394.205" y="43.709" width="48.2952" height="18.3352" stroke="#F9F8F4"/>
<rect x="0.5" y="63.0439" width="48.2952" height="18.3352" fill="#212121" stroke="#F9F8F4"/>
<rect x="49.7949" y="63.0439" width="48.2952" height="18.3352" fill="#D2FF00" stroke="#F9F8F4"/>
<rect x="99.0898" y="63.0439" width="48.2952" height="18.3352" fill="#212121" stroke="#F9F8F4"/>
<rect x="148.387" y="63.0439" width="48.2952" height="18.3352" fill="#212121" stroke="#F9F8F4"/>
<rect x="197.682" y="63.0439" width="47.638" height="18.3352" fill="#212121" stroke="#F9F8F4"/>
<rect x="246.318" y="63.0439" width="48.2952" height="18.3352" fill="#D2FF00" stroke="#F9F8F4"/>
<rect x="295.615" y="63.0439" width="48.2952" height="18.3352" fill="#212121" stroke="#F9F8F4"/>
<rect x="344.91" y="63.0439" width="48.2952" height="18.3352" fill="#212121" stroke="#F9F8F4"/>
<rect x="394.205" y="63.0439" width="48.2952" height="18.3352" fill="#212121" stroke="#F9F8F4"/>
<rect x="0.5" y="82.3789" width="48.2952" height="18.3352" fill="#212121" stroke="#F9F8F4"/>
<rect x="49.7949" y="82.3789" width="48.2952" height="18.3352" fill="#212121" stroke="#F9F8F4"/>
<rect x="99.0898" y="82.3789" width="48.2952" height="18.3352" fill="#212121" stroke="#F9F8F4"/>
<rect x="148.387" y="82.3789" width="48.2952" height="18.3352" fill="#D2FF00" stroke="#F9F8F4"/>
<rect x="197.682" y="82.3789" width="47.638" height="18.3352" fill="#212121" stroke="#F9F8F4"/>
<rect x="246.318" y="82.3789" width="48.2952" height="18.3352" fill="#212121" stroke="#F9F8F4"/>
<rect x="295.615" y="82.3789" width="48.2952" height="18.3352" fill="#212121" stroke="#F9F8F4"/>
<rect x="344.91" y="82.3789" width="48.2952" height="18.3352" fill="#212121" stroke="#F9F8F4"/>
<rect x="394.205" y="82.3789" width="48.2952" height="18.3352" fill="#212121" stroke="#F9F8F4"/>
<rect x="0.5" y="101.715" width="48.2952" height="18.3352" fill="#D2FF00" stroke="#F9F8F4"/>
<rect x="49.7949" y="101.715" width="48.2952" height="18.3352" fill="#212121" stroke="#F9F8F4"/>
<rect x="99.0898" y="101.715" width="48.2952" height="18.3352" fill="#212121" stroke="#F9F8F4"/>
<rect x="148.387" y="101.715" width="48.2952" height="18.3352" fill="#212121" stroke="#F9F8F4"/>
<rect x="197.682" y="101.715" width="47.638" height="18.3352" fill="#D2FF00" stroke="#F9F8F4"/>
<rect x="246.318" y="101.715" width="48.2952" height="18.3352" fill="#212121" stroke="#F9F8F4"/>
<rect x="295.615" y="101.715" width="48.2952" height="18.3352" fill="#212121" stroke="#F9F8F4"/>
<rect x="344.91" y="101.715" width="48.2952" height="18.3352" fill="#D2FF00" stroke="#F9F8F4"/>
<rect x="394.205" y="101.715" width="48.2952" height="18.3352" fill="#212121" stroke="#F9F8F4"/>
</svg>
