<svg width="443" height="282" viewBox="0 0 443 282" fill="none" xmlns="http://www.w3.org/2000/svg">
<rect x="132.898" y="228.71" width="173.795" height="46.191" rx="23.0955" stroke="#F9F8F4"/>
<rect x="157.684" y="223.467" width="7.47885" height="57.3333" rx="3.73942" fill="#212121" stroke="#F9F8F4"/>
<rect x="275.082" y="223.467" width="7.47885" height="57.3333" rx="3.73942" fill="#212121" stroke="#F9F8F4"/>
<path d="M238.056 227.891C251.569 227.891 262.523 216.883 262.523 203.304C262.523 189.725 251.569 178.717 238.056 178.717C224.544 178.717 213.59 189.725 213.59 203.304C213.59 216.883 224.544 227.891 238.056 227.891Z" fill="#212121"/>
<path d="M238.057 228.21C224.391 228.21 213.273 217.038 213.273 203.303C213.273 189.569 224.391 178.397 238.057 178.397C251.723 178.397 262.841 189.57 262.841 203.303C262.841 217.037 251.723 228.21 238.057 228.21ZM238.057 179.035C224.742 179.035 213.908 189.922 213.908 203.303C213.908 216.684 224.742 227.571 238.057 227.571C251.373 227.571 262.206 216.684 262.206 203.303C262.206 189.922 251.374 179.035 238.057 179.035Z" fill="#D2FF00"/>
<path d="M246.828 226.585C246.707 226.585 246.591 226.515 246.539 226.397C246.467 226.237 246.539 226.047 246.698 225.976C250.528 224.236 252.725 219.486 252.725 212.942C252.725 201.258 245.641 187.643 236.932 182.591C233.124 180.38 229.423 180.108 226.778 181.842C226.631 181.938 226.435 181.899 226.338 181.749C226.243 181.602 226.284 181.404 226.431 181.306C229.283 179.436 233.226 179.701 237.25 182.037C246.133 187.191 253.36 201.054 253.36 212.941C253.36 219.748 251.027 224.709 246.959 226.557C246.918 226.576 246.872 226.586 246.829 226.586L246.828 226.585Z" fill="#D2FF00"/>
<path d="M235.048 227.875C234.703 227.875 234.352 227.854 233.995 227.812C233.822 227.791 233.698 227.632 233.719 227.456C233.74 227.282 233.888 227.155 234.072 227.178C236.207 227.433 238.149 226.851 239.676 225.49C241.976 223.438 243.241 219.762 243.241 215.138C243.241 204.816 236.983 192.789 229.293 188.327C224.844 185.744 220.811 186.168 218.234 189.484C218.126 189.623 217.925 189.646 217.789 189.54C217.649 189.431 217.626 189.23 217.734 189.091C220.487 185.549 224.929 185.059 229.611 187.774C237.478 192.338 243.877 204.613 243.877 215.139C243.877 219.949 242.534 223.794 240.099 225.968C238.687 227.227 236.959 227.876 235.05 227.876L235.048 227.875Z" fill="#D2FF00"/>
<path d="M259.923 214.671C259.887 214.671 259.849 214.664 259.813 214.651C259.648 214.59 259.564 214.406 259.625 214.242C260.292 212.42 260.631 210.272 260.631 207.859C260.631 197.537 254.373 185.51 246.682 181.047C245.515 180.37 244.359 179.893 243.245 179.631C243.075 179.591 242.969 179.419 243.008 179.248C243.049 179.076 243.216 178.969 243.39 179.01C244.564 179.287 245.777 179.786 246.999 180.493C254.866 185.058 261.266 197.334 261.266 207.858C261.266 210.347 260.915 212.568 260.22 214.462C260.173 214.59 260.052 214.671 259.923 214.671Z" fill="#D2FF00"/>
<path d="M226.901 223.881C225.691 223.881 224.385 223.493 223.057 222.723C217.857 219.705 213.627 211.596 213.627 204.644C213.627 200.921 214.853 198.074 216.99 196.834C218.774 195.798 221.043 195.972 223.374 197.325C228.573 200.342 232.803 208.451 232.803 215.402C232.803 219.126 231.577 221.973 229.44 223.213C228.671 223.658 227.814 223.881 226.901 223.881ZM219.53 196.807C218.725 196.807 217.975 196.999 217.307 197.387C215.372 198.51 214.262 201.155 214.262 204.644C214.262 211.392 218.349 219.254 223.374 222.169C225.5 223.403 227.543 223.576 229.122 222.661C231.058 221.538 232.168 218.892 232.168 215.403C232.168 208.656 228.08 200.794 223.057 197.879C221.829 197.166 220.629 196.807 219.53 196.807Z" fill="#D2FF00"/>
<rect width="47" height="20" fill="#D2FF00"/>
<rect y="57" width="47" height="20" fill="#D2FF00"/>
<rect x="46" y="19" width="51" height="20" fill="#D2FF00"/>
<rect x="246" y="19" width="51" height="20" fill="#D2FF00"/>
<rect x="146" width="51" height="20" fill="#D2FF00"/>
<rect x="146" y="38" width="51" height="20" fill="#D2FF00"/>
<rect x="196" y="57" width="51" height="20" fill="#D2FF00"/>
<rect x="346" width="51" height="20" fill="#D2FF00"/>
<rect x="346" y="57" width="51" height="20" fill="#D2FF00"/>
<line y1="0.5" x2="443" y2="0.5" stroke="#F9F8F4"/>
<line y1="19.5" x2="443" y2="19.5" stroke="#F9F8F4"/>
<line y1="38.5" x2="443" y2="38.5" stroke="#F9F8F4"/>
<line y1="57.5" x2="443" y2="57.5" stroke="#F9F8F4"/>
<line y1="76.5" x2="443" y2="76.5" stroke="#F9F8F4"/>
<line x1="46.5" y1="77" x2="46.5" y2="2.18561e-08" stroke="#F9F8F4"/>
<line x1="96.5" y1="77" x2="96.5" y2="2.18561e-08" stroke="#F9F8F4"/>
<line x1="146.5" y1="77" x2="146.5" y2="2.18561e-08" stroke="#F9F8F4"/>
<line x1="196.5" y1="77" x2="196.5" y2="2.18561e-08" stroke="#F9F8F4"/>
<line x1="246.5" y1="77" x2="246.5" y2="2.18561e-08" stroke="#F9F8F4"/>
<line x1="296.5" y1="77" x2="296.5" y2="2.18561e-08" stroke="#F9F8F4"/>
<line x1="346.5" y1="77" x2="346.5" y2="2.18561e-08" stroke="#F9F8F4"/>
<line x1="396.5" y1="77" x2="396.5" y2="2.18561e-08" stroke="#F9F8F4"/>
</svg>
