<svg width="290" height="44" viewBox="0 0 290 44" fill="none" xmlns="http://www.w3.org/2000/svg">
<path d="M3.74268 25.6328V7.80811H0.837402V4.83447H9.02344L15.2271 21.1211L21.4819 4.83447H29.7876V7.80811H26.9165V25.6328H29.7876V28.6064H21.0718V25.6328H23.6182V7.77393H23.5498L15.4663 28.8457H14.7656L6.75049 7.80811H6.68213V25.6328H9.24561V28.6064H0.837402V25.6328H3.74268ZM33.2739 21.6851C32.6701 20.1584 32.3682 18.512 32.3682 16.7461C32.3682 14.9801 32.6758 13.3338 33.291 11.8071C33.9062 10.2804 34.7493 8.98161 35.8203 7.91064C36.9027 6.82829 38.2015 5.98519 39.7168 5.38135C41.2435 4.76611 42.8898 4.4585 44.6558 4.4585C47.0028 4.4585 49.1105 4.98258 50.979 6.03076C52.8589 7.07894 54.3229 8.54297 55.3711 10.4229C56.4193 12.2913 56.9434 14.3991 56.9434 16.7461C56.9434 19.0931 56.4193 21.2008 55.3711 23.0693C54.3229 24.9378 52.8589 26.3962 50.979 27.4443C49.1105 28.4811 47.0028 28.9995 44.6558 28.9995C42.8898 28.9995 41.2435 28.6976 39.7168 28.0938C38.1901 27.4785 36.8856 26.6354 35.8032 25.5645C34.7323 24.4935 33.8892 23.2004 33.2739 21.6851ZM36.2988 16.7461C36.2988 17.9993 36.5153 19.1899 36.9482 20.3179C37.3812 21.4458 37.9679 22.4142 38.7085 23.2231C39.4491 24.0207 40.332 24.6587 41.3574 25.1372C42.3942 25.6043 43.4937 25.8379 44.6558 25.8379C46.2052 25.8379 47.618 25.4391 48.894 24.6416C50.1815 23.8441 51.1898 22.7503 51.9189 21.3604C52.6595 19.959 53.0298 18.4209 53.0298 16.7461C53.0298 15.0599 52.6595 13.5161 51.9189 12.1147C51.1898 10.7134 50.1815 9.61393 48.894 8.81641C47.618 8.00749 46.2052 7.60303 44.6558 7.60303C43.1063 7.60303 41.6878 8.00749 40.4004 8.81641C39.1243 9.61393 38.1217 10.7134 37.3926 12.1147C36.6634 13.5161 36.2988 15.0599 36.2988 16.7461ZM62.395 25.6328V7.80811H59.1479V4.83447H70.1367C72.7002 4.83447 74.5972 5.39274 75.8276 6.50928C77.0695 7.62581 77.6904 9.13542 77.6904 11.0381C77.6904 12.5648 77.2689 13.8408 76.4258 14.8662C75.5827 15.8802 74.3693 16.5866 72.7856 16.9854L76.9897 25.6328H79.895V28.6064H74.751L69.3677 17.481H65.9668V25.6328H69.043V28.6064H59.1479V25.6328H62.395ZM65.9668 14.5073H70C70.7975 14.5073 71.4754 14.4048 72.0337 14.1997C72.6034 13.9946 73.0249 13.7155 73.2983 13.3623C73.5718 12.9977 73.7655 12.6331 73.8794 12.2686C73.9933 11.8926 74.0503 11.4824 74.0503 11.0381C74.0503 10.0013 73.7142 9.20378 73.042 8.64551C72.3812 8.08724 71.4697 7.80811 70.3076 7.80811H65.9668V14.5073ZM83.877 25.6328V7.80811H80.7837V4.83447H100.488V11.978H97.5488V7.80811H87.4316V14.8833H96.2671V17.8569H87.4316V25.6328H97.5488V21.292H100.488V28.6064H80.7837V25.6328H83.877ZM128.105 17.1221H136.787C136.821 18.8083 136.622 20.3293 136.189 21.6851C135.767 23.0409 135.175 24.1688 134.412 25.0688C133.66 25.9689 132.754 26.7266 131.694 27.3418C130.635 27.9456 129.524 28.3786 128.362 28.6406C127.211 28.9027 125.998 29.0337 124.722 29.0337C123.32 29.0337 122.027 28.8856 120.842 28.5894C119.657 28.2931 118.638 27.8944 117.783 27.3931C116.94 26.8918 116.177 26.2993 115.493 25.6157C114.821 24.9321 114.274 24.2201 113.853 23.4795C113.442 22.7389 113.095 21.9585 112.81 21.1382C112.537 20.3065 112.343 19.526 112.229 18.7969C112.126 18.0677 112.075 17.3499 112.075 16.6436C112.075 15.4928 112.206 14.3592 112.468 13.2427C112.742 12.1261 113.186 11.0324 113.801 9.96143C114.428 8.89046 115.191 7.95622 116.091 7.15869C117.003 6.34977 118.142 5.70036 119.509 5.21045C120.888 4.70915 122.415 4.4585 124.089 4.4585C125.787 4.4585 127.285 4.69775 128.584 5.17627C129.894 5.64339 131.17 6.40674 132.412 7.46631V4.83447H135.454V12.6445H132.412C131.729 11.1292 130.652 9.91016 129.182 8.9873C127.724 8.06445 126.129 7.60303 124.397 7.60303C121.913 7.60303 119.891 8.44613 118.33 10.1323C116.781 11.8185 116.006 14.0003 116.006 16.6777C116.006 19.3324 116.826 21.5256 118.467 23.2573C120.119 24.9777 122.215 25.8379 124.756 25.8379C126.727 25.8379 128.424 25.3024 129.849 24.2314C131.273 23.1605 132.127 21.7819 132.412 20.0957H128.105V17.1221ZM155.09 20.2495H146.545L144.683 25.6328H147.588V28.6064H138.223V25.6328H141.094L147.588 7.50049H144.802V4.83447H156.936V7.50049H154.133L160.542 25.6328H163.208V28.6064H153.894V25.6328H156.833L155.09 20.2495ZM154.185 17.481L151.023 7.50049H150.715L147.417 17.481H154.185ZM166.677 25.6328V7.80811H163.772V4.83447H171.958L178.162 21.1211L184.417 4.83447H192.722V7.80811H189.851V25.6328H192.722V28.6064H184.006V25.6328H186.553V7.77393H186.484L178.401 28.8457H177.7L169.685 7.80811H169.617V25.6328H172.18V28.6064H163.772V25.6328H166.677ZM197.627 25.6328V7.80811H194.534V4.83447H214.238V11.978H211.299V7.80811H201.182V14.8833H210.017V17.8569H201.182V25.6328H211.299V21.292H214.238V28.6064H194.534V25.6328H197.627ZM216.631 28.6064V19.9932H219.57V22.0952C221.097 24.7043 222.937 26.0088 225.09 26.0088C226.298 26.0088 227.301 25.6328 228.098 24.8809C228.896 24.1175 229.294 23.1662 229.294 22.0269C229.294 21.2977 229.101 20.6825 228.713 20.1812C228.337 19.6685 227.842 19.2868 227.227 19.0361C226.623 18.7855 225.911 18.5405 225.09 18.3013C224.281 18.062 223.478 17.8455 222.681 17.6519C221.895 17.4468 221.08 17.1449 220.237 16.7461C219.405 16.3359 218.704 15.846 218.135 15.2764C217.087 14.2282 216.562 12.7926 216.562 10.9697C216.562 9.91016 216.75 8.95882 217.126 8.11572C217.514 7.26123 218.032 6.57764 218.682 6.06494C219.342 5.54085 220.077 5.14209 220.886 4.86865C221.707 4.59521 222.572 4.4585 223.484 4.4585C225.421 4.4585 227.192 5.07373 228.799 6.3042V4.73193H231.738V11.9097H228.799V10.269C228.149 9.3234 227.415 8.62842 226.594 8.18408C225.785 7.72835 224.84 7.50049 223.757 7.50049C222.561 7.50049 221.598 7.77962 220.869 8.33789C220.14 8.89616 219.775 9.63102 219.775 10.5425C219.775 11.3628 220.043 12.0407 220.579 12.5762C220.989 12.9863 221.661 13.3452 222.595 13.6528C223.529 13.9604 224.464 14.2054 225.398 14.3877C226.332 14.57 227.323 14.8776 228.372 15.3105C229.431 15.7321 230.274 16.2562 230.901 16.8828C231.539 17.5208 232.035 18.2899 232.388 19.1899C232.752 20.09 232.935 21.0243 232.935 21.9927C232.935 24.0093 232.217 25.6841 230.781 27.0171C229.357 28.3387 227.568 28.9995 225.415 28.9995C223.228 28.9995 221.279 28.2134 219.57 26.6411V28.6064H216.631Z" fill="#F9F8F4"/>
<line y1="34.6064" x2="235" y2="34.6064" stroke="url(#paint0_linear_211_17607)" stroke-width="2"/>
<line x1="255.82" y1="1.58983" x2="289.426" y2="1.58983" stroke="url(#paint1_linear_211_17607)" stroke-width="2.45901"/>
<line x1="254.141" y1="34.7265" x2="287.741" y2="1.93957" stroke="url(#paint2_linear_211_17607)" stroke-width="2.45901"/>
<line x1="288.197" y1="35.6064" x2="288.197" y2="2" stroke="url(#paint3_linear_211_17607)" stroke-width="2.45901"/>
<defs>
<linearGradient id="paint0_linear_211_17607" x1="0" y1="35.6064" x2="235" y2="35.6064" gradientUnits="userSpaceOnUse">
<stop stop-color="#D2FF00"/>
<stop offset="1" stop-color="#56EBFF"/>
</linearGradient>
<linearGradient id="paint1_linear_211_17607" x1="272.623" y1="2.81934" x2="272.623" y2="3.81934" gradientUnits="userSpaceOnUse">
<stop stop-color="#D2FF00"/>
<stop offset="1" stop-color="#56EBFF"/>
</linearGradient>
<linearGradient id="paint2_linear_211_17607" x1="286.155" y1="5.28614" x2="272.275" y2="19.7145" gradientUnits="userSpaceOnUse">
<stop stop-color="#D2FF00"/>
<stop offset="1" stop-color="#56EBFF"/>
</linearGradient>
<linearGradient id="paint3_linear_211_17607" x1="289.426" y1="18.8032" x2="290.426" y2="18.8032" gradientUnits="userSpaceOnUse">
<stop stop-color="#D2FF00"/>
<stop offset="1" stop-color="#56EBFF"/>
</linearGradient>
</defs>
</svg>
