<svg width="267" height="267" viewBox="0 0 267 267" fill="none" xmlns="http://www.w3.org/2000/svg">
<line x1="0.500977" y1="2.18557e-08" x2="0.500965" y2="265.217" stroke="#F9F8F4"/>
<line x1="53.5439" y1="2.18557e-08" x2="53.5439" y2="265.217" stroke="#F9F8F4"/>
<line x1="106.589" y1="2.18557e-08" x2="106.589" y2="265.217" stroke="#F9F8F4"/>
<line x1="159.632" y1="2.18557e-08" x2="159.632" y2="265.217" stroke="#F9F8F4"/>
<line x1="212.675" y1="2.18557e-08" x2="212.675" y2="265.217" stroke="#F9F8F4"/>
<line x1="265.718" y1="2.18557e-08" x2="265.718" y2="265.217" stroke="#F9F8F4"/>
<line x1="265.218" y1="0.5" x2="0.000396685" y2="0.499977" stroke="#F9F8F4"/>
<line x1="265.218" y1="53.5435" x2="0.000396685" y2="53.5434" stroke="#F9F8F4"/>
<line x1="265.218" y1="106.587" x2="0.000396685" y2="106.587" stroke="#F9F8F4"/>
<line x1="265.218" y1="159.63" x2="0.000396685" y2="159.63" stroke="#F9F8F4"/>
<line x1="265.218" y1="212.674" x2="0.000396685" y2="212.674" stroke="#F9F8F4"/>
<line x1="265.218" y1="265.717" x2="0.000396685" y2="265.717" stroke="#F9F8F4"/>
<circle cx="25.5272" cy="26.1903" r="9.61413" fill="#56EBFF"/>
<circle cx="83.2128" cy="26.1903" r="9.61413" fill="#56EBFF"/>
<circle cx="132.277" cy="26.1903" r="9.61413" fill="#56EBFF"/>
<circle cx="186.648" cy="185.321" r="9.61413" fill="#56EBFF"/>
<circle cx="238.365" cy="185.321" r="9.61413" fill="#56EBFF"/>
<circle cx="238.365" cy="132.94" r="9.61413" fill="#56EBFF"/>
<circle cx="186.648" cy="26.1903" r="9.11413" stroke="#F9F8F4"/>
<circle cx="186.648" cy="80.5599" r="9.11413" stroke="#F9F8F4"/>
<circle cx="186.648" cy="132.94" r="9.11413" stroke="#F9F8F4"/>
<circle cx="132.277" cy="132.94" r="9.11413" stroke="#F9F8F4"/>
<circle cx="132.277" cy="185.321" r="9.11413" stroke="#F9F8F4"/>
<circle cx="132.277" cy="237.701" r="9.11413" stroke="#F9F8F4"/>
</svg>
