<svg width="443" height="336" viewBox="0 0 443 336" fill="none" xmlns="http://www.w3.org/2000/svg">
<line x1="89.501" y1="35.6064" x2="89.501" y2="300.824" stroke="#F9F8F4"/>
<line x1="142.544" y1="35.6064" x2="142.544" y2="300.824" stroke="#F9F8F4"/>
<line x1="195.589" y1="35.6064" x2="195.589" y2="300.824" stroke="#F9F8F4"/>
<line x1="248.632" y1="35.6064" x2="248.632" y2="300.824" stroke="#F9F8F4"/>
<line x1="301.675" y1="35.6064" x2="301.675" y2="300.824" stroke="#F9F8F4"/>
<line x1="354.718" y1="35.6064" x2="354.718" y2="300.824" stroke="#F9F8F4"/>
<line x1="354.218" y1="36.1064" x2="89.0004" y2="36.1064" stroke="#F9F8F4"/>
<line x1="354.218" y1="89.1504" x2="89.0004" y2="89.1504" stroke="#F9F8F4"/>
<line x1="354.218" y1="142.193" x2="89.0004" y2="142.193" stroke="#F9F8F4"/>
<line x1="354.218" y1="195.237" x2="89.0004" y2="195.237" stroke="#F9F8F4"/>
<line x1="354.218" y1="248.28" x2="89.0004" y2="248.28" stroke="#F9F8F4"/>
<line x1="354.218" y1="301.324" x2="89.0004" y2="301.324" stroke="#F9F8F4"/>
<circle cx="114.527" cy="61.7967" r="9.61413" fill="#56EBFF"/>
<circle cx="172.213" cy="61.7967" r="9.61413" fill="#56EBFF"/>
<circle cx="221.277" cy="61.7967" r="9.61413" fill="#56EBFF"/>
<circle cx="275.648" cy="220.928" r="9.61413" fill="#56EBFF"/>
<circle cx="327.365" cy="220.928" r="9.61413" fill="#56EBFF"/>
<circle cx="327.365" cy="168.547" r="9.61413" fill="#56EBFF"/>
<circle cx="275.648" cy="61.7967" r="9.11413" stroke="#F9F8F4"/>
<circle cx="275.648" cy="116.166" r="9.11413" stroke="#F9F8F4"/>
<circle cx="275.648" cy="168.547" r="9.11413" stroke="#F9F8F4"/>
<circle cx="221.277" cy="168.547" r="9.11413" stroke="#F9F8F4"/>
<circle cx="221.277" cy="220.928" r="9.11413" stroke="#F9F8F4"/>
<circle cx="221.277" cy="273.307" r="9.11413" stroke="#F9F8F4"/>
<rect x="0.5" y="1.10645" width="442" height="334" stroke="#F9F8F4"/>
</svg>
