<svg width="448" height="53" viewBox="0 0 448 53" fill="none" xmlns="http://www.w3.org/2000/svg">
<path fill-rule="evenodd" clip-rule="evenodd" d="M1 0.606445H0V11.6064H1L1 2.60645V41.6064H0V52.6064H1H11V51.6064H216V52.6064H226V51.6064H432V52.6064H442H443V41.6064H442V11.6064H443V0.606445H442H432V1.60644L441 1.60645L226 1.60645V0.606445H216V1.60645L11 1.60645V0.606445H1ZM2 2.60645H441V50.6064H2V2.60645Z" fill="#D2FF00"/>
<path d="M183.52 30.5674V18.3447H181.48V16.3057H188.699C189.566 16.3057 190.332 16.4189 190.996 16.6455C191.66 16.8643 192.184 17.1455 192.566 17.4893C192.957 17.8252 193.273 18.2275 193.516 18.6963C193.766 19.1572 193.934 19.6025 194.02 20.0322C194.105 20.4541 194.148 20.8916 194.148 21.3447C194.148 22.1182 194.016 22.8213 193.75 23.4541C193.492 24.0869 193.172 24.5947 192.789 24.9775C192.25 25.5166 191.594 25.8838 190.82 26.0791C190.047 26.2744 189.039 26.3721 187.797 26.3721H185.969V30.5674H188.102V32.6064H181.48V30.5674H183.52ZM185.969 24.4033H188.008C188.734 24.4033 189.344 24.3252 189.836 24.1689C190.328 24.0127 190.703 23.7861 190.961 23.4893C191.219 23.1846 191.398 22.8604 191.5 22.5166C191.602 22.1729 191.652 21.7744 191.652 21.3213C191.652 20.3682 191.398 19.6338 190.891 19.1182C190.391 18.6025 189.688 18.3447 188.781 18.3447H185.969V24.4033ZM197.395 30.6377V18.2744H195.379V16.3057H199.656V30.6377H201.402V32.6064H195.332V30.6377H197.395ZM214.246 30.6377V32.6064H210.309V31.2119C209.598 31.79 208.965 32.2002 208.41 32.4424C207.863 32.6768 207.281 32.7939 206.664 32.7939C205.586 32.7939 204.676 32.4463 203.934 31.751C203.191 31.0557 202.82 30.2041 202.82 29.1963C202.82 28.165 203.215 27.2979 204.004 26.5947C204.801 25.8838 205.781 25.5283 206.945 25.5283C207.453 25.5283 207.984 25.6143 208.539 25.7861C209.094 25.958 209.598 26.1924 210.051 26.4893V25.001C210.051 24.251 209.816 23.7002 209.348 23.3486C208.879 22.9893 208.273 22.8096 207.531 22.8096C206.422 22.8096 205.613 23.2588 205.105 24.1572L202.961 23.583C203.922 21.8252 205.555 20.9463 207.859 20.9463C208.656 20.9463 209.352 21.04 209.945 21.2275C210.539 21.415 211 21.6768 211.328 22.0127C211.664 22.3408 211.91 22.708 212.066 23.1143C212.223 23.5127 212.301 23.9502 212.301 24.4268V30.6377H214.246ZM210.051 29.7236V28.3877C209.066 27.6299 208.09 27.251 207.121 27.251C206.496 27.251 205.977 27.4346 205.562 27.8018C205.156 28.1689 204.953 28.6338 204.953 29.1963C204.953 29.7432 205.141 30.1924 205.516 30.5439C205.898 30.8955 206.391 31.0713 206.992 31.0713C207.492 31.0713 208.012 30.9541 208.551 30.7197C209.09 30.4775 209.59 30.1455 210.051 29.7236ZM219.836 32.3955L216.109 23.2432H214.211V21.2744H219.836V23.2432H218.488L220.938 29.5127L223.34 23.2432H221.828V21.2744H227.324V23.2432H225.637L220.023 37.6924H216.227V35.7236H218.465L219.836 32.3955ZM238.445 21.2744V22.6455C239.195 22.0986 239.875 21.7041 240.484 21.4619C241.102 21.2119 241.711 21.0869 242.312 21.0869C243.172 21.0869 243.879 21.3604 244.434 21.9072C244.996 22.4463 245.277 23.2432 245.277 24.2979V30.6377H247.223V32.6064H243.027V25.1885C243.027 24.4697 242.922 23.9463 242.711 23.6182C242.5 23.29 242.164 23.126 241.703 23.126C240.742 23.126 239.656 23.6064 238.445 24.5674V30.6377H240.391V32.6064H234.238V30.6377H236.184V23.2432H234.191V21.2744H238.445ZM249.918 31.2354C248.785 30.0947 248.219 28.665 248.219 26.9463C248.219 25.2275 248.785 23.7979 249.918 22.6572C251.051 21.5166 252.477 20.9463 254.195 20.9463C255.898 20.9463 257.316 21.5166 258.449 22.6572C259.582 23.7979 260.148 25.2275 260.148 26.9463C260.148 28.665 259.578 30.0947 258.438 31.2354C257.297 32.376 255.875 32.9463 254.172 32.9463C252.469 32.9463 251.051 32.376 249.918 31.2354ZM250.621 26.9463C250.621 28.0479 250.961 28.9619 251.641 29.6885C252.32 30.415 253.164 30.7783 254.172 30.7783C255.195 30.7783 256.047 30.415 256.727 29.6885C257.406 28.9619 257.746 28.0479 257.746 26.9463C257.746 25.8525 257.402 24.9385 256.715 24.2041C256.035 23.4697 255.188 23.1025 254.172 23.1025C253.164 23.1025 252.32 23.4697 251.641 24.2041C250.961 24.9385 250.621 25.8525 250.621 26.9463ZM264.379 32.7939L261.355 23.2432H259.961V21.2744H264.742V23.2432H263.277L265.41 30.0869H265.457L267.59 23.2432H266.348V21.2744H271.844V23.2432H270.613L272.758 30.0869H272.805L274.961 23.2432H273.379V21.2744H278.488V23.2432H276.883L273.836 32.7939H271.75L269.172 24.5908H269.125L266.488 32.7939H264.379ZM281.406 28.1885L280.832 21.2744V16.3057H283.176V21.2744L282.602 28.1885H281.406ZM280.562 32.6064V29.7236H283.445V32.6064H280.562Z" fill="#D2FF00"/>
</svg>
