<svg width="278" height="55" viewBox="0 0 278 55" fill="none" xmlns="http://www.w3.org/2000/svg">
<path d="M71.5531 45.2413V54.1428H0V45.2413L25.023 10.3603H10.3603V19.9428H1.40406V1.46118H42.163V9.37462L16.3882 45.2413H71.5531Z" fill="#141414"/>
<path d="M48.9941 54.143V45.6972H54.9143V9.90696H48.9941V1.46118H66.6025V34.7329L79.2146 24.4882H71.46V17.4815H93.6603V24.9046H89.9793L79.2361 34.0552L89.0281 45.697H94.1158V54.1428H82.8448L66.6025 34.7329V46.1137H71.0425V54.1428L48.9941 54.143Z" fill="#141414"/>
<path d="M98.6299 54.1433V45.2429H105.689V10.3615H98.6299V1.46118H120.803L140.222 34.3117V10.3615H133.353V1.46118H157.033V10.3615H149.633V54.5219H137.869L115.1 15.4745V45.2429H121.741V54.1433H98.6299Z" fill="#141414"/>
<path d="M180.374 54.9843C174.96 54.9843 170.387 53.2742 166.655 49.8526C162.923 46.4317 161.058 41.7417 161.058 35.7827C161.058 29.8236 162.923 25.1344 166.655 21.7128C170.387 18.2919 174.959 16.5811 180.374 16.5811C185.788 16.5811 190.392 18.2919 194.111 21.7128C197.83 25.1344 199.69 29.8243 199.69 35.7827C199.69 41.666 197.849 46.337 194.168 49.7958C190.487 53.2552 185.889 54.9843 180.374 54.9843ZM180.336 45.8947C182.511 45.8947 184.276 45.0616 185.63 43.3951C186.983 41.7286 187.66 39.1154 187.66 35.5553C187.66 32.4248 187.002 29.982 185.687 28.2268C184.371 26.4722 182.587 25.5947 180.336 25.5947C175.503 25.5947 173.088 29.0791 173.088 36.0477C173.088 38.9012 173.688 41.2554 174.89 43.1112C176.091 44.9669 177.907 45.8947 180.336 45.8947Z" fill="#141414"/>
<path d="M205.912 25.9438V17.498H223.217V45.7138H228.682V54.1596H205.912V45.7138H211.491V25.9438H205.912Z" fill="#141414"/>
<path d="M209.916 6.98242C209.916 5.22013 210.542 3.70991 211.794 2.45133C213.047 1.19275 214.558 0.562988 216.329 0.562988C218.125 0.562988 219.643 1.19275 220.883 2.45133C222.122 3.71014 222.743 5.22036 222.743 6.98242C222.743 8.74447 222.117 10.2489 220.864 11.4952C219.612 12.7416 218.1 13.3642 216.33 13.3642C214.584 13.3642 213.078 12.7351 211.814 11.4763C210.548 10.2177 209.916 8.72 209.916 6.98242H209.916Z" fill="#141414"/>
<path d="M223.416 6.98242C223.416 5.22013 223.994 3.70991 225.149 2.45133C226.305 1.19275 227.7 0.562988 229.334 0.562988C230.991 0.562988 232.392 1.19275 233.536 2.45133C234.679 3.71014 235.252 5.22036 235.252 6.98242C235.252 8.74447 234.674 10.2489 233.518 11.4952C232.363 12.7416 230.968 13.3642 229.334 13.3642C227.723 13.3642 226.334 12.7351 225.167 11.4763C223.999 10.2177 223.416 8.72 223.416 6.98242Z" fill="#141414"/>
<path d="M235.932 6.98242C235.932 5.22013 236.391 3.70991 237.308 2.45133C238.226 1.19275 239.334 0.562988 240.632 0.562988C241.948 0.562988 243.061 1.19275 243.969 2.45133C244.877 3.71014 245.332 5.22036 245.332 6.98242C245.332 8.74447 244.873 10.2489 243.955 11.4952C243.037 12.7416 241.929 13.3642 240.632 13.3642C239.352 13.3642 238.249 12.7351 237.322 11.4763C236.395 10.2177 235.932 8.72 235.932 6.98242Z" fill="#141414"/>
<path d="M246.005 6.98242C246.005 5.22013 246.35 3.70991 247.04 2.45133C247.73 1.19252 248.564 0.562988 249.54 0.562988C250.53 0.562988 251.366 1.19275 252.05 2.45133C252.733 3.71014 253.075 5.22036 253.075 6.98242C253.075 8.74447 252.729 10.2489 252.039 11.4952C251.349 12.7416 250.516 13.3642 249.54 13.3642C248.577 13.3642 247.748 12.7351 247.051 11.4763C246.353 10.2177 246.005 8.72 246.005 6.98242Z" fill="#141414"/>
<path d="M271.333 45.7074V0.562988H254.021V13.3634H259.608V21.5724C256.823 18.2459 253.293 16.5838 249.018 16.5838C244.566 16.5838 240.795 18.419 237.71 22.0941C234.624 25.7669 233.081 30.2799 233.081 35.6333C233.081 40.9104 234.585 45.405 237.596 49.117C240.606 52.8268 244.401 54.6828 248.981 54.6828C252.8 54.6828 256.344 53.053 259.608 49.7888V54.1541H277.367V45.7074H271.333ZM257.5 43.1889C256.02 44.7171 254.306 45.4812 252.358 45.4812C250.006 45.4812 248.209 44.5394 246.969 42.658C245.729 40.7789 245.109 38.4612 245.109 35.7095C245.109 32.8054 245.736 30.4646 246.99 28.6825C248.241 26.9026 250.017 26.0139 252.321 26.0139C254.243 26.0139 255.957 26.7595 257.463 28.2485C258.967 29.7374 259.721 32.2375 259.721 35.7464C259.721 39.1814 258.981 41.6607 257.5 43.1889Z" fill="#141414"/>
</svg>
