<svg width="126" height="25" viewBox="0 0 126 25" fill="none" xmlns="http://www.w3.org/2000/svg">
<path d="M32.2813 20.2012V24.2251H0V20.2012L11.2892 4.43307H4.67409V8.76487H0.633445V0.410156H19.0219V3.98747L7.3936 20.2012H32.2813Z" fill="#FFFCF5"/>
<path d="M22.1035 24.2252V20.4073H24.7744V4.22811H22.1035V0.410156H30.0476V15.4508L35.7376 10.8196H32.239V7.65223H42.2548V11.0079H40.5941L35.7473 15.1444L40.1649 20.4072H42.4602V24.2251H37.3753L30.0476 15.4508V20.5955H32.0507V24.2251L22.1035 24.2252Z" fill="#FFFCF5"/>
<path d="M44.4971 24.2253V20.2019H47.6816V4.43359H44.4971V0.410156H54.5004L63.2614 15.2604V4.43359H60.1626V0.410156H70.846V4.43359H67.5075V24.3965H62.2L51.9275 6.74495V20.2019H54.9236V24.2253H44.4971Z" fill="#FFFCF5"/>
<path d="M81.3757 24.6031C78.933 24.6031 76.8699 23.83 75.1864 22.2832C73.5027 20.7368 72.6611 18.6167 72.6611 15.9229C72.6611 13.229 73.5027 11.1093 75.1864 9.5625C76.8699 8.01605 78.9329 7.24268 81.3757 7.24268C83.8184 7.24268 85.8955 8.01605 87.5734 9.5625C89.2513 11.1093 90.0902 13.2293 90.0902 15.9229C90.0902 18.5825 89.2598 20.694 87.5991 22.2576C85.9384 23.8214 83.8638 24.6031 81.3757 24.6031ZM81.3585 20.4941C82.34 20.4941 83.1361 20.1174 83.7469 19.3641C84.3574 18.6108 84.6629 17.4294 84.6629 15.8201C84.6629 14.4049 84.3659 13.3006 83.7726 12.5072C83.179 11.714 82.3743 11.3173 81.3585 11.3173C79.1782 11.3173 78.0885 12.8925 78.0885 16.0427C78.0885 17.3326 78.3595 18.3968 78.9017 19.2357C79.4436 20.0747 80.2628 20.4941 81.3585 20.4941Z" fill="#FFFCF5"/>
<path d="M92.8984 11.4708V7.65283H100.706V20.4079H103.171V24.2258H92.8984V20.4079H95.4152V11.4708H92.8984Z" fill="#FFFCF5"/>
<path d="M94.7051 2.90193C94.7051 2.10528 94.9876 1.42258 95.5526 0.853634C96.1175 0.284687 96.7994 0 97.5984 0C98.4088 0 99.0935 0.284687 99.653 0.853634C100.212 1.42268 100.492 2.10538 100.492 2.90193C100.492 3.69848 100.209 4.37856 99.6444 4.94197C99.0795 5.50539 98.3973 5.78683 97.5985 5.78683C96.811 5.78683 96.1317 5.50246 95.5612 4.93341C94.9903 4.36446 94.7052 3.68741 94.7052 2.90193H94.7051Z" fill="#FFFCF5"/>
<path d="M100.796 2.90193C100.796 2.10528 101.057 1.42258 101.578 0.853634C102.099 0.284687 102.728 0 103.466 0C104.214 0 104.845 0.284687 105.362 0.853634C105.877 1.42268 106.136 2.10538 106.136 2.90193C106.136 3.69848 105.875 4.37856 105.354 4.94197C104.832 5.50539 104.203 5.78683 103.466 5.78683C102.739 5.78683 102.112 5.50246 101.586 4.93341C101.059 4.36446 100.796 3.68741 100.796 2.90193Z" fill="#FFFCF5"/>
<path d="M106.44 2.90193C106.44 2.10528 106.647 1.42258 107.061 0.853634C107.475 0.284687 107.974 0 108.56 0C109.154 0 109.656 0.284687 110.066 0.853634C110.475 1.42268 110.68 2.10538 110.68 2.90193C110.68 3.69848 110.473 4.37856 110.059 4.94197C109.645 5.50539 109.145 5.78683 108.56 5.78683C107.983 5.78683 107.485 5.50246 107.067 4.93341C106.648 4.36446 106.44 3.68741 106.44 2.90193Z" fill="#FFFCF5"/>
<path d="M110.985 2.90193C110.985 2.10528 111.141 1.42258 111.452 0.853634C111.764 0.284583 112.14 0 112.58 0C113.027 0 113.404 0.284687 113.712 0.853634C114.021 1.42268 114.175 2.10538 114.175 2.90193C114.175 3.69848 114.019 4.37856 113.708 4.94197C113.396 5.50539 113.02 5.78683 112.58 5.78683C112.146 5.78683 111.772 5.50246 111.457 4.93341C111.143 4.36446 110.985 3.68741 110.985 2.90193Z" fill="#FFFCF5"/>
<path d="M122.414 20.4078V0H114.605V5.78651H117.125V9.4974C115.868 7.99363 114.276 7.24228 112.347 7.24228C110.338 7.24228 108.637 8.0719 107.245 9.73324C105.853 11.3935 105.157 13.4337 105.157 15.8537C105.157 18.2393 105.836 20.2711 107.194 21.9491C108.552 23.6261 110.264 24.4651 112.331 24.4651C114.054 24.4651 115.652 23.7284 117.125 22.2528V24.2261H125.137V20.4078H122.414ZM116.174 19.2692C115.506 19.9601 114.733 20.3055 113.854 20.3055C112.793 20.3055 111.982 19.8797 111.423 19.0292C110.863 18.1798 110.584 17.132 110.584 15.8881C110.584 14.5753 110.867 13.5172 111.432 12.7115C111.997 11.907 112.798 11.5052 113.838 11.5052C114.705 11.5052 115.478 11.8423 116.157 12.5154C116.836 13.1884 117.176 14.3186 117.176 15.9048C117.176 17.4576 116.842 18.5784 116.174 19.2692Z" fill="#FFFCF5"/>
</svg>
